<svg width="404" height="404" viewBox="0 0 404 404" fill="none" xmlns="http://www.w3.org/2000/svg">
<rect width="404" height="404" rx="40" fill="#C03221"/>
<path d="M73.496 106.948C73.496 109.444 73.592 111.46 73.784 112.996C74.04 114.468 74.52 115.652 75.224 116.548C75.928 117.38 76.92 117.956 78.2 118.276C79.544 118.596 81.304 118.788 83.48 118.852V122.5H54.104V118.852C56.216 118.788 57.912 118.596 59.192 118.276C60.536 117.892 61.56 117.316 62.264 116.548C63.032 115.716 63.512 114.596 63.704 113.188C63.96 111.716 64.088 109.86 64.088 107.62V72.388C64.088 68.676 64.056 65.604 63.992 63.172C63.992 60.74 63.896 59.14 63.704 58.372C63.384 56.964 62.424 56.1 60.824 55.78C59.224 55.46 56.824 55.3 53.624 55.3V51.652C56.76 51.524 60.056 51.108 63.512 50.404C67.032 49.636 70.36 48.708 73.496 47.62V106.948Z" fill="white"/>
<path d="M140.676 46.9091V76H136.642L121.855 54.6648H121.585V76H117.196V46.9091H121.259L136.06 68.2727H136.33V46.9091H140.676ZM155.928 76.4403C153.883 76.4403 152.098 75.9716 150.573 75.0341C149.049 74.0966 147.865 72.785 147.022 71.0994C146.179 69.4138 145.758 67.4441 145.758 65.1903C145.758 62.9271 146.179 60.9479 147.022 59.2528C147.865 57.5578 149.049 56.2415 150.573 55.304C152.098 54.3665 153.883 53.8977 155.928 53.8977C157.974 53.8977 159.759 54.3665 161.283 55.304C162.808 56.2415 163.992 57.5578 164.835 59.2528C165.677 60.9479 166.099 62.9271 166.099 65.1903C166.099 67.4441 165.677 69.4138 164.835 71.0994C163.992 72.785 162.808 74.0966 161.283 75.0341C159.759 75.9716 157.974 76.4403 155.928 76.4403ZM155.942 72.875C157.268 72.875 158.367 72.5246 159.238 71.8239C160.109 71.1231 160.753 70.1903 161.17 69.0256C161.596 67.8608 161.809 66.5777 161.809 65.1761C161.809 63.7841 161.596 62.5057 161.17 61.3409C160.753 60.1667 160.109 59.2244 159.238 58.5142C158.367 57.804 157.268 57.4489 155.942 57.4489C154.607 57.4489 153.499 57.804 152.619 58.5142C151.747 59.2244 151.099 60.1667 150.673 61.3409C150.256 62.5057 150.048 63.7841 150.048 65.1761C150.048 66.5777 150.256 67.8608 150.673 69.0256C151.099 70.1903 151.747 71.1231 152.619 71.8239C153.499 72.5246 154.607 72.875 155.942 72.875ZM117.196 124V94.9091H127.565C129.829 94.9091 131.704 95.321 133.19 96.1449C134.677 96.9687 135.79 98.0956 136.528 99.5256C137.267 100.946 137.636 102.546 137.636 104.327C137.636 106.116 137.262 107.726 136.514 109.156C135.776 110.577 134.658 111.704 133.162 112.537C131.675 113.361 129.805 113.773 127.551 113.773H120.42V110.051H127.153C128.583 110.051 129.743 109.805 130.634 109.312C131.524 108.811 132.177 108.129 132.594 107.267C133.01 106.405 133.219 105.425 133.219 104.327C133.219 103.228 133.01 102.253 132.594 101.401C132.177 100.548 131.519 99.8807 130.619 99.3977C129.729 98.9148 128.555 98.6733 127.097 98.6733H121.585V124H117.196ZM151.358 124.44C149.313 124.44 147.527 123.972 146.003 123.034C144.478 122.097 143.295 120.785 142.452 119.099C141.609 117.414 141.188 115.444 141.188 113.19C141.188 110.927 141.609 108.948 142.452 107.253C143.295 105.558 144.478 104.241 146.003 103.304C147.527 102.366 149.313 101.898 151.358 101.898C153.403 101.898 155.188 102.366 156.713 103.304C158.238 104.241 159.421 105.558 160.264 107.253C161.107 108.948 161.528 110.927 161.528 113.19C161.528 115.444 161.107 117.414 160.264 119.099C159.421 120.785 158.238 122.097 156.713 123.034C155.188 123.972 153.403 124.44 151.358 124.44ZM151.372 120.875C152.698 120.875 153.796 120.525 154.668 119.824C155.539 119.123 156.183 118.19 156.599 117.026C157.026 115.861 157.239 114.578 157.239 113.176C157.239 111.784 157.026 110.506 156.599 109.341C156.183 108.167 155.539 107.224 154.668 106.514C153.796 105.804 152.698 105.449 151.372 105.449C150.037 105.449 148.929 105.804 148.048 106.514C147.177 107.224 146.528 108.167 146.102 109.341C145.686 110.506 145.477 111.784 145.477 113.176C145.477 114.578 145.686 115.861 146.102 117.026C146.528 118.19 147.177 119.123 148.048 119.824C148.929 120.525 150.037 120.875 151.372 120.875ZM184.192 102.182L176.28 124H171.734L163.808 102.182H168.368L173.893 118.972H174.121L179.632 102.182H184.192ZM196.844 124.44C194.695 124.44 192.844 123.981 191.29 123.062C189.747 122.134 188.554 120.832 187.711 119.156C186.878 117.471 186.461 115.496 186.461 113.233C186.461 110.998 186.878 109.028 187.711 107.324C188.554 105.619 189.728 104.289 191.234 103.332C192.749 102.376 194.52 101.898 196.546 101.898C197.777 101.898 198.97 102.101 200.126 102.509C201.281 102.916 202.318 103.555 203.237 104.426C204.155 105.297 204.879 106.429 205.41 107.821C205.94 109.204 206.205 110.884 206.205 112.864V114.369H188.862V111.188H202.043C202.043 110.07 201.816 109.08 201.362 108.219C200.907 107.348 200.268 106.661 199.444 106.159C198.629 105.657 197.673 105.406 196.575 105.406C195.381 105.406 194.34 105.7 193.45 106.287C192.569 106.865 191.887 107.622 191.404 108.56C190.931 109.488 190.694 110.496 190.694 111.585V114.071C190.694 115.529 190.95 116.77 191.461 117.793C191.982 118.815 192.706 119.597 193.634 120.136C194.562 120.667 195.647 120.932 196.887 120.932C197.692 120.932 198.426 120.818 199.089 120.591C199.752 120.354 200.325 120.004 200.808 119.54C201.29 119.076 201.66 118.503 201.915 117.821L205.935 118.545C205.613 119.729 205.036 120.766 204.202 121.656C203.379 122.537 202.342 123.223 201.092 123.716C199.851 124.199 198.435 124.44 196.844 124.44ZM210.918 124V102.182H215.023V105.648H215.25C215.648 104.473 216.348 103.55 217.352 102.878C218.366 102.196 219.511 101.855 220.79 101.855C221.055 101.855 221.367 101.865 221.727 101.884C222.097 101.902 222.385 101.926 222.594 101.955V106.017C222.423 105.97 222.12 105.918 221.685 105.861C221.249 105.795 220.813 105.761 220.378 105.761C219.374 105.761 218.479 105.974 217.693 106.401C216.917 106.817 216.301 107.4 215.847 108.148C215.392 108.886 215.165 109.729 215.165 110.676V124H210.918ZM237.743 102.182V105.591H225.825V102.182H237.743ZM229.021 96.9545H233.268V117.594C233.268 118.418 233.392 119.038 233.638 119.455C233.884 119.862 234.201 120.141 234.589 120.293C234.987 120.435 235.418 120.506 235.882 120.506C236.223 120.506 236.521 120.482 236.777 120.435C237.033 120.387 237.232 120.349 237.374 120.321L238.141 123.83C237.894 123.924 237.544 124.019 237.089 124.114C236.635 124.218 236.067 124.275 235.385 124.284C234.268 124.303 233.226 124.104 232.26 123.688C231.294 123.271 230.513 122.627 229.916 121.756C229.32 120.884 229.021 119.791 229.021 118.474V96.9545ZM245.126 132.182C244.491 132.182 243.914 132.13 243.393 132.026C242.872 131.931 242.484 131.827 242.228 131.713L243.251 128.233C244.027 128.441 244.719 128.531 245.325 128.503C245.931 128.474 246.466 128.247 246.93 127.821C247.403 127.395 247.82 126.699 248.18 125.733L248.705 124.284L240.722 102.182H245.268L250.793 119.114H251.021L256.546 102.182H261.106L252.114 126.912C251.698 128.048 251.167 129.009 250.523 129.795C249.879 130.591 249.112 131.188 248.222 131.585C247.332 131.983 246.3 132.182 245.126 132.182Z" fill="white"/>
<path fill-rule="evenodd" clip-rule="evenodd" d="M62.4193 273.015C61.9573 273.365 61.6939 273.946 61.5816 274.514L51.5982 327.443C51.3524 328.743 50.1024 329.598 48.8066 329.352C47.5066 329.106 46.6524 327.856 46.8982 326.56L56.8816 273.631C56.9591 273.236 56.8695 272.803 56.5952 272.508C55.8691 271.729 55.4274 270.687 55.4274 269.543V238.373C55.4274 230.548 61.4149 224.131 69.0399 223.439C69.3065 223.406 69.5732 223.373 69.8982 223.373H94.4732C94.7732 223.373 95.044 223.406 95.2982 223.439C102.94 224.131 108.923 230.548 108.923 238.373V265.492C108.923 266.451 110.561 267.198 111.519 267.198C112.667 267.198 113.662 267.799 114.247 268.7C114.252 268.708 114.263 268.71 114.271 268.705C114.277 268.7 114.283 268.698 114.288 268.704C114.608 269.025 118.675 276.295 120.048 277.648C121.063 278.677 122.01 278.899 122.481 278.94C122.687 278.958 122.893 278.943 123.1 278.943H133.214C133.423 278.943 133.632 278.959 133.839 278.94C134.308 278.897 135.248 278.673 136.265 277.648C137.614 276.299 141.683 269.064 142.014 268.706C142.022 268.699 142.029 268.7 142.039 268.705C142.051 268.71 142.066 268.706 142.073 268.694C142.642 267.797 143.636 267.198 144.794 267.198C145.194 267.198 145.576 267.27 145.929 267.402C146.492 267.612 147.396 267.274 147.569 266.698C147.569 266.696 147.569 266.697 147.57 266.696L156.366 238.04C156.399 237.934 156.432 237.834 156.475 237.732C156.942 236.613 160.145 229.552 166.59 229.552H189.152C195.616 229.552 198.801 236.637 199.257 237.738C199.298 237.836 199.33 237.932 199.362 238.034L208.164 266.682C208.167 266.692 208.171 266.703 208.174 266.713C208.264 267.031 209.609 272.019 205.265 273.298C201.122 274.526 199.658 270.151 199.473 269.532C199.458 269.483 199.445 269.435 199.43 269.386L192.376 245.601C192.338 245.474 192.306 245.345 192.266 245.219C192.121 244.757 191.648 243.641 190.54 243.96C189.228 244.338 189.63 246.129 189.677 246.322C189.68 246.334 189.683 246.345 189.686 246.357L200.35 285.09C201.225 288.27 198.833 291.41 195.534 291.41C192.776 291.41 190.54 293.646 190.54 296.405V323.689C190.54 326.743 188.065 329.227 184.99 329.227C181.911 329.227 179.444 326.743 179.444 323.689V292.987C179.444 292.116 178.738 291.41 177.867 291.41C176.996 291.41 176.29 292.116 176.29 292.987V323.689C176.29 326.743 173.815 329.227 170.748 329.227C167.69 329.227 165.194 326.743 165.194 323.689V296.404C165.194 293.646 162.958 291.41 160.2 291.41C156.902 291.41 154.509 288.269 155.385 285.09L166.056 246.358C166.059 246.345 166.062 246.334 166.065 246.322C166.113 246.126 166.513 244.338 165.194 243.96C164.091 243.642 163.62 244.747 163.473 245.213C163.432 245.343 163.399 245.476 163.36 245.607L156.301 269.382C156.285 269.434 156.271 269.484 156.256 269.536C156.067 270.169 154.606 274.523 150.469 273.298C149.947 273.145 149.508 272.938 149.139 272.692C148.503 272.268 147.342 272.389 147.015 273.08C147.007 273.097 147.01 273.089 147.001 273.105L138.82 287.896C138.778 287.972 138.738 288.049 138.703 288.128C138.566 288.441 138.215 289.321 138.215 290.139V292.556C138.215 292.998 138.274 293.439 138.39 293.866L142.241 308.045C142.595 309.348 141.614 310.631 140.264 310.631C139.132 310.631 138.215 311.548 138.215 312.68V324.86C138.215 327.285 136.252 329.231 133.84 329.231C131.427 329.231 129.469 327.285 129.469 324.86V311.194C129.469 311.172 129.467 311.18 129.469 311.157C129.502 310.879 129.258 310.631 128.977 310.631H127.327C127.046 310.631 126.798 310.878 126.831 311.157C126.834 311.18 126.832 311.172 126.832 311.195V324.86C126.832 327.285 124.886 329.231 122.477 329.231C120.063 329.231 118.111 327.29 118.107 324.868C118.107 324.864 118.103 324.86 118.098 324.86C118.094 324.86 118.09 324.856 118.09 324.852V312.671C118.09 311.544 117.177 310.631 116.05 310.631C114.706 310.631 113.729 309.353 114.082 308.056L117.915 293.963C118.031 293.535 118.09 293.094 118.09 292.651V290.139C118.09 289.314 117.731 288.427 117.595 288.121C117.562 288.047 117.524 287.975 117.485 287.903L108.614 271.852C108.609 271.844 108.609 271.848 108.606 271.839C108.563 271.705 108.368 271.673 108.294 271.794C107.53 273.053 106.147 273.902 104.565 273.902C102.157 273.902 100.202 271.943 100.202 269.543V242.773C100.202 241.768 99.9274 240.41 98.0815 240.41C96.8232 240.41 96.5357 241.756 96.5024 242.61V322.852C96.5024 326.302 93.7065 329.114 90.2357 329.114C86.7732 329.114 83.9774 326.302 83.9774 322.852V276.61C83.9649 276.102 83.769 274.777 82.1732 274.777C80.5774 274.777 80.4065 276.102 80.3815 276.61V322.852C80.3815 326.302 77.5815 329.114 74.1191 329.114C70.6482 329.114 67.8607 326.302 67.8607 322.852V242.61C67.8066 241.756 67.5441 240.41 66.2774 240.41C64.4399 240.41 64.1482 241.768 64.1482 242.773V269.543C64.1482 270.958 63.4699 272.219 62.4193 273.015ZM319.156 207.856C319.156 201.639 324.198 196.606 330.411 196.606C336.611 196.606 341.636 201.639 341.636 207.856C341.636 214.068 336.611 219.102 330.411 219.102C324.198 219.102 319.156 214.068 319.156 207.856ZM343.536 223.439C351.165 224.131 357.144 230.548 357.144 238.373V269.543C357.144 271.943 355.194 273.902 352.79 273.902C350.373 273.902 348.427 271.943 348.427 269.543V242.773C348.427 241.768 348.136 240.41 346.302 240.41C345.031 240.41 344.769 241.756 344.719 242.61V322.852C344.719 326.302 341.927 329.114 338.461 329.114C334.994 329.114 332.186 326.302 332.186 322.852V276.61C332.169 276.102 331.998 274.777 330.411 274.777H330.402C328.806 274.777 328.611 276.102 328.594 276.61V322.852C328.594 326.302 325.802 329.114 322.336 329.114C318.865 329.114 316.073 326.302 316.073 322.852V242.61C316.031 241.756 315.756 240.41 314.498 240.41C312.652 240.41 312.373 241.768 312.373 242.773V269.543C312.373 271.943 310.419 273.902 308.011 273.902C305.598 273.902 303.656 271.943 303.656 269.543V238.373C303.656 230.548 309.64 224.131 317.281 223.439C317.531 223.406 317.806 223.373 318.106 223.373H342.681C343.002 223.373 343.265 223.406 343.536 223.439ZM252.29 213.76C252.29 219.643 247.536 224.41 241.652 224.41C235.765 224.41 230.998 219.643 230.998 213.76C230.998 207.881 235.765 203.102 241.652 203.102C247.536 203.102 252.29 207.881 252.29 213.76ZM220.146 238.038C220.178 237.933 220.211 237.835 220.253 237.734C220.718 236.619 223.917 229.552 230.365 229.552H252.931C259.387 229.552 262.579 236.627 263.04 237.736C263.081 237.836 263.114 237.933 263.146 238.036L271.944 266.684C271.947 266.693 271.949 266.701 271.952 266.711C272.035 267 273.405 272.015 269.044 273.298C264.906 274.525 263.444 270.16 263.257 269.534C263.242 269.483 263.228 269.435 263.213 269.384L256.156 245.607C256.118 245.476 256.085 245.343 256.044 245.213C255.898 244.748 255.426 243.642 254.319 243.96C253.027 244.333 253.39 246.075 253.446 246.312C253.45 246.331 253.455 246.348 253.46 246.367L264.125 285.092C265 288.271 262.609 291.41 259.311 291.41C256.554 291.41 254.319 293.645 254.319 296.403V323.689C254.319 326.743 251.836 329.227 248.761 329.227C245.69 329.227 243.219 326.743 243.219 323.689V292.987C243.219 292.116 242.513 291.41 241.642 291.41C240.771 291.41 240.065 292.116 240.065 292.987V323.689C240.065 326.743 237.59 329.227 234.527 329.227C231.461 329.227 228.973 326.743 228.973 323.689V296.404C228.973 293.646 226.737 291.41 223.979 291.41C220.681 291.41 218.289 288.269 219.165 285.09L229.836 246.367C229.841 246.349 229.846 246.331 229.851 246.312C229.907 246.073 230.268 244.332 228.973 243.96C227.869 243.642 227.398 244.748 227.252 245.213C227.211 245.343 227.179 245.476 227.14 245.607L220.083 269.384C220.068 269.435 220.055 269.483 220.04 269.534C219.853 270.16 218.39 274.525 214.248 273.298C209.912 272.02 211.247 267.041 211.339 266.714C211.342 266.703 211.346 266.692 211.349 266.68L220.146 238.038ZM188.515 213.76C188.515 219.643 183.752 224.41 177.873 224.41C171.986 224.41 167.223 219.643 167.223 213.76C167.223 207.881 171.986 203.102 177.873 203.102C183.752 203.102 188.515 207.881 188.515 213.76ZM288.048 273.356C283.144 273.356 279.186 269.389 279.186 264.485C279.186 259.585 283.144 255.627 288.048 255.627C292.952 255.627 296.906 259.585 296.906 264.485C296.906 269.389 292.952 273.356 288.048 273.356ZM266.791 300.907C266.795 300.898 266.789 300.887 266.779 300.884C266.771 300.882 266.765 300.878 266.766 300.87C266.841 300.407 269.263 294.394 269.986 292.518C275.081 279.414 276.54 277.043 281.156 276.902C285.004 276.787 287.202 276.829 287.833 276.846C287.961 276.849 288.086 276.849 288.214 276.846C288.803 276.829 290.732 276.787 293.619 276.852C297.123 276.952 300.761 276.902 302.761 282.735C303.405 284.623 308.856 297.994 309.053 298.545C309.057 298.556 309.051 298.561 309.042 298.57C309.031 298.581 309.03 298.599 309.039 298.612C309.676 299.517 309.848 300.711 309.386 301.823C308.665 303.543 306.694 304.356 304.99 303.639C304.505 303.443 302.974 299.091 302.855 298.752C302.85 298.736 302.845 298.723 302.84 298.708L299.316 288.897C299.152 288.441 298.669 287.674 298.547 288.142C298.524 288.229 298.511 288.35 298.511 288.514V324.685C298.511 327.202 296.461 329.231 293.952 329.231C291.436 329.231 289.398 327.202 289.398 324.685V310.719C289.398 310.513 289.413 310.308 289.412 310.102C289.407 309.537 289.247 308.393 288.023 308.393C286.807 308.393 286.645 309.517 286.641 310.087C286.639 310.303 286.656 310.518 286.656 310.734V324.685C286.656 327.202 284.627 329.231 282.111 329.231C279.593 329.231 277.57 327.207 277.565 324.696C277.565 324.69 277.56 324.685 277.554 324.685C277.549 324.685 277.544 324.68 277.544 324.675V288.514C277.544 288.32 277.516 288.195 277.47 288.122C277.134 287.584 276.609 288.792 276.419 289.397L272.054 303.32C271.945 303.668 271.803 304.008 271.564 304.284C271.026 304.906 269.834 305.882 268.09 305.081C266.022 304.128 266.361 301.952 266.791 300.907ZM93.419 207.856C93.419 214.068 88.3732 219.102 82.1649 219.102C75.9607 219.102 70.9357 214.068 70.9357 207.856C70.9357 201.639 75.9607 196.606 82.1649 196.606C88.3732 196.606 93.419 201.639 93.419 207.856ZM128.152 273.356C123.252 273.356 119.294 269.389 119.294 264.485C119.294 259.585 123.252 255.627 128.152 255.627C133.057 255.627 137.011 259.585 137.011 264.485C137.011 269.389 133.057 273.356 128.152 273.356Z" fill="white"/>
</svg>
