<svg width="405" height="405" viewBox="0 0 405 405" fill="none" xmlns="http://www.w3.org/2000/svg">
<rect x="0.108032" y="0.216064" width="404" height="404" rx="40" fill="#026C7C"/>
<path d="M73.604 107.164C73.604 109.66 73.7 111.676 73.892 113.212C74.148 114.684 74.628 115.868 75.332 116.764C76.036 117.596 77.028 118.172 78.308 118.492C79.652 118.812 81.412 119.004 83.588 119.068V122.716H54.212V119.068C56.324 119.004 58.02 118.812 59.3 118.492C60.644 118.108 61.668 117.532 62.372 116.764C63.14 115.932 63.62 114.812 63.812 113.404C64.068 111.932 64.196 110.076 64.196 107.836V72.6041C64.196 68.8921 64.164 65.8201 64.1 63.3881C64.1 60.9561 64.004 59.3561 63.812 58.5881C63.492 57.1801 62.532 56.3161 60.932 55.9961C59.332 55.6761 56.932 55.5161 53.732 55.5161V51.8681C56.868 51.7401 60.164 51.3241 63.62 50.6201C67.14 49.8521 70.468 48.9241 73.604 47.8361V107.164ZM81.1198 100.732L114.912 47.8361H117.888V100.924C119.872 100.86 121.44 100.732 122.592 100.54C123.808 100.284 124.704 99.8681 125.28 99.2921C125.92 98.6521 126.336 97.7881 126.528 96.7001C126.72 95.5481 126.816 94.0441 126.816 92.1881H130.176V113.596H126.816C126.816 111.868 126.72 110.46 126.528 109.372C126.336 108.284 125.92 107.452 125.28 106.876C124.704 106.236 123.808 105.82 122.592 105.628C121.44 105.372 119.872 105.212 117.888 105.148V107.164C117.888 109.66 117.984 111.676 118.176 113.212C118.368 114.748 118.72 115.964 119.232 116.86C119.808 117.692 120.576 118.268 121.536 118.588C122.56 118.908 123.872 119.068 125.472 119.068V122.716H98.4958V119.068C100.608 119.068 102.304 118.908 103.584 118.588C104.928 118.268 105.952 117.692 106.656 116.86C107.36 116.028 107.84 114.876 108.096 113.404C108.352 111.932 108.48 110.076 108.48 107.836V105.532H81.1198V100.732ZM108.48 66.5561H108L85.9198 100.732H108.48V66.5561Z" fill="white"/>
<path d="M148.304 76.2161V47.1252H152.693V72.4377H165.875V76.2161H148.304ZM170.541 76.2161V54.3979H174.788V76.2161H170.541ZM172.686 51.0314C171.948 51.0314 171.313 50.7852 170.783 50.2928C170.262 49.7909 170.001 49.1943 170.001 48.503C170.001 47.8022 170.262 47.2056 170.783 46.7132C171.313 46.2113 171.948 45.9604 172.686 45.9604C173.425 45.9604 174.055 46.2113 174.575 46.7132C175.106 47.2056 175.371 47.8022 175.371 48.503C175.371 49.1943 175.106 49.7909 174.575 50.2928C174.055 50.7852 173.425 51.0314 172.686 51.0314ZM190.886 54.3979V57.807H178.556V54.3979H190.886ZM181.937 76.2161V51.8695C181.937 50.5058 182.235 49.3742 182.832 48.4746C183.428 47.5655 184.219 46.8884 185.204 46.4433C186.189 45.9888 187.259 45.7615 188.414 45.7615C189.266 45.7615 189.996 45.8325 190.602 45.9746C191.208 46.1072 191.658 46.2303 191.951 46.3439L190.957 49.7814C190.758 49.7246 190.502 49.6583 190.19 49.5825C189.877 49.4973 189.498 49.4547 189.053 49.4547C188.021 49.4547 187.283 49.7104 186.837 50.2217C186.402 50.7331 186.184 51.4717 186.184 52.4377V76.2161H181.937ZM203.812 76.6564C201.662 76.6564 199.811 76.1971 198.258 75.2786C196.714 74.3505 195.521 73.0485 194.678 71.3723C193.845 69.6867 193.428 67.7123 193.428 65.449C193.428 63.2142 193.845 61.2445 194.678 59.5399C195.521 57.8354 196.695 56.5049 198.201 55.5484C199.716 54.592 201.487 54.1138 203.514 54.1138C204.745 54.1138 205.938 54.3174 207.093 54.7246C208.248 55.1318 209.285 55.771 210.204 56.6422C211.122 57.5134 211.847 58.645 212.377 60.0371C212.908 61.4197 213.173 63.1005 213.173 65.0797V66.5854H195.829V63.4036H209.011C209.011 62.2861 208.783 61.2966 208.329 60.4348C207.874 59.5636 207.235 58.877 206.411 58.3752C205.597 57.8733 204.64 57.6223 203.542 57.6223C202.349 57.6223 201.307 57.9159 200.417 58.503C199.536 59.0806 198.854 59.8382 198.372 60.7757C197.898 61.7038 197.661 62.7123 197.661 63.8013V66.2871C197.661 67.7454 197.917 68.986 198.428 70.0087C198.949 71.0314 199.674 71.8127 200.602 72.3524C201.53 72.8827 202.614 73.1479 203.854 73.1479C204.659 73.1479 205.393 73.0342 206.056 72.807C206.719 72.5702 207.292 72.2199 207.775 71.7558C208.258 71.2918 208.627 70.7189 208.883 70.0371L212.903 70.7615C212.581 71.9452 212.003 72.9822 211.17 73.8723C210.346 74.753 209.309 75.4395 208.059 75.932C206.818 76.4149 205.403 76.6564 203.812 76.6564ZM228.812 76.2161V47.1252H239.465C241.53 47.1252 243.239 47.4661 244.593 48.1479C245.947 48.8202 246.961 49.7341 247.633 50.8894C248.305 52.0352 248.641 53.3278 248.641 54.7672C248.641 55.9793 248.419 57.002 247.974 57.8354C247.529 58.6592 246.932 59.3221 246.184 59.824C245.445 60.3164 244.631 60.6763 243.741 60.9036V61.1877C244.707 61.235 245.649 61.5475 246.568 62.1252C247.496 62.6933 248.263 63.503 248.869 64.5541C249.475 65.6053 249.778 66.8837 249.778 68.3894C249.778 69.8761 249.427 71.2113 248.727 72.395C248.035 73.5693 246.965 74.502 245.516 75.1933C244.068 75.8752 242.216 76.2161 239.962 76.2161H228.812ZM233.201 72.4519H239.536C241.639 72.4519 243.144 72.0447 244.053 71.2303C244.962 70.4159 245.417 69.3979 245.417 68.1763C245.417 67.2577 245.185 66.4149 244.721 65.6479C244.257 64.8808 243.594 64.27 242.732 63.8155C241.88 63.361 240.867 63.1337 239.693 63.1337H233.201V72.4519ZM233.201 59.7104H239.082C240.067 59.7104 240.952 59.521 241.738 59.1422C242.533 58.7634 243.163 58.2331 243.627 57.5513C244.101 56.86 244.337 56.0456 244.337 55.1081C244.337 53.9055 243.916 52.8969 243.073 52.0825C242.23 51.2681 240.938 50.8609 239.195 50.8609H233.201V59.7104ZM264.046 76.6564C261.897 76.6564 260.045 76.1971 258.492 75.2786C256.949 74.3505 255.756 73.0485 254.913 71.3723C254.079 69.6867 253.663 67.7123 253.663 65.449C253.663 63.2142 254.079 61.2445 254.913 59.5399C255.756 57.8354 256.93 56.5049 258.435 55.5484C259.951 54.592 261.721 54.1138 263.748 54.1138C264.979 54.1138 266.172 54.3174 267.327 54.7246C268.483 55.1318 269.52 55.771 270.438 56.6422C271.357 57.5134 272.081 58.645 272.612 60.0371C273.142 61.4197 273.407 63.1005 273.407 65.0797V66.5854H256.063V63.4036H269.245C269.245 62.2861 269.018 61.2966 268.563 60.4348C268.109 59.5636 267.47 58.877 266.646 58.3752C265.831 57.8733 264.875 57.6223 263.776 57.6223C262.583 57.6223 261.542 57.9159 260.651 58.503C259.771 59.0806 259.089 59.8382 258.606 60.7757C258.132 61.7038 257.896 62.7123 257.896 63.8013V66.2871C257.896 67.7454 258.151 68.986 258.663 70.0087C259.184 71.0314 259.908 71.8127 260.836 72.3524C261.764 72.8827 262.848 73.1479 264.089 73.1479C264.894 73.1479 265.628 73.0342 266.291 72.807C266.953 72.5702 267.526 72.2199 268.009 71.7558C268.492 71.2918 268.862 70.7189 269.117 70.0371L273.137 70.7615C272.815 71.9452 272.238 72.9822 271.404 73.8723C270.58 74.753 269.543 75.4395 268.293 75.932C267.053 76.4149 265.637 76.6564 264.046 76.6564ZM282.367 47.1252V76.2161H278.119V47.1252H282.367ZM297.271 76.6564C295.225 76.6564 293.44 76.1877 291.916 75.2502C290.391 74.3127 289.207 73.0011 288.364 71.3155C287.522 69.6299 287.1 67.6602 287.1 65.4064C287.1 63.1431 287.522 61.164 288.364 59.4689C289.207 57.7738 290.391 56.4575 291.916 55.52C293.44 54.5825 295.225 54.1138 297.271 54.1138C299.316 54.1138 301.101 54.5825 302.626 55.52C304.15 56.4575 305.334 57.7738 306.177 59.4689C307.02 61.164 307.441 63.1431 307.441 65.4064C307.441 67.6602 307.02 69.6299 306.177 71.3155C305.334 73.0011 304.15 74.3127 302.626 75.2502C301.101 76.1877 299.316 76.6564 297.271 76.6564ZM297.285 73.0911C298.611 73.0911 299.709 72.7407 300.58 72.0399C301.452 71.3392 302.095 70.4064 302.512 69.2416C302.938 68.0769 303.151 66.7937 303.151 65.3922C303.151 64.0002 302.938 62.7217 302.512 61.557C302.095 60.3827 301.452 59.4405 300.58 58.7303C299.709 58.02 298.611 57.6649 297.285 57.6649C295.95 57.6649 294.842 58.02 293.961 58.7303C293.09 59.4405 292.441 60.3827 292.015 61.557C291.598 62.7217 291.39 64.0002 291.39 65.3922C291.39 66.7937 291.598 68.0769 292.015 69.2416C292.441 70.4064 293.09 71.3392 293.961 72.0399C294.842 72.7407 295.95 73.0911 297.285 73.0911ZM316.248 76.2161L309.827 54.3979H314.217L318.492 70.4206H318.705L322.995 54.3979H327.384L331.646 70.3496H331.859L336.106 54.3979H340.495L334.089 76.2161H329.756L325.325 60.4632H324.998L320.566 76.2161H316.248ZM154 124.216L145.932 95.1252H150.548L156.216 117.654H156.486L162.381 95.1252H166.955L172.85 117.668H173.119L178.773 95.1252H183.403L175.321 124.216H170.903L164.781 102.426H164.554L158.432 124.216H154ZM191.266 124.699C189.883 124.699 188.633 124.443 187.516 123.932C186.398 123.411 185.513 122.658 184.859 121.673C184.216 120.689 183.894 119.481 183.894 118.051C183.894 116.82 184.13 115.807 184.604 115.012C185.077 114.216 185.716 113.586 186.521 113.122C187.326 112.658 188.226 112.308 189.22 112.071C190.215 111.834 191.228 111.655 192.26 111.531C193.567 111.38 194.627 111.257 195.442 111.162C196.256 111.058 196.848 110.892 197.217 110.665C197.587 110.438 197.771 110.068 197.771 109.557V109.458C197.771 108.217 197.421 107.256 196.72 106.574C196.029 105.892 194.997 105.551 193.624 105.551C192.194 105.551 191.067 105.869 190.243 106.503C189.429 107.128 188.865 107.824 188.553 108.591L184.561 107.682C185.035 106.356 185.726 105.286 186.635 104.472C187.554 103.648 188.609 103.051 189.803 102.682C190.996 102.303 192.251 102.114 193.567 102.114C194.438 102.114 195.361 102.218 196.337 102.426C197.322 102.625 198.24 102.994 199.092 103.534C199.954 104.074 200.66 104.846 201.209 105.85C201.758 106.844 202.033 108.137 202.033 109.727V124.216H197.885V121.233H197.715C197.44 121.782 197.028 122.322 196.479 122.852C195.93 123.383 195.224 123.823 194.362 124.173C193.501 124.524 192.468 124.699 191.266 124.699ZM192.189 121.29C193.363 121.29 194.367 121.058 195.2 120.594C196.043 120.13 196.682 119.524 197.118 118.776C197.563 118.018 197.786 117.208 197.786 116.347V113.534C197.634 113.686 197.341 113.828 196.905 113.96C196.479 114.083 195.991 114.192 195.442 114.287C194.893 114.372 194.358 114.453 193.837 114.529C193.316 114.595 192.88 114.652 192.53 114.699C191.706 114.803 190.953 114.978 190.271 115.225C189.599 115.471 189.059 115.826 188.652 116.29C188.254 116.744 188.055 117.351 188.055 118.108C188.055 119.159 188.444 119.955 189.22 120.494C189.997 121.025 190.986 121.29 192.189 121.29ZM217.874 102.398V105.807H205.957V102.398H217.874ZM209.153 97.1706H213.4V117.81C213.4 118.634 213.523 119.254 213.769 119.671C214.015 120.078 214.333 120.357 214.721 120.509C215.119 120.651 215.55 120.722 216.014 120.722C216.354 120.722 216.653 120.698 216.908 120.651C217.164 120.603 217.363 120.565 217.505 120.537L218.272 124.046C218.026 124.14 217.676 124.235 217.221 124.33C216.766 124.434 216.198 124.491 215.516 124.5C214.399 124.519 213.357 124.32 212.391 123.904C211.426 123.487 210.644 122.843 210.048 121.972C209.451 121.101 209.153 120.007 209.153 118.69V97.1706ZM231.742 124.656C229.592 124.656 227.741 124.197 226.188 123.279C224.644 122.351 223.451 121.048 222.608 119.372C221.775 117.687 221.358 115.712 221.358 113.449C221.358 111.214 221.775 109.244 222.608 107.54C223.451 105.835 224.625 104.505 226.131 103.548C227.646 102.592 229.417 102.114 231.443 102.114C232.674 102.114 233.868 102.317 235.023 102.725C236.178 103.132 237.215 103.771 238.134 104.642C239.052 105.513 239.777 106.645 240.307 108.037C240.837 109.42 241.102 111.101 241.102 113.08V114.585H223.759V111.404H236.94C236.94 110.286 236.713 109.297 236.259 108.435C235.804 107.564 235.165 106.877 234.341 106.375C233.527 105.873 232.57 105.622 231.472 105.622C230.278 105.622 229.237 105.916 228.347 106.503C227.466 107.081 226.784 107.838 226.301 108.776C225.828 109.704 225.591 110.712 225.591 111.801V114.287C225.591 115.745 225.847 116.986 226.358 118.009C226.879 119.031 227.603 119.813 228.531 120.352C229.459 120.883 230.544 121.148 231.784 121.148C232.589 121.148 233.323 121.034 233.986 120.807C234.649 120.57 235.222 120.22 235.705 119.756C236.188 119.292 236.557 118.719 236.813 118.037L240.832 118.762C240.51 119.945 239.933 120.982 239.1 121.872C238.276 122.753 237.239 123.44 235.989 123.932C234.748 124.415 233.332 124.656 231.742 124.656ZM245.815 124.216V102.398H249.92V105.864H250.147C250.545 104.69 251.246 103.766 252.249 103.094C253.263 102.412 254.408 102.071 255.687 102.071C255.952 102.071 256.265 102.081 256.624 102.1C256.994 102.119 257.283 102.142 257.491 102.171V106.233C257.32 106.186 257.017 106.134 256.582 106.077C256.146 106.011 255.711 105.977 255.275 105.977C254.271 105.977 253.376 106.19 252.59 106.617C251.814 107.033 251.198 107.616 250.744 108.364C250.289 109.102 250.062 109.945 250.062 110.892V124.216H245.815Z" fill="white"/>
<path fill-rule="evenodd" clip-rule="evenodd" d="M311.604 305.301C311.62 305.321 311.635 305.34 311.65 305.359C311.866 305.628 312.066 305.936 312.066 306.281C312.066 306.626 311.851 306.929 311.644 307.207C311.631 307.224 311.617 307.242 311.604 307.26C306.491 314.151 273.47 356.251 227.179 356.251C195.216 356.251 161.479 333.197 148.997 323.75C146.397 321.783 142.509 322.584 140.729 325.315C134.518 334.843 119.36 353.568 94.9633 356.005C94.7325 356.028 94.4984 356.072 94.2664 356.072C94.028 356.092 93.783 356.105 93.5581 356.023C93.052 355.84 92.6873 355.372 92.6873 354.801C92.6873 354.526 92.7706 354.314 92.8956 354.101L93.1789 353.656C97.3998 346.618 108.333 326.443 108.333 306.281C108.333 286.265 97.5578 266.233 93.2582 259.083C93.2204 259.02 93.1837 258.963 93.1458 258.9C93.0269 258.703 92.761 258.226 92.6873 257.781C92.6123 257.185 93.2581 256.514 93.9498 256.476H94.1539C94.3748 256.476 94.5789 256.518 94.7748 256.518C119.286 258.873 134.504 277.674 140.73 287.228C142.51 289.96 146.398 290.762 148.998 288.794C161.482 279.347 195.217 256.297 227.179 256.297C273.47 256.297 306.491 298.397 311.604 305.301ZM252.921 311.601C260.4 311.601 266.445 305.543 266.445 298.081C266.445 290.622 260.4 284.581 252.921 284.581C245.458 284.581 239.408 290.622 239.408 298.081C239.408 305.543 245.458 311.601 252.921 311.601ZM141.26 218.223C141.01 218.409 140.839 218.665 140.615 218.882C135.164 224.118 114.418 241.172 92.5373 222.143C92.2956 221.901 92.1498 221.589 92.1498 221.21V211.968C92.1498 211.235 92.7498 210.647 93.4831 210.647C93.6559 210.647 93.8166 210.739 93.9713 210.816C94.1127 210.887 94.2608 210.962 94.4123 211.039C101.291 214.485 122.596 222.651 141.946 204.372C141.998 204.325 142.051 204.278 142.104 204.231C142.387 203.978 142.691 203.706 143.071 203.706C143.115 203.706 143.16 203.709 143.204 203.715C143.403 203.745 143.599 203.821 143.77 203.926C144.074 204.112 144.279 204.404 144.564 204.617C151.091 209.477 176.928 226.125 199.962 204.626L200.325 204.281C200.558 204.047 200.904 203.91 201.246 203.91C201.621 203.91 201.958 204.047 202.204 204.281L202.55 204.626C225.638 226.164 251.504 209.416 257.975 204.59C258.238 204.394 258.425 204.136 258.698 203.955C258.898 203.822 259.139 203.722 259.378 203.707C259.395 203.706 259.412 203.706 259.429 203.706C259.82 203.706 260.139 203.975 260.424 204.244C260.469 204.287 260.514 204.329 260.558 204.372C279.9 222.651 301.229 214.485 308.095 211.039C308.242 210.967 308.378 210.897 308.508 210.83C308.678 210.743 308.858 210.647 309.05 210.647C309.779 210.647 310.37 211.235 310.37 211.968V221.21C310.37 221.589 310.212 221.901 309.979 222.143C287.982 241.252 267.181 223.974 261.842 218.816C261.662 218.642 261.522 218.448 261.33 218.288C261.292 218.256 261.252 218.227 261.208 218.197C261.004 218.064 260.754 217.951 260.475 217.951C260.125 217.951 259.816 218.089 259.583 218.318C259.551 218.357 259.512 218.396 259.475 218.431C234.247 242.405 207.821 222.931 202.321 218.376L202.172 218.235C201.912 217.987 201.604 217.776 201.246 217.776C200.909 217.776 200.621 217.98 200.378 218.213L200.208 218.376C194.7 222.935 168.225 242.435 142.987 218.376C142.944 218.342 142.909 218.298 142.868 218.262C142.64 218.067 142.337 217.951 142.025 217.951C141.754 217.951 141.512 218.064 141.296 218.197C141.283 218.206 141.271 218.214 141.26 218.223ZM93.4789 177.114C93.6516 177.114 93.8093 177.212 93.9627 177.291C94.1059 177.365 94.2565 177.439 94.4123 177.514C101.291 180.96 122.6 189.147 141.946 170.839C141.997 170.794 142.05 170.749 142.102 170.703C142.385 170.456 142.69 170.181 143.066 170.181C143.091 170.181 143.114 170.182 143.138 170.184C143.373 170.203 143.618 170.283 143.809 170.421C144.077 170.615 144.267 170.862 144.532 171.06C151.007 175.893 176.891 192.623 199.958 171.093L200.325 170.756C200.554 170.539 200.9 170.36 201.25 170.36C201.625 170.36 201.958 170.539 202.204 170.756L202.55 171.093C225.613 192.607 251.448 175.917 257.957 171.07C258.231 170.866 258.431 170.61 258.712 170.414C258.901 170.282 259.14 170.201 259.37 170.183C259.39 170.182 259.409 170.181 259.429 170.181C259.814 170.181 260.133 170.45 260.416 170.712C260.463 170.755 260.509 170.797 260.554 170.839C279.904 189.147 301.22 180.96 308.091 177.514C308.24 177.445 308.376 177.377 308.505 177.309C308.677 177.219 308.855 177.114 309.05 177.114C309.783 177.114 310.362 177.71 310.362 178.456V187.668C310.362 188.051 310.208 188.393 309.975 188.622C287.612 208.039 266.475 189.843 261.583 185.039C261.466 184.893 261.362 184.751 261.208 184.664C261.004 184.522 260.75 184.422 260.479 184.422C260.146 184.422 259.847 184.543 259.614 184.745C259.591 184.765 259.568 184.795 259.545 184.817C259.531 184.831 259.521 184.842 259.507 184.856C234.276 208.915 207.819 189.413 202.316 184.835L202.172 184.703C201.909 184.462 201.607 184.239 201.25 184.239C200.906 184.239 200.617 184.457 200.363 184.689L200.204 184.835C194.7 189.41 168.275 208.892 143.053 184.898C143.01 184.857 142.958 184.822 142.921 184.776C142.691 184.556 142.366 184.422 142.021 184.422C141.75 184.422 141.508 184.522 141.291 184.664C141.283 184.669 141.274 184.675 141.266 184.68C140.996 184.859 140.835 185.145 140.601 185.369C135.125 190.613 114.4 207.619 92.5373 188.622C92.2956 188.393 92.1498 188.051 92.1498 187.668V178.456C92.1498 177.71 92.7456 177.114 93.4789 177.114Z" fill="white"/>
</svg>
