<svg width="405" height="405" viewBox="0 0 405 405" fill="none" xmlns="http://www.w3.org/2000/svg">
<rect x="0.216064" y="0.216064" width="404" height="404" rx="40" fill="#009245"/>
<path d="M73.7121 107.164C73.7121 109.66 73.8081 111.676 74.0001 113.212C74.2561 114.684 74.7361 115.868 75.4401 116.764C76.1441 117.596 77.1361 118.172 78.4161 118.492C79.7601 118.812 81.5201 119.004 83.6961 119.068V122.716H54.3201V119.068C56.4321 119.004 58.1281 118.812 59.4081 118.492C60.7521 118.108 61.7761 117.532 62.4801 116.764C63.2481 115.932 63.7281 114.812 63.9201 113.404C64.1761 111.932 64.3041 110.076 64.3041 107.836V72.6041C64.3041 68.8921 64.2721 65.8201 64.2081 63.3881C64.2081 60.9561 64.1121 59.3561 63.9201 58.5881C63.6001 57.1801 62.6401 56.3161 61.0401 55.9961C59.4401 55.6761 57.0401 55.5161 53.8401 55.5161V51.8681C56.9761 51.7401 60.2721 51.3241 63.7281 50.6201C67.2481 49.8521 70.5761 48.9241 73.7121 47.8361V107.164ZM98.5078 76.4441L98.6998 76.7321C99.6598 76.0281 101.068 75.4521 102.924 75.0041C104.78 74.4921 106.636 74.2361 108.492 74.2361C111.308 74.2361 113.932 74.8121 116.364 75.9641C118.796 77.0521 120.876 78.5881 122.604 80.5721C124.396 82.5561 125.804 84.9241 126.828 87.6761C127.852 90.3641 128.364 93.2761 128.364 96.4121C128.364 100.252 127.628 103.836 126.156 107.164C124.748 110.428 122.764 113.308 120.204 115.804C117.708 118.236 114.732 120.156 111.276 121.564C107.884 122.972 104.204 123.676 100.236 123.676C97.5478 123.676 95.0518 123.356 92.7478 122.716C90.4438 122.012 88.4598 121.084 86.7958 119.932C85.1958 118.78 83.9158 117.404 82.9558 115.804C82.0598 114.14 81.6118 112.348 81.6118 110.428C81.6118 108.7 81.9958 107.356 82.7638 106.396C83.5958 105.436 84.7478 104.956 86.2198 104.956C87.5638 104.956 88.5558 105.308 89.1958 106.012C89.8998 106.716 90.4438 107.612 90.8278 108.7C91.2118 109.788 91.5638 110.972 91.8838 112.252C92.2038 113.468 92.6518 114.62 93.2278 115.708C93.8678 116.796 94.7318 117.692 95.8198 118.396C96.9718 119.1 98.5398 119.452 100.524 119.452C103.02 119.452 105.26 118.876 107.244 117.724C109.228 116.508 110.892 114.812 112.236 112.636C113.58 110.396 114.604 107.74 115.308 104.668C116.076 101.532 116.46 98.0441 116.46 94.2041C116.46 88.7641 115.692 84.7641 114.156 82.2041C112.684 79.6441 110.188 78.3641 106.668 78.3641C103.98 78.3641 101.772 79.1001 100.044 80.5721C98.3798 81.9801 97.0038 84.2841 95.9158 87.4841C95.5318 88.6361 95.1798 89.3721 94.8598 89.6921C94.5398 90.0121 94.1238 90.1721 93.6118 90.1721C92.2038 90.1721 91.4998 89.5321 91.4998 88.2521C91.4998 87.9321 91.5318 87.6761 91.5958 87.4841L101.868 47.8361C103.276 48.4121 104.876 48.8601 106.668 49.1801C108.46 49.4361 110.604 49.5641 113.1 49.5641C119.052 49.5641 123.308 48.9561 125.868 47.7401L126.444 47.8361C125.676 51.4841 123.98 54.3001 121.356 56.2841C118.796 58.2681 115.5 59.2601 111.468 59.2601H103.02L98.5078 76.4441Z" fill="white"/>
<path d="M146.412 76.2161V47.1252H150.801V72.4377H163.983V76.2161H146.412ZM168.649 76.2161V54.3979H172.896V76.2161H168.649ZM170.794 51.0314C170.056 51.0314 169.421 50.7852 168.891 50.2928C168.37 49.7909 168.11 49.1943 168.11 48.503C168.11 47.8022 168.37 47.2056 168.891 46.7132C169.421 46.2113 170.056 45.9604 170.794 45.9604C171.533 45.9604 172.163 46.2113 172.683 46.7132C173.214 47.2056 173.479 47.8022 173.479 48.503C173.479 49.1943 173.214 49.7909 172.683 50.2928C172.163 50.7852 171.533 51.0314 170.794 51.0314ZM188.994 54.3979V57.807H176.664V54.3979H188.994ZM180.045 76.2161V51.8695C180.045 50.5058 180.343 49.3742 180.94 48.4746C181.536 47.5655 182.327 46.8884 183.312 46.4433C184.297 45.9888 185.367 45.7615 186.522 45.7615C187.374 45.7615 188.104 45.8325 188.71 45.9746C189.316 46.1072 189.766 46.2303 190.059 46.3439L189.065 49.7814C188.866 49.7246 188.61 49.6583 188.298 49.5825C187.985 49.4973 187.606 49.4547 187.161 49.4547C186.129 49.4547 185.391 49.7104 184.945 50.2217C184.51 50.7331 184.292 51.4717 184.292 52.4377V76.2161H180.045ZM201.92 76.6564C199.77 76.6564 197.919 76.1971 196.366 75.2786C194.822 74.3505 193.629 73.0485 192.786 71.3723C191.953 69.6867 191.536 67.7123 191.536 65.449C191.536 63.2142 191.953 61.2445 192.786 59.5399C193.629 57.8354 194.803 56.5049 196.309 55.5484C197.824 54.592 199.595 54.1138 201.622 54.1138C202.853 54.1138 204.046 54.3174 205.201 54.7246C206.356 55.1318 207.393 55.771 208.312 56.6422C209.231 57.5134 209.955 58.645 210.485 60.0371C211.016 61.4197 211.281 63.1005 211.281 65.0797V66.5854H193.937V63.4036H207.119C207.119 62.2861 206.891 61.2966 206.437 60.4348C205.982 59.5636 205.343 58.877 204.519 58.3752C203.705 57.8733 202.748 57.6223 201.65 57.6223C200.457 57.6223 199.415 57.9159 198.525 58.503C197.644 59.0806 196.963 59.8382 196.48 60.7757C196.006 61.7038 195.769 62.7123 195.769 63.8013V66.2871C195.769 67.7454 196.025 68.986 196.536 70.0087C197.057 71.0314 197.782 71.8127 198.71 72.3524C199.638 72.8827 200.722 73.1479 201.963 73.1479C202.767 73.1479 203.501 73.0342 204.164 72.807C204.827 72.5702 205.4 72.2199 205.883 71.7558C206.366 71.2918 206.735 70.7189 206.991 70.0371L211.011 70.7615C210.689 71.9452 210.111 72.9822 209.278 73.8723C208.454 74.753 207.417 75.4395 206.167 75.932C204.927 76.4149 203.511 76.6564 201.92 76.6564ZM171.682 109.671C171.682 112.777 171.114 115.447 169.977 117.682C168.841 119.907 167.283 121.621 165.304 122.824C163.334 124.017 161.095 124.614 158.585 124.614C156.066 124.614 153.817 124.017 151.838 122.824C149.869 121.621 148.315 119.903 147.179 117.668C146.043 115.433 145.475 112.767 145.475 109.671C145.475 106.565 146.043 103.899 147.179 101.673C148.315 99.4386 149.869 97.7246 151.838 96.5314C153.817 95.3288 156.066 94.7274 158.585 94.7274C161.095 94.7274 163.334 95.3288 165.304 96.5314C167.283 97.7246 168.841 99.4386 169.977 101.673C171.114 103.899 171.682 106.565 171.682 109.671ZM167.335 109.671C167.335 107.303 166.952 105.31 166.185 103.69C165.427 102.062 164.386 100.831 163.06 99.9973C161.744 99.1545 160.252 98.7331 158.585 98.7331C156.909 98.7331 155.413 99.1545 154.097 99.9973C152.78 100.831 151.739 102.062 150.972 103.69C150.214 105.31 149.835 107.303 149.835 109.671C149.835 112.038 150.214 114.036 150.972 115.665C151.739 117.284 152.78 118.515 154.097 119.358C155.413 120.191 156.909 120.608 158.585 120.608C160.252 120.608 161.744 120.191 163.06 119.358C164.386 118.515 165.427 117.284 166.185 115.665C166.952 114.036 167.335 112.038 167.335 109.671ZM181.061 111.262V124.216H176.813V102.398H180.89V105.949H181.16C181.662 104.794 182.448 103.866 183.518 103.165C184.597 102.464 185.956 102.114 187.595 102.114C189.081 102.114 190.383 102.426 191.501 103.051C192.618 103.667 193.485 104.585 194.1 105.807C194.716 107.029 195.024 108.539 195.024 110.338V124.216H190.776V110.85C190.776 109.268 190.365 108.032 189.541 107.142C188.717 106.243 187.585 105.793 186.146 105.793C185.161 105.793 184.285 106.006 183.518 106.432C182.76 106.858 182.159 107.483 181.714 108.307C181.278 109.121 181.061 110.106 181.061 111.262ZM211.646 124.216V95.1252H216.036V120.438H229.217V124.216H211.646ZM240.233 124.699C238.851 124.699 237.601 124.443 236.483 123.932C235.366 123.411 234.48 122.658 233.827 121.673C233.183 120.689 232.861 119.481 232.861 118.051C232.861 116.82 233.098 115.807 233.571 115.012C234.045 114.216 234.684 113.586 235.489 113.122C236.294 112.658 237.193 112.308 238.188 112.071C239.182 111.834 240.195 111.655 241.227 111.531C242.534 111.38 243.595 111.257 244.409 111.162C245.224 111.058 245.815 110.892 246.185 110.665C246.554 110.438 246.739 110.068 246.739 109.557V109.458C246.739 108.217 246.388 107.256 245.688 106.574C244.996 105.892 243.964 105.551 242.591 105.551C241.161 105.551 240.034 105.869 239.21 106.503C238.396 107.128 237.833 107.824 237.52 108.591L233.529 107.682C234.002 106.356 234.693 105.286 235.602 104.472C236.521 103.648 237.577 103.051 238.77 102.682C239.963 102.303 241.218 102.114 242.534 102.114C243.405 102.114 244.329 102.218 245.304 102.426C246.289 102.625 247.208 102.994 248.06 103.534C248.922 104.074 249.627 104.846 250.176 105.85C250.726 106.844 251 108.137 251 109.727V124.216H246.852V121.233H246.682C246.407 121.782 245.995 122.322 245.446 122.852C244.897 123.383 244.191 123.823 243.33 124.173C242.468 124.524 241.436 124.699 240.233 124.699ZM241.156 121.29C242.331 121.29 243.334 121.058 244.168 120.594C245.011 120.13 245.65 119.524 246.085 118.776C246.53 118.018 246.753 117.208 246.753 116.347V113.534C246.601 113.686 246.308 113.828 245.872 113.96C245.446 114.083 244.958 114.192 244.409 114.287C243.86 114.372 243.325 114.453 242.804 114.529C242.283 114.595 241.848 114.652 241.497 114.699C240.673 114.803 239.921 114.978 239.239 115.225C238.566 115.471 238.027 115.826 237.619 116.29C237.222 116.744 237.023 117.351 237.023 118.108C237.023 119.159 237.411 119.955 238.188 120.494C238.964 121.025 239.954 121.29 241.156 121.29ZM260.904 111.262V124.216H256.657V102.398H260.734V105.949H261.004C261.506 104.794 262.292 103.866 263.362 103.165C264.441 102.464 265.8 102.114 267.438 102.114C268.925 102.114 270.227 102.426 271.345 103.051C272.462 103.667 273.329 104.585 273.944 105.807C274.56 107.029 274.867 108.539 274.867 110.338V124.216H270.62V110.85C270.62 109.268 270.208 108.032 269.384 107.142C268.561 106.243 267.429 105.793 265.99 105.793C265.005 105.793 264.129 106.006 263.362 106.432C262.604 106.858 262.003 107.483 261.558 108.307C261.122 109.121 260.904 110.106 260.904 111.262ZM288.731 124.642C286.97 124.642 285.398 124.192 284.015 123.293C282.642 122.384 281.562 121.091 280.776 119.415C280 117.729 279.612 115.708 279.612 113.35C279.612 110.992 280.005 108.975 280.791 107.298C281.586 105.622 282.675 104.339 284.058 103.449C285.44 102.559 287.007 102.114 288.759 102.114C290.114 102.114 291.203 102.341 292.026 102.796C292.86 103.241 293.504 103.762 293.958 104.358C294.422 104.955 294.782 105.48 295.038 105.935H295.293V95.1252H299.541V124.216H295.393V120.821H295.038C294.782 121.285 294.413 121.815 293.93 122.412C293.456 123.009 292.803 123.53 291.97 123.975C291.136 124.42 290.057 124.642 288.731 124.642ZM289.668 121.02C290.89 121.02 291.922 120.698 292.765 120.054C293.617 119.401 294.261 118.496 294.697 117.341C295.142 116.186 295.365 114.841 295.365 113.307C295.365 111.792 295.147 110.466 294.711 109.33C294.275 108.193 293.636 107.308 292.793 106.673C291.951 106.039 290.909 105.722 289.668 105.722C288.39 105.722 287.325 106.053 286.472 106.716C285.62 107.379 284.976 108.283 284.541 109.429C284.115 110.575 283.901 111.868 283.901 113.307C283.901 114.765 284.119 116.077 284.555 117.242C284.99 118.406 285.634 119.33 286.487 120.012C287.348 120.684 288.409 121.02 289.668 121.02Z" fill="white"/>
<path fill-rule="evenodd" clip-rule="evenodd" d="M169.393 278.874C169.889 278.874 170.289 279.279 170.289 279.774V309.349C170.289 309.854 169.889 310.249 169.393 310.249H157.422C156.926 310.249 156.526 309.854 156.526 309.349V279.774C156.526 279.279 156.926 278.874 157.422 278.874H169.393ZM300.835 322.949C301.322 322.949 301.739 323.374 301.739 323.874V335.933C301.739 336.42 301.322 336.82 300.835 336.82H103.593C103.101 336.82 102.693 336.42 102.693 335.933V323.874C102.693 323.374 103.101 322.949 103.593 322.949H300.835ZM300.835 346.908C301.322 346.908 301.739 347.304 301.739 347.795V359.887C301.739 360.37 301.322 360.779 300.835 360.779H103.593C103.101 360.779 102.693 360.37 102.693 359.887V347.795C102.693 347.304 103.101 346.908 103.593 346.908H300.835ZM260.061 243.908C262.037 245.104 264.56 245.096 266.534 243.897C269.829 241.896 274.731 239.699 280.33 239.699C286.155 239.699 291.543 242.02 296.36 246.612C296.697 246.924 296.889 247.379 296.889 247.829V248.783C296.889 249.545 296.376 250.199 295.647 250.408C295.168 250.524 294.668 250.424 294.493 250.37C294.212 250.271 293.972 250.147 293.762 250.003C293.506 249.825 293.274 249.611 292.997 249.467C291.733 248.812 289.106 248.062 285.485 248.062C281.305 248.062 273.11 249.179 265.13 256.591L264.968 256.758C264.564 257.195 263.922 257.454 263.301 257.454C262.647 257.454 262.031 257.199 261.585 256.741L261.401 256.579C253.468 249.179 245.26 248.062 241.081 248.062C237.494 248.062 234.865 248.807 233.597 249.461C233.311 249.608 233.074 249.83 232.81 250.013C232.618 250.145 232.41 250.252 232.193 250.329C232.081 250.37 231.939 250.408 231.826 250.424C231.314 250.545 230.864 250.424 230.435 250.099C230.047 249.774 229.872 249.279 229.872 248.749V247.674C229.872 247.204 230.064 246.762 230.401 246.441C235.172 241.966 240.506 239.708 246.239 239.708C251.863 239.708 256.777 241.921 260.061 243.908ZM251.06 167.524C253.535 166.279 256.018 165.654 258.456 165.654C263.227 165.654 266.878 168.035 269.279 170.312C270.887 171.838 273.176 172.52 275.355 172.111C276.421 171.911 277.605 171.774 278.855 171.774C282.847 171.774 288.405 173.166 292.235 179.816C292.385 180.058 292.464 180.354 292.464 180.662C292.464 180.833 292.443 180.995 292.397 181.141L292.23 181.724C292.101 182.162 291.797 182.533 291.393 182.733C291.139 182.866 290.88 182.929 290.61 182.929C290.551 182.929 290.489 182.929 290.435 182.92C290.335 182.912 290.23 182.899 290.143 182.879C289.964 182.816 289.668 182.666 289.501 182.57C289.398 182.493 289.299 182.407 289.207 182.315C288.923 182.03 288.712 181.676 288.394 181.429C287.161 180.47 284.147 178.954 279.847 178.954C276.905 178.954 273.922 179.691 271.047 181.133L270.918 181.195C270.656 181.341 270.289 181.441 269.922 181.441C269.739 181.441 269.447 181.391 269.293 181.341C268.764 181.204 268.318 180.849 268.03 180.333L267.964 180.204C262.71 171.27 254.755 170.999 253.872 170.999C253.601 170.999 253.379 171.017 253.201 171.039C252.853 171.083 252.528 171.239 252.187 171.319C252.118 171.335 252.049 171.348 251.978 171.358C251.812 171.38 251.642 171.389 251.476 171.366C250.997 171.345 250.564 171.104 250.26 170.704C249.947 170.287 249.851 169.737 249.997 169.22L250.197 168.562C250.339 168.104 250.639 167.72 251.06 167.524ZM209.385 197.87C209.364 197.408 209.526 196.949 209.843 196.608C213.885 192.32 218.589 190.141 223.835 190.141C227.653 190.141 231.108 191.342 233.653 192.581C235.7 193.577 238.169 193.422 240.075 192.178C242.919 190.323 247.01 188.404 251.76 188.404C256.218 188.404 260.451 190.066 264.376 193.366C264.726 193.67 264.939 194.083 264.968 194.541L265.014 195.312C265.064 196.074 264.601 196.762 263.893 197.008C263.768 197.049 263.61 197.095 263.48 197.108C263.168 197.141 262.876 197.091 262.76 197.062C262.528 197 262.323 196.915 262.14 196.813C261.852 196.651 261.593 196.441 261.286 196.319C260.387 195.961 258.751 195.587 256.593 195.587C252.955 195.587 245.876 196.624 239.301 203.579L239.168 203.729C238.814 204.141 238.239 204.424 237.618 204.474H237.472C236.918 204.474 236.376 204.266 235.951 203.899L235.814 203.758C229.876 198.883 224.051 197.858 220.218 197.858C216.89 197.858 214.458 198.629 213.259 199.234C212.872 199.43 212.576 199.764 212.214 200.003C212.099 200.079 211.975 200.145 211.843 200.199C211.76 200.229 211.651 200.266 211.556 200.287C211.118 200.416 210.618 200.333 210.231 200.087C209.76 199.791 209.468 199.312 209.443 198.758L209.385 197.87ZM109.572 213.704C109.572 201.891 119.147 192.32 130.956 192.32C131.718 192.32 132.369 191.778 132.462 191.021C134.218 176.729 146.373 165.654 161.147 165.654C177.126 165.654 190.081 178.604 190.081 194.583C190.081 196.879 189.805 199.107 189.292 201.243C188.538 204.384 190.209 207.857 193.165 209.16C204.532 214.168 212.472 225.519 212.472 238.733C212.472 256.591 197.997 271.066 180.143 271.066C178.844 271.066 137.3 270.818 136.995 270.816C136.985 270.816 136.988 270.816 136.979 270.816C124.34 270.804 114.097 260.565 114.097 247.924C114.097 244.119 115.032 240.54 116.679 237.389C118.175 234.527 117.604 230.691 115.389 228.342C111.785 224.518 109.572 219.373 109.572 213.704Z" fill="white"/>
</svg>
