<svg width="405" height="405" viewBox="0 0 405 405" fill="none" xmlns="http://www.w3.org/2000/svg">
<rect x="0.108032" y="0.108032" width="404" height="404" rx="40" fill="#C03221"/>
<path d="M72.932 87.568C69.284 89.616 66.532 92.144 64.676 95.152C62.82 98.096 61.892 101.392 61.892 105.04C61.892 109.392 63.172 112.848 65.732 115.408C68.356 117.904 71.876 119.152 76.292 119.152C80.708 119.152 84.196 117.936 86.756 115.504C89.38 113.008 90.692 109.648 90.692 105.424C90.692 104.016 90.468 102.704 90.02 101.488C89.636 100.272 88.964 99.088 88.004 97.936C87.108 96.784 85.892 95.632 84.356 94.48C82.82 93.328 80.932 92.112 78.692 90.832L72.932 87.568ZM84.068 81.04C94.308 86.48 99.428 93.552 99.428 102.256C99.428 105.264 98.82 108.08 97.604 110.704C96.452 113.264 94.82 115.504 92.708 117.424C90.596 119.344 88.1 120.848 85.22 121.936C82.34 123.024 79.236 123.568 75.908 123.568C72.644 123.568 69.604 123.12 66.788 122.224C63.972 121.264 61.508 119.984 59.396 118.384C57.348 116.72 55.716 114.768 54.5 112.528C53.348 110.288 52.772 107.888 52.772 105.328C52.772 97.328 58.148 90.736 68.9 85.552C59.876 80.688 55.364 74.48 55.364 66.928C55.364 64.304 55.876 61.808 56.9 59.44C57.988 57.072 59.524 54.96 61.508 53.104C65.412 49.52 70.212 47.728 75.908 47.728C80.9 47.728 85.38 49.072 89.348 51.76C91.716 53.424 93.508 55.376 94.724 57.616C96.004 59.792 96.644 62.16 96.644 64.72C96.644 67.984 95.652 70.992 93.668 73.744C91.684 76.496 88.484 78.928 84.068 81.04ZM80.036 79.024C82.788 77.168 84.9 75.056 86.372 72.688C87.908 70.32 88.676 67.824 88.676 65.2C88.676 63.344 88.324 61.616 87.62 60.016C86.98 58.416 86.052 57.04 84.836 55.888C83.684 54.672 82.308 53.744 80.708 53.104C79.108 52.4 77.348 52.048 75.428 52.048C71.844 52.048 68.964 53.072 66.788 55.12C64.676 57.168 63.62 59.856 63.62 63.184C63.62 65.744 64.548 68.08 66.404 70.192C68.26 72.24 71.3 74.384 75.524 76.624L80.036 79.024Z" fill="white"/>
<path d="M133.304 76.108V47.0171H151.543V50.7955H137.693V59.6592H150.591V63.4234H137.693V72.3296H151.713V76.108H133.304ZM166.255 76.5484C164.143 76.5484 162.325 76.0702 160.801 75.1137C159.285 74.1478 158.121 72.8173 157.306 71.1222C156.492 69.4272 156.085 67.4859 156.085 65.2984C156.085 63.0825 156.501 61.127 157.335 59.4319C158.168 57.7273 159.342 56.3969 160.857 55.4404C162.372 54.484 164.158 54.0058 166.212 54.0058C167.87 54.0058 169.347 54.3135 170.644 54.9291C171.942 55.5351 172.988 56.3874 173.783 57.4859C174.588 58.5844 175.067 59.8675 175.218 61.3353H171.085C170.857 60.3126 170.336 59.4319 169.522 58.6933C168.717 57.9546 167.638 57.5853 166.283 57.5853C165.1 57.5853 164.063 57.8978 163.173 58.5228C162.292 59.1383 161.605 60.019 161.113 61.1648C160.621 62.3012 160.374 63.6459 160.374 65.1989C160.374 66.7899 160.616 68.163 161.099 69.3183C161.582 70.4736 162.264 71.3684 163.144 72.0029C164.034 72.6374 165.081 72.9546 166.283 72.9546C167.088 72.9546 167.818 72.8078 168.471 72.5143C169.134 72.2113 169.688 71.7804 170.133 71.2217C170.587 70.663 170.905 69.9906 171.085 69.2046H175.218C175.067 70.6156 174.607 71.8751 173.84 72.983C173.073 74.091 172.046 74.9622 170.758 75.5967C169.479 76.2311 167.979 76.5484 166.255 76.5484ZM188.95 76.5484C186.905 76.5484 185.12 76.0796 183.595 75.1421C182.071 74.2046 180.887 72.8931 180.044 71.2075C179.201 69.5219 178.78 67.5522 178.78 65.2984C178.78 63.0351 179.201 61.0559 180.044 59.3609C180.887 57.6658 182.071 56.3495 183.595 55.412C185.12 54.4745 186.905 54.0058 188.95 54.0058C190.996 54.0058 192.781 54.4745 194.305 55.412C195.83 56.3495 197.014 57.6658 197.857 59.3609C198.699 61.0559 199.121 63.0351 199.121 65.2984C199.121 67.5522 198.699 69.5219 197.857 71.2075C197.014 72.8931 195.83 74.2046 194.305 75.1421C192.781 76.0796 190.996 76.5484 188.95 76.5484ZM188.965 72.983C190.29 72.983 191.389 72.6327 192.26 71.9319C193.131 71.2311 193.775 70.2984 194.192 69.1336C194.618 67.9688 194.831 66.6857 194.831 65.2842C194.831 63.8921 194.618 62.6137 194.192 61.4489C193.775 60.2747 193.131 59.3325 192.26 58.6222C191.389 57.912 190.29 57.5569 188.965 57.5569C187.629 57.5569 186.521 57.912 185.641 58.6222C184.769 59.3325 184.121 60.2747 183.695 61.4489C183.278 62.6137 183.07 63.8921 183.07 65.2842C183.07 66.6857 183.278 67.9688 183.695 69.1336C184.121 70.2984 184.769 71.2311 185.641 71.9319C186.521 72.6327 187.629 72.983 188.965 72.983ZM208.109 63.1535V76.108H203.862V54.2898H207.938V57.841H208.208C208.71 56.6857 209.496 55.7577 210.566 55.0569C211.646 54.3561 213.005 54.0058 214.643 54.0058C216.13 54.0058 217.432 54.3183 218.549 54.9433C219.667 55.5588 220.533 56.4774 221.149 57.6989C221.764 58.9205 222.072 60.4309 222.072 62.2302V76.108H217.825V62.7416C217.825 61.1601 217.413 59.9243 216.589 59.0342C215.765 58.1345 214.633 57.6847 213.194 57.6847C212.209 57.6847 211.333 57.8978 210.566 58.3239C209.809 58.7501 209.207 59.3751 208.762 60.1989C208.327 61.0133 208.109 61.9982 208.109 63.1535ZM236.958 76.5484C234.913 76.5484 233.128 76.0796 231.603 75.1421C230.078 74.2046 228.895 72.8931 228.052 71.2075C227.209 69.5219 226.788 67.5522 226.788 65.2984C226.788 63.0351 227.209 61.0559 228.052 59.3609C228.895 57.6658 230.078 56.3495 231.603 55.412C233.128 54.4745 234.913 54.0058 236.958 54.0058C239.004 54.0058 240.789 54.4745 242.313 55.412C243.838 56.3495 245.022 57.6658 245.864 59.3609C246.707 61.0559 247.129 63.0351 247.129 65.2984C247.129 67.5522 246.707 69.5219 245.864 71.2075C245.022 72.8931 243.838 74.2046 242.313 75.1421C240.789 76.0796 239.004 76.5484 236.958 76.5484ZM236.972 72.983C238.298 72.983 239.397 72.6327 240.268 71.9319C241.139 71.2311 241.783 70.2984 242.2 69.1336C242.626 67.9688 242.839 66.6857 242.839 65.2842C242.839 63.8921 242.626 62.6137 242.2 61.4489C241.783 60.2747 241.139 59.3325 240.268 58.6222C239.397 57.912 238.298 57.5569 236.972 57.5569C235.637 57.5569 234.529 57.912 233.649 58.6222C232.777 59.3325 232.129 60.2747 231.702 61.4489C231.286 62.6137 231.077 63.8921 231.077 65.2842C231.077 66.6857 231.286 67.9688 231.702 69.1336C232.129 70.2984 232.777 71.2311 233.649 71.9319C234.529 72.6327 235.637 72.983 236.972 72.983ZM251.869 76.108V54.2898H255.946V57.841H256.216C256.671 56.6383 257.414 55.7008 258.446 55.0285C259.478 54.3467 260.714 54.0058 262.153 54.0058C263.612 54.0058 264.833 54.3467 265.818 55.0285C266.813 55.7103 267.546 56.6478 268.02 57.841H268.247C268.768 56.6762 269.597 55.7482 270.733 55.0569C271.869 54.3561 273.224 54.0058 274.796 54.0058C276.775 54.0058 278.389 54.626 279.639 55.8666C280.899 57.1071 281.528 58.9773 281.528 61.4773V76.108H277.281V61.8751C277.281 60.3978 276.879 59.3277 276.074 58.6648C275.269 58.002 274.308 57.6705 273.19 57.6705C271.808 57.6705 270.733 58.0967 269.966 58.9489C269.199 59.7917 268.815 60.876 268.815 62.2018V76.108H264.582V61.6052C264.582 60.4215 264.213 59.4698 263.475 58.7501C262.736 58.0304 261.775 57.6705 260.591 57.6705C259.786 57.6705 259.043 57.8836 258.361 58.3097C257.689 58.7264 257.144 59.3088 256.727 60.0569C256.32 60.805 256.117 61.6715 256.117 62.6563V76.108H251.869ZM287.221 76.108V54.2898H291.468V76.108H287.221ZM289.366 50.9234C288.627 50.9234 287.993 50.6772 287.462 50.1847C286.942 49.6828 286.681 49.0863 286.681 48.395C286.681 47.6942 286.942 47.0976 287.462 46.6052C287.993 46.1033 288.627 45.8523 289.366 45.8523C290.104 45.8523 290.734 46.1033 291.255 46.6052C291.785 47.0976 292.051 47.6942 292.051 48.395C292.051 49.0863 291.785 49.6828 291.255 50.1847C290.734 50.6772 290.104 50.9234 289.366 50.9234ZM306.372 76.5484C304.26 76.5484 302.442 76.0702 300.918 75.1137C299.403 74.1478 298.238 72.8173 297.423 71.1222C296.609 69.4272 296.202 67.4859 296.202 65.2984C296.202 63.0825 296.618 61.127 297.452 59.4319C298.285 57.7273 299.459 56.3969 300.975 55.4404C302.49 54.484 304.275 54.0058 306.33 54.0058C307.987 54.0058 309.464 54.3135 310.761 54.9291C312.059 55.5351 313.105 56.3874 313.901 57.4859C314.706 58.5844 315.184 59.8675 315.335 61.3353H311.202C310.975 60.3126 310.454 59.4319 309.639 58.6933C308.834 57.9546 307.755 57.5853 306.401 57.5853C305.217 57.5853 304.18 57.8978 303.29 58.5228C302.409 59.1383 301.723 60.019 301.23 61.1648C300.738 62.3012 300.492 63.6459 300.492 65.1989C300.492 66.7899 300.733 68.163 301.216 69.3183C301.699 70.4736 302.381 71.3684 303.261 72.0029C304.152 72.6374 305.198 72.9546 306.401 72.9546C307.206 72.9546 307.935 72.8078 308.588 72.5143C309.251 72.2113 309.805 71.7804 310.25 71.2217C310.705 70.663 311.022 69.9906 311.202 69.2046H315.335C315.184 70.6156 314.725 71.8751 313.957 72.983C313.19 74.091 312.163 74.9622 310.875 75.5967C309.597 76.2311 308.096 76.5484 306.372 76.5484ZM152.992 104.207C152.717 103.346 152.348 102.574 151.884 101.892C151.429 101.201 150.885 100.614 150.25 100.131C149.616 99.6383 148.891 99.2643 148.077 99.0086C147.272 98.7529 146.386 98.6251 145.421 98.6251C143.782 98.6251 142.305 99.0465 140.989 99.8893C139.672 100.732 138.631 101.968 137.864 103.597C137.106 105.216 136.727 107.2 136.727 109.548C136.727 111.906 137.111 113.9 137.878 115.528C138.645 117.157 139.696 118.393 141.031 119.236C142.367 120.079 143.886 120.5 145.591 120.5C147.172 120.5 148.55 120.178 149.725 119.534C150.908 118.89 151.822 117.981 152.466 116.807C153.119 115.623 153.446 114.231 153.446 112.631L154.582 112.844H146.259V109.222H157.693V112.531C157.693 114.975 157.172 117.096 156.131 118.895C155.099 120.685 153.669 122.067 151.841 123.043C150.023 124.018 147.939 124.506 145.591 124.506C142.958 124.506 140.648 123.9 138.659 122.688C136.68 121.475 135.136 119.757 134.028 117.531C132.921 115.296 132.367 112.645 132.367 109.577C132.367 107.257 132.689 105.173 133.332 103.327C133.976 101.48 134.881 99.913 136.046 98.6251C137.22 97.3277 138.598 96.3381 140.179 95.6563C141.77 94.965 143.508 94.6194 145.392 94.6194C146.964 94.6194 148.427 94.8514 149.781 95.3154C151.145 95.7794 152.357 96.4376 153.418 97.2898C154.488 98.1421 155.373 99.1554 156.074 100.33C156.775 101.494 157.248 102.787 157.494 104.207H152.992ZM162.924 124.108V102.29H167.029V105.756H167.256C167.654 104.582 168.355 103.658 169.359 102.986C170.372 102.304 171.518 101.963 172.796 101.963C173.061 101.963 173.374 101.973 173.734 101.992C174.103 102.01 174.392 102.034 174.6 102.063V106.125C174.43 106.078 174.127 106.026 173.691 105.969C173.256 105.903 172.82 105.869 172.384 105.869C171.381 105.869 170.486 106.082 169.7 106.509C168.923 106.925 168.308 107.508 167.853 108.256C167.399 108.994 167.171 109.837 167.171 110.784V124.108H162.924ZM186.685 124.548C184.639 124.548 182.854 124.08 181.33 123.142C179.805 122.205 178.621 120.893 177.778 119.207C176.936 117.522 176.514 115.552 176.514 113.298C176.514 111.035 176.936 109.056 177.778 107.361C178.621 105.666 179.805 104.35 181.33 103.412C182.854 102.475 184.639 102.006 186.685 102.006C188.73 102.006 190.515 102.475 192.04 103.412C193.564 104.35 194.748 105.666 195.591 107.361C196.434 109.056 196.855 111.035 196.855 113.298C196.855 115.552 196.434 117.522 195.591 119.207C194.748 120.893 193.564 122.205 192.04 123.142C190.515 124.08 188.73 124.548 186.685 124.548ZM186.699 120.983C188.025 120.983 189.123 120.633 189.994 119.932C190.866 119.231 191.51 118.298 191.926 117.134C192.352 115.969 192.565 114.686 192.565 113.284C192.565 111.892 192.352 110.614 191.926 109.449C191.51 108.275 190.866 107.332 189.994 106.622C189.123 105.912 188.025 105.557 186.699 105.557C185.364 105.557 184.256 105.912 183.375 106.622C182.504 107.332 181.855 108.275 181.429 109.449C181.012 110.614 180.804 111.892 180.804 113.284C180.804 114.686 181.012 115.969 181.429 117.134C181.855 118.298 182.504 119.231 183.375 119.932C184.256 120.633 185.364 120.983 186.699 120.983ZM205.662 124.108L199.242 102.29H203.631L207.906 118.313H208.119L212.409 102.29H216.798L221.06 118.242H221.273L225.52 102.29H229.909L223.503 124.108H219.171L214.739 108.355H214.412L209.98 124.108H205.662ZM244.124 102.29V105.699H232.207V102.29H244.124ZM235.403 97.0626H239.65V117.702C239.65 118.526 239.773 119.146 240.019 119.563C240.265 119.97 240.583 120.249 240.971 120.401C241.369 120.543 241.8 120.614 242.264 120.614C242.604 120.614 242.903 120.59 243.158 120.543C243.414 120.495 243.613 120.457 243.755 120.429L244.522 123.938C244.276 124.032 243.926 124.127 243.471 124.222C243.016 124.326 242.448 124.383 241.766 124.392C240.649 124.411 239.607 124.212 238.641 123.796C237.676 123.379 236.894 122.735 236.298 121.864C235.701 120.993 235.403 119.899 235.403 118.582V97.0626ZM253.538 111.153V124.108H249.291V95.0171H253.482V105.841H253.751C254.263 104.667 255.044 103.734 256.095 103.043C257.146 102.351 258.519 102.006 260.215 102.006C261.711 102.006 263.018 102.314 264.135 102.929C265.262 103.545 266.133 104.463 266.749 105.685C267.374 106.897 267.686 108.412 267.686 110.23V124.108H263.439V110.742C263.439 109.141 263.027 107.901 262.203 107.02C261.379 106.13 260.234 105.685 258.766 105.685C257.762 105.685 256.862 105.898 256.067 106.324C255.281 106.75 254.661 107.375 254.206 108.199C253.761 109.013 253.538 109.998 253.538 111.153Z" fill="white"/>
<path fill-rule="evenodd" clip-rule="evenodd" d="M280.97 208.739C283.666 206.06 284.678 208.431 284.678 209.731V363.981C284.678 365.273 283.628 366.331 282.332 366.331H239.686C238.386 366.331 237.328 365.273 237.328 363.981V253.91C237.328 250.706 238.128 249.564 239.686 248.014L280.97 208.739ZM162.036 259.906C164.72 257.214 165.745 259.589 165.745 260.889V363.981C165.745 365.264 164.695 366.323 163.395 366.323H120.749C119.449 366.323 118.395 365.264 118.395 363.981V305.068C118.395 301.864 119.195 300.727 120.749 299.173L162.036 259.906ZM299.736 161.114C299.725 161.344 299.695 161.573 299.647 161.799L292.796 193.629C292.781 193.697 292.772 193.766 292.77 193.835C292.757 194.118 292.649 194.389 292.424 194.61C291.966 195.081 291.203 195.081 290.741 194.61L286.693 190.567C284.74 188.616 281.575 188.617 279.624 190.569L201.861 268.331C201.486 268.71 200.886 268.71 200.516 268.331L191.536 259.36C191.464 259.303 191.424 259.215 191.359 259.15L170.984 238.774C169.032 236.822 165.866 236.822 163.913 238.774L115.078 287.598C114.707 287.973 114.107 287.973 113.741 287.598L104.753 278.614C104.386 278.248 104.386 277.639 104.753 277.268L157.781 224.249C157.784 224.246 157.786 224.242 157.787 224.237C157.789 224.232 157.797 224.229 157.801 224.225L166.77 215.252C167.149 214.877 167.741 214.877 168.116 215.252L197.663 244.803C199.616 246.756 202.782 246.756 204.735 244.804L269.296 180.243C271.249 178.289 271.248 175.123 269.295 173.17L265.611 169.489L265.253 169.131C264.791 168.66 264.791 167.902 265.253 167.431C265.432 167.264 265.645 167.152 265.87 167.11L266.445 167.048L297.727 159.993C297.947 159.943 298.17 159.911 298.395 159.898C298.547 159.889 298.702 159.886 298.85 159.924C299.042 159.973 299.231 160.066 299.386 160.218C299.641 160.464 299.753 160.802 299.736 161.114ZM221.736 266.798C224.666 263.864 225.691 266.243 225.691 267.543V363.977C225.691 365.264 224.636 366.323 223.345 366.323H180.686C179.391 366.323 178.349 365.264 178.349 363.977V269.114C178.349 267.818 179.066 265.139 182.378 268.443L200.474 286.889C200.828 287.239 201.382 287.252 201.761 286.939L221.736 266.798Z" fill="white"/>
</svg>
