<svg width="404" height="405" viewBox="0 0 404 405" fill="none" xmlns="http://www.w3.org/2000/svg">
<rect y="0.216064" width="404" height="404" rx="40" fill="#009245"/>
<path d="M73.496 107.164C73.496 109.66 73.592 111.676 73.784 113.212C74.04 114.684 74.52 115.868 75.224 116.764C75.928 117.596 76.92 118.172 78.2 118.492C79.544 118.812 81.304 119.004 83.48 119.068V122.716H54.104V119.068C56.216 119.004 57.912 118.812 59.192 118.492C60.536 118.108 61.56 117.532 62.264 116.764C63.032 115.932 63.512 114.812 63.704 113.404C63.96 111.932 64.088 110.076 64.088 107.836V72.6041C64.088 68.8921 64.056 65.8201 63.992 63.3881C63.992 60.9561 63.896 59.3561 63.704 58.5881C63.384 57.1801 62.424 56.3161 60.824 55.9961C59.224 55.6761 56.824 55.5161 53.624 55.5161V51.8681C56.76 51.7401 60.056 51.3241 63.512 50.6201C67.032 49.8521 70.36 48.9241 73.496 47.8361V107.164ZM120.468 102.172C120.468 96.8601 119.38 92.7641 117.204 89.8841C115.092 86.9401 112.084 85.4681 108.18 85.4681C107.22 85.9801 106.132 86.3961 104.916 86.7161C103.764 87.0361 102.708 87.1961 101.748 87.1961C100.468 87.1961 99.4117 86.9081 98.5797 86.3321C97.7477 85.6921 97.3317 84.8921 97.3317 83.9321C97.3317 83.0361 97.7157 82.3641 98.4837 81.9161C99.2517 81.4681 100.276 81.2441 101.556 81.2441C102.388 81.2441 103.316 81.3401 104.34 81.5321C105.428 81.7241 106.452 81.9801 107.412 82.3001C110.868 82.3001 113.62 80.7641 115.668 77.6921C117.78 74.6201 118.836 70.5241 118.836 65.4041C118.836 56.4441 115.06 51.9641 107.508 51.9641C104.116 51.9641 101.428 52.7321 99.4437 54.2681C97.5237 55.8041 96.5637 57.9161 96.5637 60.6041C96.5637 62.7801 97.2037 64.5401 98.4837 65.8841C99.7637 67.2281 101.428 67.9001 103.476 67.9001C103.156 68.9881 102.356 69.8841 101.076 70.5881C99.8597 71.2281 98.4197 71.5481 96.7557 71.5481C95.3477 71.5481 94.0357 71.2921 92.8197 70.7801C91.6677 70.2681 90.6437 69.5641 89.7477 68.6681C88.9157 67.7081 88.2437 66.6201 87.7317 65.4041C87.2197 64.1881 86.9637 62.8441 86.9637 61.3721C86.9637 59.3241 87.4437 57.4681 88.4037 55.8041C89.4277 54.1401 90.8357 52.7321 92.6277 51.5801C94.4197 50.3641 96.5637 49.4361 99.0598 48.7961C101.62 48.1561 104.436 47.8361 107.508 47.8361C110.964 47.8361 114.1 48.2521 116.916 49.0841C119.732 49.9161 122.132 51.0681 124.116 52.5401C126.1 54.0121 127.636 55.8041 128.724 57.9161C129.812 60.0281 130.356 62.3641 130.356 64.9241C130.356 67.1001 129.972 69.1481 129.204 71.0681C128.436 72.9881 127.412 74.7481 126.132 76.3481C124.852 77.8841 123.316 79.1961 121.524 80.2841C119.796 81.3721 117.94 82.1721 115.956 82.6841V83.2601C118.324 83.9001 120.532 84.8281 122.58 86.0441C124.628 87.2601 126.388 88.7001 127.86 90.3641C129.332 92.0281 130.484 93.9161 131.316 96.0281C132.148 98.1401 132.564 100.412 132.564 102.844C132.564 105.852 131.924 108.636 130.644 111.196C129.364 113.692 127.604 115.868 125.364 117.724C123.124 119.58 120.436 121.052 117.3 122.14C114.228 123.164 110.836 123.676 107.124 123.676C103.796 123.676 100.724 123.26 97.9077 122.428C95.1557 121.532 92.7557 120.348 90.7077 118.876C88.6597 117.34 87.0597 115.548 85.9077 113.5C84.7557 111.388 84.1797 109.116 84.1797 106.684C84.1797 104.956 84.4677 103.356 85.0437 101.884C85.6197 100.412 86.3877 99.1321 87.3477 98.0441C88.3717 96.8921 89.5557 96.0281 90.8997 95.4521C92.2437 94.8121 93.6837 94.4921 95.2197 94.4921C97.0117 94.4921 98.6117 94.9081 100.02 95.7401C101.428 96.5081 102.292 97.5001 102.612 98.7161C100.18 98.7161 98.1957 99.6121 96.6597 101.404C95.1237 103.132 94.3557 105.372 94.3557 108.124C94.3557 111.388 95.5077 114.044 97.8117 116.092C100.116 118.14 103.156 119.164 106.932 119.164C111.348 119.164 114.708 117.724 117.012 114.844C119.316 111.9 120.468 107.676 120.468 102.172Z" fill="white"/>
<path d="M175.358 56.5854H170.926C170.756 55.6384 170.438 54.8051 169.974 54.0854C169.51 53.3657 168.942 52.7549 168.27 52.253C167.598 51.7511 166.845 51.3723 166.011 51.1166C165.188 50.861 164.312 50.7331 163.384 50.7331C161.707 50.7331 160.206 51.1545 158.881 51.9973C157.564 52.8401 156.523 54.0759 155.756 55.7047C154.998 57.3335 154.619 59.3221 154.619 61.6706C154.619 64.038 154.998 66.0361 155.756 67.6649C156.523 69.2937 157.569 70.5248 158.895 71.3581C160.221 72.1914 161.712 72.6081 163.369 72.6081C164.288 72.6081 165.159 72.485 165.983 72.2388C166.816 71.9831 167.569 71.6091 168.241 71.1166C168.914 70.6242 169.482 70.0229 169.946 69.3127C170.42 68.593 170.746 67.7691 170.926 66.8411L175.358 66.8553C175.121 68.2852 174.662 69.6015 173.98 70.8041C173.308 71.9973 172.441 73.0295 171.381 73.9007C170.33 74.7625 169.127 75.4301 167.773 75.9036C166.419 76.377 164.941 76.6138 163.341 76.6138C160.822 76.6138 158.578 76.0172 156.608 74.824C154.638 73.6214 153.085 71.9026 151.949 69.6678C150.822 67.4329 150.259 64.7672 150.259 61.6706C150.259 58.5645 150.827 55.8988 151.963 53.6734C153.099 51.4386 154.652 49.7246 156.622 48.5314C158.592 47.3288 160.831 46.7274 163.341 46.7274C164.884 46.7274 166.324 46.95 167.659 47.395C169.004 47.8306 170.211 48.4746 171.281 49.3269C172.351 50.1697 173.237 51.2019 173.938 52.4234C174.638 53.6356 175.112 55.0229 175.358 56.5854ZM184.516 47.1252V76.2161H180.269V47.1252H184.516ZM190.23 76.2161V54.3979H194.477V76.2161H190.23ZM192.375 51.0314C191.636 51.0314 191.002 50.7852 190.472 50.2928C189.951 49.7909 189.69 49.1943 189.69 48.503C189.69 47.8022 189.951 47.2056 190.472 46.7132C191.002 46.2113 191.636 45.9604 192.375 45.9604C193.114 45.9604 193.743 46.2113 194.264 46.7132C194.795 47.2056 195.06 47.8022 195.06 48.503C195.06 49.1943 194.795 49.7909 194.264 50.2928C193.743 50.7852 193.114 51.0314 192.375 51.0314ZM200.191 76.2161V54.3979H204.268V57.949H204.538C204.992 56.7464 205.736 55.8089 206.768 55.1365C207.8 54.4547 209.036 54.1138 210.475 54.1138C211.933 54.1138 213.155 54.4547 214.14 55.1365C215.134 55.8183 215.868 56.7558 216.342 57.949H216.569C217.09 56.7842 217.918 55.8562 219.055 55.1649C220.191 54.4642 221.545 54.1138 223.117 54.1138C225.096 54.1138 226.711 54.7341 227.961 55.9746C229.22 57.2151 229.85 59.0854 229.85 61.5854V76.2161H225.603V61.9831C225.603 60.5058 225.201 59.4358 224.396 58.7729C223.591 58.11 222.629 57.7786 221.512 57.7786C220.129 57.7786 219.055 58.2047 218.288 59.057C217.521 59.8998 217.137 60.9841 217.137 62.3098V76.2161H212.904V61.7132C212.904 60.5295 212.535 59.5778 211.796 58.8581C211.058 58.1384 210.096 57.7786 208.913 57.7786C208.108 57.7786 207.364 57.9916 206.683 58.4178C206.01 58.8344 205.466 59.4168 205.049 60.1649C204.642 60.913 204.438 61.7795 204.438 62.7644V76.2161H200.191ZM241.892 76.699C240.509 76.699 239.259 76.4433 238.142 75.932C237.025 75.4111 236.139 74.6583 235.486 73.6735C234.842 72.6886 234.52 71.4812 234.52 70.0513C234.52 68.8202 234.757 67.807 235.23 67.0115C235.704 66.2161 236.343 65.5863 237.148 65.1223C237.953 64.6583 238.852 64.3079 239.847 64.0712C240.841 63.8344 241.854 63.6545 242.886 63.5314C244.193 63.3799 245.254 63.2568 246.068 63.1621C246.883 63.0579 247.474 62.8922 247.844 62.6649C248.213 62.4377 248.398 62.0683 248.398 61.557V61.4575C248.398 60.217 248.047 59.2558 247.347 58.574C246.655 57.8922 245.623 57.5513 244.25 57.5513C242.82 57.5513 241.693 57.8685 240.869 58.503C240.055 59.128 239.491 59.824 239.179 60.5911L235.188 59.682C235.661 58.3562 236.352 57.2861 237.261 56.4717C238.18 55.6479 239.236 55.0513 240.429 54.682C241.622 54.3032 242.877 54.1138 244.193 54.1138C245.064 54.1138 245.988 54.218 246.963 54.4263C247.948 54.6252 248.866 54.9945 249.719 55.5342C250.58 56.074 251.286 56.8458 251.835 57.8496C252.384 58.8439 252.659 60.1365 252.659 61.7274V76.2161H248.511V73.2331H248.341C248.066 73.7824 247.654 74.3221 247.105 74.8524C246.556 75.3827 245.85 75.8231 244.989 76.1735C244.127 76.5238 243.095 76.699 241.892 76.699ZM242.815 73.2899C243.99 73.2899 244.993 73.0579 245.827 72.5939C246.67 72.1299 247.309 71.5238 247.744 70.7757C248.189 70.0181 248.412 69.2085 248.412 68.3467V65.5342C248.26 65.6858 247.967 65.8278 247.531 65.9604C247.105 66.0835 246.617 66.1924 246.068 66.2871C245.519 66.3723 244.984 66.4528 244.463 66.5286C243.942 66.5949 243.507 66.6517 243.156 66.699C242.332 66.8032 241.58 66.9784 240.898 67.2246C240.225 67.4708 239.686 67.8259 239.278 68.2899C238.881 68.7445 238.682 69.3505 238.682 70.1081C238.682 71.1592 239.07 71.9547 239.847 72.4945C240.623 73.0248 241.613 73.2899 242.815 73.2899ZM268.501 54.3979V57.807H256.583V54.3979H268.501ZM259.779 49.1706H264.026V69.8098C264.026 70.6337 264.149 71.2539 264.396 71.6706C264.642 72.0778 264.959 72.3572 265.347 72.5087C265.745 72.6507 266.176 72.7217 266.64 72.7217C266.981 72.7217 267.279 72.6981 267.535 72.6507C267.79 72.6034 267.989 72.5655 268.131 72.5371L268.898 76.0456C268.652 76.1403 268.302 76.235 267.847 76.3297C267.393 76.4339 266.825 76.4907 266.143 76.5002C265.025 76.5191 263.984 76.3202 263.018 75.9036C262.052 75.4869 261.271 74.843 260.674 73.9717C260.077 73.1005 259.779 72.0068 259.779 70.6905V49.1706ZM282.368 76.6564C280.218 76.6564 278.367 76.1971 276.814 75.2786C275.27 74.3505 274.077 73.0485 273.234 71.3723C272.401 69.6867 271.984 67.7123 271.984 65.449C271.984 63.2142 272.401 61.2445 273.234 59.5399C274.077 57.8354 275.251 56.5049 276.757 55.5484C278.272 54.592 280.043 54.1138 282.07 54.1138C283.301 54.1138 284.494 54.3174 285.649 54.7246C286.804 55.1318 287.841 55.771 288.76 56.6422C289.679 57.5134 290.403 58.645 290.933 60.0371C291.464 61.4197 291.729 63.1005 291.729 65.0797V66.5854H274.385V63.4036H287.567C287.567 62.2861 287.339 61.2966 286.885 60.4348C286.43 59.5636 285.791 58.877 284.967 58.3752C284.153 57.8733 283.196 57.6223 282.098 57.6223C280.905 57.6223 279.863 57.9159 278.973 58.503C278.092 59.0806 277.411 59.8382 276.928 60.7757C276.454 61.7038 276.217 62.7123 276.217 63.8013V66.2871C276.217 67.7454 276.473 68.986 276.984 70.0087C277.505 71.0314 278.23 71.8127 279.158 72.3524C280.086 72.8827 281.17 73.1479 282.411 73.1479C283.215 73.1479 283.949 73.0342 284.612 72.807C285.275 72.5702 285.848 72.2199 286.331 71.7558C286.814 71.2918 287.183 70.7189 287.439 70.0371L291.459 70.7615C291.137 71.9452 290.559 72.9822 289.726 73.8723C288.902 74.753 287.865 75.4395 286.615 75.932C285.375 76.4149 283.959 76.6564 282.368 76.6564ZM153.653 124.216H148.994L159.463 95.1252H164.534L175.003 124.216H170.344L162.119 100.409H161.892L153.653 124.216ZM154.435 112.824H169.548V116.517H154.435V112.824ZM187.702 124.656C185.59 124.656 183.772 124.178 182.247 123.222C180.732 122.256 179.567 120.925 178.753 119.23C177.938 117.535 177.531 115.594 177.531 113.406C177.531 111.19 177.948 109.235 178.781 107.54C179.615 105.835 180.789 104.505 182.304 103.548C183.819 102.592 185.604 102.114 187.659 102.114C189.316 102.114 190.794 102.422 192.091 103.037C193.388 103.643 194.435 104.495 195.23 105.594C196.035 106.692 196.513 107.976 196.665 109.443H192.531C192.304 108.421 191.783 107.54 190.969 106.801C190.164 106.063 189.084 105.693 187.73 105.693C186.546 105.693 185.509 106.006 184.619 106.631C183.739 107.246 183.052 108.127 182.56 109.273C182.067 110.409 181.821 111.754 181.821 113.307C181.821 114.898 182.063 116.271 182.545 117.426C183.028 118.582 183.71 119.476 184.591 120.111C185.481 120.745 186.527 121.063 187.73 121.063C188.535 121.063 189.264 120.916 189.918 120.622C190.58 120.319 191.134 119.888 191.58 119.33C192.034 118.771 192.351 118.099 192.531 117.313H196.665C196.513 118.724 196.054 119.983 195.287 121.091C194.52 122.199 193.492 123.07 192.205 123.705C190.926 124.339 189.425 124.656 187.702 124.656ZM211.391 102.398V105.807H199.474V102.398H211.391ZM202.67 97.1706H206.917V117.81C206.917 118.634 207.04 119.254 207.286 119.671C207.532 120.078 207.85 120.357 208.238 120.509C208.636 120.651 209.067 120.722 209.531 120.722C209.871 120.722 210.17 120.698 210.425 120.651C210.681 120.603 210.88 120.565 211.022 120.537L211.789 124.046C211.543 124.14 211.192 124.235 210.738 124.33C210.283 124.434 209.715 124.491 209.033 124.5C207.916 124.519 206.874 124.32 205.908 123.904C204.942 123.487 204.161 122.843 203.565 121.972C202.968 121.101 202.67 120.007 202.67 118.69V97.1706ZM216.089 124.216V102.398H220.337V124.216H216.089ZM218.234 99.0314C217.496 99.0314 216.861 98.7852 216.331 98.2928C215.81 97.7909 215.55 97.1943 215.55 96.503C215.55 95.8022 215.81 95.2056 216.331 94.7132C216.861 94.2113 217.496 93.9604 218.234 93.9604C218.973 93.9604 219.603 94.2113 220.124 94.7132C220.654 95.2056 220.919 95.8022 220.919 96.503C220.919 97.1943 220.654 97.7909 220.124 98.2928C219.603 98.7852 218.973 99.0314 218.234 99.0314ZM235.241 124.656C233.195 124.656 231.41 124.188 229.886 123.25C228.361 122.313 227.177 121.001 226.335 119.315C225.492 117.63 225.07 115.66 225.07 113.406C225.07 111.143 225.492 109.164 226.335 107.469C227.177 105.774 228.361 104.458 229.886 103.52C231.41 102.583 233.195 102.114 235.241 102.114C237.286 102.114 239.071 102.583 240.596 103.52C242.121 104.458 243.304 105.774 244.147 107.469C244.99 109.164 245.411 111.143 245.411 113.406C245.411 115.66 244.99 117.63 244.147 119.315C243.304 121.001 242.121 122.313 240.596 123.25C239.071 124.188 237.286 124.656 235.241 124.656ZM235.255 121.091C236.581 121.091 237.679 120.741 238.55 120.04C239.422 119.339 240.066 118.406 240.482 117.242C240.908 116.077 241.121 114.794 241.121 113.392C241.121 112 240.908 110.722 240.482 109.557C240.066 108.383 239.422 107.44 238.55 106.73C237.679 106.02 236.581 105.665 235.255 105.665C233.92 105.665 232.812 106.02 231.931 106.73C231.06 107.44 230.411 108.383 229.985 109.557C229.568 110.722 229.36 112 229.36 113.392C229.36 114.794 229.568 116.077 229.985 117.242C230.411 118.406 231.06 119.339 231.931 120.04C232.812 120.741 233.92 121.091 235.255 121.091ZM254.399 111.262V124.216H250.152V102.398H254.229V105.949H254.499C255 104.794 255.786 103.866 256.857 103.165C257.936 102.464 259.295 102.114 260.933 102.114C262.42 102.114 263.722 102.426 264.839 103.051C265.957 103.667 266.823 104.585 267.439 105.807C268.054 107.029 268.362 108.539 268.362 110.338V124.216H264.115V110.85C264.115 109.268 263.703 108.032 262.879 107.142C262.055 106.243 260.924 105.793 259.484 105.793C258.5 105.793 257.624 106.006 256.857 106.432C256.099 106.858 255.498 107.483 255.053 108.307C254.617 109.121 254.399 110.106 254.399 111.262Z" fill="white"/>
<path fill-rule="evenodd" clip-rule="evenodd" d="M351.098 261.745C351.826 262.746 351.815 264.094 351.094 265.099C340.373 280.087 291.885 339.953 201.906 339.828C111.915 339.708 63.6064 279.712 52.9106 264.695C52.2077 263.683 52.1984 262.34 52.9147 261.337C63.6522 246.345 112.123 186.483 202.119 186.603C292.094 186.728 340.419 246.72 351.098 261.745ZM202.031 326.249C214.182 326.267 225.52 322.818 235.13 316.85C237.336 315.48 236.926 312.132 234.331 312.028C228.023 311.783 223.719 317.366 221.585 318.587C219.46 319.808 206.11 312.199 195.944 313.178C191.385 313.612 185.606 315.583 183.66 320.637C183.32 321.523 183.417 322.311 183.763 322.932C184.09 323.517 184.745 323.803 185.392 323.981C190.689 325.443 196.262 326.241 202.031 326.249ZM244.298 307.333C245.458 307.916 246.84 307.503 247.731 306.557C253.075 300.889 257.367 294.218 260.315 286.862C260.55 286.275 260.675 285.643 260.6 285.015C260.448 283.729 260.053 282.539 259.702 281.887C259.477 281.428 259.227 280.945 258.969 280.437C257.606 277.716 256.01 282.178 248.477 284.049C245.923 284.678 242.54 285.074 237.094 287.037C233.131 288.474 228.377 294.837 230.585 300.424C232.773 306.008 231.41 309.808 236.448 306.52C241.506 303.224 237.91 307.124 239.602 307.753C241.281 308.37 240.877 305.587 244.298 307.333ZM193.56 285.378C197.702 278.733 192.344 278.499 189.865 283.041C189.402 283.874 187.156 294.866 188.748 296.099C190.327 297.328 192.698 286.791 193.56 285.378ZM246.844 273.116C247.535 273.387 250.065 273.512 250.065 272.487C250.065 271.462 248.402 269.541 247.115 268.887C245.852 268.266 244.556 269.141 245.065 270.683C245.573 272.22 246.169 272.862 246.844 273.116ZM219.177 272.97C220.41 271.853 217.244 268.903 215.135 269.091C214.194 269.166 211.615 271.195 213.19 272.424C214.773 273.662 217.94 274.07 219.177 272.97ZM182.227 299.949C183.465 295.178 184.873 297.995 185.485 294.741C186.102 291.487 187.123 291.266 186.923 287.349C186.719 283.449 187.265 282.541 190.115 279.716C192.96 276.912 192.148 278.391 192.977 275.774C193.802 273.17 190.96 272.437 188.427 270.828C185.452 268.933 182.394 263.862 182.69 260.416C182.898 258.028 184.173 260.203 187.09 263.241C190.002 266.291 191.31 268.674 194.277 267.966C197.256 267.253 201.331 264.587 200.269 261.558C199.556 259.516 189.535 251.549 189.99 250.037C190.506 248.312 192.21 249.612 195.265 251.995C198.306 254.395 201.952 253.995 202.698 258.228C204.081 266.028 212.977 262.583 219.085 269.603C221.435 272.299 222.59 269.391 224.19 266.133C225.798 262.87 222.948 261.341 225.181 259.816C227.423 258.287 230.065 258.958 231.081 261.562C232.09 264.174 233.51 267.566 234.81 271.033C236.044 274.324 243.527 279.449 244.519 279.524C248.756 279.799 243.052 273.258 242.61 270.862C242.169 268.47 243.969 263.995 245.815 263.345C247.669 262.691 248.402 263.32 252.406 260.72C256.419 258.116 252.285 257.666 252.202 253.32C252.119 248.978 254.802 251.52 255.435 252.437C257.919 256.078 262.206 254.141 262.777 251.883C262.897 251.399 263.077 250.589 263.091 249.485C263.095 249.151 263.047 248.818 262.967 248.493C256.225 221.182 231.598 200.903 202.202 200.866C196.784 200.859 191.527 201.542 186.513 202.83C181.484 204.123 183.957 207.91 187.927 211.257C188.705 211.912 189.03 212.832 188.719 214.099C187.335 219.749 197.952 220.683 192.556 223.453C190.265 224.645 183.569 229.295 182.09 228.478C177.935 226.228 190.59 223.366 188.156 221.724C185.715 220.058 180.856 221.958 177.056 222.787C175.185 223.208 167.877 223.178 165.206 224.449C162.535 225.741 159.385 227.449 160.265 229.733C161.156 232.02 168.39 233.837 169.606 233.837C170.823 233.841 172.144 233.545 174.74 230.366C177.331 227.17 180.473 230.108 179.56 230.533C178.656 230.97 176.615 232.416 175.01 234.316C173.731 235.816 171.348 236.878 168.756 235.57C166.16 234.266 160.36 234.962 159.235 235.608C158.119 236.262 155.323 238.212 154.477 238.433C153.64 238.658 152.419 239.291 152.827 240.166C153.231 241.028 153.456 242.07 152.81 242.712C152.177 243.37 151.01 244.728 149.394 243.645C148.158 242.82 144.955 242.984 143.234 243.83C142.637 244.123 142.308 244.735 142.118 245.372C142.007 245.744 141.938 246.129 141.954 246.517C142.049 248.721 143.14 251.574 146.506 249.066C147.71 248.162 153.715 248.383 157.419 244.878C159.169 243.228 161.119 245.395 161.54 246.262C161.969 247.137 164.485 252.528 165.744 252.316C166.998 252.108 163.702 247.137 165.177 246.92C166.652 246.699 168.531 251.112 169.419 250.491C171.815 248.799 173.794 249.399 174.06 251.912C174.285 253.916 172.402 255.228 169.994 256.22C166.665 257.57 160.944 254.483 157.315 253.112C153.968 251.848 149.793 251.02 147.97 250.694C147.364 250.585 146.744 250.641 146.161 250.842C144.523 251.405 142.974 252.95 141.952 254.348C141.502 254.964 140.91 255.718 140.131 256.637C139.831 256.989 139.72 257.458 139.679 257.919C139.519 259.749 139.427 261.597 139.423 263.474C139.411 272.044 141.118 280.214 144.223 287.659C144.281 287.799 144.391 287.92 144.535 287.966C147.99 289.058 146.99 288.487 149.423 287.412C151.869 286.316 154.056 283.941 155.798 286.112C157.556 288.283 159.227 287.591 159.465 291.062C159.694 294.541 163.048 288.787 163.677 294.003C164.665 302.149 166.585 298.141 166.581 299.495C166.577 303.408 166.965 311.016 169.815 311.233C172.66 311.445 177.152 309.503 178.365 307.974C179.581 306.466 181.006 304.741 182.227 299.949ZM249.506 275.045C248.56 275.12 245.985 277.149 247.56 278.378C249.144 279.62 252.302 280.033 253.535 278.92C254.777 277.803 251.615 274.878 249.506 275.045ZM260.125 272.391C261.492 274.934 263.994 274.049 264.343 271.183C264.645 268.712 264.804 266.198 264.806 263.645C264.81 262.62 264.778 261.601 264.731 260.59C264.713 260.206 264.653 259.823 264.526 259.46C263.68 257.036 262.08 255.411 259.248 255.628C258.481 255.691 261.273 258.791 260.344 259.841C256.953 263.734 258.229 268.866 260.125 272.391ZM148.648 230.82C147.122 233.3 145.773 235.907 144.604 238.606C144.232 239.465 144.668 240.514 145.581 240.308C147.565 239.874 150.96 235.816 153.127 233.824C153.894 233.116 158.073 231.233 157.806 230.199C157.556 229.162 155.477 228.374 153.919 228.637C152.36 228.878 150.106 229.153 148.973 230.441C148.919 230.512 148.79 230.649 148.648 230.82ZM151.869 224.433C151.59 224.862 152.165 225.995 153.627 226.224C155.519 226.528 158.96 224.599 160.281 223.233C160.752 222.753 161.29 219.97 161.127 219.249C160.973 218.533 159.702 217.991 158.748 218.178C157.781 218.345 156.402 218.528 155.71 219.42C155.381 219.845 152.681 223.241 151.869 224.433Z" fill="white"/>
</svg>
