<?xml version="1.0" encoding="UTF-8"?>
<svg id="b" data-name="Layer 2" xmlns="http://www.w3.org/2000/svg" width="426.977" height="128.965" viewBox="0 0 426.977 128.965">
  <g id="c" data-name="Layer 2">
    <g>
      <path d="M78.648,3.979c3.914-1.992,8.113-1.222,9.527,3.212,3.948-1.962,8.083-.001,8.77,4.364,4.167-1.184,7.557,1.219,7.998,5.528,4.37-.071,7.33,2.755,6.717,7.213,4.916-.096,6.553,3.464,6.019,7.914,4.803.841,5.441,4.555,4.357,8.764,4.239,1.286,5.122,5.672,2.765,9.176,3.845,1.517,4.844,6.592,1.601,9.359,3.544,2.919,3.547,7.025,0,9.947,3.258,2.793,2.225,7.852-1.602,9.358,2.437,3.388,1.403,7.971-2.764,9.177,1.089,4.224.432,7.928-4.357,8.764.535,4.458-1.108,8.01-6.018,7.914.672,4.55-2.319,7.223-6.717,7.213-.441,4.303-3.823,6.712-7.998,5.528-.62,4.276-4.952,6.446-8.771,4.366-1.29,4.217-5.623,5.399-9.338,3.159-1.376,2.552-3.809,3.727-6.706,3.115-.929-.196-2.369-1.539-2.821-1.46-.575.101-1.948,2.23-4.449,2.366-3.109.169-4.214-2.185-5.222-2.361-.461-.08-1.886,1.258-2.818,1.455-2.896.611-5.33-.563-6.706-3.115-3.712,2.239-8.049,1.059-9.338-3.159-3.914,2.112-8.008-.124-8.769-4.367-4.218,1.227-7.407-1.344-8.013-5.516-4.366.038-7.315-2.757-6.704-7.223-4.814.145-6.57-3.584-6.019-7.914-4.625-.716-5.43-4.782-4.357-8.764-4.239-1.286-5.122-5.672-2.765-9.176-3.965-1.638-4.625-6.311-1.655-9.363-3.324-2.912-3.326-7.025,0-9.94-2.971-3.049-2.307-7.73,1.655-9.363-2.351-3.404-1.372-7.974,2.765-9.176-1.081-4.002-.248-8.056,4.357-8.764-.553-4.34,1.212-8.06,6.019-7.914-.608-4.461,2.327-7.258,6.704-7.223.644-4.227,3.737-6.739,8.013-5.516.767-4.261,4.871-6.473,8.769-4.367,1.265-4.156,5.684-5.506,9.338-3.159,1.376-2.552,3.812-3.727,6.706-3.115.932.197,2.357,1.535,2.818,1.455,1.008-.176,2.113-2.53,5.222-2.361,2.501.136,3.874,2.266,4.449,2.366.452.079,1.892-1.264,2.821-1.46,2.641-.558,5.493.441,6.518,3.064ZM63.78.909c-1.357.198-2.628,1.053-3.479,2.101,2.188,2.005,6.154,2.007,8.347,0-1.35-1.531-2.764-2.407-4.868-2.101ZM59.099,3.6c-2.116-3.251-7.125-2.252-8.361,1.196,3.196.849,5.609.539,8.361-1.196ZM78.21,4.796c-1.183-3.395-5.415-4.253-7.962-1.781,1.274,2.715,5.478,2.468,7.962,1.781ZM41.578,7.583c2.966.725,5.932-.255,7.956-2.584-2.781-2.645-7.134-.924-7.956,2.584ZM87.37,7.583c-.822-3.509-5.176-5.229-7.956-2.584,2.025,2.329,4.99,3.309,7.956,2.584ZM88.093,8.45c-.391-.234-2.476.362-3.596.236-2.937-.331-4.602-2.72-5.776-3.035-.789-.212-3.788.537-5.452.307-1.711-.237-3.495-1.936-4.004-1.947-.756-.017-2.587,1.146-4.38,1.208-2.087.073-4.46-1.196-5.128-1.133-.757.072-2.374,1.634-4.077,1.872-1.667.232-4.66-.52-5.452-.307-1.174.316-2.845,2.715-5.776,3.036-1.178.129-2.431-.376-2.994-.244-.519.122-2.393,2.737-4.105,3.475-1.391.6-4.62.751-4.872.903-.109.066-.689,1.757-1.084,2.299-1.998,2.738-5.759,2.607-6.453,3.299-.289.289-1.122,3.136-2.266,4.3-1.165,1.186-4.204,2.07-4.402,2.366-.773,1.157-.353,3.51-2.367,5.592-.809.836-3.231,1.872-3.334,2.037-.237.382.014,3.312-.782,4.99-.992,2.091-3.236,2.8-3.632,3.357-.129.182.516,3.008.271,4.428-.385,2.231-2.866,4.24-3,4.916-.141.708.886,2.946.678,4.689-.237,1.979-1.988,3.591-2.187,4.589-.055.277,1.496,3.327,1.454,4.999-.038,1.533-1.623,4.472-1.579,4.717.09.508,2.05,2.443,2.308,4.468.231,1.817-.783,4.195-.685,4.687.131.66,2.627,2.689,3.012,4.922.238,1.38-.376,4.232-.264,4.423.18.307,2.856,1.875,3.626,3.361.884,1.706.494,4.53.781,4.991.103.166,2.526,1.201,3.334,2.037,1.979,2.046,1.678,4.651,2.358,5.601.139.194,3.107,1.09,4.212,2.158,1.328,1.283,2.109,4.144,2.465,4.499.182.182,3.639.917,4.821,1.748,1.474,1.036,2.513,3.725,2.716,3.849.233.143,3.461.233,5.136,1.036,1.373.658,3.423,3.244,3.842,3.343.555.132,1.818-.373,2.993-.245,2.931.321,4.602,2.721,5.776,3.036.792.213,3.785-.539,5.452-.307,1.703.238,3.32,1.8,4.077,1.872.805.076,3.427-1.351,5.934-1.13,1.519.134,2.875,1.225,3.574,1.205.521-.014,2.285-1.709,4.004-1.947,1.664-.23,4.663.519,5.452.307,1.17-.315,2.889-2.775,5.781-3.044,1.258-.117,2.545.527,3.385.335.21-.048,1.913-2.509,2.933-3.14,1.949-1.206,5.082-.98,5.648-1.321.167-.101,1.111-2.433,2.076-3.295,1.717-1.534,4.834-1.781,5.458-2.303.303-.253,1.096-3.139,2.285-4.283,1.012-.973,4.116-2.034,4.375-2.392.764-1.058.746-3.682,2.431-5.529.762-.835,3.182-1.923,3.284-2.088.26-.421.05-3.481,1.173-5.395.783-1.334,3.119-2.769,3.231-2.96.102-.174-.468-2.724-.263-4.024.392-2.486,2.868-4.662,2.999-5.315.128-.641-.802-2.712-.675-4.276.198-2.442,2.138-4.107,2.292-4.886.075-.382-1.579-3.426-1.54-5.097.042-1.787,1.464-3.568,1.544-4.467.025-.284-2.137-3.196-2.296-5.153-.127-1.563.804-3.634.675-4.276-.131-.652-2.607-2.828-2.999-5.315-.205-1.301.365-3.851.263-4.024-.112-.191-2.448-1.626-3.231-2.96-1.123-1.914-.913-4.974-1.173-5.395-.207-.336-3.487-1.624-4.618-3.938-.483-.987-.704-3.136-1.096-3.679-.319-.442-3.174-1.24-4.198-2.172-1.303-1.186-2.136-4.231-2.463-4.504-.624-.522-3.741-.769-5.458-2.303-.965-.862-1.909-3.194-2.076-3.295-.566-.341-3.699-.115-5.648-1.321-1.128-.698-2.509-2.919-2.727-3.049ZM37.107,7.265c-3.341.456-6.916,6.345-.714,4.09,1.461-.531,3.455-1.762,3.799-3.375-.893-.668-2.003-.863-3.085-.715ZM96.128,11.96c-.364-3.768-4.302-6.077-7.556-3.777,1.962,2.394,4.349,3.92,7.556,3.777ZM31.625,12.364c-3.583-1.115-5.977,1.237-6.757,4.577.545.811.598.379,1.094.316,2.51-.319,5.417-2.234,5.664-4.893ZM97.324,12.363c.253,2.365,3.74,4.935,5.942,5.017,1.473.055.217-2.577-.275-3.322-1.215-1.841-3.659-2.308-5.668-1.694ZM18.088,23.899c2.539.076,4.868-2.18,5.659-4.494.73-2.135-1.631-1.421-2.872-.876-2.065.907-3.053,3.195-2.787,5.369ZM110.861,23.899c.647-3.485-2.139-6.126-5.576-5.774-.597.348.001,1.313.212,1.785.937,2.1,2.942,4.088,5.364,3.989ZM17.287,25.094c-3.559-.254-6.629,3.537-4.579,6.752,2.634-1.333,4.581-3.691,4.579-6.752ZM116.833,31.854c.57-3.806-1.105-6.751-5.172-6.76.013,3.059,2.157,6.061,5.172,6.76ZM11.713,33.052c-3.777.249-5.218,3.859-3.976,7.158,2.812-1.07,4.383-4.215,3.976-7.158ZM117.236,33.052c-.379,3.032,1.059,5.736,3.774,7.158,1.891-3.146-.052-6.952-3.774-7.158ZM7.731,41.804c-3.964.476-4.896,4.327-3.178,7.558,2.889-.931,3.394-4.939,3.178-7.558ZM121.825,41.806c-1.751.523.29,7.29,2.371,7.556,2.558-1.727-.041-8.252-2.371-7.556ZM3.962,50.961c-2.749,2.095-3.542,5.448-.808,7.944,1.925-1.778,3.477-6.349.808-7.944ZM124.606,50.956c-1.793,2.386-.828,5.989,1.189,7.948,2.762-2.491,2.089-6.339-1.189-7.948ZM2.765,60.508c-2.204.48-2.736,7.299.383,7.953,1.979-1.014,1.494-8.362-.383-7.953ZM125.801,60.504c-1.834,1.061-1.39,8.341.38,7.951,2.415-.532,2.85-7.315-.38-7.951ZM3.154,70.06c-2.62,2.352-2.038,6.455,1.188,7.95,1.9-2.281.906-6.146-1.188-7.95ZM125.795,70.06c-2.016,1.959-2.982,5.563-1.189,7.948,3.206-1.536,3.917-5.577,1.189-7.948ZM7.731,87.161c.216-2.619-.288-6.627-3.178-7.558-1.718,3.23-.786,7.082,3.178,7.558ZM123.809,79.604c-1.937.429-4.666,10.327-.195,6.573,2.36-1.981,1.736-6.915.195-6.573ZM11.713,95.913c.407-2.944-1.163-6.089-3.976-7.158-1.243,3.299.199,6.909,3.976,7.158ZM117.236,95.913c3.722-.206,5.666-4.012,3.774-7.158-2.716,1.422-4.153,4.127-3.774,7.158ZM17.287,103.871c.001-3.061-1.945-5.419-4.579-6.752-2.05,3.216,1.02,7.006,4.579,6.752ZM116.833,97.111c-2.935.697-5.193,3.804-5.172,6.76,4.178.063,5.682-2.937,5.172-6.76ZM18.088,105.066c-.267,2.174.722,4.462,2.787,5.369,1.241.545,3.602,1.259,2.872-.876-.791-2.313-3.12-4.57-5.659-4.494ZM110.861,105.067c-2.421-.101-4.427,1.89-5.364,3.988-.211.473-.809,1.437-.212,1.785,3.364.485,6.172-2.453,5.576-5.773ZM31.624,116.601c-.358-2.648-3.15-4.555-5.659-4.897-.514-.07-.557-.478-1.098.32.725,3.435,3.127,5.746,6.757,4.577ZM97.324,116.602c2.009.613,4.453.146,5.668-1.694,2.92-4.424-.937-3.734-3.578-1.585-.948.771-1.927,2.017-2.09,3.28ZM39.053,119.13c-.901-.835-6.056-3.235-6.219-1.535.82,3.37,4.607,5.493,7.543,3.189-.617-.378-.885-1.246-1.324-1.653ZM96.128,117.006c-3.207-.142-5.594,1.383-7.556,3.777,3.127,2.431,7.254-.099,7.556-3.777ZM41.579,121.382c.822,3.509,5.176,5.229,7.956,2.584-2.007-2.376-4.989-3.186-7.956-2.584ZM87.37,121.382c-2.939-.643-5.96.34-7.956,2.584,2.78,2.644,7.134.925,7.956-2.584ZM59.099,125.365c-2.753-1.735-5.165-2.045-8.361-1.196,1.236,3.448,6.246,4.446,8.361,1.196ZM78.21,124.169c-2.484-.688-6.688-.934-7.962,1.781,2.547,2.472,6.779,1.614,7.962-1.781ZM62.575,124.655c-.448.092-2.269,1.004-2.274,1.301,2.363,2.911,5.949,2.947,8.347,0-1.524-1.517-4.048-1.715-6.073-1.301Z"/>
      <path d="M156.654,35.437l.003,1.192c-.969.035-2.144-.306-2.79.598v8.157h10.751v-8.157c0-1.326-3.937.85-3.185-1.79h10.353l-.394,1.417-1.747-.196-.644.97.371,18.723,2.815.175-.002,1.192h-10.751l-.002-1.192,2.517.012c.262-.081.67-.899.67-1.009v-8.554h-10.751v8.952l.659.534,2.529.064-.002,1.192h-10.751l-.002-1.192,2.815-.175.373-18.726-.653-.939-2.531-.058c-.171-.371.353-1.192.595-1.192h9.756Z"/>
      <path d="M242.064,72.838c6.343,1.128,5.299,11.672-1.392,11.338,5.201,1.625,5.447,10.254,11.15,9.751l-.003,1.192h-7.765c-3.349-3.05-3.817-10.984-9.357-10.345v8.554l.66.534,2.524.065-.595,1.192h-9.955c-.17,0-.873-.639-.206-1.001l2.739-.246c.202-.423.351-.901.411-1.369.431-3.37.484-13.353.061-16.7-.055-.436.035-.893-.4-1.191l-2.572-.544-.233-1.229c4.444.556,10.724-.748,14.932,0ZM234.698,83.581c8.785,1.942,9.578-11.067.659-9.485l-.659.532v8.952Z"/>
      <path d="M203.1,37.568c5.397,5.064,4.479,16.353-2.555,19.645-10.666,4.992-20.3-4.175-16.53-15.323,2.513-7.429,13.729-9.346,19.084-4.322ZM199.124,55.594c2.68-2.703,2.715-12.642,1.345-15.994-1.821-4.453-8.429-4.674-10.706-.722-2.095,3.636-2.317,16.756,3.011,17.961,1.931.436,4.904.214,6.351-1.245Z"/>
      <path d="M188.708,72.838c5.855.983,6.833,10.237,1.489,12.629-2.634,1.179-5.684,1.097-8.455.503l.352,7.724,3.433.629-.403.796h-10.95l-.002-1.192,2.815-.175.373-18.726-.652-.939-2.536-.057.002-1.192c4.378.52,10.363-.7,14.534,0ZM181.739,75.026v9.748c5.843,1.867,8.272-2.64,6.899-7.887-.891-3.403-6.383-3.701-6.899-1.861Z"/>
      <path d="M288.053,41.801c-2.506.376-3.129-2.638-4.564-3.99-3.995-3.763-10.562.597-5.515,4.318,4.083,3.011,10.887,2.861,9.98,10.112-.722,5.774-6.262,6.73-11.073,5.701-1.41-.302-2.689-1.981-3.14-.015l-1.03-.195-1.378-7.173c2.592-.316,3.296,3.237,4.978,4.769,2.638,2.404,8.239,2.208,8.442-1.85.255-5.096-10.768-4.812-11.733-10.775-.932-5.755,3.693-8.183,8.831-7.631,1.44.155,2.781,1.619,4.014-.025l2.188,6.754Z"/>
      <path d="M322.298,35.437c.389,1.427-1.009.858-.795,2.139.248,1.486,1.69,2.609,1.589,4.225-2.686.482-3.671-3.699-5.58-4.566-1.127-.512-2.751-.075-3.975-.206v18.899c.494,1.111,3.347.348,3.586.599l-.002,1.192h-11.946l-.002-1.192c.238-.25,3.092.512,3.586-.599v-18.899c-4.911-1.17-4.817,2.153-7.548,4.195-.841.629-2.213,1.022-1.683-.478.306-.867,1.543-2.542,1.603-3.194.049-.536-1.926-2.115-.535-2.115h21.701Z"/>
      <path d="M335.038,79.202c-3.004.114-3.196-3.774-5.97-4.969-2.274-.979-6.017-.211-5.856,2.722.245,4.453,10.935,3.952,11.791,10.439.749,5.678-3.009,8.543-8.38,8.286-1.459-.07-4.436-1.275-4.932-1.224-.574.059-.896,1.316-1.778,1.059l-1.595-7.556c2.806-.125,3.418,3.311,5.564,4.98,5.168,4.019,10.772-1.534,6.584-4.987-3.538-2.917-10.685-3.087-10.52-9.307.128-4.818,4.65-6.677,8.891-6.172,1.449.173,2.786,1.605,4.014-.026l2.187,6.755Z"/>
      <path d="M162.625,79.202c-2.627-.188-3.513-3.983-5.878-5.062-4.107-1.874-8.916,2.562-2.886,6.065,3.773,2.192,8.747,2.537,8.927,8.095.21,6.501-5.547,8.145-10.936,7.041-1.657-.339-2.358-1.908-3.757.168-.34.007-1.679-5.666-1.856-6.505-.068-.323-.565-.87.27-1.047,1.669-.353,3.655,4.101,5.167,5.174,4.889,3.471,10.577-1.29,6.369-5.171-2.913-2.687-9.464-3.245-10.112-7.797-.804-5.65,3.26-8.311,8.492-7.69,1.474.175,2.662,1.547,4.019.04.884-.016,1.975,5.557,2.182,6.688Z"/>
      <path d="M307.167,72.838c.389,1.427-1.009.858-.795,2.139.248,1.486,1.689,2.609,1.589,4.225-1.154,1.137-4.508-4.08-5.58-4.566-1.128-.512-2.75-.075-3.974-.206v18.899c.494,1.111,3.347.348,3.586.599l-.002,1.192h-11.348l-.589-.597.383-.405c.616-.357,3.59.016,3.59-1.187v-18.502c-1.311.16-3.185-.337-4.375.204-.705.32-4.083,5.679-5.179,4.569-.207-1.752,1.484-2.928,1.6-4.62.05-.729-1.274-.507-.805-1.744h21.9Z"/>
      <path d="M381.306,72.535c.336-.208.753-.061,1.117-.098l1.592,7.958c-3.058.275-3.609-4.479-5.824-5.914-3.333-2.159-8.179-.648-9.501,3.134-1.083,3.099-1.034,11.48.813,14.301,2.887,4.41,10.973,2.534,13.125-1.968l.991.604c-4.105,8.699-19.138,6.218-20.611-3.287-1.494-9.639,4.112-16.126,14.006-14.791.911.123,3.159,1.234,3.592,1.126.459-.115.527-.958.7-1.065Z"/>
      <path d="M374.009,36.195l.432-.965c1.34-1.13,1.23,2.356,1.392,3.015.401,1.634,1.147,3.102,1.414,4.75-3.301.137-3.777-4.667-6.402-6.132-2.111-1.178-5.694-.858-7.494.801-3.03,2.792-2.92,12.633-1.054,16.096,2.282,4.237,8.264,4.112,11.566,1.171.494-.44,2.981-4.318,2.594-.998-.282,2.423-5.991,4.493-8.185,4.586-9.009.384-14.303-7.003-11.935-15.53,2.245-8.084,10.618-9.446,17.673-6.795Z"/>
      <path d="M228.725,35.437l-.389,1.402-2.799.188c.246,3.184-1.378,16.746-.155,18.715.86,1.385,5.096.755,6.535.193,2.531-.988,4.275-5.595,7.556-5.377.536.484-2.994,4.307-2.811,5.733.025.197,1.329.329.822,1.427h-19.909l-.002-1.192,2.815-.175.392-19.065c-.219-.967-3.418.591-2.807-1.849h10.751Z"/>
      <path d="M262.571,95.119l-.002-1.192,2.536-.057.652-.939.002-18.504-3.186-.4c-.109-.545.14-.955.664-1.121.893-.282,7.829-.231,9.109-.089.588.065,1.008.067,1.37.623.506,1.025-2.286.98-2.796.765l-.387.82.374,18.727,2.815.175-.002,1.192h-11.149Z"/>
      <path d="M249.431,57.719l-.002-1.192,2.536-.057.652-.939-.044-18.46-3.138-1.031c.466-.703,1.065-.57,1.767-.624,2.071-.158,5.548-.172,7.607,0,.896.075,1.86-.052,1.769,1.212l-2.531.058-.597.597-.056,18.248.652.939,2.536.057-.002,1.192h-11.149Z"/>
      <path d="M215.187,72.838l-.389,1.402-2.803.417.006,18.275.653.938,2.929.058c.171.371-.353,1.192-.595,1.192h-10.353c-.171,0-.873-.643-.206-1.001l2.541-.246.652-.94.006-18.275-2.803-.417-.389-1.402h10.751Z"/>
      <path d="M344.597,35.437l.003,1.192-3.205.664.19,18.859,3.412.374-.002,1.192h-10.95c-.171,0-.873-.643-.206-1.001l2.541-.246.652-.94c-.47-5.7.621-12.344.026-17.92-.132-1.237-2.285-.938-3.215-.982l.003-1.192h10.751Z"/>
      <path d="M400.637,80.096c11.311-1.932,11.164,13.993,3.394,15.325-10.695,1.833-10.931-14.037-3.394-15.325ZM401.421,81.278c-2.424.723-2.11,7.575-1.875,9.663.283,2.502,2.002,4.562,4.539,2.942,1.878-1.199,3.114-14.328-2.664-12.605Z"/>
      <path d="M426.109,90.863c2.354,1.898-.526,6.083-3.298,4.283-2.996-1.947.35-6.66,3.298-4.283Z"/>
      <path d="M61.406,14.467c38.686-2.311,69.298,37.109,49.923,72.962-18.932,35.034-71.131,36.123-92.214,2.485S23.986,16.702,61.406,14.467ZM93.741,33.846c-13.396-19.123-45.162-19.25-58.533,0h21.9l.002,2.389c-2.834-.175-7.277.124-8.675,3.069-.155.327-.883,2.905-.883,3.096v18.104h7.964c-7.301-10.393,2.221-20.022,13.54-15.718,2.224.846,2.984,2.995,4.028-1.34l1.545-.051v14.324l-1.393-.399c-.538-3.191-1.254-7.02-3.984-9.149-6.582-5.135-16.431,1.614-10.11,8.113.622.64,6.455,4.221,6.925,4.221h15.728v-18.502c0-.159-.85-2.645-1.024-2.955-1.53-2.725-5.745-2.963-8.534-2.812l.002-2.389h21.502ZM33.485,36.68c-.571.188-3.231,5.703-3.646,6.722-5.04,12.373-5.149,27.854-.611,40.385.664,1.834,2.556,6.514,3.632,7.907,1.251,1.618,4.013-.005,4.915-1.37.781-1.181,1.278-3.531,1.408-4.959,1.215-13.289-.906-28.311.021-41.786.218-2.774-2.33-8.017-5.719-6.9ZM94.442,36.702c-2.893.363-4.084,3.996-4.278,6.501.798,13.7-1.086,28.63-.021,42.183.13,1.655.482,3.566,1.437,4.93.888,1.268,3.302,2.958,4.507,1.377.706-.926,2.379-4.594,2.902-5.851,5.733-13.793,5.569-32.701-1.447-46.045-.752-1.431-1.442-3.302-3.099-3.094ZM52.33,84.377v-13.727l1.406-.211c.712,7.464,5.469,11.949,13.149,11.174,3.917-.395,7.147-3.712,6.522-7.755-.281-1.817-2.041-3.441-3.426-4.532-.876-.691-8.194-4.843-8.692-4.843h-13.737v22.082c0,.238.658,2.36.833,2.748,1.561,3.456,5.415,3.509,8.725,3.417l-.002,2.389h-21.9c8.643,11.946,23.307,16.055,37.51,13.41,8.239-1.535,16.169-6.641,21.023-13.41h-21.502l-.002-2.389c3.31.092,7.165.039,8.725-3.417.175-.388.833-2.511.833-2.748v-22.082h-7.964c9.073,8.758,1.604,21.449-10.449,19.791-2.018-.278-6.694-2.799-7.664-2.705-1.034.099-1.663,1.838-1.858,2.739l-1.531.069Z"/>
    </g>
  </g>
</svg>