<?xml version="1.0" encoding="UTF-8"?>
<svg id="b" data-name="Layer 2" xmlns="http://www.w3.org/2000/svg" width="186.743" height="90.852" viewBox="0 0 186.743 90.852">
  <g id="c" data-name="Layer 2">
    <g>
      <path d="M85.177,90.852l-7.399-3.045,11.097-43.642c-22.845,34.643-28.463,15.638-26.01-15.398.608-7.696,2.251-27.454,14.064-23.985,3.48,1.022-9.049,41.443-2.906,47.972,10.284-13.076,13.943-25.55,18.535-41.209l8.712,5.21-3.736,23.711,3.295-4.957,5.964,1.259c6.929-11.609,6.737-29.884,21.094-35.597l4.084,4.056c-8.926,23.833-9.582,49.478-8.42,74.566,4.488-2.954,21.523-7.355,21.694.626.235,10.938-12.062,3.981-18.495,4.312-3.389.174-14.527,3.884-15.651,3.141l-4.258-47.385c-15.979,13.218-8.942,34.834-20.425,50.364h-1.237Z"/>
      <path d="M15.899,53.986c5.598-10.138,2.907-24.401,17.844-25.837l3.252,25.823,3.46-.154c8.9-10.498-6.012-59.667,21.196-51.411-3.445,22.606-16.477,41.726-16.017,65.671.075,3.872,4.315,4.082-4.375,9.345l-8.632-2.501-3.155-21.522c1.883-2.276.732,2.072,1.872,1.817,3.574-.802,4.035-20.373.641-15.968l-8.847,44.676C-8.715,102.975,9.01,39.672,4.829,27.733c-.521-1.487-4.16-.52-4.72-2.534C-.671,22.392,2.689-2.271,11.266.17c6.845,1.948,1.863,17.631,2.084,25.013.276,9.207,2.062,19.501,2.549,28.804Z"/>
      <path d="M145.807,77.31c-.305-.809,2.523-2.328,2.469-4.297-.563-20.314-3.673-41.832-3.39-62.491l2.729-2.698c22.198,2.138,40.403,10.625,39.058,35.769-.982,18.35-6.125,19.993-18.065,29.968-3.206,2.678-4.759,10.821-13.237,9.724-.56-.073-9.366-5.45-9.564-5.976ZM171.338,27.412c-2.909-2.949-6.822-4.197-10.668-5.362.966,10.738-3.754,23.574-3.737,33.798.006,3.581,2.178.09,2.474.595,1.334,2.269-2.319,11.973.614,12.255,15.021-3.55,21.335-31.129,11.317-41.287Z"/>
    </g>
  </g>
</svg>