<?xml version="1.0" encoding="UTF-8"?>
<svg id="b" data-name="Layer 2" xmlns="http://www.w3.org/2000/svg" width="336.629" height="164.539" viewBox="0 0 336.629 164.539">
  <g id="c" data-name="Layer 2">
    <g>
      <path d="M336.597,41.134l-92.755,5.776-25.386,72.486c-1.841,1.622-4.793.913-5.862-1.292l-16.105-47.811c.308,4.442.922,8.901.618,13.394-1.818,26.877-30.237,47.825-54.512,30.47-21.992-15.723-21.904-52.755-.063-68.623,17.972-13.057,41.91-4.339,50.365,15.175,1.016.14.578-.665.409-1.213-1.713-5.534-4.217-10.851-5.436-16.556.415-3.214,3.855-4.405,6.208-2.189l21.603,64.691c.723.08.785-.517.988-1.01,8.117-19.739,13.36-41.856,21.282-61.809,1.215-2.662,2.288-3.635,5.291-3.899,27.681.412,55.532-.16,83.143.831,2.69.097,6.809-.447,9.21-.017.99.178,1.108.638,1.001,1.596ZM159.034,46.844c-25.678,2.543-34.258,37.197-18.909,55.403,16.495,19.566,43.659,10.28,49.575-13.181,5.009-19.864-8.199-44.447-30.665-42.222Z"/>
      <path d="M29.605,20.767c5.429-.314,10.789-1.459,16.191-1.995,19.712-1.956,47.584-3.037,66.146,4.198,30.437,11.863,16.73,39.415-.583,56.118-11.855,11.438-26.029,22.549-38.794,33.129-21.28,17.637-43.066,34.683-64.347,52.322-1.386-1.446-.387-3.888.799-5.185,28.934-24.512,59.127-47.645,87.93-72.299,9.164-7.843,24.807-19.946,26.143-32.589,2.131-20.169-15.228-26.409-31.795-28.84-20.304-2.98-41.433-.674-61.694,1.53l.023,96.874c-.153,1.134-4.189,5.848-5.212,6.376-.705.364-.757.062-1.205-.407V28.355c-7.819,1.018-15.519,3.318-22.597,6.78-1.246.368-.251-1.54.033-1.967,4.01-6.024,15.846-9.07,22.524-10.842l.114-17.26L28.611,0l.994.598v20.169Z"/>
    </g>
  </g>
</svg>