<?xml version="1.0" encoding="UTF-8"?>
<svg id="b" data-name="Layer 2" xmlns="http://www.w3.org/2000/svg" width="223.534" height="193.464" viewBox="0 0 223.534 193.464">
  <g id="c" data-name="Layer 2">
    <g>
      <path d="M26.998,54.012c.03.228-.011.435-.076.654-.5,1.687-1.981,4.128-2.714,5.898-1.254,3.028-2.416,6.152-3.061,9.371l-.321-.811c-.138.784-.55,1.576-.592,2.381-.366,6.913-2.96,13.815-3.316,21.091-.436,8.91,1.382,24.246,4.39,32.671.228.638.808,1.428.916,2.023.084.467-.124.754-.033,1.142.273,1.16,1.946,3.799,2.533,5.119,1.487,3.346,2.619,6.681,4.359,9.94.62,1.16,1.566,2.13,1.817,3.464l.321-.322c1.37,2.368,3.315,4.356,4.849,6.607.279.409,1.241,2.388,1.361,2.462.337.209.64.104,1.191.669,1.817,1.863,3.417,4.716,5.332,6.452.782.708,1.894,1.164,2.692,1.777,2.355,1.808,4.738,4.157,7.054,6.026,1.292,1.042,2.923,1.826,3.912,3.138.092.122-.035.57.331.832.378.27.662-.034.723.002.042.025.274.681.589.792.305.107.218-.316.334-.335.301-.051,4.61,2.575,5.322,2.965.648.355,4.65,2.21,4.798,2.435.029.044-.149.256-.128.284.171.229,4.913,2.317,5.19,2.384.589.144.832-.181,1.617.319,1.85,1.18,2.423.983,4.319,1.692,1.537.575,3.011,1.659,4.717,1.946.405.068.129-.152.068-.313.828-.221,1.616.809,2.068.939.565.163,1.381-.097,1.883.031.18.046.111.419.514.495.792.15,1.971-.078,2.889.038,1.884.237,4.272,1.527,5.965,1.673,1.494.129,3.353.138,4.958.245,5.297.352,10.599.374,15.928-.011,2.186-.158,4.311-.701,6.493-.968,2.496-.305,5.028-.978,7.436-1.678.757-.22,1.92-.862,2.597-.98.35-.061.685.121.99.03.365-.109.366-.59.553-.632.302-.068.689.063,1.068-.034.299-.076.783-.563,1.212-.738,2.064-.84,4.575-1.35,6.747-2.19,1.671-.646,5.815-3.059,6.943-3.298,3.596-.764,5.921-4.064,8.847-5.286.404-.169.76-.097,1.067-.233.334-.148.964-1.351,1.635-1.622.232-.094.405.117.725-.065.542-.308,1.107-1.573,1.868-1.896.208-.088.315.34.642.183.434-.208,1.119-1.087,1.443-1.498.166-.211.204-.555.355-.748,1.298-1.659,3.132-1.802,4.626-3.209.145-.136.844-.784.875-.838.095-.163-.119-.471-.1-.685.027-.297,1.497-1.561,1.843-1.95.617-.693,2.286-2.969,2.899-3.359.573-.364.539-.186.657.332l1.302-1.623.244.732.648-.815c.024-.062-.52.03-.141-.776,1.026-2.184,3.102-4.158,4.407-6.164.616-.947,1.073-2.678,1.669-3.372.457-.532,1.089-.26,1.418-1.195.177-.504-.226-1.159.124-1.732l.321.322c.164-.869,1.116-1.318,1.532-1.963.47-.73.676-1.982.999-2.582.088-.162.709-.592.919-1.025.37-.763.62-2.025.779-2.877l.162,1.299c.603-.521.894-1.873,1.118-2.699.158-.585.089-1.239.219-1.73.154-.576,1.078-1.928,1.385-2.677,1.054-2.576,1.669-5.398,2.55-8.012.286-.847.511-1.731.74-2.594l.321.164c.113-.183.094-2.264.17-2.676.075-.407.568-1.367.731-2.031.397-1.625.335-3.193.601-4.762.076-.447.893-2.729.773-2.881l-.485.162c-.353-.574.501-1.596.504-1.701.016-.534-.231-1.113-.187-1.798.03-.466.266-.848.28-1.152.083-1.772-.242-3.78.368-5.512.497-1.412,1.538-.626,1.31.577l.484-1.136c.363,1.524.915,4.928.216,6.294-.123.241-.382.251-.506.475-.459.825-.073,3.132-.19,4.203-.177,1.618-.85,3.557-.935,5.24-.035.689.184,1.346.076,2.187-.316,2.472-1.769,4.896-2.316,7.271-.223.966-.14,2.193-.416,2.996-.304.884-.418,1.032-.68,2.082-.804,3.218-3.052,7.663-4.531,10.743-3.587,7.47-7.582,13.125-12.422,19.751-1.828,2.503-3.772,5.389-6.419,7.068-1.613,1.023-2.451,2.943-4.062,3.898-.279.165-.651.104-.914.308-.222.172-.667.97-.936,1.255-2.888,3.063-5.755,5.296-9.628,6.946-.652.278-1.706.208-1.751,1.01l.732-.158c-.086.942-.976,1.369-1.7,1.791-1.912,1.115-4.134,1.823-6.081,2.856-1.049.556-2.849,2.046-3.803,2.379-.351.122-1.12-.113-1.649-.029s-1.356.619-1.977.799c-.384.111-.714-.015-1.033.075-.566.161-1.229.869-1.752,1.024-.823.243-1.917.264-2.837.575s-2.126,1.228-2.886,1.354c-2.159.358-4.327.89-6.453,1.657-6.67,2.406-14.952,3.05-22.07,2.632-.718-.042-1.593.098-2.265-.01-.517-.083-.75-.518-1.279-.598-.746-.113-3.972,1.022-4.336.768l.165-.322c-1.425.006-2.872-.148-4.286-.347-1.086-.153-2.852-.392-3.856-.7-1.55-.476-3.307-.904-4.983-1.348-4.261-1.128-8.834-1.948-12.769-3.967-.196-.101-.388-.423-.534-.448-.175-.03-.419.311-.783.321-.538.015-3.518-1.348-3.982-1.724-.754-.611-2.363-1.833-3.378-2-.304-.05-.535.127-.842.051-1.209-.299-7.521-4.435-8.903-5.403-1.035-.725-1.988-1.563-3.006-2.31-5.543-4.064-10.358-7.132-14.498-12.847-2.593-3.58-5.288-5.282-7.721-9.34-.569-.949-1.894-2.257-2.513-3.338-2.864-5.006-5.978-9.947-8.357-15.204-.704-1.554-1.652-3.57-2.143-5.169-.494-1.61-.613-3.324-.969-4.963l-.322.811c-.047-.548-.248-1.236-.452-1.742-.101-.251-.421-.411-.49-.647-.232-.789.159-2.085-.196-2.971l.489.403c-.396-1.343-.102-3.262-.663-4.504-.059-.13-.26-.156-.307-.248-.26-.511-.419-.899-.334-1.502l-.485.162c-.174-1.546-.489-3.083-.65-4.632-.676-6.507-.883-12.306.316-18.694.319-1.702.011-2.679-.159-4.211-.048-.429.048-3.827.168-3.985.286-.376.29.421.485.323.058-.909.428-.525.98-.725.65-.235,1.594-1.186,1.719-1.871.179-.978-.372-1.639-.912-2.364-.107-.143-.371-.181-.439-.284-.5-.757.15-2.433.261-3.305.326-2.553.636-4.204,1.365-6.597.136-.448.371-1.195.764-1.428l-.163,1.461c.258-.976,1.053-1.612,1.109-2.678.022-.415-.45-1.125.192-1.383l.162.324c.94-3.057,1.825-6.138,3.132-9.056l3.207-1.016Z"/>
      <path d="M114.581,50.436c-3.409-.324-6.696-1.396-10.044-2.061-12.432-2.469-25.302-3.417-37.965-2.806-.77.037-3.006-.189-3.5.238l-7.474,20.228c2.883-.152,6.3-1.029,9.165-.635.858.118,3.479,1.842,3.17,2.807-.088.274-1.646.403-2.02.427-2.766.178-5.508.153-8.283.491-.609.074-3.424.447-3.669.718-2.885,6.866-5.496,13.85-8.363,20.723-2.737,6.56-6,13.052-8.366,19.745-.59,1.67-2.228,6.09-1.939,7.633.111.595,1.707,2.643-.848,1.335-1.447-.741-2.802-2.646-2.853-4.297-.08-2.586,3.787-10.106,4.952-12.995,3.723-9.229,7.215-18.557,10.599-27.911.428-1.183.879-2.375,1.465-3.489-7.263,1.33-14.416,3.098-21.387,5.519-.751.1-2.502-1.299-2.349-2.009.054-.248,3.964-1.957,4.521-2.171,6.626-2.543,14.008-3.826,20.975-5.105l7.623-19.106.527-1.827c-12.358,1.167-24.606,3.369-36.319,7.471-7.992,2.799-19.863,7.348-18.924,17.793.316,3.518,3.572,6.825,7.083,7.216,1.399.156,2.761-.183,4.136-.073,2.016,1.282,2.396,2.182-.409,2.372-7.216.489-14.602-6.178-14.06-13.573.515-7.04,6.773-11.096,12.561-13.762,25.478-11.737,58.391-13.341,85.773-8.532,3.772.662,7.902,1.444,11.541,2.595,1.534.485,4.64,1.125,4.678,3.04Z"/>
      <path d="M94.5,111.46c-3.609-3.227-1.047-8.928,2.221-11.369,4.424-3.304,13.892-3.692,19.24-3.182.462.044,4.099.533,4.152.737.093.361-1.409,2.639-1.562,2.671-.086.018-1.209-.528-1.655-.606-4.609-.81-16.288,2.574-18.758,6.833-.954,1.644-.77,3.787,1.415,4.01,4.853.496,13.03-2.706,16.729-5.852,3.848-3.273,9.45-12.573,8.094-17.671-1.813-6.816-11.906-5.602-17.055-7.806-1.312-.562-1.853-.933-2.466-2.246-5.526-11.844,15.683-32.003,27.003-24.403,4.5,3.021,5.064,12.113,2.412,16.492-1.274,2.104-2.046,1.889-3.523.056-1.392-1.726-.556-1.57.167-3.087,2.125-4.455,2.02-10.52-3.658-11.947-7.612-1.913-15.879,8.903-17.631,15.357-.657,2.419-.944,4.33,1.491,5.82,2.694,1.649,7.046,1.324,10.347,2.815,6.32,2.853,7.331,7.516,6.041,13.957-1.915,9.56-9.912,15.883-18.57,19.29-4.433,1.745-10.364,3.771-14.434.13Z"/>
      <path d="M157.656,70.765c.602-.516,4.208,1.503,3.387,2.817-2.675,6.709-7.627,14.208-8.883,21.34-.158.896-.385,1.983.052,2.811.399.108,1.446-.374,1.861-.573,8.363-4.005,10.91-17.752,15.191-25.273l-.086-1.138c1.804.31,4.492,2.121,3.984,4.229-3.136,6.346-6.523,12.63-8.982,19.29-.326.882-1.01,2.402-1.141,3.249-.117.762.25,1.288.053,2-.282.41-1.184-.106-1.503-.303-1.856-1.143-1.899-3.116-1.514-5.069-2.114,2.307-6.855,7.822-10.075,4.263-2.952-3.263-.105-10.054.976-13.688-2.372,2.582-4.516,5.395-6.902,7.964-1.303,1.404-6.245,6.6-7.816,6.816-1.794.246-4.169-2.338-4.412-4.017-.639-4.413,3.924-12.421,6.487-16.014,3.259-4.568,9.709-11.64,15.785-7.558l2.137,1.922c.577-.253,1.27-2.959,1.399-3.07ZM147.336,84.654c2.433-2.851,5.067-6.011,7.375-8.955.433-.553.664-.716.239-1.368-1.132-1.739-3.198-1.648-4.894-.849-5.035,2.373-11.387,13.742-13.453,18.882-.253.63-1.4,3.437-1.143,3.895.167.299.258.039.407-.082,3.935-3.205,8.17-7.659,11.469-11.523Z"/>
      <path d="M117.18.391l-.813.242.813.242-.81.162c.811.222,2.168.527,2.978.334.257-.061.146-.634.371-.668.166-.026.641.17.949.181,1.895.072,2.972-.296,4.966.233,1.911.507,3.717,1.085,5.678,1.472,2.611.515,5.271.663,7.801,1.627.881.336.541.628.921.86.844.518,2.774.033,3.51,1.21l3.697,1.254-.323.321c.901.453,2.074.744,2.933,1.212,3.516,1.916,7.072,3.42,10.475,5.612,2.317,1.492,3.936,2.843,6.418,4.006,1.529.716,2.538,1.928,3.739,2.898,1.353,1.093,1.296.526,2.515,2.197.459.63,1.343.804,1.795,1.13.482.347,1.145,1.705,1.477,2.122.177.222.695.405.8.65.067.156-.799.993.556,1.137l.242-.81,4.725,4.7c.234,1.091.758.993,1.372,1.553.077.07.778.911.775.973-.004.094-.239.236-.262.359-.079.419,2.034,2.182,2.387,2.592,1.409,1.638,2.802,4.389,3.954,6.283.331.544,2.319,3.078,1.919,3.523-.433-.252-1.62-.465-1.905-.695-.618-.499-1.796-3.7-2.345-4.559-.323-.505-.88-.822-1.181-1.419-.339-.674-1.195-2.428-1.788-2.923-.579-.484-1.19-.638-1.784-1.467-.33-.46-.713-1.702-.904-1.859-.382-.314-.308.248-.41.253-.457.019-2.027-2.124-2.598-2.44-1.694-3.234-5.08-5.319-7.804-7.643-1.375-1.173-2.152-1.903-3.639-3.015-1.84-1.376-3.901-3.26-5.781-4.456-.985-.627-6.982-3.582-7.208-3.924-.177-.268.448.067-.402-.487-2.572-1.676-5.166-2.735-8.08-3.786-1.532-.552-5.496-1.415-6.55-2.064-.305-.188-.202-.447-.313-.576-.341-.396-5.653-1.515-6.654-1.849-.137-.046-.126-.305-.23-.318-.331-.042-.862.29-1.406.165-.054-.012-.381-.552-.887-.62-1.486-.202-3.112-.517-4.672-.675-.298-.03-1.491.056-1.543,0-.057-.062.075-.557-.006-.644-.221-.237-2.624-.118-3.148-.184-1.071-.134-2.186-.573-3.421-.643-.178-.01-.616-.105-.573.167l.648.003v.159s-.648.003-.648.003v.159s.648.162.648.162c-1.795.128-3.665-.518-5.451-.332-1.729.18-1.993.559-3.903.183-3.403-.67-8.377.363-12.133.843-2.069.264-4.508,1.126-6.642,1.508-.265.047-.739.527-.955.399-.024-.015.225-.404-.09-.483-.282-.071-1.265.224-1.661.278-2.038.275-1.999.68-3.659,1.54-1.537.796-3.456,1.148-5.18,1.807-3.694,1.413-7.84,2.868-11.068,4.838-1.343.819-2.683,1.792-3.937,2.745l-.322-.485c-1.802,1.152-3.524,2.428-5.268,3.669-1.136.808-2.214,1.572-3.352,2.335-3.173,2.126-5.796,5.152-8.604,7.649-.582.517-1.11.958-1.617,1.461-1.165,1.158-3.758,3.194-4.463,4.492-.17.313-.032.587-.163.791-.2.309-1.217.881-1.631,1.34-.822.91-2.109,2.73-2.84,3.784-.481.693-1.108,2.319-1.725,2.824-.348.285-3.408,1.058-3.565.902-.112-1.02.74-1.603,1.205-2.287,1.067-1.571,2.362-3.861,3.531-5.243.32-.379.846-.648,1.198-1.077.705-.862.177-.555.103-.732-.156-.371,1.133-1.762.952-.571.141.157,2.52-2.923,2.756-3.174,1.13-1.198,2.139-2.047,3.207-3.29,1.525-1.774,3.072-3.558,4.863-5.139.086-.076.048-.469.369-.238.055.039-.087.53.501.222.502-.263,1.898-2.235,2.567-2.834,1.019-.913,1.957-1.116,2.783-1.728.737-.546,1.644-1.868,2.625-2.412.962-.533,2.09-.695,3.174-1.463,2.184-1.548,4.469-3.491,6.992-4.62.415-.186.85-.337,1.27-.516l.253.656c.386-.187.861-.224,1.126-.594.076-.107.317-1.051.438-1.197.179-.215,4.128-1.784,4.602-1.88.595-.121.889.138,1.202.102.1-.012.087-.266.231-.317,1.776-.642,3.726-.803,5.485-1.471.764-.29,1.115-.778,1.867-1.059.568-.212,2.476-.527,2.736-.922.029-.045-.43-.462.589-.467,1.916-.009,1.269-.178,2.799-.775.695-.271,2.004-.507,2.721-.37.2.038-.014.471.173.507.17.032,1.514-.149,1.748-.208.831-.209.659-.802.788-.915.116-.101.596.029.843-.026.116-.026.097-.273.234-.31,1.095-.291,1.726.039,2.726-.003,1.081-.046,2.309-.266,3.404-.34l-.24.329c.538.222,1.04-.04,1.542-.013.66.036,1.223.27,1.956.181,3.287-.398,6.149-.886,9.586-.663.778.05,1.56.354,2.351.335ZM48.121,23.95c.117-.228-.103-.434-.159-.323-.117.228.103.434.159.323ZM182.421,34.675v.162c.106-.054.106-.108,0-.162Z"/>
      <path d="M197.837,86.085c5.989-5.561,15.709-13.832,24.268-8.061.317.213,1.795,1.196,1.344,1.661-.108.112-2.249-1.009-2.885-1.095-10.521-1.423-20.07,11.533-27.517,17.246-4.527,3.473-11.843,7.809-17.325,4.197-5.297-3.491-4.946-7.421-2.886-12.871,4.595-12.161,11.811-23.712,16.844-35.64.302-.715.722-1.422.622-2.222,1.688.409,4.202,2.342,3.565,4.297-4.796,9.317-9.577,18.669-13.831,28.253-1.511,3.404-5.048,10.653-5.456,14.045-.208,1.728,1.115,3.052,2.818,3.112,7.431.261,15.443-8.283,20.438-12.923Z"/>
      <path d="M51.374,99.021c3.221-2.306,5.798-5.79,8.19-8.951,2.834-3.744,5.652-7.83,8.223-11.763.877-1.341,1.972-2.787,2.443-4.3.388-.335,4.622,1.902,3.653,3.246-2.228,4.657-5.042,9.017-6.987,13.812-1.42,3.5-2.923,7.58-2.037,11.368-4.065-.339-3.789-4.431-3.173-7.479.258-1.278,1.085-3.038,1.214-4.15.028-.244.114-.456-.232-.395-1.84,2.209-3.616,4.511-5.524,6.665-1.075,1.214-2.34,2.718-3.491,3.821-1.761,1.687-2.506,2.424-4.826,1.079-3.463-2.008-1.607-4.467-.407-7.287,2.46-5.783,5.567-11.487,7.857-17.329.444-1.134.893-2.108.948-3.36.359-.309,4.582,2.189,3.862,3.453-2.877,7.353-6.487,14.375-9.711,21.57Z"/>
      <path d="M83.707,102.596c-4.02-.928-3.603-4.675-2.714-7.833,1.084-3.851,3.221-8.366,4.752-12.147,3.853-9.517,7.976-18.931,11.862-28.435l.076-1.144c1.584.089,4.579,1.482,3.854,3.447-3.137,7.307-6.379,14.574-9.455,21.907-2.503,5.966-5.579,12.53-7.514,18.647-.559,1.766-1.28,3.706-.86,5.559Z"/>
      <path d="M74.445,102.596c-1.92-.351-3.043-1.738-3.229-3.675-.321-3.339,2.66-9.616,3.966-12.893,4.276-10.733,8.96-21.312,13.324-32.01l.076-.982c.466-.475,4.793,1.776,3.828,3.26-5.124,12.5-11.108,24.824-15.812,37.486-1.04,2.798-2.413,5.783-2.154,8.814Z"/>
      <path d="M64.778,125.507l3.412,8.614,3.331-8.614h3.25c.098,3.273-.079,6.558-.007,9.837.019.855.46,1.827-.093,2.684-.354-.05-2.012.138-2.012-.254v-9.668l-3.536,9.545c-.236.565-1.631.566-1.864-.002l-3.537-9.543v9.912h-2.275v-12.512h3.331Z"/>
      <path d="M115.475,125.507c3.715.303,6.283,2.525,6.269,6.417-.012,3.101-2.985,6.094-6.106,6.094h-5.118v-12.512c1.612.096,3.361-.13,4.956,0ZM115.475,127.62c-.842-.094-1.822.069-2.681,0v8.287h2.844c1.398,0,3.354-1.634,3.617-3.045.527-2.821-.932-4.923-3.78-5.242Z"/>
      <polygon points="96.87 125.507 96.87 127.62 91.02 127.62 91.02 130.707 96.545 130.707 96.545 132.657 91.02 132.657 91.02 135.907 97.195 135.907 97.195 138.019 88.745 138.019 88.745 125.507 96.87 125.507"/>
      <path d="M149.517,138.019l5.213-12.254c.273-.408,1.726-.36,2.02-.097.114.102.33.661.432.868,1.691,3.426,2.867,7.245,4.607,10.667l.077.817c-.549-.099-1.861.175-2.278-.079-.659-.402-.606-2.728-1.695-2.855-.517-.06-4.599-.035-4.806.088-.291.329-.991,2.846-1.216,2.846h-2.356ZM157.479,133.307c-.232-1.678-1.245-3.211-1.627-4.874-.124-.097-.347.365-.405.487-.602,1.265-1.08,3.036-1.543,4.388h3.575Z"/>
      <path d="M138.794,102.597c.483.214.387,1.393.288,1.833-.247,1.095-3.073,1.999-4.102,2.071-3.666.258-7.707-2.685-11.119-3.764-.252-.271,1.459-2.29,1.845-2.413,1.976.753,3.822,2.032,5.715,2.899,2.328,1.066,6.066,2.537,7.372-.626Z"/>
      <path d="M197.29,56.936l.322-.323c.066,1.397.918,2.711,1.426,4.019.174.448.229,1.085.359,1.399.082.199.388.034.508.201.121.169.229.928.346,1.25.074.204.355.348.417.558.353,1.199-.629,1.873.453,2.966.166.167.454.123.57.274.172.224,1.596,4.796,1.729,5.382.223.981.059,1.919.225,2.864.148.843.678,1.587.469,2.534l-.485-.485c.458.768-.158,1.456-.244.634-.133-1.267-.677-2.527-.746-3.804-.023-.426.245-.702.108-1.219-.466-1.755-2.246-4.708-2.981-6.618-.909-2.364-1.451-4.876-2.477-7.192-.272-.059-.11.146-.159.222-.243.372-.446-1.068-.522-1.246-.308-.726-1.386-2.125-1.2-2.876.105-.424.594-.825.664-1.3.638.793,1.201,1.701,1.221,2.761Z"/>
      <path d="M137.005,125.67v12.106c0,.453-2.112.19-2.112.081v-12.349c.657.306,1.41.116,2.112.162Z"/>
      <path d="M173.831,64.451c.741-.08,2.846,1.745,2.984,2.485.174.934-1.307,3.689-2.202,3.817-.742.106-3.231-1.688-3.326-2.37-.12-.859,1.699-3.841,2.545-3.932Z"/>
      <path d="M204.926,91.141c-.018.136-.22.354-.164.568h-.161s0-2.518,0-2.518c0-.098.227-.366.164-.568h.161c-.073.797.101,1.742,0,2.518Z"/>
      <path d="M48.121,23.95c-.056.11-.276-.095-.159-.323.056-.11.276.095.159.323Z"/>
      <path d="M182.421,34.675c.106.054.106.108,0,.162v-.162Z"/>
    </g>
  </g>
</svg>