<?xml version="1.0" encoding="UTF-8"?>
<svg id="b" data-name="Layer 2" xmlns="http://www.w3.org/2000/svg" width="459.231" height="122.434" viewBox="0 0 459.231 122.434">
  <g id="c" data-name="Layer 2">
    <g>
      <path d="M199.046,22.232l-5.115,11.113,5.622,9.711,9.426-4.946h1.375c11.526,5.614,22.962,11.421,34.338,17.311,18.773,9.719,37.844,20.025,56.333,30.703l18.61,11.342c-.597.12-1.004-.204-1.492-.386-6.883-2.565-14.251-6.094-21.006-9.126-29.686-13.323-58.606-28.301-87.382-43.437-16.805,6.921-33.507,14.6-50.792,20.459l36.666-20.019c-4.617-11.264-14.347-20.263-25.975-23.997-20.502-6.584-42.899,3.307-51.443,22.94,20.21,11.554,40.213,23.466,59.701,36.19l14.279,9.851c-4.258-1.477-8.435-3.266-12.564-5.065-23.205-10.111-45.629-21.889-68.115-33.444-34.577,15.065-69.533,29.581-105.689,40.561,1.904-1.424,4.192-2.653,6.279-3.817,32.005-17.852,65.675-32.649,99.235-47.331,1.42-.664,2.112,1.019,3.414.864l2.019-4.2-7.14-11.175,12.165,4.006c7.163-7.311,15.892-12.864,26.134-14.676l3.669-15.664,5.977,14.871c11.226.128,22.089,4.654,30.384,12.092l11.086-4.732Z"/>
      <path d="M7.88,100.204c.121.773-.847.958-.638,1.796.247.993,2.56,4.489,3.215,5.72.938,1.763,1.879,3.602,2.566,5.478l6.458-11.199-.638-1.796h7.88l-1.055,1.529c.602,5.541-.707,12.446.01,17.812.135,1.009.541,1.101,1.046,1.863h-6.509l.003-.508c.156-.274,1.025-.904,1.025-1.031v-12.483c-.806-.164-.55.099-.769.441-2.724,4.257-4.859,9.308-7.625,13.585l-7.708-14.025v12.825c0,.175,1.025.775,1.028,1.197H0l1.055-1.529c-.581-5.454.678-12.18-.009-17.47-.157-1.209-.945-1.186-1.046-2.205h7.88Z"/>
      <path d="M345.504,100.204c2.779.291,5.666,1.526,5.993,4.616.269,2.54-.301,4.061-2.39,5.473,4.38,2.136,4.255,8.496-.216,10.394-.335.142-1.859.72-2.017.72h-16.958c.505-.762.911-.854,1.046-1.863.716-5.366-.592-12.271.01-17.812l-1.055-1.529c4.982.381,10.696-.513,15.588,0ZM335.74,108.754h9.421c.466,0,1.759-1.268,1.879-1.893.163-.852-.36-2.895-1.194-2.895h-10.106v4.788ZM345.162,112.174c-2.804-.415-6.51.307-9.421,0v4.959c0,.085-.279.203-.269.342l.44.513h9.25c2.712,0,3.815-5.249,0-5.814Z"/>
      <path d="M217.889,121.408c.236-.901.599-1.137.708-2.2.282-2.764.362-10.731-.003-13.38-.123-.887-.654-1.086-.703-1.86,1.806-.277,3.567.307,5.292.356,3.252.093,6.644-.543,9.801.134,4.364.936,4.792,7.227.511,9.1-.578.253-2.209.124-1.899.834l5.821,7.016h-7.194c-.425-.854.675-.603.705-.864.083-.724-2.894-5.058-3.598-5.652-1.294-1.092-2.654-.637-4.252-.618-.661.413-.464,5.276-.038,6.203.173.376.955.025.674.931h-5.824ZM231.078,107.386h-8.051c-.267,1.178-.847,2.8.171,3.762h7.537c1.083,0,1.938-2.187,1.195-3.157l-.853-.605Z"/>
      <path d="M239.472,121.408c.052-.452.696-.654.851-1.031.329-.797.397-13.088.196-14.549-.123-.887-.654-1.086-.703-1.86h6.163c.143.147-.331.886-.317,1.219.04.932,8.265,8.491,9.569,9.723v-9.747c0-.151-.94-.585-.683-1.195,1.773.725,3.911-.8,5.473.511-.228.3-.696.534-.845.86-.325.709-.329,14.316,0,15.038.176.385.791.578.851,1.031h-6.167l.537-1.364-10.13-9.58v9.747c0,.175,1.025.775,1.028,1.197h-5.824Z"/>
      <path d="M416.249,121.408c.236-.901.599-1.137.708-2.2.282-2.764.362-10.73-.003-13.38-.123-.887-.654-1.086-.703-1.86h6.163c.143.148-.331.887-.317,1.219.039.913,8.287,8.441,9.569,9.723v-9.747c0-.151-.94-.585-.683-1.195,1.936.657,3.526-.093,5.478,0-.099,1.018-.887.995-1.044,2.203-.413,3.182.102,7.934.233,11.245.038.967-.493,1.616.017,2.9.23.579,1.082.159.796,1.092h-6.167c.255-.574,1.053-.999.524-1.71l-10.116-9.234v9.747c0,.175,1.025.775,1.028,1.197h-5.481Z"/>
      <path d="M171.637,23.256l-4.025,22.483-16.183,16.503,4.093-23.013c5.265-4.735,9.971-10.67,15.077-15.473.335-.315.491-.624,1.038-.499ZM159.898,37.014c-3.192.591-4.845,4.14-4.208,7.123.853,3.997,5.74,5.756,9.073,3.547,5.426-3.597,2.123-11.963-4.865-10.67Z"/>
      <path d="M439.546,121.408c.052-.452.696-.654.851-1.031.338-.819.338-14.545,0-15.38-.128-.315-.627-.571-.85-.862.694-.385,1.687.149,2.554.187,3.779.162,10.642-.851,13.663,1.067,4.679,2.971,4.614,12.066-.142,14.796-.664.381-2.951,1.223-3.571,1.223h-12.505ZM444.685,107.557v10.26l.514.513h5.139c.203,0,2.054-.568,2.357-.725,2.882-1.498,3.033-7.124.73-9.196-2.142-1.926-5.413-.446-7.966-1.299l-.773.447Z"/>
      <path d="M402.126,103.719c13.519-1.253,15.343,16.55,2.952,17.994-14.695,1.713-16.274-16.759-2.952-17.994ZM401.771,107.127c-6.333,1.079-5.92,11.556,1.577,11.418,8.27-.152,7.593-12.98-1.577-11.418Z"/>
      <path d="M181.841,103.72c14.936-1.437,15.505,19.309-.09,18.023-11.655-.961-12.061-16.854.09-18.023ZM181.833,107.135c-7.105.979-5.872,12.051,1.814,11.383,7.78-.675,7.033-12.602-1.814-11.383Z"/>
      <path d="M71.944,112.174c-1.471,1.419-1.668,5.325-.006,6.669l-.16.173c-3.013,1.83-6.741,2.863-10.301,2.749-13.924-.448-12.495-18.752,1.373-18.146,2.538.111,4.917,1.672,7.384,1.547l-1.888,4.265c-3.977-4.481-13.202-2.707-12.484,4.243.236,2.286,2.389,4.32,4.634,4.625,1.377.187,6.034.139,7.004-.814.567-.556.563-2.677-.225-2.889-.173-.047-3.418.117-3.589.172-.673.217-.947.902-1.677.823.475-1.399.395-2.517-.003-3.924l.692-.355c.27.22.291.861.337.861h8.907Z"/>
      <path d="M372.398,103.282v5.13c-.422-.002-1.023-1.026-1.199-1.026h-11.134l.084,3.265.478.448c2.509-.208,5.756.904,7.66-.977v4.788c-1.904-1.88-5.151-.768-7.66-.977l-.478.448c.797.907-.493,3.316.242,3.793.476.308,10.565.289,11.316-.02.378-.155.58-.798,1.033-.85v5.13c-.422-.002-1.023-1.026-1.199-1.026h-16.273c.002-1.096.791-.422.947-1.875.105-.975-.27-2.373-.278-3.41-.024-3.098.457-7.463.205-10.293-.07-.782-.97-1.06-.872-1.863,1.86.817,3.549.034,5.294-.015,3.025-.085,7.16.419,9.969.033.889-.122,1.088-.652,1.865-.703Z"/>
      <path d="M318.953,105.679l-2.06,4.098c-.683-.441-.723-1.126-1.588-1.657-1.922-1.179-7.338-1.768-9.047-.243-3.28,2.926,5.457,2.786,6.659,2.969,3.908.594,7.545,2.636,5.858,7.136-1.611,4.299-8.475,4.116-12.224,3.323-1.67-.353-3.225-1.541-4.724-.924l1.371-4.103c.962.096,1.271.939,2.206,1.384,1.007.479,3.338.984,4.462,1.025,1.528.056,6.74-.608,5.005-2.943-1.617-2.175-11.501.563-12.625-4.846-1.471-7.081,6.685-7.908,11.72-6.572,1.69.448,3.123,1.669,4.987,1.352Z"/>
      <path d="M280.24,108.07c-.574-.35-.774-.608-1.522-.704-3.097-.397-6.861.538-9.97-.235-.895.154-.367,3.206-.499,4.017h6.681c.126,0,.758-.867,1.032-1.023l.509-.003v4.788l-.509-.003c-.275-.156-.906-1.023-1.032-1.023h-6.681v4.446h11.477c.275,0,.591-1.731,1.036-.688.087.205.308,4.28.161,4.448-.611.256-1.046-.682-1.197-.682h-16.616c.052-.452.696-.654.851-1.031.34-.824.389-12.708.194-14.206-.122-.942-1.051-1.559-.878-1.863l13.381.006c1.382-.191,2.504-.011,3.581-1.032v4.788Z"/>
      <path d="M209.325,103.968l5.48.344c-.358.567-.61.775-.705,1.516-.501,3.914,1.39,11.711-2.055,14.364-2.87,2.21-12.049,2.266-14.378-.747-2.179-2.818-.357-10.039-1.026-13.59-.17-.9-1.081-1-1.019-1.886,1.696.306,3.402.075,5.095.143.393.016.447-.047.721.368-.48.367-.633.759-.699,1.35-.194,1.761-.251,8.665.093,10.206.692,3.098,7.933,3.208,9.086.325.595-1.488.68-8.426.451-10.187-.157-1.209-.945-1.186-1.044-2.203Z"/>
      <path d="M103.461,106.362l-2.57,3.759c-.862-2.545-4.777-3.277-7.19-3.071-8.071.688-7.602,11.196.394,11.495,2.207.083,6.098-.932,6.797-3.29l2.571,3.757c-2.98.534-4.762,2.447-8.057,2.734-17.017,1.478-14.821-21.676,1.901-17.618,2.303.559,3.932,2.191,6.154,2.236Z"/>
      <path d="M104.491,121.408c.424-.711,1.113-.851,1.663-1.588.668-.895,6.125-12.064,6.401-13.109.386-1.462-.15-1.498-.526-2.743h6.506s-.546,2.39-.546,2.39c2.69,3.951,4.492,9.647,7.106,13.462.567.827,1.427.648,1.321,1.588h-6.852c1.522-.735.696-3.54-.228-4.131-.694-.444-6.054-.467-7.157-.335-1.658.199-2.977,3.364-1.179,4.466h-6.509ZM112.713,114.568h5.139c-.338-.677-2.297-5.053-2.573-5.132-.575-.165-1.135,1.567-1.377,2.046-.228.453-1.419,2.872-1.189,3.086Z"/>
      <path d="M28.778,121.408c-.106-.94.754-.76,1.321-1.588,1.711-2.497,5.215-9.832,6.382-12.78.709-1.79-.041-1.51.011-3.08l5.988.008-.551,2.049c2.634,3.978,4.604,10.465,7.398,14.109.375.489,1.209.597,1.378,1.282h-7.194c1.594-.741.592-3.714-.338-4.279-.438-.266-6.163-.292-7.047-.187-1.588.19-1.563,1.758-2.159,2.999l.98,1.467h-6.167ZM41.796,114.568c-.308-.944-2.094-5.13-2.909-5.134l-2.23,5.134h5.139Z"/>
      <path d="M170.268,100.204c.06.888-.851.988-1.021,1.888-.806,4.281,1.104,12.411-.521,16.238-1.341,3.159-6.205,3.708-9.162,3.333-1.546-.196-3.427-1.13-4.934-1.267-.752-.068-2.01.794-1.839-.186.262-1.511,1.754-3.25,1.722-4.957.786.434.915,1.34,1.733,1.857,1.913,1.21,7.33,1.812,8.351-.847.382-.994.41-12.295.208-13.854-.157-1.209-.945-1.186-1.046-2.205h6.509Z"/>
      <path d="M380.962,121.408c-.201-.798.838-.986.949-1.578.076-.407-.319-1.324-.294-2.007.042-1.17.572-3.148.118-4.17-.451-1.016-4.99-7.075-5.909-8.051-.66-.7-1.862-.672-1.714-1.634h7.534c.091.788-.779.916-.643,1.8.177,1.148,2.45,3.08,2.875,4.358.452.001,3.311-3.887,3.459-4.433.174-.645-1.128-.919-.891-1.725l7.021-.003.17.679c-.96.199-1.75,1.164-2.385,1.898-.864.999-4.707,6.074-4.994,6.985-.364,1.156-.471,5.357-.319,6.568.105.841,1.117.325.849,1.314h-5.824Z"/>
      <path d="M288.805,121.408c1.413-1.225,1.363-5.897.872-7.539-.277-.925-4.613-6.728-5.522-7.826-.66-.797-1.757-1.071-1.857-2.075,1.535.931,6.33-.224,7.196.162,1.02.454-.581.661-.686,1.053l3.252,4.933,3.211-4.331-.982-1.817c2.317.69,4.698.271,7.019-.004l.171.68c-.292.044-.631.135-.845.34-1.073,1.029-6.319,7.728-6.607,8.811-.48,1.806-.199,5.875.603,7.613h-5.824Z"/>
      <path d="M128.129,121.408c-.139-.101.657-.821.767-1.115.377-1.003.514-13.627.192-14.719-.187-.632-1.11-.813-.957-1.606h5.821c.256.61-.683,1.045-.683,1.195v12.654l.514.513h9.593c.353,0,.359-1.472,1.199-1.026v4.788l-.51-.003c-.221-.119-.592-.681-.69-.681h-15.245Z"/>
      <path d="M74.685,121.408l1.332-1.86c-.137-1.074-.216-2.366-.229-3.441-.041-3.252.379-7.181.115-10.277-.066-.778-.974-1.06-.874-1.863.949.345,5.832-.52,5.816.511-.481.367-.634.759-.698,1.35-.166,1.508-.32,13.992.023,14.64.213.402.948.025.683.94h-6.167Z"/>
      <path d="M164.273,27.7c.092.023.668.503.348.686-1.612,1.558-4.019.745-6.09,1.105-8.302,1.442-12.754,11.284-9.41,18.806.908,2.041,3.337,3.486,2.301,5.735-8.209-7.057-6.182-20.783,3.761-25.148.554-.243,3.247-1.185,3.609-1.185,1.347,0,4.436-.26,5.481,0Z"/>
      <path d="M158.791,57.796l-.346-.684c.653-1.599,4.147-.889,5.738-1.115,8.554-1.22,12.988-11.299,9.569-18.95-.827-1.85-3.414-3.895-1.942-5.578,6.591,6.622,6.528,17.343-1.036,23.241-1.297,1.011-5.333,3.086-6.844,3.086h-5.139Z"/>
    </g>
  </g>
</svg>