<?xml version="1.0" encoding="UTF-8"?>
<svg id="b" data-name="Layer 2" xmlns="http://www.w3.org/2000/svg" width="157.927" height="194.261" viewBox="0 0 157.927 194.261">
  <g id="c" data-name="Layer 2">
    <g>
      <path d="M136.068,24.372c39.751,41.728,22.955,110.933-31.516,129.283C42.316,174.62-16.864,115.132,4.422,53.071,23.472-2.47,95.362-18.358,136.068,24.372ZM130.479,30.719C94.504-7.588,30.787,5.479,12.819,54.597c-19.733,53.945,30.085,107.551,85.347,92.167,50.656-14.102,68.497-77.515,32.313-116.045Z"/>
      <polygon points="112.554 178.831 112.554 194.161 111.264 193.811 111.214 193.751 100.594 180.801 100.594 194.081 99.334 194.081 99.334 178.771 100.884 179.091 111.294 191.861 111.294 178.831 112.554 178.831"/>
      <polygon points="61.924 178.831 61.924 194.231 60.664 193.601 60.664 186.701 49.964 186.701 49.964 194.081 48.704 194.081 48.704 178.831 49.964 178.831 49.964 185.441 60.664 185.441 60.664 178.831 61.924 178.831"/>
      <path d="M35.454,182.001c-1.61-2.21-4.37-3.46-7.45-3.46-.51,0-1.02.03-1.54.1-3.06.42-5.47,2.61-6.29,5.73-.83,3.19.2,6.35,2.7,8.24,1.41,1.07,3.38,1.65,5.4,1.65.8,0,1.61-.1,2.4-.28,2.4-.58,4.24-1.95,5.16-3.85,1.4-2.9,1.26-5.86-.38-8.13ZM35.494,186.251c0,1.57-.67,3.88-1.82,5.02-1.88,1.88-5.21,2.48-8.09,1.47-2.52-.89-4.11-2.77-4.37-5.17-.32-2.91.63-5.3,2.68-6.73,1.25-.87,2.8-1.31,4.37-1.31,1.24,0,2.49.28,3.62.84,2.24,1.12,3.52,3.15,3.61,5.71v.17Z"/>
      <path d="M81.214,179.001l-.06-.14-1.07-.03-6.29,15.18.3.06c.6.12.81-.24.96-.51.03-.06.07-.12.11-.18.47-.7.82-1.6,1.15-2.47.24-.61.48-1.23.75-1.76l7.17-.03c.27.28.84,1.68,1.2,2.54.34.83.67,1.62.9,1.98.22.36.32.47.6.47.06,0,.12,0,.19-.01s.15-.02.26-.02l.36-.02-6.53-15.06ZM83.684,187.981h-5.87l2.83-7.22,3.04,7.22Z"/>
      <path d="M131.784,178.861h-1.04l-6.58,15.17.32.05c.14.01.26.02.36.02.39,0,.56-.15.86-.53.31-.4.62-1.27.94-2.18.31-.86.72-2.01,1.01-2.28.2-.01.47-.02.8-.04,1.47-.08,5.98-.31,6.46.11.22.2.68,1.4,1.01,2.29.3.79.58,1.54.8,1.9l.06.12c.17.3.4.71,1.01.58l.3-.06-6.31-15.15ZM131.664,187.951c-1.16.07-2.36.16-3.5-.14l2.98-7.08,3.14,7.19c-.86-.09-1.75-.03-2.62.03Z"/>
      <path d="M112.562,106.857l-33.457-67.639-33.462,67.277,23.394,13.863c.501.7-3.61,6.151-3.812,7.345l-30.499-17.944L78.725,20.654l44.753,88.917-30.175,18.11-.459-.217-3.92-6.749,23.636-13.857Z"/>
      <path d="M83.302,111.183v25.938c-.25-.083-.552.254-.636.254h-7.379l-.382-.381v-25.811h8.396Z"/>
    </g>
  </g>
</svg>