<?xml version="1.0" encoding="UTF-8"?>
<svg id="b" data-name="Layer 2" xmlns="http://www.w3.org/2000/svg" width="426.038" height="80.071" viewBox="0 0 426.038 80.071">
  <g id="c" data-name="Layer 2">
    <g>
      <path d="M426.038,0l-12.55,80.071L.044,80.012c.077-.966-.13-2.012,0-2.963,1.636-12.02,4.132-24.133,5.844-36.195C7.814,27.28,9.698,13.642,11.018,0h415.02ZM29.474,44.451c7.324,1.232,17.741-.909,25.44,0l-.998,7.902h-25.939l.994-3.944-7.779,1.169c-1.642,2.917-1.217,8.392,2.487,9.499,3.06.915,24.465.628,28.787.238,12.975-1.171,10.544-21.779,6.936-21.779h-27.435l.998-7.902h23.943l-.993,3.946,7.532-1.912c1.061-3.853,1.348-7.743-3.27-8.729-3.786-.808-26.856-.699-29.946.53-5.855,2.33-9.827,19.455-.758,20.981ZM84.84,22.726l-8.926.046-6.034,36.487,8.873-.098,6.088-36.434ZM93.324,59.268h34.918c5.983,0,6.53-16.442,7.482-20.744h-21.948l-.999,5.922h12.976s-1.002,7.907-1.002,7.907h-25.939l3.991-22.72h25.939l-.995,3.944,8.964-.993c-.005-4.93,1.501-8.872-4.545-9.8-5.851-.898-24.8-.793-30.878-.085-4.493.524-5.979,2.546-7.198,6.703-1.31,4.47-4.188,23.421-3.051,27.19.227.753,1.704,2.513,2.286,2.674ZM180.607,47.414c-6.019-3.316-21.549-23.665-26.45-24.669-.941-.193-5.129-.232-5.41.034l-6.037,36.482,7.875-.099,4.593-24.6c3.775,4.21,21.003,23.841,24.969,24.677,1.074.226,4.585.335,5.317-.115l6.124-36.401-7.928.047-3.052,24.642ZM217.53,43.463h25.939l-2,15.809,7.848-.138,6.125-36.411-8.971.005-2.005,13.82h-25.939l1.999-13.828-8.986-.006-4.99,36.557,8.544-.932,2.435-14.876ZM304.325,22.72h-37.91l-5.986,36.549h37.91l.998-6.915h-28.932l2.494-8.89h16.461v-6.915h-15.962l1.104-6.805,27.203-.234,2.62-6.79ZM349.98,23.942c-2.95-2.929-31.661-.322-37.664-1.213l-5.003,36.544,7.848-.138c2.599-1.623-1.253-19.561,10.669-12.76,3.696,2.108,8.351,11.094,11.437,12.38,3.319,1.384,8.343.089,11.952.503l-12.969-13.809c3.91-.217,9.185,1.172,11.849-2.601,2.053-2.907,4.474-16.332,1.881-18.906ZM365.893,22.931c-1.578.348-3.246,1.473-4.186,2.77-1.867,2.572-5.499,23.317-5.553,27.211-.052,3.732,1.723,5.933,5.484,6.408,4.652.588,30.969.597,34.522-.494.87-.267,1.793-.896,2.469-1.507,2.815-2.543,6.445-23.828,6.507-28.242.052-3.732-1.723-5.933-5.484-6.408-5.198-.657-29.169-.751-33.758.262Z"/>
      <polygon points="396.108 29.634 392.929 50.687 391.619 52.354 365.181 52.354 368.361 31.301 369.671 29.634 396.108 29.634"/>
      <path d="M342.236,29.634c.372,2.009-1.495,9.878-3.492,9.878h-19.454l.998-9.878h21.948Z"/>
    </g>
  </g>
</svg>