<?xml version="1.0" encoding="UTF-8"?>
<svg id="b" data-name="Layer 2" xmlns="http://www.w3.org/2000/svg" width="420.397" height="91.819" viewBox="0 0 420.397 91.819">
  <g id="c" data-name="Layer 2">
    <g>
      <path d="M311.22,59.29h1.343v-25.03c0-.115.475-.969.603-1.123,1.381-1.657,4.746-1.439,5.708.568.075.157.404,1.06.404,1.13v32.318c2.709-3.111,4.861-6.701,7.491-9.87.906-1.091,1.745-2.335,3.345-2.42,2.844-.152,5.213,3.138,3.59,5.708-5.046,7.659-9.079,16.44-14.153,24.02-8.9,13.296-33.964,7.107-35-9.29l-.007-36.06c.326-2.678,3.859-3.454,5.753-1.906.262.214.967,1.268.967,1.527v20.427h1.151v-24.263c0-1.413,1.425-2.772,2.798-2.955,2.517-.335,4.151,1.215,4.118,3.713-.498,8.692.633,18.065-.001,26.676-.256,3.471-1.967,6.33-4.938,8.106l-3.511,1.57c3.203.184,6.245-.516,8.347-3.066.479,3.831-1.49,7.818-4.836,9.743l-3.512,1.572h2.782c.289,0,1.681-.476,2.065-.621,3.583-1.353,6.335-5.394,6.667-9.16.444-.11.316.088.438.243.66.839,1.258,1.973,2.047,2.738,2.116,2.05,5.169,2.896,8.066,2.771l-2.624-1.115c-3.022-1.633-5.423-4.558-5.624-8.09.868.625,1.74,1.325,2.709,1.798.471.23,2.582,1.079,2.95,1.079h2.782l-3.198-1.31c-3.016-1.615-5.174-4.729-5.443-8.177-.725-9.283.519-19.541.052-28.923.479-2.992,4.71-3.553,6.286-1.196.093.138.384.676.384.767v28.099Z"/>
      <path d="M285.893,20.546c-.043.28.337.267.536.325,4.657,1.34,8.859,3.334,10.4,8.305-2.399-.294-4.58.586-6.027,2.511-.516.686-.712,1.404-1.194,2.068-3.606-.387-6.701.978-7.748,4.629-8.4-3.281-10.612-14.029-3.837-20.237.335-.307,1.517-.994,1.636-1.242.249-.521.209-2.386.338-3.115,1.083-6.147,6.233-9.825,12.401-8.218,3.525-8.042,14.378-7.025,17.598.768,7.461-3.336,16.813,1.609,15.832,10.343,12.143,4.228,8.848,21.435-3.672,21.699v-3.74c0-.085-.406-1.417-.484-1.626-.953-2.541-3.123-3.77-5.782-3.827-.714-.015-1.48.377-2.237.142-.237-.074-1.241-1.436-1.664-1.787-1.283-1.068-2.756-1.539-4.415-1.629,1.519-4.586,5.748-5.999,9.914-7.264.316-.096.539.155.447-.407h-4.125c-.523,0-2.14.518-2.738.715-3.115,1.026-5.266,2.966-7.525,5.231-.317-4.13-1.227-8.209-2.847-12.021l-1.375-2.363c1.571,5.285,1.306,10.873.765,16.301-.688-.014-.906-.852-1.334-1.253-2.227-2.083-6.41-4.308-9.506-4.308h-3.358Z"/>
      <path d="M31.084,44.713h-8.634c-.057,0-.134-.731-.345-1.095-1.695-2.925-5.442-3.467-8.557-3.104-4.69.546-5.6,5.084-.88,6.784,5.544,1.997,14.396,1.395,18.076,7.057,3.379,5.199.577,11.573-4.398,14.487-9.359,5.482-24.945,2.065-26.345-10.128h8.634c.792,4.782,5.817,6.011,10.053,5.542,4.148-.459,6.683-4.611,2.299-6.861-3.769-1.935-9.168-1.881-13.308-3.575-10.517-4.305-8.912-16.07,1.53-19.37,8.692-2.747,20.482-.117,21.876,10.263Z"/>
      <path d="M212.597,34.164v12.851c4.39-5.888,13.759-5.262,17.808.708,3.615,5.329,3.445,14.878-.825,19.817-4.406,5.097-12.928,5.154-16.983-.386v3.452h-8.251v-36.442h8.251ZM217.542,49.371c-8.259.879-6.827,18.211,2.532,15.188,6.413-2.071,5.642-16.059-2.532-15.188Z"/>
      <path d="M273.805,59.29h-20.147c.158,5.377,7.074,7.043,10.925,4.303.303-.215,1.349-1.426,1.451-1.426h7.579c-3.8,11.831-22.723,12.335-27.281.898-4.88-12.246,6.049-23.811,18.447-19.59,4.737,1.613,9.026,7.195,9.026,12.267v3.548ZM265.554,54.111c-.4-6.87-11.253-6.64-11.704,0h11.704Z"/>
      <path d="M201.66,70.606h-8.059v-2.877c-.832.255-1.329,1.164-2.048,1.693-4.992,3.674-15.528,2.28-16.515-4.908-1.26-9.188,11.596-10.368,17.988-10.786.211-2.699-.333-4.972-3.38-5.35-3.03-.376-5.616.77-6.023,4.007h-7.675c.381-7.203,8.164-10.119,14.485-9.78,14.335.769,10.407,13.502,10.835,23.693.058,1.388.45,2.896.392,4.308ZM193.218,58.713c-2.181-.048-8.738.59-9.509,3.059-1.406,4.503,6.99,5.442,8.937,1.07.583-1.31.631-2.717.572-4.129Z"/>
      <path d="M132.777,70.606h-7.963c-.02,0-.288-.267-.288-.288v-2.781c-3.867,5.011-13.64,5.256-17.313-.052-1.478-2.136-1.559-5.565-.228-7.796,2.914-4.883,12.058-5.588,17.158-5.961.091-2.542-.458-4.991-3.38-5.35-2.1-.258-4.571.153-5.604,2.219-.31.62-.303,1.261-.706,1.787h-7.579c.729-9.037,12.836-11.597,19.894-8.666,6.03,2.504,5.467,8.001,5.426,13.357-.035,4.521-.019,9.049.584,13.53ZM124.333,58.523c-2.463.43-9.065.51-9.7,3.634-.383,1.881,1.151,3.227,2.911,3.441,4.973.604,7.053-2.414,6.789-7.075Z"/>
      <path d="M378.535,42.65c9.945-.211,15.933,7.22,14.593,16.905-2.15,15.543-25.513,15.659-28.318,1.116-1.886-9.779,3.455-17.804,13.725-18.022ZM378.141,49.179c-5.469.577-6.084,8.155-4.462,12.217,2.056,5.151,9.218,4.558,10.699-.997,1.26-4.726.059-11.884-6.237-11.219Z"/>
      <polygon points="345.374 34.164 353.244 47.974 353.785 47.463 361.491 34.164 371.469 34.164 371.237 34.796 357.462 56.701 357.462 70.606 348.827 70.606 348.827 56.317 335.204 34.164 345.374 34.164"/>
      <path d="M173.262,70.606h-8.251v-15.823c0-.307-.202-1.64-.278-2.024-.612-3.112-3.072-4.112-5.968-3.069-1.608.579-2.964,3.098-2.964,4.709v16.207h-8.442v-27.044h8.442v3.261l1.341-1.441c3.525-3.14,11.198-3.627,14.168.419.871,1.187,1.952,4.285,1.952,5.721v19.084Z"/>
      <path d="M41.253,43.562v15.632c0,.39.168,1.761.242,2.252.651,4.345,6.568,4.499,8.104,1.104.154-.34.672-1.939.672-2.205v-16.782h8.442v27.044h-8.442v-3.452l-1.916,2.208c-5.974,4.414-15.352,1.563-15.352-6.715v-19.084h8.251Z"/>
      <path d="M403.128,43.562v17.358c0,.22.464,1.798.597,2.089,1.198,2.627,5.839,2.329,7.354.105.519-.762,1.068-3.026,1.068-3.92v-15.632h8.251v27.044h-8.251v-3.452c-2.052,2.494-4.01,4.048-7.389,4.216-7.187.358-9.679-3.689-10.07-10.26-.341-5.733.25-11.783-.002-17.548h8.442Z"/>
      <path d="M68.883,61.783c.458,3.861,6.557,4.094,9.254,2.825,2.503-1.178,1.313-3.12-.853-3.838-3.241-1.074-7.037-.858-10.316-2.155-6.454-2.555-7.506-10.41-1.283-13.934,6.645-3.763,19.815-2.378,21.234,6.745h-7.867c-.041,0-.093-.49-.295-.756-1.373-1.815-4.216-1.943-6.323-1.735-3.368.333-4.217,2.991-.827,4.083,4.925,1.587,15.042.883,15.866,7.923.645,5.505-3.252,8.874-8.26,9.923-7.447,1.56-16.946-.29-18.198-9.08h7.867Z"/>
      <path d="M99.391,36.082v7.48h5.948v5.946h-5.948v13.138c0,.853,1.37,2.014,2.207,2.014h3.742v5.946h-8.538c-.96,0-3.292-.853-4.028-1.535-.671-.622-1.632-2.672-1.632-3.547v-16.015h-4.125c-.02,0-.288-.267-.288-.288v-5.658h4.125c.02,0,.288-.267.288-.288v-7.192h8.251Z"/>
      <rect x="234.854" y="34.164" width="8.251" height="36.442"/>
      <rect x="135.271" y="43.562" width="8.442" height="27.044"/>
      <path d="M143.714,40.685h-8.442v-6.425c0-.02.267-.288.288-.288h7.867c.02,0,.288.267.288.288v6.425Z"/>
    </g>
  </g>
</svg>