<?xml version="1.0" encoding="UTF-8"?>
<svg id="b" data-name="Layer 2" xmlns="http://www.w3.org/2000/svg" width="1468.261" height="302.655" viewBox="0 0 1468.261 302.655">
  <g id="c" data-name="Layer 1">
    <g>
      <g>
        <path d="M220.417,276.758c5.096,1.311,10.914-3.129,15.86-1.69.558.205,1.217.483.864,1.024-.411.442-2.07.56-3.466.764-3.687.444-6.607,2.948-10.347,3.117-11.725.312-13.793-19.408-30.15-14.448-2.422.657-4.885,1.608-7.386,2.147-1.429.369-5.541,1.082-3.21,2.334,2.794,1.005,6.244.559,9.103,1.404,4.675,1.287,8.262,5.547,13.295,6.07,3.956.652,7.341.857,10.404,3.618,1.626,1.282,4.776,5.802,2.91,5.745-1.44-.044-3.492-2.98-4.799-3.863-2.491-2.238-6.703-1.969-9.987-2.957-1.533-.448-2.885-1.328-4.238-2.167-4.949-3.5-17.202-5.352-23.042-3.137-1.262,1.875,3.381,2.442,4.624,2.494,13.356-.323,10.478,3.683,20.036,9.305,1.636,1.137,6.96,2.646,7.317,4.487.053.275-.155.543-.435.556-2.163.097-5.094-3.087-6.967-.9-.645,1.01.258,3.173-.198,3.737-.811.666-2.177-.635-3.233-1.506-3.25-2.978-4.865-8.238-7.63-11.325-1.644-2.348-6.688-2.403-10.163-1.95-2.215.407-5.971-.304-7.348,1.439-1.187,3.331,4.25,6.554,6.27,8.687,2.203,1.835,7.635,7.73,4.506,9.408-.726.137-1.845-.659-2.851-1.031-2.521-1.012-2.907,1.674-4.842,2.547-2.294.745-2.009-2.17-2.098-3.476.109-4.465-5.204-11.573-9.97-11.774-3.039.576-5.11,6.522-5.782,9.709-.425,7.732-.138,7.526-8.86,7.526-3.069,0-1.114-2.572-.28-4.248,1.773-3.393,3.416-7.226,3.908-11.066.749-3.412-1.501-8.578-5.444-5.621-1.182.941-2.007,2.39-2.902,3.604-3.524,4.885-9.373,7.826-12.253,13.02-.914,1.779-1.986,2.787-4.31,2.58-2.117-.188-3.231-.275-4.85-1.339-5.04-3.313-4.785-3.131-11.003-2.102-.531.03-.784-.245-.165-.678,1.079-.743,1.832-.896,3.139-1.168,3.973-.603,7.602-2.24,11.402-3.428,4.648-.92,8.736-1.021,9.862-6.697,1.582-10.795-15.334.529-20.063.978-5.119,1.346-10.86-.009-15.781,2.118-2.272.891-3.193,2.399-5.562,2.876-2.667.145-1.17-2.633-.92-3.953,1.11-3.355-1.907-6.282-4.631-7.745-4.457-2.407-9.722-2.923-14.6-1.849-1.653.342-2.61.932-4.295.772-2.356-.216-3.243-2.261-.721-2.72,2.314-.371,3.91-.02,6.242-.088,4.299-.037,8.698-.709,12.927.348,9.919,2.567,20.885,11.055,30.816,4.153,2.068-1.417,4.442-4.023,3.279-6.554-1.287-2.726-5.021-2.968-7.716-3.105-9.008-.339-18.007.75-27.336.167-7.181.291-15.345-4.891-21.734.174-1.31,1.062-5.528,4.197-3.652.836,1.485-2.184,3.342-3.708,5.933-4.637,2.869-1.027,5.531.316,8.3.66,2.483.291,7.194.359,2.247-1.905-5.478-3.233-6.271-2.188-11.926-1.528-3.192.317-7.333-.979-10.074,1.117-1.045.729-1.204,1.241-2.298,1.749-.452.15-.628-.358-.326-1.146.697-1.628,1.893-1.985,3.274-2.889,9.612-4.571,24.343.838,33.741,4.693,2.983.824,5.881-1.228,8.845-1.479,5.713.304,11.715,2.105,17.333.048,3.811-1.821-5.032-4.624-7.904-6.729-8.243-6.287-7.935-19.859-16.296-26.812-9.971-9.07-24.089-8.449-36.58-6.349-2.152.246-5.245,1.411-7.132.509-.191-.204-.03-.487.431-.767,1.266-.698,2.891-.992,4.323-1.337,5.356-1.29,10.342-1.748,15.369-3.766,4.063-1.513,3.856-4.149,1.889-7.39-2.091-3.692-5.017-7.45-7.574-10.628-1.003-1.247-2.224-2.58-2.73-4.084-.386-1.461,1.14-.767,1.75-.208,2.919,2.639,5.457,6.536,7.876,9.523,6.007,8.662,12.499,14.263,23.296,17.271,1.663.504,4.424,1.415,4.648-1.137.33-2.522-1.332-7.353-2.312-10.635-2.042-5.969.324-11.721.857-17.706.414-5.348-.652-16.817-4.266-20.753-.992-1.109-2.33-1.869-3.898-2.433-.771-.313-2.062-.699-2.299-1.397-.255-.905.677-1.751,1.122-2.494,3.753-6.764-8.305-13.642-11.6-18.253-2.952-3.075-2.849-7.807-5.094-11.259-1.494-2.033-4.1-3.213-5.771-5.17-2.791-2.985-4.756-6.851-7.859-9.523-7.84-6.304-20.449-4.195-30.053-7.078-.827-.34-1.428-.794-1.404-1.165.721-1.288,3.979-.354,5.308-.252,7.974,1.375,19.569,2.082,26.134,6.029,3.279,1.509,10.974,13.242,12.825,4.801.74-13.934-2.802-24.155-8.457-36.792-.56-1.299-1.05-2.479-1.032-3.205.001-.988.808-.919,1.543.245,1.082,1.821,1.214,3.1,2.219,5.326.901,1.48,1.454,4.45,3.474,2.027,2.988-6.544,5.653-15.432,8.414-22.263.303-.843.767-1.756,1.293-2.383.7-.78,1.259-.477,1.164.609-1.539,6.117-4.749,11.856-6.745,17.884-1.076,2.93-1.929,5.673-2.389,8.758-1.357,9.186,2.063,18.424,3.954,27.562.706,3.417,1.231,7.281,1.741,10.654,1.441,14.738,9.918,15.912,16.852,26.885,9.664,14.298,3.349,19.084,14.953,3.178,1.759-2.267,4.826-6.553,6.415-7.86,1.343-1.072.959.234.415,1.146-5.733,7.8-10.415,16.485-12.339,26.001-1.366,7.249-.292,19.228,8.442,9.176,1.69-1.279.994,1.056.544,1.836-2.004,4.172-5.063,7.235-5.941,11.886-.87,11.319,2.096,20.629,8.573,29.457,3.535,4.346,3.798,10.571,8.225,14.192,2.472,1.998,5.523,3.187,8.217,4.819,6.982,4.617,15.625,10.746,24.061,9.475,3.475-.444,6.719-2.618,8.947-5.334,10.946-11.747,21.806-22.349,13.509-39.133-2.208-4.797-5.312-9.294-8.056-13.786-.691-.731-4.962-8.988-1.447-7.27,1.387,1.054,2.421,2.884,3.393,4.369,4.352,6.887,8.316,13.77,11.712,21.166,2.601,5.706,5.128,5.263,6.626-.709,3.94-13.71,7.104-29.615,4.515-44.095-1.158-5.92-3.62-11.508-5.469-17.234-1.872-7.751-6.273-13.712-11.941-19.428-.701-.868-1.771-2.209-.173-2.766,1.874-.514,4.527-.748,5.083-3.003,1.053-2.577.926-9.904,2.9-10.842.331.015.647.534.858,1.44.672,3.426.421,7.217.739,10.695.645,7.248,4.331,13.793,6.503,20.667,1.312,4.117,3.37,13.966,9.3,8.807,7.027-6.301,8.865-16.6,10.399-25.545.907-4.944,2.629-1.771,2.013,1.565-1.528,12.716-9.141,25.87-11.747,38.172-1.058,5.632-2.931,15.265,1.698,19.459,1.191.82,3.384-.063,4.305.069.987.339-.183,1.576-.541,2.089-3.458,3.797-7.254,7.554-8.029,12.876-1.56,10.883,7.505,4.569,13.741,2.122,3.318-1.267,21.85-9.928,20.606-6.05-.529,1.103-2.61,2.427-4.056,2.98-18.111,7.47-37.194,20.098-42.447,39.428-.591,1.985-.344,3.608,2.176,3.576,19.199-2.562,31.593,11.16,46.082,6.509,2.364-.626,5.522-1.679,7.717-.502.288.275-.064.64-.835,1.035-1.778.844-4.093,1.522-6.088,2.015-6.327,2.046-11.762.068-17.91-.44-6.324.066-1.74,7.078,2.565,7.807l.103.025Z" fill="#e6f1e4"/>
        <g>
          <path d="M295.656,121.618c-3.525,10.414-16.135,23.425-27.272,24.644-5.11.11-11.513-2.293-15.06,2.845-1.654,2.044-2.579,4.714-4.77,6.275-2.621,1.879-7.044,2.069-10.05.841-2.138-.848-3.618-2.621-5.131-4.273-2.316-2.598-5.064-4.697-6.514-7.833-1.054-2.003-1.239-5.164-3.25-6.403-2.581-1.303-6.057,1.553-8.181,3.25-6.993,6.777-11.53.002-13.38-6.853-1.265-4.936-.052-10.593-2.796-14.82-1.249-1.929-3.635-2.843-5.603-1.286-2.818,2.3-4.303,6.175-6.887,8.741-2.989,3.1-6.793,5.633-11.127,5.66-3.174-.065-4.948-3.012-6.709-5.271-1.746-2.357-3.965-4.18-5.432-6.795-2.755-4.449-2.809-11.624-7.109-14.851-.347-.11-.385.256-.126,1.012,1.372,3.166,3.2,6.483,3.533,10.064,1.113,6.91,1.418,15.258,7.775,19.559,1.735,1.199,3.897,2.09,5.403,3.561,3.455,3.088,1.076,7.751-.954,10.958-5.362,8.548-12.337,16.034-12.445,26.718-.264,3.737-.116,7.299-.745,10.962-1.723,9.942-8.671,18.943-13.54,27.687-7.206,11.368-14.313,23.645-22.742,4.522-2.359-6.347-1.944-13.137-3.392-19.83-.955-7.627-1.932-14.767-2.437-22.556-.357-4.448-.282-8.97-1.015-13.315-1.625-9.289-4.093-13.039-14.245-12.882-3.362-.028-7.292.289-10.117-1.657-7.525-5.58-8.84-21.972-7.042-30.57,1.334-7.256,7.101-12.551,12.026-17.625,4.95-5.454,11.833-6.884,18.98-8.555,9.11-2.541,8.992,2.692,15.436,5.428,3.637,1.056,6.985-2.051,10.605-1.718,3.05.199,5.557,2.916,8.587,2.608,4.402-.134,15.803-8.388,6.21-9.401-4.962-.238-9.613.469-14.623,1.154-2.063.272-4.31.728-6.328.221-3.778-.905-3.39-5.954-6.735-7.465-3.445-1.532-8.797-1.998-12.597-.558-2.349.828-4.74,2.623-7.228,2.773-4.589-.034-3.962-5.758-3.835-9.465.196-3.734.462-7.787,3.641-10.3,2.542-2.088,5.661-3.638,8.078-5.924,3.633-3.275,5.98-7.525,9.442-11.031,5.292-5.162,10.852-9.198,13.475-16.489,3.012-7.312,4.181-15.083,10.616-20.053,4.595-3.868,11.698-2.987,17.167-2.316,3.486.467,7.019-.076,10.291-1.391,2.975-1.099,4.208-2.339,6.968-3.727,5.81-2.831,14.464,1.074,20.159,2.932,5.499,2.373,12.644,4.835,17.227,8.578,2.546,2.246,3.098,5.059,3.537,8.315.416,2.514.945,5.809,3.288,7.007,2.551,1.271,6.377.54,9.299.577,6.561-.574,11.971,3.395,16.906,7.421,7.234,6.078,16.35,16.798,21.836,25.359,5.013,7.812,7.402,15.555,11.833,23.812,5.137,9.543,10.558,20.673,7.127,31.635l-.03.1Z" fill="#009245"/>
          <path d="M94.499,61.567c-2.894,6.086-10.364,6.648-15.777,9.425-11.383,5.692-28.378,19.084-31.211,32.006-1.298,5.547-3.126,7.406-6.636,1.759-1.786-3.037-4.507-5.912-8.282-5.768-6.618.086-14.671,6.818-17.159,13.011-.897,2.4-.461,6.083,2.501,6.436,2.786.192,5.664-2.619,8.53-2.572,1.429-.06,2.773.836,2.753,2.323.046,1.251-.728,2.82-1.585,4.487-1.103,2.145-2.101,4.598-1.799,7.049.48,4.107,4.334,3.423,7.517,2.443,1.978-.533,4.041-.899,6.117-.781,6.336.456,13.004,3.628,16.654,8.967,1.916,2.815,2.521,6.243,2.961,9.59.386,3.173,1.071,6.397,2.994,8.913,3.93,5.09,10.855,9.776,11.276,16.691-.041,5.463-3.721,10.347-5.99,15.151-2.139,4.102-3.841,8.423-6.007,12.487-2.45,4.535-5.012,9.224-6.765,14.035-1.73,4.783-3.665,9.689-3.213,14.805.447,5.87,5.325,10.305,10.771,11.85,2.175.852,6.928,1.644,6.173,3.578-1.127,1.402-3.186,1.722-5.02,2.117-15.596,2.957-29.492-7.297-36.746-20.638-3.417-5.986-6.193-12.992-7.01-19.787-.668-6.084-.297-13.445-5.527-17.64-4.574-3.721-10.025-8.59-11.7-14.755-1.59-6.487-3.474-17.855-1.408-23.904,1.918-5.615,10.201-6.017,14.178-10.269,5.576-5.219,5.33-12.934-1.127-17.137-2.518-1.784-6.05-3.398-8.011-5.001-.653-.535-1.232-1.155-1.571-1.915-.89-2.055-.024-4.649.545-6.884,2.108-8.276,5.291-16.294,8.771-23.99,8.384-18.536,20.081-33.781,33.892-47.724,4.53-4.196,9.751-7.451,14.733-11.18,2.973-2.206,5.884-4.666,8.694-6.605,4.238-2.895,9.26-5.232,13.852-7.341,1.435-.608,3.595-1.297,4.538-.77.906.368,1.314,1.397,1.373,2.797.111,2.831-.9,5.983-.938,8.868.093,11.979,10.827,24.16,4.704,35.787l-.045.087Z" fill="#009245"/>
          <path d="M290.22,208.289c-2.042,9.329-7.84,19.575-12.493,27.642-1.945,3.399-5.342,6.986-9.484,4.545-1.831-.983-3.463-2.642-5.295-3.745-3.864-2.422-8.446-2.849-12.9-2.715-7.181-.232-16.077,3.69-21.651-2.436-3.036-3.433-1.906-8.453-.657-12.457,1.57-5.399,5.337-9.779,9.34-13.616,5.122-4.859,11.705-9.902,18.491-12.942,3.989-1.677,7.997-2.274,12.246-3.188,14.841-3.47,25.436,3.047,22.425,18.8l-.02.112Z" fill="#009245"/>
          <path d="M283.792,181.849c-2.377.423-4.438-1.619-5.786-3.402-2.068-2.832-4.074-6.348-6.489-8.618-1.168-1.114-2.539-1.968-3.984-2.683-3.13-1.658-7.253-2.603-10.011-4.787-4.404-3.781.839-8.037,4.794-9.236,9.075-3.271,13.781.831,18.213,8.165,2.074,3.356,9.752,18.653,3.342,20.543l-.078.018Z" fill="#009245"/>
          <path d="M142.905,15.854c-2.937,4.913-7.739,8.088-12.354,11.455-3.635,2.672-6.929,5.595-9.893,9.072-2.555,2.784-4.994,6.005-8.604,5.525-5.639-1.543-9.293-9.54-11.615-14.786-1.276-3.218-2.513-6.748-2.42-10.193.267-4.491,2.822-9.171,7.321-10.541,6.404-1.839,12.784-3.37,19.371-4.644,2.49-.427,4.902-.771,7.4-1.101,3.271-.384,6.841-.974,10.168-.405,8.211,1.505,3.7,10.966.684,15.526l-.059.092Z" fill="#009245"/>
          <path d="M170.368,192.59c-1.814,3.665-2.852,7.633-5.259,10.971-1.225,1.68-2.43,3.693-4.543,4.492-1.287.538-2.898-.075-2.907-1.562-.088-1.573,1.026-3.064,1.479-4.56.48-1.445.25-3.012.546-4.487.523-3.006,4.106-3.403,6.203-5.055,1.416-1.041,2.372-2.828,4.042-3.475,1.842-.479,1.043,2.537.483,3.573l-.044.103Z" fill="#009245"/>
        </g>
      </g>
      <g>
        <path d="M386.521,228.289V93.443c0-1.66,1.346-3.007,3.007-3.007h72.594c1.66,0,3.007,1.346,3.007,3.007v13.423c0,1.66-1.346,3.007-3.007,3.007h-49.695c-1.66,0-3.007,1.346-3.007,3.007v29.106c0,1.66,1.346,3.007,3.007,3.007h49.695c1.66,0,3.007,1.346,3.007,3.007v14.095c0,1.66-1.346,3.007-3.007,3.007h-49.695c-1.66,0-3.007,1.346-3.007,3.007v60.182c0,1.66-1.346,3.007-3.007,3.007h-16.886c-1.66,0-3.007-1.346-3.007-3.007Z" fill="#e6f1e4"/>
        <path d="M481.483,185.787c0-6.67,1.267-12.973,3.801-18.907,2.534-5.932,6.173-11.209,10.921-15.826,4.682-4.553,10.071-8.049,16.164-10.487,6.094-2.436,12.476-3.656,19.146-3.656,6.863,0,13.326,1.219,19.388,3.656,6.061,2.438,11.497,6.029,16.307,10.776,4.812,4.684,8.468,9.975,10.968,15.876,2.502,5.903,3.753,12.092,3.753,18.569,0,6.734-1.236,13.054-3.703,18.953-2.471,5.903-6.079,11.13-10.825,15.683-5.003,4.812-10.552,8.453-16.645,10.921-6.094,2.469-12.507,3.705-19.243,3.705-6.606,0-12.957-1.236-19.05-3.705-6.094-2.468-11.514-6.044-16.26-10.728-4.81-4.746-8.466-10.069-10.968-15.971-2.501-5.901-3.753-12.186-3.753-18.858ZM559.899,185.979c0-8.468-2.728-15.635-8.179-21.505-5.451-5.868-12.123-8.804-20.013-8.804-7.825,0-14.481,2.936-19.965,8.804-5.484,5.87-8.225,13.038-8.225,21.505s2.741,15.634,8.225,21.503c5.484,5.87,12.14,8.804,19.965,8.804s14.481-2.934,19.965-8.804c5.484-5.87,8.227-13.038,8.227-21.503Z" fill="#e6f1e4"/>
        <path d="M624.94,142.898c0,2.879,3.586,4.055,5.398,1.818,1.085-1.34,2.252-2.499,3.503-3.477,3.687-2.886,8.257-4.329,13.71-4.329,2.95,0,5.853.353,8.708,1.058,1.888.468,3.756,1.075,5.603,1.822,1.565.634,2.319,2.428,1.66,3.983l-5.027,11.861c-.68,1.604-2.559,2.209-4.124,1.446-.97-.473-1.976-.862-3.018-1.168-2.084-.608-4.41-.912-6.975-.912-6.927,0-11.899,2.774-14.914,8.321-3.015,5.55-4.522,14.866-4.522,27.951v37.019c0,1.66-1.346,3.007-3.007,3.007h-14.864c-1.66,0-3.007-1.346-3.007-3.007v-85.391c0-1.66,1.346-3.007,3.007-3.007h14.864c1.66,0,3.007,1.346,3.007,3.007h0Z" fill="#e6f1e4"/>
        <path d="M761.447,188.768h-66.61c-1.81,0-3.231,1.598-2.993,3.392.919,6.924,3.345,12.448,7.278,16.573,4.553,4.779,10.616,7.168,18.186,7.168,6.734,0,12.345-1.41,16.836-4.232,3.869-2.432,7.311-6.151,10.323-11.157.829-1.377,2.613-1.84,4.017-1.057l12.312,6.862c1.508.841,1.99,2.775,1.081,4.243-4.832,7.806-10.645,13.722-17.437,17.752-7.57,4.489-16.454,6.736-26.652,6.736-14.626,0-26.268-4.458-34.926-13.374-8.659-8.916-12.99-20.815-12.99-35.696,0-14.304,4.474-26.059,13.423-35.262,8.947-9.204,20.446-13.807,34.493-13.807,14.686,0,26.136,4.201,34.348,12.602,8.209,8.405,12.316,20.174,12.316,35.312v.937c0,1.66-1.346,3.007-3.007,3.007ZM739.186,174.721c1.921,0,3.405-1.791,2.939-3.654-1.196-4.776-3.47-8.544-6.826-11.306-4.17-3.432-9.878-5.148-17.126-5.148-6.865,0-12.38,1.669-16.548,5.003-3.275,2.619-5.778,6.286-7.509,11-.729,1.986.691,4.104,2.806,4.104h42.264Z" fill="#e6f1e4"/>
        <path d="M778.332,213.319l11.626-6.33c1.574-.857,3.479-.127,4.22,1.506,1.372,3.023,3.362,5.428,5.969,7.215,3.465,2.372,7.922,3.558,13.374,3.558,4.682,0,8.356-1.072,11.018-3.222,2.66-2.148,3.991-5.082,3.991-8.804,0-4.939-4.746-9.173-14.238-12.7-3.209-1.155-5.677-2.117-7.408-2.886-9.751-4.041-16.566-8.146-20.446-12.316-4.925-5.288-6.722-12.02-5.404-20.197.641-3.972,2.342-7.751,4.968-10.799,6.681-7.752,16.528-11.628,29.54-11.628,7.056,0,13.1,1.298,18.136,3.896,4.117,2.124,7.324,4.989,9.618,8.594.863,1.355.463,3.163-.86,4.074l-9.763,6.72c-1.373.945-3.261.597-4.18-.794-1.088-1.647-2.535-3.034-4.341-4.16-2.726-1.7-5.886-2.55-9.478-2.55-3.977,0-7.168.947-9.573,2.838-2.405,1.893-3.608,4.41-3.608,7.553,0,4.746,5.389,9.077,16.164,12.988,3.398,1.219,6.028,2.214,7.889,2.984,8.402,3.336,14.416,7.104,18.041,11.304,3.622,4.203,5.436,9.446,5.436,15.731,0,9.11-3.305,16.245-9.911,21.408-6.608,5.163-15.716,7.746-27.325,7.746-8.916,0-16.324-1.669-22.225-5.003-5.086-2.873-9.218-7.057-12.397-12.552-.851-1.47-.327-3.363,1.164-4.175Z" fill="#e6f1e4"/>
        <path d="M875.001,228.289v-66.917c0-1.66-1.346-3.007-3.007-3.007h-9.958c-1.66,0-3.007-1.346-3.007-3.007v-12.268c0-1.66,1.346-3.007,3.007-3.007h9.958c1.66,0,3.007-1.346,3.007-3.007v-28.528c0-1.66,1.346-3.007,3.007-3.007h14.866c1.66,0,3.007,1.346,3.007,3.007v28.528c0,1.66,1.346,3.007,3.007,3.007h9.958c1.66,0,3.007,1.346,3.007,3.007v12.268c0,1.66-1.346,3.007-3.007,3.007h-9.958c-1.66,0-3.007,1.346-3.007,3.007v66.917c0,1.66-1.346,3.007-3.007,3.007h-14.866c-1.66,0-3.007-1.346-3.007-3.007Z" fill="#e6f1e4"/>
        <path d="M953.032,171.088v57.201c0,1.66-1.346,3.007-3.007,3.007h-15.442c-1.66,0-3.007-1.346-3.007-3.007V93.443c0-1.66,1.346-3.007,3.007-3.007h31.63c10.263,0,17.815.564,22.66,1.684,4.842,1.124,9.059,2.969,12.652,5.534,4.425,3.27,7.889,7.682,10.39,13.228,2.502,5.548,3.753,11.659,3.753,18.329s-1.25,12.83-3.753,18.474c-2.501,5.644-5.965,10.071-10.39,13.278-3.593,2.565-7.81,4.394-12.652,5.484-4.845,1.091-12.397,1.634-22.66,1.634h-10.174c-1.66,0-3.007,1.346-3.007,3.007ZM954.475,146.315c0,1.66,1.346,3.007,3.007,3.007h2.863c12.7,0,21.167-1.379,25.399-4.138,4.234-2.756,6.351-7.632,6.351-14.624,0-7.506-2.26-12.797-6.782-15.876-4.522-3.079-12.845-4.618-24.968-4.618h-2.863c-1.66,0-3.007,1.346-3.007,3.007v33.243Z" fill="#e6f1e4"/>
        <path d="M1035.682,228.289V85.17c0-1.66,1.346-3.007,3.007-3.007h14.864c1.66,0,3.007,1.346,3.007,3.007v143.119c0,1.66-1.346,3.007-3.007,3.007h-14.864c-1.66,0-3.007-1.346-3.007-3.007Z" fill="#e6f1e4"/>
        <path d="M1169.203,231.296h-14.866c-1.66,0-3.007-1.346-3.007-3.007v-.698c0-2.647-3.177-3.999-5.078-2.157-2.446,2.368-5.099,4.291-7.958,5.766-4.972,2.563-10.665,3.848-17.079,3.848-12.892,0-23.044-4.41-30.452-13.23-7.408-8.818-11.113-20.894-11.113-36.225,0-14.56,3.784-26.314,11.354-35.262,7.568-8.949,17.446-13.421,29.633-13.421,7.441,0,13.807,1.555,19.1,4.665,2.398,1.41,4.503,3.101,6.314,5.07,1.886,2.051,5.278.824,5.278-1.961v-1.593c0-1.66,1.346-3.007,3.007-3.007h14.866c1.66,0,3.007,1.346,3.007,3.007v85.198c0,1.66-1.346,3.007-3.007,3.007ZM1151.909,185.401c0-9.428-2.198-16.772-6.591-22.032-4.394-5.26-10.535-7.889-18.424-7.889s-14.095,2.71-18.617,8.13c-4.522,5.42-6.784,12.94-6.784,22.561,0,9.687,2.179,17.159,6.544,22.42,4.361,5.26,10.519,7.889,18.472,7.889,7.506,0,13.614-2.853,18.329-8.563,4.715-5.708,7.072-13.214,7.072-22.515Z" fill="#e6f1e4"/>
        <path d="M1201.076,228.289v-85.198c0-1.66,1.346-3.007,3.007-3.007h13.614c1.66,0,3.007,1.346,3.007,3.007v3.31c0,2.712,3.302,4.024,5.174,2.061,2.905-3.046,6.087-5.454,9.548-7.222,5.644-2.886,12.507-4.329,20.589-4.329,6.799,0,12.588,1.074,17.367,3.222,4.779,2.15,8.515,5.341,11.209,9.573,1.603,2.502,2.758,5.422,3.465,8.756.705,3.336,1.058,9.173,1.058,17.512v52.316c0,1.66-1.346,3.007-3.007,3.007h-15.057c-1.66,0-3.007-1.346-3.007-3.007v-43.85c0-11.993-1.46-19.965-4.377-23.909-2.921-3.946-8.099-5.917-15.54-5.917-4.875,0-9.22.9-13.038,2.693-3.815,1.797-6.815,4.329-8.995,7.601-1.54,2.181-2.614,4.988-3.224,8.42-.61,3.432-.914,8.899-.914,16.403v38.559c0,1.66-1.346,3.007-3.007,3.007h-14.864c-1.66,0-3.007-1.346-3.007-3.007Z" fill="#e6f1e4"/>
        <path d="M1401.754,188.768h-66.61c-1.81,0-3.231,1.598-2.993,3.392.919,6.924,3.345,12.448,7.278,16.573,4.553,4.779,10.616,7.168,18.186,7.168,6.734,0,12.345-1.41,16.836-4.232,3.869-2.432,7.311-6.151,10.323-11.157.829-1.377,2.613-1.84,4.017-1.057l12.312,6.862c1.508.841,1.99,2.775,1.081,4.243-4.832,7.806-10.645,13.722-17.437,17.752-7.57,4.489-16.454,6.736-26.652,6.736-14.626,0-26.268-4.458-34.926-13.374-8.659-8.916-12.99-20.815-12.99-35.696,0-14.304,4.474-26.059,13.423-35.262,8.947-9.204,20.446-13.807,34.493-13.807,14.686,0,26.136,4.201,34.348,12.602,8.209,8.405,12.316,20.174,12.316,35.312v.937c0,1.66-1.346,3.007-3.007,3.007ZM1379.494,174.721c1.921,0,3.405-1.791,2.939-3.654-1.196-4.776-3.47-8.544-6.826-11.306-4.17-3.432-9.878-5.148-17.126-5.148-6.865,0-12.38,1.669-16.548,5.003-3.275,2.619-5.778,6.286-7.509,11-.729,1.986.691,4.104,2.806,4.104h42.264Z" fill="#e6f1e4"/>
        <path d="M1431.411,228.289v-66.917c0-1.66-1.346-3.007-3.007-3.007h-9.958c-1.66,0-3.007-1.346-3.007-3.007v-12.268c0-1.66,1.346-3.007,3.007-3.007h9.958c1.66,0,3.007-1.346,3.007-3.007v-28.528c0-1.66,1.346-3.007,3.007-3.007h14.866c1.66,0,3.007,1.346,3.007,3.007v28.528c0,1.66,1.346,3.007,3.007,3.007h9.958c1.66,0,3.007,1.346,3.007,3.007v12.268c0,1.66-1.346,3.007-3.007,3.007h-9.958c-1.66,0-3.007,1.346-3.007,3.007v66.917c0,1.66-1.346,3.007-3.007,3.007h-14.866c-1.66,0-3.007-1.346-3.007-3.007Z" fill="#e6f1e4"/>
      </g>
    </g>
  </g>
</svg>