<?xml version="1.0" encoding="UTF-8"?>
<svg id="b" data-name="Layer 2" xmlns="http://www.w3.org/2000/svg" width="1081.741" height="152.885" viewBox="0 0 1081.741 152.885">
  <g id="c" data-name="Layer 1">
    <g>
      <path d="M0,146.125V11.28c0-1.66,1.346-3.007,3.007-3.007h72.594c1.66,0,3.007,1.346,3.007,3.007v13.423c0,1.66-1.346,3.007-3.007,3.007H25.905c-1.66,0-3.007,1.346-3.007,3.007v29.106c0,1.66,1.346,3.007,3.007,3.007h49.695c1.66,0,3.007,1.346,3.007,3.007v14.095c0,1.66-1.346,3.007-3.007,3.007H25.905c-1.66,0-3.007,1.346-3.007,3.007v60.182c0,1.66-1.346,3.007-3.007,3.007H3.007c-1.66,0-3.007-1.346-3.007-3.007Z" fill="#1e371a"/>
      <path d="M94.962,103.623c0-6.67,1.267-12.973,3.801-18.907,2.534-5.932,6.173-11.209,10.921-15.826,4.682-4.553,10.071-8.049,16.164-10.487,6.094-2.436,12.476-3.656,19.146-3.656,6.863,0,13.326,1.219,19.388,3.656,6.061,2.438,11.497,6.029,16.307,10.776,4.812,4.684,8.468,9.975,10.968,15.876,2.502,5.903,3.753,12.092,3.753,18.569,0,6.734-1.236,13.054-3.703,18.953-2.471,5.903-6.079,11.13-10.825,15.683-5.003,4.812-10.552,8.453-16.645,10.921-6.094,2.469-12.507,3.705-19.243,3.705-6.606,0-12.957-1.236-19.05-3.705-6.094-2.468-11.514-6.044-16.26-10.728-4.81-4.746-8.466-10.069-10.968-15.971-2.501-5.901-3.753-12.186-3.753-18.858ZM173.378,103.816c0-8.468-2.728-15.635-8.179-21.505-5.451-5.868-12.123-8.804-20.013-8.804-7.825,0-14.481,2.936-19.965,8.804-5.484,5.87-8.225,13.038-8.225,21.505s2.741,15.634,8.225,21.503c5.484,5.87,12.14,8.804,19.965,8.804s14.481-2.934,19.965-8.804c5.484-5.87,8.227-13.038,8.227-21.503Z" fill="#1e371a"/>
      <path d="M238.419,60.735c0,2.879,3.586,4.055,5.398,1.818,1.085-1.34,2.252-2.499,3.503-3.477,3.687-2.886,8.257-4.329,13.71-4.329,2.95,0,5.853.353,8.708,1.058,1.888.468,3.756,1.075,5.603,1.822,1.565.634,2.319,2.428,1.66,3.983l-5.027,11.861c-.68,1.604-2.559,2.209-4.124,1.446-.97-.473-1.976-.862-3.018-1.168-2.084-.608-4.41-.912-6.975-.912-6.927,0-11.899,2.774-14.914,8.321-3.015,5.55-4.522,14.866-4.522,27.951v37.019c0,1.66-1.346,3.007-3.007,3.007h-14.864c-1.66,0-3.007-1.346-3.007-3.007V60.735c0-1.66,1.346-3.007,3.007-3.007h14.864c1.66,0,3.007,1.346,3.007,3.007h0Z" fill="#1e371a"/>
      <path d="M374.926,106.604h-66.61c-1.81,0-3.231,1.598-2.993,3.392.919,6.924,3.345,12.448,7.278,16.573,4.553,4.779,10.616,7.168,18.186,7.168,6.734,0,12.345-1.41,16.836-4.232,3.869-2.432,7.311-6.151,10.323-11.157.829-1.377,2.613-1.84,4.017-1.057l12.312,6.862c1.508.841,1.99,2.775,1.081,4.243-4.832,7.806-10.645,13.722-17.437,17.752-7.57,4.489-16.454,6.736-26.652,6.736-14.626,0-26.268-4.458-34.926-13.374-8.659-8.916-12.99-20.815-12.99-35.696,0-14.304,4.474-26.059,13.423-35.262,8.947-9.204,20.446-13.807,34.493-13.807,14.686,0,26.136,4.201,34.348,12.602,8.209,8.405,12.316,20.174,12.316,35.312v.937c0,1.66-1.346,3.007-3.007,3.007ZM352.665,92.557c1.921,0,3.405-1.791,2.939-3.654-1.196-4.776-3.47-8.544-6.826-11.306-4.17-3.432-9.878-5.148-17.126-5.148-6.865,0-12.38,1.669-16.548,5.003-3.275,2.619-5.778,6.286-7.509,11-.729,1.986.691,4.104,2.806,4.104h42.264Z" fill="#1e371a"/>
      <path d="M391.811,131.155l11.626-6.33c1.574-.857,3.479-.127,4.22,1.506,1.372,3.023,3.362,5.428,5.969,7.215,3.465,2.372,7.922,3.558,13.374,3.558,4.682,0,8.356-1.072,11.018-3.222,2.66-2.148,3.991-5.082,3.991-8.804,0-4.939-4.746-9.173-14.238-12.7-3.209-1.155-5.677-2.117-7.408-2.886-9.751-4.041-16.566-8.146-20.446-12.316-4.925-5.288-6.722-12.02-5.404-20.197.641-3.972,2.342-7.751,4.968-10.799,6.681-7.752,16.528-11.628,29.54-11.628,7.056,0,13.1,1.298,18.136,3.896,4.117,2.124,7.324,4.989,9.618,8.594.863,1.355.463,3.163-.86,4.074l-9.763,6.72c-1.373.945-3.261.597-4.18-.794-1.088-1.647-2.535-3.034-4.341-4.16-2.726-1.7-5.886-2.55-9.478-2.55-3.977,0-7.168.947-9.573,2.838-2.405,1.893-3.608,4.41-3.608,7.553,0,4.746,5.389,9.077,16.164,12.988,3.398,1.219,6.028,2.214,7.889,2.984,8.402,3.336,14.416,7.104,18.041,11.304,3.622,4.203,5.436,9.446,5.436,15.731,0,9.11-3.305,16.245-9.911,21.408-6.608,5.163-15.716,7.746-27.325,7.746-8.916,0-16.324-1.669-22.225-5.003-5.086-2.873-9.218-7.057-12.397-12.552-.851-1.47-.327-3.363,1.164-4.175Z" fill="#1e371a"/>
      <path d="M488.481,146.125v-66.917c0-1.66-1.346-3.007-3.007-3.007h-9.958c-1.66,0-3.007-1.346-3.007-3.007v-12.268c0-1.66,1.346-3.007,3.007-3.007h9.958c1.66,0,3.007-1.346,3.007-3.007v-28.528c0-1.66,1.346-3.007,3.007-3.007h14.866c1.66,0,3.007,1.346,3.007,3.007v28.528c0,1.66,1.346,3.007,3.007,3.007h9.958c1.66,0,3.007,1.346,3.007,3.007v12.268c0,1.66-1.346,3.007-3.007,3.007h-9.958c-1.66,0-3.007,1.346-3.007,3.007v66.917c0,1.66-1.346,3.007-3.007,3.007h-14.866c-1.66,0-3.007-1.346-3.007-3.007Z" fill="#1e371a"/>
      <path d="M566.511,88.925v57.201c0,1.66-1.346,3.007-3.007,3.007h-15.442c-1.66,0-3.007-1.346-3.007-3.007V11.28c0-1.66,1.346-3.007,3.007-3.007h31.63c10.263,0,17.815.564,22.66,1.684,4.842,1.124,9.059,2.969,12.652,5.534,4.425,3.27,7.889,7.682,10.39,13.228,2.502,5.548,3.753,11.659,3.753,18.329s-1.25,12.83-3.753,18.474c-2.501,5.644-5.965,10.071-10.39,13.278-3.593,2.565-7.81,4.394-12.652,5.484-4.845,1.091-12.397,1.634-22.66,1.634h-10.174c-1.66,0-3.007,1.346-3.007,3.007ZM567.954,64.151c0,1.66,1.346,3.007,3.007,3.007h2.863c12.7,0,21.167-1.379,25.399-4.138,4.234-2.756,6.351-7.632,6.351-14.624,0-7.506-2.26-12.797-6.782-15.876-4.522-3.079-12.845-4.618-24.968-4.618h-2.863c-1.66,0-3.007,1.346-3.007,3.007v33.243Z" fill="#1e371a"/>
      <path d="M649.161,146.125V3.007c0-1.66,1.346-3.007,3.007-3.007h14.864c1.66,0,3.007,1.346,3.007,3.007v143.119c0,1.66-1.346,3.007-3.007,3.007h-14.864c-1.66,0-3.007-1.346-3.007-3.007Z" fill="#1e371a"/>
      <path d="M782.682,149.132h-14.866c-1.66,0-3.007-1.346-3.007-3.007v-.698c0-2.647-3.177-3.999-5.078-2.157-2.446,2.368-5.099,4.291-7.958,5.766-4.972,2.563-10.665,3.848-17.079,3.848-12.892,0-23.044-4.41-30.452-13.23-7.408-8.818-11.113-20.894-11.113-36.225,0-14.56,3.784-26.314,11.354-35.262,7.568-8.949,17.446-13.421,29.633-13.421,7.441,0,13.807,1.555,19.1,4.665,2.398,1.41,4.503,3.101,6.314,5.07,1.886,2.051,5.278.824,5.278-1.961v-1.593c0-1.66,1.346-3.007,3.007-3.007h14.866c1.66,0,3.007,1.346,3.007,3.007v85.198c0,1.66-1.346,3.007-3.007,3.007ZM765.388,103.237c0-9.428-2.198-16.772-6.591-22.032-4.394-5.26-10.535-7.889-18.424-7.889s-14.095,2.71-18.617,8.13c-4.522,5.42-6.784,12.94-6.784,22.561,0,9.687,2.179,17.159,6.544,22.42,4.361,5.26,10.519,7.889,18.472,7.889,7.506,0,13.614-2.853,18.329-8.563,4.715-5.708,7.072-13.214,7.072-22.515Z" fill="#1e371a"/>
      <path d="M814.555,146.125V60.927c0-1.66,1.346-3.007,3.007-3.007h13.614c1.66,0,3.007,1.346,3.007,3.007v3.31c0,2.712,3.302,4.024,5.174,2.061,2.905-3.046,6.087-5.454,9.548-7.222,5.644-2.886,12.507-4.329,20.589-4.329,6.799,0,12.588,1.074,17.367,3.222,4.779,2.15,8.515,5.341,11.209,9.573,1.603,2.502,2.758,5.422,3.465,8.756.705,3.336,1.058,9.173,1.058,17.512v52.316c0,1.66-1.346,3.007-3.007,3.007h-15.057c-1.66,0-3.007-1.346-3.007-3.007v-43.85c0-11.993-1.46-19.965-4.377-23.909-2.921-3.946-8.099-5.917-15.54-5.917-4.875,0-9.22.9-13.038,2.693-3.815,1.797-6.815,4.329-8.995,7.601-1.54,2.181-2.614,4.988-3.224,8.42-.61,3.432-.914,8.899-.914,16.403v38.559c0,1.66-1.346,3.007-3.007,3.007h-14.864c-1.66,0-3.007-1.346-3.007-3.007Z" fill="#1e371a"/>
      <path d="M1015.234,106.604h-66.61c-1.81,0-3.231,1.598-2.993,3.392.919,6.924,3.345,12.448,7.278,16.573,4.553,4.779,10.616,7.168,18.186,7.168,6.734,0,12.345-1.41,16.836-4.232,3.869-2.432,7.311-6.151,10.323-11.157.829-1.377,2.613-1.84,4.017-1.057l12.312,6.862c1.508.841,1.99,2.775,1.081,4.243-4.832,7.806-10.645,13.722-17.437,17.752-7.57,4.489-16.454,6.736-26.652,6.736-14.626,0-26.268-4.458-34.926-13.374-8.659-8.916-12.99-20.815-12.99-35.696,0-14.304,4.474-26.059,13.423-35.262,8.947-9.204,20.446-13.807,34.493-13.807,14.686,0,26.136,4.201,34.348,12.602,8.209,8.405,12.316,20.174,12.316,35.312v.937c0,1.66-1.346,3.007-3.007,3.007ZM992.973,92.557c1.921,0,3.405-1.791,2.939-3.654-1.196-4.776-3.47-8.544-6.826-11.306-4.17-3.432-9.878-5.148-17.126-5.148-6.865,0-12.38,1.669-16.548,5.003-3.275,2.619-5.778,6.286-7.509,11-.729,1.986.691,4.104,2.806,4.104h42.264Z" fill="#1e371a"/>
      <path d="M1044.89,146.125v-66.917c0-1.66-1.346-3.007-3.007-3.007h-9.958c-1.66,0-3.007-1.346-3.007-3.007v-12.268c0-1.66,1.346-3.007,3.007-3.007h9.958c1.66,0,3.007-1.346,3.007-3.007v-28.528c0-1.66,1.346-3.007,3.007-3.007h14.866c1.66,0,3.007,1.346,3.007,3.007v28.528c0,1.66,1.346,3.007,3.007,3.007h9.958c1.66,0,3.007,1.346,3.007,3.007v12.268c0,1.66-1.346,3.007-3.007,3.007h-9.958c-1.66,0-3.007,1.346-3.007,3.007v66.917c0,1.66-1.346,3.007-3.007,3.007h-14.866c-1.66,0-3.007-1.346-3.007-3.007Z" fill="#1e371a"/>
    </g>
  </g>
</svg>