<svg width="681" height="279" viewBox="0 0 681 279" fill="none" xmlns="http://www.w3.org/2000/svg">
<path d="M0 197.088L126.059 0H137.16V197.804C144.562 197.565 150.411 197.088 154.708 196.373C159.245 195.419 162.587 193.869 164.736 191.723C167.123 189.338 168.675 186.119 169.391 182.065C170.108 177.773 170.466 172.169 170.466 165.254H183V245.019H170.466C170.466 238.581 170.108 233.335 169.391 229.281C168.675 225.227 167.123 222.127 164.736 219.981C162.587 217.596 159.245 216.046 154.708 215.331C150.411 214.377 144.562 213.781 137.16 213.542V221.054C137.16 230.354 137.519 237.865 138.235 243.588C138.951 249.312 140.264 253.842 142.174 257.181C144.323 260.281 147.188 262.427 150.769 263.619C154.589 264.812 159.483 265.408 165.452 265.408V279H64.82V265.408C72.6986 265.408 79.0254 264.812 83.8004 263.619C88.8141 262.427 92.634 260.281 95.2603 257.181C97.8865 254.081 99.6771 249.788 100.632 244.304C101.587 238.819 102.065 231.904 102.065 223.558V214.973H0V197.088ZM102.065 69.75H100.274L17.9061 197.088H102.065V69.75Z" fill="#191923"/>
<path d="M403.855 249.89C408.337 251.043 413.453 247.136 417.803 248.403C418.294 248.583 418.874 248.828 418.563 249.304C418.202 249.693 416.743 249.797 415.515 249.976C412.273 250.367 409.704 252.571 406.415 252.72C396.103 252.995 394.284 235.639 379.898 240.004C377.768 240.583 375.602 241.42 373.402 241.894C372.145 242.219 368.528 242.846 370.579 243.949C373.037 244.834 376.07 244.441 378.585 245.185C382.696 246.317 385.851 250.067 390.278 250.526C393.757 251.1 396.735 251.28 399.429 253.71C400.858 254.838 403.629 258.817 401.988 258.766C400.721 258.728 398.916 256.144 397.768 255.367C395.577 253.397 391.872 253.634 388.984 252.764C387.636 252.37 386.446 251.595 385.256 250.857C380.903 247.777 370.128 246.147 364.991 248.097C363.881 249.747 367.965 250.246 369.058 250.292C380.804 250.007 378.273 253.532 386.68 258.481C388.119 259.482 392.801 260.81 393.115 262.43C393.162 262.672 392.978 262.908 392.732 262.919C390.831 263.005 388.252 260.202 386.605 262.127C386.038 263.016 386.832 264.919 386.431 265.416C385.718 266.002 384.517 264.858 383.588 264.091C380.729 261.47 379.308 256.841 376.877 254.124C375.431 252.058 370.995 252.01 367.939 252.408C365.991 252.767 362.688 252.141 361.476 253.675C360.432 256.606 365.215 259.443 366.991 261.32C368.929 262.935 373.706 268.123 370.954 269.6C370.316 269.721 369.332 269.02 368.447 268.692C366.23 267.802 365.891 270.166 364.189 270.934C362.171 271.589 362.422 269.024 362.343 267.875C362.439 263.946 357.766 257.69 353.575 257.513C350.902 258.02 349.081 263.253 348.49 266.057C348.116 272.862 348.369 272.68 340.698 272.68C337.998 272.68 339.718 270.417 340.451 268.942C342.01 265.956 343.456 262.583 343.888 259.203C344.547 256.201 342.568 251.653 339.101 254.256C338.061 255.084 337.336 256.359 336.548 257.428C333.449 261.727 328.304 264.315 325.772 268.886C324.967 270.452 324.025 271.339 321.982 271.157C320.12 270.991 319.14 270.915 317.716 269.978C313.284 267.062 313.508 267.223 308.039 268.128C307.573 268.155 307.35 267.912 307.894 267.531C308.843 266.878 309.505 266.743 310.655 266.503C314.149 265.972 317.341 264.531 320.683 263.486C324.771 262.675 328.365 262.587 329.356 257.592C330.747 248.091 315.869 258.058 311.71 258.452C307.208 259.636 302.159 258.444 297.831 260.316C295.833 261.1 295.023 262.428 292.939 262.846C290.593 262.974 291.91 260.529 292.13 259.368C293.107 256.415 290.453 253.84 288.057 252.551C284.138 250.434 279.506 249.979 275.216 250.925C273.763 251.226 272.921 251.745 271.439 251.604C269.367 251.414 268.587 249.614 270.806 249.21C272.841 248.884 274.244 249.192 276.295 249.132C280.076 249.099 283.945 248.508 287.665 249.439C296.389 251.698 306.033 259.168 314.767 253.094C316.586 251.847 318.673 249.554 317.65 247.326C316.519 244.927 313.235 244.714 310.865 244.593C302.941 244.295 295.028 245.253 286.822 244.739C280.507 244.995 273.327 240.435 267.708 244.893C266.556 245.828 262.845 248.587 264.496 245.629C265.801 243.706 267.435 242.365 269.714 241.548C272.237 240.644 274.578 241.826 277.013 242.129C279.197 242.385 283.34 242.445 278.989 240.452C274.172 237.606 273.474 238.526 268.501 239.107C265.694 239.386 262.052 238.245 259.641 240.09C258.722 240.732 258.582 241.183 257.62 241.629C257.222 241.761 257.067 241.314 257.333 240.62C257.946 239.187 258.999 238.873 260.213 238.077C268.666 234.054 281.623 238.815 289.888 242.207C292.511 242.932 295.06 241.126 297.667 240.906C302.691 241.173 307.97 242.758 312.912 240.948C316.263 239.345 308.485 236.878 305.96 235.026C298.71 229.492 298.982 217.548 291.628 211.429C282.858 203.447 270.442 203.994 259.456 205.841C257.564 206.058 254.843 207.083 253.184 206.289C253.016 206.109 253.158 205.861 253.564 205.614C254.677 205.001 256.106 204.741 257.366 204.438C262.076 203.303 266.462 202.899 270.883 201.124C274.457 199.792 274.274 197.472 272.544 194.62C270.705 191.37 268.132 188.063 265.883 185.267C265.001 184.169 263.927 182.996 263.482 181.673C263.143 180.386 264.484 180.997 265.021 181.489C267.588 183.812 269.821 187.241 271.948 189.87C277.232 197.493 282.941 202.423 292.437 205.07C293.9 205.514 296.328 206.315 296.525 204.069C296.815 201.85 295.353 197.598 294.492 194.71C292.696 189.456 294.777 184.394 295.245 179.127C295.609 174.42 294.672 164.327 291.493 160.863C290.62 159.887 289.444 159.218 288.064 158.721C287.386 158.446 286.251 158.106 286.043 157.492C285.819 156.695 286.639 155.951 287.03 155.296C290.33 149.344 279.725 143.29 276.827 139.233C274.231 136.527 274.321 132.362 272.347 129.324C271.033 127.535 268.742 126.497 267.272 124.774C264.818 122.147 263.089 118.745 260.36 116.393C253.465 110.845 242.375 112.701 233.929 110.164C233.202 109.864 232.673 109.465 232.694 109.139C233.328 108.005 236.194 108.827 237.363 108.917C244.375 110.128 254.574 110.749 260.347 114.223C263.231 115.551 269.998 125.877 271.626 118.448C272.277 106.185 269.162 97.1902 264.188 86.0681C263.696 84.9248 263.264 83.8867 263.28 83.2476C263.281 82.3778 263.991 82.4389 264.638 83.4634C265.59 85.0659 265.706 86.1917 266.589 88.1505C267.382 89.4528 267.867 92.0672 269.645 89.9343C272.273 84.1747 274.617 76.353 277.045 70.3412C277.312 69.5994 277.72 68.796 278.182 68.2437C278.798 67.5572 279.289 67.8234 279.206 68.7795C277.852 74.1634 275.029 79.2136 273.273 84.5194C272.327 87.0984 271.576 89.512 271.172 92.2277C269.979 100.312 272.987 108.442 274.65 116.485C275.27 119.492 275.732 122.892 276.181 125.861C277.448 138.831 284.903 139.865 291.002 149.522C299.501 162.105 293.948 166.317 304.153 152.319C305.7 150.324 308.397 146.552 309.795 145.401C310.976 144.457 310.638 145.607 310.16 146.41C305.117 153.275 300.999 160.918 299.307 169.292C298.106 175.672 299.05 186.215 306.732 177.368C308.219 176.242 307.607 178.297 307.211 178.983C305.448 182.655 302.758 185.35 301.985 189.444C301.22 199.406 303.829 207.599 309.525 215.369C312.634 219.194 312.865 224.672 316.759 227.859C318.933 229.617 321.616 230.663 323.986 232.1C330.127 236.163 337.728 241.558 345.148 240.439C348.204 240.049 351.057 238.135 353.017 235.745C362.643 225.407 372.195 216.076 364.898 201.305C362.956 197.083 360.225 193.125 357.812 189.172C357.205 188.529 353.448 181.262 356.54 182.774C357.759 183.702 358.669 185.313 359.524 186.619C363.352 192.68 366.838 198.738 369.825 205.247C372.113 210.269 374.335 209.878 375.653 204.623C379.117 192.557 381.901 178.559 379.624 165.816C378.605 160.606 376.44 155.688 374.814 150.649C373.167 143.827 369.296 138.581 364.312 133.551C363.695 132.787 362.754 131.606 364.159 131.116C365.807 130.664 368.141 130.458 368.63 128.474C369.556 126.205 369.445 119.757 371.18 118.932C371.471 118.945 371.749 119.401 371.935 120.199C372.526 123.214 372.305 126.551 372.585 129.612C373.152 135.99 376.394 141.751 378.304 147.801C379.459 151.424 381.268 160.092 386.483 155.552C392.664 150.007 394.28 140.942 395.629 133.071C396.426 128.719 397.942 131.512 397.399 134.448C396.055 145.639 389.359 157.216 387.067 168.042C386.137 172.999 384.489 181.477 388.56 185.168C389.608 185.889 391.536 185.113 392.346 185.229C393.214 185.527 392.185 186.616 391.87 187.067C388.829 190.409 385.49 193.715 384.809 198.399C383.437 207.977 391.41 202.42 396.894 200.266C399.812 199.152 416.111 191.529 415.017 194.942C414.552 195.913 412.722 197.079 411.449 197.565C395.52 204.139 378.737 215.253 374.118 232.265C373.598 234.012 373.816 235.44 376.031 235.412C392.917 233.157 403.817 245.233 416.56 241.14C418.639 240.589 421.417 239.662 423.347 240.699C423.6 240.941 423.291 241.262 422.613 241.61C421.049 242.353 419.013 242.949 417.258 243.383C411.694 245.183 406.914 243.443 401.507 242.996C395.945 243.054 399.977 249.225 403.763 249.867L403.853 249.889L403.855 249.89Z" fill="#1E371A"/>
<path d="M470.027 113.353C466.926 122.518 455.836 133.97 446.041 135.042C441.547 135.139 435.916 133.024 432.796 137.546C431.341 139.345 430.528 141.695 428.601 143.068C426.295 144.722 422.406 144.889 419.762 143.808C417.882 143.062 416.579 141.502 415.249 140.048C413.212 137.762 410.795 135.914 409.52 133.155C408.593 131.392 408.43 128.61 406.661 127.52C404.391 126.373 401.334 128.886 399.466 130.38C393.316 136.343 389.326 130.382 387.698 124.349C386.586 120.005 387.653 115.026 385.239 111.305C384.141 109.608 382.042 108.804 380.312 110.173C377.833 112.198 376.527 115.608 374.255 117.866C371.626 120.594 368.28 122.824 364.468 122.847C361.677 122.79 360.117 120.197 358.568 118.209C357.032 116.135 355.081 114.53 353.79 112.229C351.368 108.314 351.32 101.999 347.538 99.1588C347.233 99.0618 347.2 99.3843 347.427 100.05C348.634 102.836 350.242 105.755 350.535 108.906C351.513 114.988 351.782 122.335 357.372 126.12C358.898 127.175 360.8 127.959 362.124 129.253C365.163 131.972 363.071 136.075 361.285 138.897C356.569 146.42 350.435 153.009 350.339 162.411C350.107 165.7 350.237 168.834 349.684 172.058C348.168 180.807 342.058 188.729 337.775 196.425C331.438 206.43 325.188 217.235 317.774 200.405C315.699 194.819 316.064 188.843 314.791 182.953C313.951 176.24 313.092 169.956 312.648 163.101C312.334 159.187 312.4 155.207 311.755 151.383C310.325 143.207 308.155 139.908 299.226 140.045C296.269 140.021 292.813 140.299 290.328 138.587C283.71 133.676 282.553 119.25 284.135 111.683C285.309 105.297 290.38 100.637 294.712 96.1711C299.065 91.3715 305.119 90.1124 311.405 88.6423C319.417 86.4061 319.313 91.0113 324.98 93.4196C328.179 94.3486 331.124 91.6149 334.308 91.9073C336.991 92.0819 339.195 94.4736 341.86 94.2026C345.731 94.0848 355.758 86.8202 347.321 85.929C342.958 85.7196 338.866 86.3416 334.46 86.9448C332.646 87.1843 330.669 87.5858 328.895 87.1392C325.572 86.3426 325.914 81.8989 322.972 80.5689C319.942 79.221 315.235 78.8099 311.893 80.0778C309.827 80.8065 307.724 82.3857 305.536 82.518C301.5 82.488 302.052 77.4508 302.163 74.1882C302.336 70.9023 302.57 67.3352 305.366 65.1233C307.602 63.2857 310.345 61.9213 312.471 59.9096C315.666 57.0277 317.73 53.287 320.775 50.2018C325.429 45.6587 330.319 42.1071 332.626 35.6901C335.275 29.2546 336.303 22.4161 341.963 18.0418C346.005 14.6376 352.251 15.4129 357.062 16.0029C360.128 16.4141 363.235 15.936 366.113 14.7792C368.729 13.8123 369.814 12.7204 372.242 11.4991C377.351 9.00741 384.963 12.4441 389.971 14.079C394.808 16.1673 401.091 18.3341 405.123 21.6278C407.362 23.604 407.848 26.0802 408.234 28.9452C408.6 31.1576 409.065 34.058 411.126 35.1121C413.37 36.2302 416.735 35.5868 419.305 35.6202C425.075 35.1155 429.834 38.6079 434.174 42.1513C440.536 47.5007 448.553 56.9346 453.378 64.4688C457.787 71.3435 459.888 78.1582 463.785 85.4248C468.303 93.8239 473.071 103.619 470.053 113.266L470.027 113.353H470.027Z" fill="#009245"/>
<path d="M293.111 60.5024C290.566 65.8581 283.996 66.3536 279.235 68.7968C269.224 73.8059 254.276 85.5923 251.785 96.9646C250.643 101.846 249.036 103.483 245.948 98.5123C244.377 95.8393 241.985 93.3093 238.664 93.4363C232.844 93.5124 225.761 99.4369 223.572 104.887C222.784 106.999 223.167 110.24 225.772 110.551C228.222 110.72 230.753 108.246 233.274 108.287C234.531 108.234 235.713 109.023 235.695 110.331C235.736 111.432 235.055 112.813 234.301 114.28C233.331 116.167 232.454 118.327 232.719 120.484C233.141 124.098 236.53 123.496 239.331 122.633C241.07 122.165 242.885 121.843 244.711 121.946C250.283 122.348 256.148 125.139 259.358 129.838C261.044 132.316 261.575 135.333 261.962 138.279C262.302 141.071 262.904 143.908 264.595 146.123C268.051 150.602 274.142 154.727 274.512 160.813C274.476 165.621 271.239 169.919 269.244 174.147C267.363 177.756 265.866 181.56 263.961 185.136C261.806 189.128 259.553 193.255 258.011 197.488C256.49 201.698 254.788 206.015 255.185 210.518C255.578 215.684 259.869 219.587 264.658 220.947C266.571 221.697 270.751 222.394 270.087 224.097C269.096 225.331 267.285 225.612 265.672 225.959C251.956 228.562 239.734 219.537 233.354 207.796C230.349 202.527 227.908 196.362 227.189 190.382C226.601 185.027 226.928 178.549 222.328 174.857C218.305 171.582 213.511 167.297 212.038 161.871C210.64 156.162 208.982 146.158 210.8 140.834C212.486 135.892 219.772 135.538 223.269 131.797C228.173 127.204 227.957 120.413 222.278 116.715C220.063 115.145 216.957 113.725 215.232 112.314C214.658 111.843 214.148 111.297 213.851 110.629C213.068 108.82 213.83 106.537 214.33 104.57C216.183 97.2866 218.983 90.2299 222.044 83.457C229.418 67.144 239.705 53.7265 251.852 41.4562C255.837 37.7641 260.428 34.8985 264.81 31.617C267.425 29.6762 269.985 27.5108 272.456 25.8041C276.184 23.2566 280.6 21.1994 284.639 19.3429C285.902 18.8081 287.801 18.201 288.631 18.665C289.428 18.9884 289.787 19.8946 289.839 21.1262C289.937 23.6174 289.047 26.3917 289.014 28.9309C289.095 39.4732 298.536 50.1938 293.151 60.4263L293.111 60.5029L293.111 60.5024Z" fill="#009245"/>
<path d="M465.246 189.629C463.45 197.839 458.351 206.856 454.259 213.955C452.548 216.946 449.56 220.103 445.917 217.955C444.307 217.09 442.872 215.63 441.26 214.659C437.862 212.528 433.832 212.152 429.915 212.27C423.599 212.066 415.775 215.518 410.873 210.126C408.203 207.105 409.197 202.686 410.295 199.162C411.676 194.411 414.989 190.556 418.51 187.179C423.014 182.903 428.805 178.465 434.772 175.789C438.28 174.313 441.806 173.788 445.542 172.984C458.594 169.93 467.913 175.665 465.264 189.53L465.246 189.628V189.629Z" fill="#009245"/>
<path d="M459.593 166.36C457.502 166.732 455.69 164.935 454.504 163.366C452.686 160.874 450.921 157.78 448.798 155.781C447.77 154.802 446.565 154.05 445.294 153.42C442.542 151.961 438.915 151.129 436.489 149.208C432.616 145.88 437.227 142.135 440.705 141.079C448.686 138.2 452.825 141.811 456.723 148.265C458.546 151.218 465.3 164.681 459.661 166.345L459.593 166.361L459.593 166.36Z" fill="#009245"/>
<path d="M335.684 20.2719C333.101 24.5959 328.877 27.3896 324.818 30.3531C321.621 32.7046 318.724 35.2773 316.117 38.3372C313.87 40.7872 311.725 43.6222 308.55 43.2003C303.591 41.8427 300.377 34.8045 298.335 30.1873C297.213 27.3552 296.125 24.2487 296.207 21.2169C296.442 17.2648 298.689 13.1455 302.646 11.9397C308.278 10.3212 313.889 8.97379 319.683 7.85231C321.873 7.47703 323.995 7.17351 326.191 6.88357C329.068 6.54611 332.208 6.02634 335.134 6.52671C342.356 7.85134 338.389 16.1773 335.736 20.1905L335.684 20.2719Z" fill="#009245"/>
<path d="M359.838 175.813C358.242 179.038 357.329 182.53 355.213 185.468C354.135 186.947 353.075 188.718 351.217 189.421C350.086 189.894 348.669 189.355 348.66 188.046C348.583 186.662 349.563 185.35 349.961 184.033C350.383 182.761 350.18 181.383 350.441 180.084C350.901 177.439 354.052 177.09 355.897 175.636C357.142 174.719 357.983 173.146 359.452 172.577C361.072 172.156 360.37 174.81 359.876 175.722L359.838 175.813Z" fill="#009245"/>
<path d="M498 197.088L624.059 0H635.16V197.804C642.562 197.565 648.411 197.088 652.708 196.373C657.245 195.419 660.587 193.869 662.736 191.723C665.123 189.338 666.675 186.119 667.391 182.065C668.108 177.773 668.466 172.169 668.466 165.254H681V245.019H668.466C668.466 238.581 668.108 233.335 667.391 229.281C666.675 225.227 665.123 222.127 662.736 219.981C660.587 217.596 657.245 216.046 652.708 215.331C648.411 214.377 642.562 213.781 635.16 213.542V221.054C635.16 230.354 635.519 237.865 636.235 243.588C636.951 249.312 638.264 253.842 640.174 257.181C642.323 260.281 645.188 262.427 648.769 263.619C652.589 264.812 657.483 265.408 663.452 265.408V279H562.82V265.408C570.699 265.408 577.025 264.812 581.8 263.619C586.814 262.427 590.634 260.281 593.26 257.181C595.886 254.081 597.677 249.788 598.632 244.304C599.587 238.819 600.065 231.904 600.065 223.558V214.973H498V197.088ZM600.065 69.75H598.274L515.906 197.088H600.065V69.75Z" fill="#191923"/>
</svg>
