<svg width="24" height="25" viewBox="0 0 24 25" fill="none" xmlns="http://www.w3.org/2000/svg">
<g clip-path="url(#clip0_1676_8535)">
<path d="M22.676 0.610352H1.324C0.593 0.610352 0 1.20335 0 1.93435V23.2864C0 24.0184 0.593 24.6104 1.324 24.6104H12.818V15.3164H9.689V11.6954H12.818V9.02035C12.818 5.92135 14.712 4.23535 17.477 4.23535C18.802 4.23535 19.941 4.33235 20.273 4.37635V7.61635H18.352C16.852 7.61635 16.56 8.33735 16.56 9.38735V11.6984H20.144L19.679 15.3284H16.56V24.6104H22.675C23.408 24.6104 24 24.0184 24 23.2864V1.93435C24 1.20335 23.408 0.610352 22.676 0.610352Z" fill="#191923"/>
</g>
<defs>
<clipPath id="clip0_1676_8535">
<rect width="24" height="24" fill="white" transform="translate(0 0.610352)"/>
</clipPath>
</defs>
</svg>
