<svg width="24" height="25" viewBox="0 0 24 25" fill="none" xmlns="http://www.w3.org/2000/svg">
<g clip-path="url(#clip0_1676_8537)">
<path d="M20.447 21.0624H16.893V15.4934C16.893 14.1654 16.866 12.4564 15.041 12.4564C13.188 12.4564 12.905 13.9014 12.905 15.3954V21.0624H9.351V9.61035H12.765V11.1714H12.811C13.288 10.2714 14.448 9.32135 16.181 9.32135C19.782 9.32135 20.448 11.6914 20.448 14.7764V21.0624H20.447ZM5.337 8.04335C4.193 8.04335 3.274 7.11735 3.274 5.97835C3.274 4.84035 4.194 3.91535 5.337 3.91535C6.477 3.91535 7.401 4.84035 7.401 5.97835C7.401 7.11735 6.476 8.04335 5.337 8.04335ZM7.119 21.0624H3.555V9.61035H7.119V21.0624ZM22.225 0.610352H1.771C0.792 0.610352 0 1.38435 0 2.33935V22.8814C0 23.8374 0.792 24.6104 1.771 24.6104H22.222C23.2 24.6104 24 23.8374 24 22.8814V2.33935C24 1.38435 23.2 0.610352 22.222 0.610352H22.225Z" fill="#191923"/>
</g>
<defs>
<clipPath id="clip0_1676_8537">
<rect width="24" height="24" fill="white" transform="translate(0 0.610352)"/>
</clipPath>
</defs>
</svg>
