<svg width="201" height="28" viewBox="0 0 201 28" fill="none" xmlns="http://www.w3.org/2000/svg">
<path d="M0 26.2368V2.02539C0 1.72711 0.25017 1.48575 0.558464 1.48575H14.0472C14.3559 1.48575 14.6057 1.72749 14.6057 2.02539V4.43557C14.6057 4.73385 14.3555 4.97521 14.0472 4.97521H4.81371C4.50502 4.97521 4.25525 5.21695 4.25525 5.51486V10.7409C4.25525 11.0392 4.50542 11.2805 4.81371 11.2805H14.0476C14.3563 11.2805 14.6061 11.5223 14.6061 11.8202V14.351C14.6061 14.6493 14.3559 14.8907 14.0476 14.8907H4.81371C4.50502 14.8907 4.25525 15.1324 4.25525 15.4303V26.2361C4.25525 26.5344 4.00508 26.7757 3.69678 26.7757H0.558464C0.249777 26.7757 0 26.5347 0 26.2368Z" fill="#1E371A"/>
<path d="M17.6451 18.6055C17.6451 17.4079 17.8803 16.2762 18.3512 15.2106C18.8221 14.1453 19.498 13.1981 20.3804 12.3689C21.2503 11.5515 22.2518 10.9238 23.384 10.4859C24.5163 10.0483 25.7023 9.82933 26.9414 9.82933C28.2166 9.82933 29.4176 10.0483 30.5439 10.4859C31.6699 10.9238 32.6804 11.5686 33.5743 12.4205C34.4685 13.2615 35.1475 14.2114 35.6121 15.2709C36.0771 16.3308 36.3096 17.442 36.3096 18.6052C36.3096 19.8142 36.0799 20.9489 35.6216 22.0081C35.1625 23.068 34.4921 24.0065 33.61 24.824C32.6804 25.6881 31.6495 26.3416 30.5172 26.7848C29.385 27.2281 28.1934 27.4501 26.9414 27.4501C25.7141 27.4501 24.534 27.2281 23.4017 26.7848C22.2695 26.3419 21.2625 25.6995 20.3804 24.8585C19.4866 24.0061 18.8075 23.0506 18.3426 21.9906C17.878 20.9311 17.6451 19.8036 17.6451 18.6055ZM32.2158 18.6401C32.2158 17.1198 31.7088 15.8326 30.6959 14.7787C29.6831 13.7252 28.4432 13.1981 26.9775 13.1981C25.5237 13.1981 24.2869 13.7252 23.2678 14.7787C22.2487 15.8326 21.7393 17.1194 21.7393 18.6401C21.7393 20.1607 22.2487 21.4472 23.2678 22.5011C24.2869 23.5549 25.5237 24.0817 26.9775 24.0817C28.4314 24.0817 29.6681 23.5549 30.6873 22.5011C31.7064 21.4472 32.2158 20.1603 32.2158 18.6401Z" fill="#1E371A"/>
<path d="M44.3015 10.9048C44.3015 11.4217 44.9679 11.6331 45.3045 11.2312C45.506 10.9906 45.7231 10.7826 45.9552 10.6069C46.6402 10.0885 47.4893 9.82971 48.5025 9.82971C49.0508 9.82971 49.59 9.89309 50.1206 10.0195C50.4713 10.1033 50.8184 10.2122 51.1617 10.3466C51.4527 10.4604 51.5925 10.7826 51.47 11.0616L50.5357 13.1913C50.4092 13.4793 50.0601 13.5879 49.7695 13.4509C49.5892 13.3659 49.4023 13.296 49.2086 13.241C48.8214 13.1317 48.389 13.0771 47.9126 13.0771C46.6256 13.0771 45.7015 13.5753 45.1415 14.5711C44.5815 15.5677 44.3011 17.2405 44.3011 19.59V26.2365C44.3011 26.5347 44.0509 26.7761 43.7426 26.7761H40.9805C40.6718 26.7761 40.4221 26.5344 40.4221 26.2365V10.9048C40.4221 10.6065 40.6722 10.3652 40.9805 10.3652H43.7426C44.0513 10.3652 44.3015 10.6069 44.3015 10.9048Z" fill="#1E371A"/>
<path d="M69.6663 19.141H57.2894C56.9532 19.141 56.6889 19.4279 56.7332 19.7501C56.9041 20.9934 57.3549 21.9854 58.0854 22.7257C58.9314 23.5838 60.0581 24.0126 61.4645 24.0126C62.7157 24.0126 63.7584 23.7595 64.593 23.2529C65.3117 22.8161 65.9514 22.1485 66.5111 21.2499C66.665 21.0025 66.9965 20.9193 67.2577 21.0601L69.5453 22.2924C69.8257 22.4434 69.9149 22.7906 69.746 23.0544C68.8482 24.4559 67.7682 25.5181 66.506 26.2418C65.0992 27.0478 63.4486 27.4512 61.5536 27.4512C58.8359 27.4512 56.6728 26.6509 55.0637 25.0502C53.4547 23.4494 52.65 21.3129 52.65 18.6409C52.65 16.0724 53.4814 13.9621 55.1443 12.3094C56.8067 10.6566 58.9431 9.83048 61.5536 9.83048C64.2823 9.83048 66.4098 10.5849 67.9359 12.0934C69.4613 13.6027 70.2244 15.7157 70.2244 18.4337V18.6018C70.2244 18.9001 69.9746 19.141 69.6663 19.141ZM65.53 16.6185C65.887 16.6185 66.1627 16.2971 66.0759 15.9624C65.8537 15.1047 65.4311 14.4281 64.8078 13.9325C64.033 13.3162 62.9726 13.008 61.6255 13.008C60.3499 13.008 59.3253 13.3078 58.5508 13.9063C57.9421 14.3765 57.4771 15.0349 57.1554 15.8815C57.0199 16.2383 57.2839 16.6185 57.677 16.6185H65.53Z" fill="#1E371A"/>
<path d="M72.8032 23.5489L74.9637 22.4123C75.2562 22.2586 75.6101 22.3895 75.7479 22.6825C76.0028 23.2251 76.3728 23.657 76.857 23.9781C77.5007 24.4039 78.329 24.6168 79.3418 24.6168C80.2117 24.6168 80.8943 24.4244 81.3891 24.038C81.8836 23.6525 82.1306 23.1257 82.1306 22.4574C82.1306 21.5705 81.2485 20.8104 79.4848 20.177C78.8886 19.9698 78.4299 19.7968 78.1083 19.6586C76.2966 18.933 75.03 18.1961 74.3094 17.4473C73.3943 16.4978 73.0601 15.2891 73.3051 13.8209C73.4241 13.1078 73.7403 12.4292 74.2285 11.882C75.4699 10.49 77.2996 9.79441 79.7173 9.79441C81.0282 9.79441 82.1514 10.0274 83.0873 10.4938C83.8523 10.8752 84.4481 11.3898 84.8746 12.0369C85.0349 12.2801 84.9606 12.605 84.7148 12.7685L82.9008 13.9749C82.6455 14.1446 82.2948 14.082 82.1243 13.8322C81.9221 13.5366 81.6534 13.2877 81.3177 13.0854C80.811 12.7803 80.2239 12.6273 79.5566 12.6273C78.8175 12.6273 78.2249 12.7974 77.778 13.137C77.331 13.477 77.1076 13.929 77.1076 14.4933C77.1076 15.3457 78.109 16.1233 80.1112 16.8253C80.7427 17.0443 81.2312 17.223 81.5772 17.3612C83.1384 17.96 84.2561 18.6367 84.9296 19.3907C85.6028 20.1452 85.9397 21.0867 85.9397 22.2153C85.9397 23.8509 85.3255 25.1321 84.0982 26.0592C82.8705 26.9863 81.1778 27.4501 79.021 27.4501C77.3644 27.4501 75.9879 27.1503 74.8914 26.5518C73.9465 26.0361 73.1787 25.2847 72.588 24.298C72.4301 24.0339 72.5271 23.6942 72.8044 23.5485L72.8032 23.5489Z" fill="#1E371A"/>
<path d="M90.7657 26.2368V14.222C90.7657 13.9237 90.5155 13.6823 90.2072 13.6823H88.3566C88.048 13.6823 87.7982 13.4406 87.7982 13.1427V10.9401C87.7982 10.6418 88.0483 10.4005 88.3566 10.4005H90.2072C90.5159 10.4005 90.7657 10.1587 90.7657 9.86082V4.73876C90.7657 4.44048 91.0158 4.19912 91.3241 4.19912H94.0866C94.3953 4.19912 94.6451 4.44086 94.6451 4.73876V9.86082C94.6451 10.1591 94.8952 10.4005 95.2035 10.4005H97.0541C97.3628 10.4005 97.6125 10.6422 97.6125 10.9401V13.1427C97.6125 13.441 97.3624 13.6823 97.0541 13.6823H95.2035C94.8948 13.6823 94.6451 13.9241 94.6451 14.222V26.2368C94.6451 26.5351 94.3949 26.7765 94.0866 26.7765H91.3241C91.0154 26.7765 90.7657 26.5347 90.7657 26.2368Z" fill="#1E371A"/>
<path d="M105.264 15.9666V26.2368C105.264 26.5351 105.014 26.7765 104.706 26.7765H101.836C101.528 26.7765 101.278 26.5347 101.278 26.2368V2.02539C101.278 1.72711 101.528 1.48575 101.836 1.48575H107.714C109.621 1.48575 111.024 1.58708 111.924 1.78821C112.824 1.9901 113.607 2.3214 114.275 2.78173C115.097 3.36881 115.741 4.1612 116.206 5.15699C116.671 6.15317 116.903 7.25029 116.903 8.44798C116.903 9.64567 116.671 10.7515 116.206 11.7652C115.741 12.7784 115.097 13.5735 114.275 14.1491C113.607 14.6099 112.824 14.9381 111.924 15.1339C111.024 15.3298 109.621 15.4273 107.714 15.4273H105.823C105.514 15.4273 105.264 15.6686 105.264 15.9666ZM105.532 11.5185C105.532 11.8168 105.783 12.0581 106.091 12.0581H106.623C108.983 12.0581 110.556 11.8107 111.342 11.3151C112.129 10.8202 112.523 9.94471 112.523 8.68934C112.523 7.34175 112.103 6.39149 111.262 5.83895C110.422 5.2864 108.876 5.00975 106.623 5.00975H106.091C105.782 5.00975 105.532 5.25149 105.532 5.54939V11.5185Z" fill="#1E371A"/>
<path d="M120.622 26.2368V0.539643C120.622 0.241359 120.872 0 121.18 0H123.942C124.251 0 124.501 0.241739 124.501 0.539643V26.2364C124.501 26.5347 124.251 26.7761 123.942 26.7761H121.18C120.872 26.7761 120.622 26.5347 120.622 26.2368Z" fill="#1E371A"/>
<path d="M145.433 26.7765H142.67C142.362 26.7765 142.112 26.5347 142.112 26.2368V26.1116C142.112 25.6365 141.521 25.3936 141.168 25.7241C140.714 26.1492 140.221 26.4945 139.69 26.7594C138.766 27.2197 137.708 27.4505 136.516 27.4505C134.121 27.4505 132.235 26.6584 130.858 25.0748C129.482 23.4916 128.793 21.3235 128.793 18.5706C128.793 15.9563 129.496 13.8459 130.903 12.2391C132.309 10.6323 134.144 9.82933 136.409 9.82933C137.792 9.82933 138.974 10.1086 139.958 10.6669C140.404 10.92 140.795 11.2236 141.131 11.5773C141.481 11.9454 142.112 11.7253 142.112 11.2251V10.939C142.112 10.6407 142.362 10.3993 142.67 10.3993H145.433C145.741 10.3993 145.991 10.6411 145.991 10.939V26.2364C145.991 26.5347 145.741 26.7765 145.433 26.7765ZM142.219 18.5361C142.219 16.8432 141.811 15.5248 140.994 14.5802C140.178 13.6357 139.037 13.1636 137.571 13.1636C136.105 13.1636 134.951 13.6501 134.111 14.6231C133.271 15.5961 132.851 16.9464 132.851 18.6739C132.851 20.4131 133.256 21.755 134.067 22.6992C134.877 23.6437 136.021 24.1158 137.499 24.1158C138.894 24.1158 140.029 23.6035 140.905 22.5785C141.781 21.5535 142.219 20.2059 142.219 18.5361Z" fill="#1E371A"/>
<path d="M151.354 26.2368V10.9394C151.354 10.6411 151.604 10.3997 151.912 10.3997H154.442C154.751 10.3997 155.001 10.6415 155.001 10.9394V11.5336C155.001 12.0205 155.614 12.2562 155.962 11.9037C156.502 11.3568 157.093 10.9246 157.736 10.6069C158.784 10.0885 160.06 9.82971 161.561 9.82971C162.825 9.82971 163.901 10.0225 164.789 10.4084C165.677 10.7944 166.371 11.3674 166.871 12.1272C167.169 12.5765 167.384 13.1006 167.515 13.6994C167.646 14.2983 167.711 15.3464 167.711 16.8436V26.2368C167.711 26.5351 167.461 26.7765 167.153 26.7765H164.355C164.046 26.7765 163.797 26.5347 163.797 26.2368V18.3634C163.797 16.2102 163.525 14.7787 162.983 14.0706C162.44 13.3621 161.478 13.008 160.096 13.008C159.19 13.008 158.383 13.1697 157.673 13.4915C156.965 13.814 156.407 14.2687 156.002 14.8561C155.716 15.2478 155.516 15.7517 155.403 16.368C155.29 16.9843 155.233 17.9657 155.233 19.3133V26.2365C155.233 26.5347 154.983 26.7761 154.675 26.7761H151.912C151.604 26.7761 151.354 26.5347 151.354 26.2368Z" fill="#1E371A"/>
<path d="M188.642 19.141H176.265C175.929 19.141 175.665 19.4279 175.709 19.7501C175.88 20.9934 176.331 21.9854 177.062 22.7257C177.907 23.5838 179.034 24.0126 180.441 24.0126C181.692 24.0126 182.735 23.7595 183.569 23.2529C184.288 22.8161 184.928 22.1485 185.487 21.2499C185.641 21.0025 185.973 20.9193 186.234 21.0601L188.521 22.2924C188.802 22.4434 188.891 22.7906 188.722 23.0544C187.824 24.4559 186.744 25.5181 185.482 26.2418C184.075 27.0478 182.425 27.4512 180.53 27.4512C177.812 27.4512 175.649 26.6509 174.04 25.0502C172.431 23.4494 171.626 21.3129 171.626 18.6409C171.626 16.0724 172.458 13.9621 174.12 12.3094C175.783 10.6566 177.919 9.83048 180.53 9.83048C183.258 9.83048 185.386 10.5849 186.912 12.0934C188.437 13.6027 189.2 15.7157 189.2 18.4337V18.6018C189.2 18.9001 188.951 19.141 188.642 19.141ZM184.506 16.6185C184.863 16.6185 185.139 16.2971 185.052 15.9624C184.83 15.1047 184.407 14.4281 183.784 13.9325C183.009 13.3162 181.949 13.008 180.602 13.008C179.326 13.008 178.301 13.3078 177.527 13.9063C176.918 14.3765 176.453 15.0349 176.132 15.8815C175.996 16.2383 176.26 16.6185 176.653 16.6185H184.506Z" fill="#1E371A"/>
<path d="M194.153 26.2368V14.222C194.153 13.9237 193.903 13.6823 193.595 13.6823H191.744C191.436 13.6823 191.186 13.4406 191.186 13.1427V10.9401C191.186 10.6418 191.436 10.4005 191.744 10.4005H193.595C193.904 10.4005 194.153 10.1587 194.153 9.86082V4.73876C194.153 4.44048 194.404 4.19912 194.712 4.19912H197.474C197.783 4.19912 198.033 4.44086 198.033 4.73876V9.86082C198.033 10.1591 198.283 10.4005 198.591 10.4005H200.442C200.751 10.4005 201 10.6422 201 10.9401V13.1427C201 13.441 200.75 13.6823 200.442 13.6823H198.591C198.283 13.6823 198.033 13.9241 198.033 14.222V26.2368C198.033 26.5351 197.783 26.7765 197.474 26.7765H194.712C194.403 26.7765 194.153 26.5347 194.153 26.2368Z" fill="#1E371A"/>
</svg>
