<?xml version="1.0" encoding="UTF-8"?>
<svg id="b" data-name="Layer 2" xmlns="http://www.w3.org/2000/svg" width="419.433" height="86.921" viewBox="0 0 419.433 86.921">
  <g id="c" data-name="Layer 2">
    <g>
      <path d="M39.581.184c54.431-4.554,64.453,76.778,11.016,85.946C-8.689,96.301-20.302,5.194,39.581.184ZM15.811,27.971H5.658l20.578,34.553,5.409-.63,18.208-33.923h-8.361l-12.834,23.804-12.847-23.804ZM65.382,27.971h-8.361l-19.1,33.619c.009,1.147,7.915,1.624,8.885-.062l18.576-33.556ZM79.715,27.971h-8.361l-18.414,33.126-.098,1.381c2.764-.398,6.743,1.103,8.639-1.206l18.234-33.302Z"/>
      <path d="M399.081,27.519c26.649-4.183,27.65,38.577-.093,34.912-18.461-2.439-18.965-31.921.093-34.912ZM399.675,31.09c-15.675,2.662-14.015,29.811,4.573,27.753,17.041-1.887,14.012-30.909-4.573-27.753Z"/>
      <path d="M260.379,27.971c7.704,1.081,12.41,9.798,7.378,16.276-2.058,2.65-4.493,2.582-7.068,4.251l10.141,13.383c-1.242-.091-2.667.216-3.867-.009-2.784-.523-9.651-13.075-10.765-13.075h-8.959l-.896.893v12.198h-3.583V27.971c5.478.55,12.322-.743,17.618,0ZM246.344,45.226h13.438c3.122,0,6.157-4.272,6.062-7.343-.086-2.755-3.504-6.343-6.062-6.343h-12.542l-.896.893v12.793Z"/>
      <polygon points="302.484 27.971 302.484 31.541 281.581 31.541 281.581 42.846 299.796 42.846 300.692 46.416 282.477 46.416 281.581 47.309 281.581 58.317 302.185 58.317 303.081 61.887 277.997 61.887 277.997 27.971 302.484 27.971"/>
      <path d="M146.606,49.987v11.9h-4.181V27.971h15.827c.318,0,2.878,1.009,3.506,1.267,8.536,3.51,8.443,15.146.319,19.204-.585.292-4.111,1.544-4.422,1.544h-11.049ZM146.606,46.416h11.049c3.242,0,6.319-4.227,6.319-7.438s-3.077-7.438-6.319-7.438h-11.049v14.875Z"/>
      <path d="M135.855,61.881c-6.597,2.038-5.536-6.114-8.056-8.331-1.717-1.511-15.233-.149-18.441-.509l-4.043,8.765-4.096.077,15.01-33.828c1.53-.146,3.705-.598,4.645.859l14.981,32.967ZM125.702,49.392c-2.095-4.826-3.988-10.714-6.45-15.292-.213-.397-.923-1.658-1.307-1.367l-7.174,16.659h14.931Z"/>
      <path d="M220.569,28.069l15.022,33.814-4.097-.077-4.059-8.749c-2.966.261-17.068-.917-18.436.481-2.177,2.226-1.707,10.081-7.445,8.345l14.866-33.543,4.148-.271ZM226.038,49.392l-7.757-16.659-7.174,16.659h14.931Z"/>
      <path d="M178.856,49.987v11.9h-3.583V27.971h15.827c.604,0,3.928,1.419,4.681,1.882,5.498,3.382,6.433,12.123,1.884,16.558-1.085,1.058-5.826,3.575-7.161,3.575h-11.646ZM178.856,46.416h11.049c.58,0,4.521-2.02,5.095-2.659,2.405-2.674,2.237-6.904-.014-9.544-.751-.881-3.566-2.673-4.484-2.673h-11.646v14.875Z"/>
      <path d="M364.451,27.531c4.288-.578,8.527.214,12.272,2.341,3.189,1.811,5.092,3.167.713,5.261-10.333-9.382-25.367-1.803-23.537,12.128,1.546,11.771,16.252,15.658,24.135,6.922,5.706,3.369-4.561,7.82-7.815,8.249-24.804,3.276-27.159-32.017-5.768-34.9Z"/>
      <polygon points="314.429 27.971 314.429 58.317 333.54 58.317 333.54 61.887 310.845 61.887 310.845 27.971 314.429 27.971"/>
      <path d="M343.149,58.966c.89-1.239,4.121-.128,3.526,2.01-.644,2.311-5.146.247-3.526-2.01Z"/>
    </g>
  </g>
</svg>