<?xml version="1.0" encoding="UTF-8"?>
<svg id="b" data-name="Layer 2" xmlns="http://www.w3.org/2000/svg" width="436.41" height="100.934" viewBox="0 0 436.41 100.934">
  <g id="c" data-name="Layer 2">
    <g>
      <path d="M82.143,50.051c-4.718,1.386-9.958,2.668-14.877,2.594-1.126,11.046-18.433,7.096-13.581-4.256,2.244-5.24,12.202-4.152,13.581,2.035,10.741-4.36,29.338-11.889,21.712-26.438C77.648,2.362,17.527,2.198,3.395,23.501L.302,31.156C-2.493,15.138,14.725,7.587,27.262,3.547L44.942.037h13.394c1.476.075,2.996-.112,4.465,0,13.581,1.036,39.415,7.618,44.782,21.72,5.784,15.176-13.588,24.813-25.439,28.294Z"/>
      <polygon points="48.664 15.598 48.664 100.81 30.061 100.81 38.246 15.598 48.664 15.598"/>
      <path d="M222.039,60.797l9.601.074,12.713,31.786c1.977-3.724,10.585-30.838,12.016-31.76,1.107-.714,7.638.307,9.572-.1v40.013h-5.953v-32.603l-13.104,32.65-6.121-.172c-4.306-9.824-7.313-20.385-11.828-30.116-.489-1.055.446-2.01-1.688-1.621v31.862h-5.209v-40.013Z"/>
      <path d="M304.263,65.984h11.906c.71,0,5.915,1.602,6.846,2.075,9.365,4.757,8.982,26.047.003,30.68-.675.348-5.764,2.071-6.105,2.071h-12.65c-.079,0-1.116-1.033-1.116-1.111v-32.603c0-.203.871-.735,1.116-1.111ZM309.099,96.364c12.671,1.265,15.027-4.61,14.17-15.962-.723-9.581-5.355-10.329-14.17-9.972v25.934Z"/>
      <path d="M187.439,65.984c1.73.214,6.009,1.735,7.262,2.936,3.203,3.072,2.941,10.36-.959,12.971-1.351.905-3.361.632-3.692,1.866,7.128,1.306,6.716,11.32,8.181,17.048-1.298-.235-4.232.45-5.106-.101-1.002-.632-2.242-10.819-4.92-13.254-2.201-2-5.076-1.444-7.834-1.461v13.708c0,1.43-4.75,1.177-5.953,1.111v-34.826c4.135.363,8.992-.498,13.022,0ZM179.626,70.43v11.115c15.506,2.392,16.197-13.74,0-11.115Z"/>
      <path d="M397.546,66.084l12.749,34.722c-1.403-.278-4.949.484-5.849-.096-.463-.298-2.716-8.483-3.744-9.815-.53-.687-12.446-.821-13.503-.119-.968.643-3.172,9.535-3.791,9.934-.901.581-4.446-.182-5.849.096l12.749-34.722h7.238ZM388.718,86.731h10.417c-1.309-4.389-2.426-9.08-4.133-13.331-.324-.807-.037-1.931-1.44-1.493-.747.233-4.563,12.882-4.844,14.824Z"/>
      <path d="M84.381,70.43h-16.37v10.374h14.882v4.446h-14.882v11.115h16.37v4.446h-22.323v-34.826h21.207c1.137,0,1.312,3.388,1.116,4.446Z"/>
      <path d="M167.72,65.984v4.446h-15.626v10.374h14.882v3.705h-14.882v11.856h16.37v4.446h-21.207c-.079,0-1.116-1.033-1.116-1.111v-32.603c0-.079,1.037-1.111,1.116-1.111h20.463Z"/>
      <polygon points="297.194 65.984 297.194 70.43 281.567 70.43 281.567 80.804 296.449 80.804 296.449 84.509 281.567 84.509 281.567 96.364 297.194 96.364 297.194 100.81 275.615 100.81 275.615 65.984 297.194 65.984"/>
      <path d="M102.611,65.984c5.119.558,9.727,2.385,10.616,7.963,1.708,10.718-8.515,12.56-16.941,12.044v14.819h-5.953v-34.826c3.941.306,8.413-.421,12.278,0ZM96.286,81.545c14.803,2.262,15.013-13.552,0-11.115v11.115Z"/>
      <path d="M124.562,85.99v13.708c0,1.43-4.75,1.177-5.953,1.111v-34.826h12.278c2.789,0,7.737,2.285,9.2,4.916,5.929,10.666-6.25,16.568-15.525,15.09ZM123.818,81.545c4.893.347,12.019.488,11.688-6.181-.294-5.917-7.457-5.054-11.688-4.933v11.115Z"/>
      <path d="M376.071,75.617c-7.899,1.716-5.273-2.529-8.23-4.773-7.244-5.499-12.57,4.481-12.669,11.079-.193,12.985,7.17,18.709,19.403,12.964-.203,1.154.414,3.533-.1,4.339-1.16,1.817-11.834,1.808-14.227,1.408-14.51-2.425-15.186-31.84-.75-34.476,7.193-1.313,17.095.56,16.572,9.461Z"/>
      <path d="M421.458,65.984v30.38h14.882c.196,1.058.021,4.446-1.116,4.446h-19.719v-34.826h5.953Z"/>
      <rect x="336.631" y="65.984" width="5.953" height="34.826"/>
    </g>
  </g>
</svg>