<?xml version="1.0" encoding="UTF-8"?>
<svg id="b" data-name="Layer 2" xmlns="http://www.w3.org/2000/svg" width="189.887" height="184.231" viewBox="0 0 189.887 184.231">
  <g id="c" data-name="Layer 2">
    <g>
      <path d="M175.29,1.109c.765,4.608-5.308,1.993-8.007,1.993-7.718,0-17.378,4.022-24.119,7.641-37.388,20.069-55.111,62.31-85.759,89.898-1.632,1.469-5.429,4.885-7.188,5.781-.348.177-1.242.593-1.464.108,10.826-16.088,18.929-34.013,23.787-52.83,3.3-12.781,8.445-42.575-11.411-43.993-19.583-1.398-39.417,23.625-45.41,40.249-3.563,9.884-6.798,28.653,5.421,33.878,18.706,7.998,39.965-24.534,40.992-40.14.424-6.435-1.62-14.034-9.624-12.757-.94.15-5.651,2.182-3.76,3.325,8.906-2.092,4.116,11.535-1.857,7.736-4.548-2.892.21-10.743,4.211-12.074,7.332-2.44,11.689,3.536,12.187,10.224,1.298,17.423-23.148,55.012-43.503,44.646-11.384-5.797-11.89-21.826-8.978-32.674C16.196,32.053,46.552-.843,69.277,10.6c16.076,8.095,14.5,32.09,9.858,46.546-5.205,16.209-15.968,31.18-26.057,44.672-.118.54.026.741.579.578.562-.165,5.088-4.307,5.915-5.09,14.404-13.643,26.538-32.6,39.115-48.121C114.383,29.818,137.661,6.006,163.133.841c4.002-.811,8.342-1.504,12.157.267Z"/>
      <path d="M71.945,137.361l-14.153,22.782h11.598c1.714,0,2.05-2.383,2.757-2.746.834-.428.447.508.417.807-.093.92-.311,3.123-1.273,3.446l-13.319.082-3.718-.614,14.148-21.997c.156-.975-.347-.446-.86-.479-2.512-.159-9.332-.433-11.148,1.068-.642.531-.329,1.559-1.746,1.183l.391-3.533h16.905Z"/>
      <path d="M112.439,161.715l3.055-2.251,8.351-22.495c.71.227.952,1.096,1.245,1.697,2.288,4.685,6.352,19.831,9.546,22.281.538.412,1.436.102,1.392.768h-5.504l-3.104-9.185-7.713.144c-.339,1.911-2.722,6.328-2.114,8.011.25.691,1.206.358,1.138,1.03h-6.29ZM120.892,151.109h5.701c-.342-2.651-1.409-5.775-2.577-8.245-.218-.461.058-.962-.761-.792l-2.782,8.238.42.799Z"/>
      <path d="M186.883,159.621c.05.079,1.239,1.274,1.318,1.325.576.368,1.679.06,1.686.766l-5.717-.371-3.319-8.86c-1.876-.075-6.582-.954-7.564.7-.179.301-2.247,6.068-2.279,6.406-.103,1.098.788,1.301,1.189,2.125h-5.895c.014-.694,1.088-.404,1.686-.786.091-.058,1.115-1.164,1.174-1.278,2.49-4.881,4.133-12.293,6.281-17.669.672-1.683,1.226-3.72,2.458-5.007l8.983,22.65ZM180.453,151.109c-.88-2.461-1.578-5.849-2.666-8.138-.14-.295-.635-1.076-.867-.895l-2.699,8.131.532.902h5.701Z"/>
      <path d="M7.47,137.361c.219,1.099-.397.768-1.18.787l6.688,19.245c.253.196.718-.642.86-.903,1.376-2.535,5.999-14.055,6.521-16.67.092-.46.213-.974.049-1.429-.246-.684-1.215-.357-1.145-1.029h5.897l-2.455,1.672c-3.032,6.73-5.577,13.706-8.669,20.406-.436.944-.822,2.521-2.044,2.282l-9.217-22.906-2.776-1.453h7.47Z"/>
      <path d="M104.183,137.754v5.499c-1.045-.753-.834-2.047-1.809-3.103-2.147-2.325-7.666-2.358-10.552-1.588-8.509,2.271-8.098,15.17-1.766,19.787,2.933,2.139,9.427,3.442,12.373,1.023.958-.786.661-2.23,1.75-2.765.148,1.014-.164,4.218-1.072,4.717-10.576,3.08-22.17-1.747-20.514-14.308,1.401-10.628,13.309-11.118,21.59-9.264Z"/>
      <path d="M145.856,137.361c-.137.738-.426,1.15-.233,1.961.163.682,5.343,10.218,5.934,10.209.991-1.709,6.105-9.459,5.929-10.805-.039-.303-.396-.559-.614-.775-.008-.986,4.57-.476,5.496-.586-.216.811-1.197.724-1.773,1.171-1.802,1.401-7.304,9.961-7.871,12.168-.375,1.457-.477,9.406.393,10.237.51.487,1.156.384,1.78.384l-7.073.385c-.081-.708.681-.165,1.213-.645,1.178-1.062.912-8.153.481-9.884-.842-3.387-4.843-7.34-6.243-10.653l-3.316-3.168h5.897Z"/>
      <path d="M41.28,137.361c.248,1.288-.911.426-1.513,1.432-.334.559-.411,1.611-.468,2.284-.35,4.17-.418,12.781.058,16.863.188,1.613.608,3.826,2.707,3.385l-7.073.385c.105-.669.832-.44,1.278-1.27,1.05-1.955.931-15.973.7-18.969-.053-.685-.264-2.466-.607-2.929-.413-.558-1.598-.301-1.766-1.181h6.683Z"/>
      <path d="M99.035,171.966l2.005,8.995c1.024.208.611-.196.824-.563,1.347-2.311,1.805-5.388,3.015-7.576.247-.446-.026-.667.871-.501,1.14,2.881,1.523,6.705,3.54,9.033.394-3.051,2.622-6.405,1.97-9.424h1.965c-1.291,1.68-3.315,11.194-4.526,11.777-.73.352-.563-.523-.687-.865-.806-2.226-1.473-4.893-2.476-6.984-.207-.431.04-.995-.76-.792-.522.133-2.29,6.705-2.872,7.742-.308.55-.495,1.047-1.257.901l-3.537-11.591,1.924-.153Z"/>
      <path d="M79.808,183.712c-.661-.06-1.243.398-1.186-.588.218-3.73,1.062-7.456,1.19-11.196l5.304,9.42c.471,0,3.652-7.47,4.095-8.48.226-.518.075-1.079.825-.356.99.954.478,9.433,1.96,11.197l-1.967.006-.787-8.252c-.986-.13-.619.032-.821.554-.767,1.987-1.659,3.734-2.565,5.478-.425.818-.116,2.561-1.753,1.588l-3.121-7.225c-.774-.657-1.174,2.007-1.174,2.16v5.696Z"/>
      <path d="M147.036,172.517c-.015-.111-.592-.442-.393-.585,1.947.194,4.828-.667,6.298.969,2.291,2.55-1.044,4.532-.74,5.805,1.043,1.465,2.127,3.612,3.877,4.228l-.978.793c-2.802-1.044-2.951-5.419-6.492-4.73l-.002,4.717-1.571-.002c-.343-3.494.465-7.81,0-11.195ZM148.863,172.377c-.383.119-.679.404-.572.831l.684,5.231c4.625,1.202,4.288-7.434-.112-6.062Z"/>
      <path d="M140.352,183.708c-2.669.693-2.181-3.154-3.329-4.328-.774-.791-2.881-.424-3.759.195l-1.197,4.106-1.543.026,4.916-11.778,4.912,11.778ZM135.632,174.678c-.883-.834-2.104,3.303-1.962,3.925h2.752s-.79-3.925-.79-3.925Z"/>
      <path d="M125.02,171.928l-.002,1.177c-.265.297-2.861-1.695-3.757-.413v3.975c.751,1.08,3.83-.658,3.368,1.348l-3.542-.196c.14,2.194-.937,6.337,2.478,5.824.123-.018,3.332-1.484,1.847.064-.894.932-4.607-.021-5.897.004-.229-.55.394-1.178.394-1.373v-9.427c0-.118-.541-.557-.393-.982h5.504Z"/>
      <path d="M40.885,173.104l-4.304-.763c-1.803,4.972,6.287,4.771,3.94,10.026-.945,2.115-6.454,2.914-5.527-.226,1.159,2.22,4.547,1.986,4.708-.619.191-3.081-6.063-3.852-4.057-8.715.64-1.55,5.211-2.13,5.24.298Z"/>
      <path d="M70.766,171.928v11.784h-1.573v-10.802c0-.119-.543-.553-.392-.979l1.964-.003Z"/>
      <path d="M62.508,171.932l-3.955,11.368-1.125-.004-2.593-7.429c-.358-.264-.602-.362-.775-.354-.948,2.648-2.908,7.335-2.955,8.196-.669.134-.807-.153-1.094-.669-1.519-2.731-1.499-8.177-3.616-10.919l2.353-.193c-.114,2.975,1.2,6.744,2.558,9.424l2.66-8.102c.004-.008.012-.02.016-.028l.279-.901c.901-.189.626.098.877.5,1.33,2.117,1.775,5.296,2.613,7.594.157.433.165,1.086.822.547.299-.248,2.215-6.701,2.302-7.374.09-.7-.051-1.055-.331-1.657h1.964Z"/>
    </g>
  </g>
</svg>