<svg width="53" height="15" viewBox="0 0 53 15" fill="none" xmlns="http://www.w3.org/2000/svg">
<path d="M9.57963 1.13248C8.93203 0.680106 8.08697 0.453369 7.04445 0.453369H3.00837C2.68878 0.453369 2.51221 0.615783 2.47867 0.940297L0.839131 11.3981C0.822091 11.5008 0.847381 11.5947 0.91477 11.6801C0.981773 11.7657 1.06605 11.8082 1.16698 11.8082H3.08409C3.42034 11.8082 3.60516 11.6462 3.63908 11.3213L4.09307 8.50191C4.10965 8.36527 4.16879 8.25417 4.26971 8.16862C4.37057 8.08322 4.49671 8.02736 4.64806 8.00182C4.79942 7.97643 4.94214 7.96358 5.07692 7.96358C5.21131 7.96358 5.37099 7.97228 5.55627 7.98928C5.74109 8.00628 5.8589 8.01466 5.90941 8.01466C7.35557 8.01466 8.49069 7.6006 9.31485 6.77153C10.1386 5.94293 10.551 4.79389 10.551 3.32393C10.551 2.31576 10.2269 1.58533 9.57963 1.13225V1.13248ZM7.49867 4.27264C7.41432 4.87082 7.19596 5.26366 6.84283 5.45169C6.48961 5.63996 5.98512 5.73366 5.32935 5.73366L4.49686 5.7592L4.92579 3.0165C4.95925 2.8287 5.06851 2.73469 5.25364 2.73469H5.73307C6.40542 2.73469 6.89341 2.83317 7.19612 3.02935C7.49867 3.226 7.5996 3.64054 7.49867 4.27264Z" fill="#0041B8"/>
<path d="M52.1719 0.453369H50.3055C50.12 0.453369 50.0108 0.547387 49.9775 0.735499L48.3378 11.3986L48.3125 11.4498C48.3125 11.5357 48.3461 11.6164 48.4136 11.6934C48.4804 11.7702 48.5649 11.8086 48.6657 11.8086H50.3308C50.6498 11.8086 50.8265 11.6466 50.8606 11.3217L52.5002 0.838055V0.812592C52.5001 0.573241 52.3904 0.453684 52.1719 0.453684V0.453369Z" fill="#009CDE"/>
<path d="M29.6207 4.58051C29.6207 4.49527 29.5869 4.41394 29.5201 4.33724C29.4526 4.26038 29.3769 4.22168 29.293 4.22168H27.3507C27.1653 4.22168 27.014 4.30755 26.8965 4.47795L24.2226 8.47672L23.1127 4.63191C23.0282 4.35871 22.8435 4.22168 22.5578 4.22168H20.6656C20.5813 4.22168 20.5057 4.26023 20.4388 4.33724C20.3714 4.41394 20.3379 4.49543 20.3379 4.58051C20.3379 4.6149 20.5019 5.11883 20.8297 6.09285C21.1576 7.06717 21.5107 8.11812 21.8892 9.24601C22.2676 10.3737 22.465 10.9721 22.4819 11.0399C21.1028 12.954 20.4136 13.9793 20.4136 14.1158C20.4136 14.3381 20.5227 14.4491 20.7415 14.4491H22.6839C22.8688 14.4491 23.02 14.3638 23.138 14.1929L29.5706 4.75985C29.604 4.726 29.6207 4.66646 29.6207 4.58043V4.58051Z" fill="#0041B8"/>
<path d="M47.7078 4.2219H45.7906C45.5549 4.2219 45.4125 4.50395 45.362 5.06797C44.9242 4.38462 44.126 4.04248 42.9654 4.04248C41.7546 4.04248 40.7244 4.50395 39.8754 5.42673C39.026 6.34951 38.6016 7.43493 38.6016 8.68223C38.6016 9.69064 38.8916 10.4937 39.4717 11.0916C40.0519 11.6901 40.8295 11.9887 41.8053 11.9887C42.2929 11.9887 42.789 11.886 43.2934 11.6811C43.7979 11.4761 44.1928 11.2028 44.4792 10.8609C44.4792 10.8781 44.462 10.9547 44.4288 11.0913C44.3948 11.2283 44.3782 11.3312 44.3782 11.3989C44.3782 11.6727 44.4872 11.809 44.7062 11.809H46.4469C46.766 11.809 46.9512 11.647 47.0015 11.3221L48.0359 4.63197C48.0525 4.52933 48.0273 4.43555 47.9602 4.34999C47.8925 4.26475 47.8087 4.2219 47.7078 4.2219ZM44.416 9.27172C43.9871 9.69895 43.4699 9.91244 42.8646 9.91244C42.3767 9.91244 41.9818 9.77596 41.679 9.50237C41.3761 9.22957 41.2248 8.85357 41.2248 8.37456C41.2248 7.74276 41.435 7.20827 41.8556 6.77258C42.2754 6.33681 42.7973 6.11901 43.4195 6.11901C43.89 6.11901 44.281 6.25995 44.5925 6.54177C44.9033 6.82382 45.0593 7.21258 45.0593 7.70829C45.0592 8.3234 44.8447 8.84472 44.416 9.27172Z" fill="#009CDE"/>
<path d="M19.0518 4.2219H17.1347C16.8989 4.2219 16.7562 4.50395 16.7057 5.06797C16.2517 4.38462 15.4528 4.04248 14.3093 4.04248C13.0985 4.04248 12.0683 4.50395 11.2191 5.42673C10.3698 6.34951 9.94531 7.43493 9.94531 8.68223C9.94531 9.69064 10.2355 10.4937 10.8157 11.0916C11.3959 11.6901 12.1734 11.9887 13.149 11.9887C13.6196 11.9887 14.1076 11.886 14.612 11.6811C15.1165 11.4761 15.5201 11.2028 15.8228 10.8609C15.7554 11.0658 15.7219 11.2453 15.7219 11.3989C15.7219 11.6727 15.8312 11.809 16.0498 11.809H17.7904C18.1096 11.809 18.2948 11.647 18.3453 11.3221L19.3795 4.63197C19.3961 4.52933 19.371 4.43555 19.3039 4.34999C19.2366 4.26475 19.1526 4.2219 19.0518 4.2219ZM15.7599 9.28441C15.331 9.70357 14.8052 9.91244 14.1834 9.91244C13.6954 9.91244 13.3044 9.77596 13.0103 9.50237C12.7159 9.22957 12.5688 8.85357 12.5688 8.37456C12.5688 7.74276 12.7789 7.20827 13.1995 6.77258C13.6197 6.33681 14.141 6.11893 14.7635 6.11893C15.2341 6.11893 15.6251 6.25995 15.9366 6.54177C16.2474 6.82382 16.4032 7.21258 16.4032 7.70829C16.4031 8.34055 16.1888 8.86619 15.7599 9.28441Z" fill="#0041B8"/>
<path d="M38.236 1.13248C37.5885 0.680106 36.7437 0.453369 35.7009 0.453369H31.69C31.3536 0.453369 31.1685 0.615783 31.1351 0.940297L29.4954 11.3981C29.4783 11.5008 29.5036 11.5947 29.5711 11.6801C29.6378 11.7657 29.7223 11.8082 29.8232 11.8082H31.8916C32.0934 11.8082 32.2279 11.6973 32.2953 11.4751L32.7494 8.50191C32.7661 8.36527 32.8249 8.25417 32.926 8.16862C33.027 8.08322 33.1529 8.02736 33.3045 8.00182C33.4557 7.97643 33.5984 7.96358 33.7332 7.96358C33.8677 7.96358 34.0273 7.97228 34.2124 7.98928C34.3973 8.00628 34.5154 8.01466 34.5656 8.01466C36.012 8.01466 37.1469 7.6006 37.9711 6.77153C38.7952 5.94293 39.2071 4.79389 39.2071 3.32393C39.2072 2.31576 38.8833 1.58525 38.236 1.13225V1.13248ZM35.6505 5.34906C35.2805 5.60533 34.7254 5.73343 33.9857 5.73343L33.1783 5.75913L33.6072 3.01634C33.6405 2.82862 33.7498 2.73445 33.935 2.73445H34.3889C34.7589 2.73445 35.0532 2.75161 35.2721 2.78569C35.4903 2.82001 35.7009 2.92664 35.9027 3.10597C36.1046 3.28547 36.2054 3.54621 36.2054 3.8878C36.2054 4.60578 36.0202 5.09255 35.6505 5.34906Z" fill="#009CDE"/>
</svg>
