<svg width="72" height="45" viewBox="0 0 72 45" fill="none" xmlns="http://www.w3.org/2000/svg">
<path d="M0.191406 16.0211C0.191406 24.6218 6.43698 31.2764 14.553 31.2764C18.4843 31.2764 22.0668 29.8325 24.603 26.9446H25.6809C23.9373 32.6889 18.4209 37.7426 11.1925 39.6888C10.178 40.0027 9.38539 40.2852 8.94155 40.756C8.40259 41.1641 8.14896 41.7605 8.14896 42.5138C8.14896 43.9263 9.25858 44.9308 10.8438 44.9308C12.1119 44.9308 12.9679 44.7111 14.5848 44.2088C18.8647 42.7963 22.7959 40.3479 25.8712 37.1776C30.2462 32.6261 32.8142 26.5993 32.8142 19.6309C32.8142 7.51451 25.1103 0.514648 15.8529 0.514648C6.91253 0.514648 0.191406 7.16922 0.191406 16.0211ZM39.3768 16.0211C39.3768 24.6218 45.6224 31.2764 53.7385 31.2764C57.6697 31.2764 61.1888 29.8325 63.7884 26.9446H64.8346C63.1227 32.6889 57.5746 37.7426 50.3462 39.6888C49.3317 40.0027 48.5708 40.2852 48.127 40.756C47.588 41.1641 47.3027 41.7605 47.3027 42.5138C47.3027 43.9263 48.444 44.9308 50.0609 44.9308C51.2656 44.9308 52.1533 44.7111 53.7385 44.2088C58.0184 42.7963 61.9496 40.3479 65.0249 37.1776C69.4316 32.6261 71.9996 26.5993 71.9996 19.6309C71.9996 7.51451 64.2957 0.514648 55.0383 0.514648C46.0662 0.514648 39.3768 7.16922 39.3768 16.0211Z" fill="#009245"/>
</svg>
