<svg width="24" height="25" viewBox="0 0 24 25" fill="none" xmlns="http://www.w3.org/2000/svg">
<path d="M23.4941 6.81558C23.3551 6.31734 23.0898 5.8634 22.7241 5.49763C22.3583 5.13186 21.9044 4.86663 21.4061 4.72758C19.5361 4.22658 12.0101 4.22658 12.0101 4.22658C12.0101 4.22658 4.50312 4.21658 2.61412 4.72758C2.11588 4.86663 1.66194 5.13186 1.29617 5.49763C0.930402 5.8634 0.665173 6.31734 0.526122 6.81558C0.171643 8.73009 -0.00311721 10.6735 0.00412224 12.6206C-0.00174863 14.5603 0.173006 16.4963 0.526122 18.4036C0.665173 18.9018 0.930402 19.3558 1.29617 19.7215C1.66194 20.0873 2.11588 20.3525 2.61412 20.4916C4.48212 20.9936 12.0101 20.9936 12.0101 20.9936C12.0101 20.9936 19.5161 20.9936 21.4061 20.4916C21.9044 20.3525 22.3583 20.0873 22.7241 19.7215C23.0898 19.3558 23.3551 18.9018 23.4941 18.4036C23.8399 16.4956 24.0073 14.5596 23.9941 12.6206C24.0086 10.6742 23.8412 8.73078 23.4941 6.81558ZM9.60812 16.2116V9.01858L15.8721 12.6206L9.60812 16.2116Z" fill="#191923"/>
</svg>
