<svg width="405" height="404" viewBox="0 0 405 404" fill="none" xmlns="http://www.w3.org/2000/svg">
<rect x="0.216064" width="404" height="404" rx="40" fill="#009245"/>
<path d="M88.4001 101.956C88.4001 96.644 87.3121 92.548 85.1361 89.668C83.0241 86.724 80.0161 85.252 76.1121 85.252C75.1521 85.764 74.0641 86.18 72.8481 86.5C71.6961 86.82 70.6401 86.98 69.6801 86.98C68.4001 86.98 67.3441 86.692 66.5121 86.116C65.6801 85.476 65.2641 84.676 65.2641 83.716C65.2641 82.82 65.6481 82.148 66.4161 81.7C67.1841 81.252 68.2081 81.028 69.4881 81.028C70.3201 81.028 71.2481 81.124 72.2721 81.316C73.3601 81.508 74.3841 81.764 75.3441 82.084C78.8001 82.084 81.5521 80.548 83.6001 77.476C85.7121 74.404 86.7681 70.308 86.7681 65.188C86.7681 56.228 82.9921 51.748 75.4401 51.748C72.0481 51.748 69.3601 52.516 67.3761 54.052C65.4561 55.588 64.4961 57.7 64.4961 60.388C64.4961 62.564 65.1361 64.324 66.4161 65.668C67.6961 67.012 69.3601 67.684 71.4081 67.684C71.0881 68.772 70.2881 69.668 69.0081 70.372C67.7921 71.012 66.3521 71.332 64.6881 71.332C63.2801 71.332 61.9681 71.076 60.7521 70.564C59.6001 70.052 58.5761 69.348 57.6801 68.452C56.8481 67.492 56.1761 66.404 55.6641 65.188C55.1521 63.972 54.8961 62.628 54.8961 61.156C54.8961 59.108 55.3761 57.252 56.3361 55.588C57.3601 53.924 58.7681 52.516 60.5601 51.364C62.3521 50.148 64.4961 49.22 66.9921 48.58C69.5521 47.94 72.3681 47.62 75.4401 47.62C78.8961 47.62 82.0321 48.036 84.8481 48.868C87.6641 49.7 90.0641 50.852 92.0481 52.324C94.0321 53.796 95.5681 55.588 96.6561 57.7C97.7441 59.812 98.2881 62.148 98.2881 64.708C98.2881 66.884 97.9041 68.932 97.1361 70.852C96.3681 72.772 95.3441 74.532 94.0641 76.132C92.7841 77.668 91.2481 78.98 89.4561 80.068C87.7281 81.156 85.8721 81.956 83.8881 82.468V83.044C86.2561 83.684 88.4641 84.612 90.5121 85.828C92.5601 87.044 94.3201 88.484 95.7921 90.148C97.2641 91.812 98.4161 93.7 99.2481 95.812C100.08 97.924 100.496 100.196 100.496 102.628C100.496 105.636 99.8561 108.42 98.5761 110.98C97.2961 113.476 95.5361 115.652 93.2961 117.508C91.0561 119.364 88.3681 120.836 85.2321 121.924C82.1601 122.948 78.7681 123.46 75.0561 123.46C71.7281 123.46 68.6561 123.044 65.8401 122.212C63.0881 121.316 60.6881 120.132 58.6401 118.66C56.5921 117.124 54.9921 115.332 53.8401 113.284C52.6881 111.172 52.1121 108.9 52.1121 106.468C52.1121 104.74 52.4001 103.14 52.9761 101.668C53.5521 100.196 54.3201 98.916 55.2801 97.828C56.3041 96.676 57.4881 95.812 58.8321 95.236C60.1761 94.596 61.6161 94.276 63.1521 94.276C64.9441 94.276 66.5441 94.692 67.9521 95.524C69.3601 96.292 70.2241 97.284 70.5441 98.5C68.1121 98.5 66.1281 99.396 64.5921 101.188C63.0561 102.916 62.2881 105.156 62.2881 107.908C62.2881 111.172 63.4401 113.828 65.7441 115.876C68.0481 117.924 71.0881 118.948 74.8641 118.948C79.2801 118.948 82.6401 117.508 84.9441 114.628C87.2481 111.684 88.4001 107.46 88.4001 101.956Z" fill="white"/>
<path d="M134.412 76V46.9091H138.801V59.5511H153.304V46.9091H157.708V76H153.304V63.3153H138.801V76H134.412ZM173.162 76.4403C171.012 76.4403 169.161 75.9811 167.608 75.0625C166.065 74.1345 164.871 72.8324 164.029 71.1562C163.195 69.4706 162.779 67.4962 162.779 65.233C162.779 62.9981 163.195 61.0284 164.029 59.3239C164.871 57.6193 166.046 56.2888 167.551 55.3324C169.066 54.3759 170.837 53.8977 172.864 53.8977C174.095 53.8977 175.288 54.1013 176.443 54.5085C177.599 54.9157 178.636 55.5549 179.554 56.4261C180.473 57.2973 181.197 58.429 181.727 59.821C182.258 61.2036 182.523 62.8845 182.523 64.8636V66.3693H165.179V63.1875H178.361C178.361 62.0701 178.134 61.0805 177.679 60.2188C177.225 59.3475 176.585 58.661 175.762 58.1591C174.947 57.6572 173.991 57.4062 172.892 57.4062C171.699 57.4062 170.657 57.6998 169.767 58.2869C168.887 58.8646 168.205 59.6222 167.722 60.5597C167.248 61.4877 167.012 62.4962 167.012 63.5852V66.071C167.012 67.5294 167.267 68.7699 167.779 69.7926C168.299 70.8153 169.024 71.5966 169.952 72.1364C170.88 72.6667 171.964 72.9318 173.205 72.9318C174.01 72.9318 174.744 72.8182 175.406 72.5909C176.069 72.3542 176.642 72.0038 177.125 71.5398C177.608 71.0758 177.977 70.5028 178.233 69.821L182.253 70.5455C181.931 71.7292 181.353 72.7661 180.52 73.6562C179.696 74.5369 178.659 75.2235 177.409 75.7159C176.169 76.1989 174.753 76.4403 173.162 76.4403ZM193.585 76.483C192.202 76.483 190.952 76.2273 189.835 75.7159C188.717 75.1951 187.832 74.4422 187.178 73.4574C186.534 72.4725 186.213 71.2652 186.213 69.8352C186.213 68.6042 186.449 67.5909 186.923 66.7955C187.396 66 188.035 65.3703 188.84 64.9062C189.645 64.4422 190.545 64.0919 191.539 63.8551C192.534 63.6184 193.547 63.4384 194.579 63.3153C195.886 63.1638 196.946 63.0407 197.761 62.946C198.575 62.8419 199.167 62.6761 199.536 62.4489C199.906 62.2216 200.09 61.8523 200.09 61.3409V61.2415C200.09 60.0009 199.74 59.0398 199.039 58.358C198.348 57.6761 197.316 57.3352 195.943 57.3352C194.513 57.3352 193.386 57.6525 192.562 58.2869C191.748 58.9119 191.184 59.608 190.872 60.375L186.88 59.4659C187.354 58.1402 188.045 57.0701 188.954 56.2557C189.873 55.4318 190.928 54.8352 192.122 54.4659C193.315 54.0871 194.57 53.8977 195.886 53.8977C196.757 53.8977 197.68 54.0019 198.656 54.2102C199.641 54.4091 200.559 54.7784 201.411 55.3182C202.273 55.858 202.979 56.6297 203.528 57.6335C204.077 58.6278 204.352 59.9205 204.352 61.5114V76H200.204V73.017H200.034C199.759 73.5663 199.347 74.1061 198.798 74.6364C198.248 75.1667 197.543 75.607 196.681 75.9574C195.82 76.3078 194.787 76.483 193.585 76.483ZM194.508 73.0739C195.682 73.0739 196.686 72.8419 197.519 72.3778C198.362 71.9138 199.001 71.3078 199.437 70.5597C199.882 69.8021 200.105 68.9924 200.105 68.1307V65.3182C199.953 65.4697 199.659 65.6117 199.224 65.7443C198.798 65.8674 198.31 65.9763 197.761 66.071C197.212 66.1562 196.677 66.2367 196.156 66.3125C195.635 66.3788 195.199 66.4356 194.849 66.483C194.025 66.5871 193.272 66.7623 192.59 67.0085C191.918 67.2547 191.378 67.6098 190.971 68.0739C190.573 68.5284 190.374 69.1345 190.374 69.892C190.374 70.9432 190.763 71.7386 191.539 72.2784C192.316 72.8087 193.305 73.0739 194.508 73.0739ZM214.256 46.9091V76H210.009V46.9091H214.256ZM230.154 54.1818V57.5909H218.237V54.1818H230.154ZM221.433 48.9545H225.68V69.5938C225.68 70.4176 225.803 71.0379 226.049 71.4545C226.295 71.8617 226.613 72.1411 227.001 72.2926C227.399 72.4347 227.829 72.5057 228.293 72.5057C228.634 72.5057 228.933 72.482 229.188 72.4347C229.444 72.3873 229.643 72.3494 229.785 72.321L230.552 75.8295C230.306 75.9242 229.955 76.0189 229.501 76.1136C229.046 76.2178 228.478 76.2746 227.796 76.2841C226.679 76.303 225.637 76.1042 224.671 75.6875C223.705 75.2708 222.924 74.6269 222.328 73.7557C221.731 72.8845 221.433 71.7907 221.433 70.4744V48.9545ZM239.568 63.0455V76H235.321V46.9091H239.512V57.733H239.781C240.293 56.5587 241.074 55.6259 242.125 54.9347C243.176 54.2434 244.549 53.8977 246.244 53.8977C247.741 53.8977 249.048 54.2055 250.165 54.821C251.292 55.4366 252.163 56.3551 252.779 57.5767C253.404 58.7888 253.716 60.304 253.716 62.1222V76H249.469V62.6335C249.469 61.0331 249.057 59.7926 248.233 58.9119C247.409 58.0218 246.263 57.5767 244.796 57.5767C243.792 57.5767 242.892 57.7898 242.097 58.2159C241.311 58.642 240.69 59.267 240.236 60.0909C239.791 60.9053 239.568 61.8902 239.568 63.0455ZM278.436 76.4119C276.485 76.4119 274.804 76.0568 273.393 75.3466C271.991 74.6364 270.912 73.6705 270.154 72.4489C269.397 71.2178 269.018 69.8258 269.018 68.2727C269.018 67.089 269.264 66.0379 269.757 65.1193C270.249 64.1913 270.936 63.3343 271.816 62.5483C272.697 61.7623 273.715 60.9716 274.87 60.1761L279.558 56.8665C280.353 56.3456 280.973 55.7964 281.418 55.2188C281.864 54.6316 282.086 53.9072 282.086 53.0455C282.086 52.3636 281.793 51.7102 281.205 51.0852C280.618 50.4602 279.832 50.1477 278.847 50.1477C278.166 50.1477 277.564 50.3134 277.043 50.6449C276.532 50.9763 276.13 51.4025 275.836 51.9233C275.552 52.4347 275.41 52.9744 275.41 53.5426C275.41 54.2055 275.59 54.8731 275.95 55.5455C276.319 56.2178 276.793 56.9138 277.37 57.6335C277.948 58.3437 278.554 59.0824 279.188 59.8494L292.697 76H287.896L276.717 62.8608C275.779 61.7528 274.908 60.7112 274.103 59.7358C273.298 58.7509 272.645 57.7566 272.143 56.7528C271.65 55.7396 271.404 54.6458 271.404 53.4716C271.404 52.1364 271.707 50.9527 272.313 49.9205C272.929 48.8788 273.786 48.0644 274.884 47.4773C275.983 46.8902 277.271 46.5966 278.748 46.5966C280.244 46.5966 281.527 46.8902 282.597 47.4773C283.677 48.0549 284.506 48.8267 285.083 49.7926C285.67 50.7491 285.964 51.7955 285.964 52.9318C285.964 54.3144 285.618 55.536 284.927 56.5966C284.245 57.6477 283.303 58.6136 282.1 59.4943L276.262 63.7983C275.126 64.6316 274.335 65.4555 273.89 66.2699C273.454 67.0748 273.237 67.7045 273.237 68.1591C273.237 68.9924 273.45 69.7642 273.876 70.4744C274.311 71.1847 274.918 71.7528 275.694 72.179C276.48 72.6051 277.399 72.8182 278.45 72.8182C279.529 72.8182 280.58 72.5862 281.603 72.1222C282.635 71.6487 283.568 70.9716 284.401 70.0909C285.244 69.2102 285.912 68.1544 286.404 66.9233C286.897 65.6922 287.143 64.3144 287.143 62.7898H290.978C290.978 64.6648 290.765 66.2509 290.339 67.5483C289.913 68.8362 289.397 69.8873 288.791 70.7017C288.194 71.5066 287.631 72.1364 287.1 72.5909C286.93 72.7424 286.769 72.8939 286.617 73.0455C286.466 73.197 286.305 73.3485 286.134 73.5C285.15 74.4943 283.956 75.2282 282.555 75.7017C281.163 76.1752 279.79 76.4119 278.436 76.4119ZM140.108 124L132.04 94.9091H136.656L142.324 117.438H142.594L148.489 94.9091H153.063L158.958 117.452H159.227L164.881 94.9091H169.512L161.429 124H157.012L150.889 102.21H150.662L144.54 124H140.108ZM180.428 124.44C178.278 124.44 176.427 123.981 174.874 123.062C173.33 122.134 172.137 120.832 171.294 119.156C170.461 117.471 170.044 115.496 170.044 113.233C170.044 110.998 170.461 109.028 171.294 107.324C172.137 105.619 173.311 104.289 174.817 103.332C176.332 102.376 178.103 101.898 180.129 101.898C181.36 101.898 182.554 102.101 183.709 102.509C184.864 102.916 185.901 103.555 186.82 104.426C187.738 105.297 188.463 106.429 188.993 107.821C189.523 109.204 189.789 110.884 189.789 112.864V114.369H172.445V111.188H185.627C185.627 110.07 185.399 109.08 184.945 108.219C184.49 107.348 183.851 106.661 183.027 106.159C182.213 105.657 181.256 105.406 180.158 105.406C178.965 105.406 177.923 105.7 177.033 106.287C176.152 106.865 175.47 107.622 174.987 108.56C174.514 109.488 174.277 110.496 174.277 111.585V114.071C174.277 115.529 174.533 116.77 175.044 117.793C175.565 118.815 176.289 119.597 177.217 120.136C178.146 120.667 179.23 120.932 180.47 120.932C181.275 120.932 182.009 120.818 182.672 120.591C183.335 120.354 183.908 120.004 184.391 119.54C184.874 119.076 185.243 118.503 185.499 117.821L189.519 118.545C189.197 119.729 188.619 120.766 187.786 121.656C186.962 122.537 185.925 123.223 184.675 123.716C183.434 124.199 182.019 124.44 180.428 124.44ZM198.748 94.9091V124H194.501V94.9091H198.748ZM208.709 94.9091V124H204.462V94.9091H208.709ZM214.764 124V94.9091H219.011V105.719H219.266C219.513 105.264 219.868 104.739 220.332 104.142C220.796 103.545 221.44 103.025 222.264 102.58C223.088 102.125 224.177 101.898 225.531 101.898C227.292 101.898 228.864 102.343 230.247 103.233C231.629 104.123 232.713 105.406 233.499 107.082C234.295 108.759 234.693 110.776 234.693 113.134C234.693 115.491 234.3 117.513 233.514 119.199C232.728 120.875 231.648 122.168 230.275 123.077C228.902 123.976 227.335 124.426 225.573 124.426C224.248 124.426 223.163 124.204 222.32 123.759C221.487 123.313 220.834 122.793 220.36 122.196C219.887 121.599 219.522 121.069 219.266 120.605H218.911V124H214.764ZM218.926 113.091C218.926 114.625 219.148 115.97 219.593 117.125C220.038 118.28 220.682 119.185 221.525 119.838C222.368 120.482 223.4 120.804 224.622 120.804C225.891 120.804 226.951 120.468 227.803 119.795C228.656 119.114 229.3 118.19 229.735 117.026C230.18 115.861 230.403 114.549 230.403 113.091C230.403 111.652 230.185 110.359 229.749 109.213C229.323 108.067 228.679 107.163 227.818 106.5C226.965 105.837 225.9 105.506 224.622 105.506C223.391 105.506 222.349 105.823 221.497 106.457C220.654 107.092 220.015 107.977 219.579 109.114C219.143 110.25 218.926 111.576 218.926 113.091ZM248.865 124.44C246.716 124.44 244.864 123.981 243.311 123.062C241.768 122.134 240.574 120.832 239.732 119.156C238.898 117.471 238.482 115.496 238.482 113.233C238.482 110.998 238.898 109.028 239.732 107.324C240.574 105.619 241.749 104.289 243.254 103.332C244.77 102.376 246.54 101.898 248.567 101.898C249.798 101.898 250.991 102.101 252.146 102.509C253.302 102.916 254.339 103.555 255.257 104.426C256.176 105.297 256.9 106.429 257.431 107.821C257.961 109.204 258.226 110.884 258.226 112.864V114.369H240.882V111.188H254.064C254.064 110.07 253.837 109.08 253.382 108.219C252.928 107.348 252.289 106.661 251.465 106.159C250.65 105.657 249.694 105.406 248.595 105.406C247.402 105.406 246.36 105.7 245.47 106.287C244.59 106.865 243.908 107.622 243.425 108.56C242.951 109.488 242.715 110.496 242.715 111.585V114.071C242.715 115.529 242.97 116.77 243.482 117.793C244.003 118.815 244.727 119.597 245.655 120.136C246.583 120.667 247.667 120.932 248.908 120.932C249.713 120.932 250.447 120.818 251.11 120.591C251.772 120.354 252.345 120.004 252.828 119.54C253.311 119.076 253.681 118.503 253.936 117.821L257.956 118.545C257.634 119.729 257.057 120.766 256.223 121.656C255.399 122.537 254.362 123.223 253.112 123.716C251.872 124.199 250.456 124.44 248.865 124.44ZM262.938 124V102.182H267.186V124H262.938ZM265.083 98.8153C264.345 98.8153 263.71 98.5691 263.18 98.0767C262.659 97.5748 262.399 96.9782 262.399 96.2869C262.399 95.5862 262.659 94.9896 263.18 94.4972C263.71 93.9953 264.345 93.7443 265.083 93.7443C265.822 93.7443 266.452 93.9953 266.972 94.4972C267.503 94.9896 267.768 95.5862 267.768 96.2869C267.768 96.9782 267.503 97.5748 266.972 98.0767C266.452 98.5691 265.822 98.8153 265.083 98.8153ZM277.146 111.045V124H272.899V102.182H276.976V105.733H277.246C277.748 104.578 278.534 103.65 279.604 102.949C280.683 102.248 282.042 101.898 283.681 101.898C285.167 101.898 286.469 102.21 287.587 102.835C288.704 103.451 289.571 104.369 290.186 105.591C290.802 106.812 291.11 108.323 291.11 110.122V124H286.862V110.634C286.862 109.052 286.45 107.816 285.627 106.926C284.803 106.027 283.671 105.577 282.232 105.577C281.247 105.577 280.371 105.79 279.604 106.216C278.846 106.642 278.245 107.267 277.8 108.091C277.364 108.905 277.146 109.89 277.146 111.045ZM305.953 132.636C304.22 132.636 302.729 132.409 301.479 131.955C300.238 131.5 299.225 130.899 298.439 130.151C297.653 129.402 297.066 128.583 296.678 127.693L300.328 126.188C300.584 126.604 300.925 127.045 301.351 127.509C301.787 127.982 302.374 128.384 303.112 128.716C303.86 129.047 304.822 129.213 305.996 129.213C307.606 129.213 308.936 128.82 309.987 128.034C311.039 127.258 311.564 126.017 311.564 124.312V120.023H311.294C311.039 120.487 310.669 121.003 310.186 121.571C309.713 122.139 309.059 122.632 308.226 123.048C307.393 123.465 306.308 123.673 304.973 123.673C303.25 123.673 301.697 123.271 300.314 122.466C298.941 121.652 297.852 120.454 297.047 118.872C296.252 117.281 295.854 115.326 295.854 113.006C295.854 110.686 296.247 108.697 297.033 107.04C297.828 105.383 298.917 104.114 300.3 103.233C301.682 102.343 303.25 101.898 305.002 101.898C306.356 101.898 307.449 102.125 308.283 102.58C309.116 103.025 309.765 103.545 310.229 104.142C310.702 104.739 311.067 105.264 311.323 105.719H311.635V102.182H315.797V124.483C315.797 126.358 315.361 127.897 314.49 129.099C313.619 130.302 312.44 131.192 310.953 131.77C309.476 132.348 307.809 132.636 305.953 132.636ZM305.911 120.151C307.132 120.151 308.164 119.866 309.007 119.298C309.86 118.721 310.503 117.897 310.939 116.827C311.384 115.747 311.607 114.455 311.607 112.949C311.607 111.481 311.389 110.188 310.953 109.071C310.518 107.954 309.878 107.082 309.036 106.457C308.193 105.823 307.151 105.506 305.911 105.506C304.632 105.506 303.567 105.837 302.715 106.5C301.862 107.153 301.218 108.044 300.783 109.17C300.357 110.297 300.144 111.557 300.144 112.949C300.144 114.379 300.361 115.634 300.797 116.713C301.233 117.793 301.877 118.635 302.729 119.241C303.591 119.848 304.651 120.151 305.911 120.151Z" fill="white"/>
<path fill-rule="evenodd" clip-rule="evenodd" d="M338.383 268.531C338.383 274.243 336.133 279.418 332.497 283.163C332.491 283.168 332.492 283.178 332.497 283.183C332.503 283.189 332.503 283.199 332.497 283.204L307.613 308.139C305.66 310.097 302.489 310.097 300.535 308.14L275.604 283.161C271.962 279.415 269.712 274.24 269.712 268.527C269.712 257.094 277.495 247.827 288.604 247.827C292.57 247.827 296.894 250.932 300.367 254.072C302.456 255.961 305.653 255.969 307.775 254.117C311.386 250.966 315.96 247.836 319.941 247.836C331.049 247.836 338.383 257.102 338.383 268.531ZM217.166 358.252C217.07 358.252 216.974 358.248 216.874 358.244C214.712 358.111 212.924 356.506 212.558 354.369L200.547 284.417C199.743 279.734 193.474 278.707 191.218 282.889L176.187 310.756C175.229 312.536 173.224 313.494 171.254 313.14C169.266 312.786 167.733 311.198 167.445 309.202L160.603 261.378C159.893 256.411 153.127 255.469 151.086 260.052L141.129 282.415C140.379 284.102 138.704 285.19 136.858 285.19H70.7246C68.1412 285.19 66.0496 283.094 66.0496 280.515C66.0496 277.931 68.1412 275.84 70.7246 275.84H130.573C132.548 275.84 134.338 274.677 135.141 272.874L156.204 225.569C157.05 223.665 159.054 222.552 161.12 222.84C163.183 223.127 164.808 224.744 165.104 226.806L172.543 278.816C173.226 283.59 179.604 284.726 181.893 280.481L196.295 253.777C197.241 252.015 199.199 251.056 201.17 251.381C203.137 251.702 204.683 253.24 205.02 255.206L214.819 312.283C215.712 317.486 223.012 317.934 224.534 312.878L267.224 171.073C267.779 169.227 269.412 167.911 271.333 167.761C273.258 167.619 275.074 168.652 275.912 170.39L301.595 223.636C302.716 225.961 301.741 228.756 299.416 229.877C297.091 230.998 294.295 230.023 293.174 227.698L278.297 196.856C276.316 192.749 270.321 193.221 269.006 197.587L221.641 354.923C221.045 356.911 219.216 358.252 217.166 358.252Z" fill="white"/>
</svg>
