<svg width="405" height="404" viewBox="0 0 405 404" fill="none" xmlns="http://www.w3.org/2000/svg">
<rect x="0.323975" width="404" height="404" rx="40" fill="#F46036"/>
<path d="M66.332 76.228L66.524 76.516C67.484 75.812 68.892 75.236 70.748 74.788C72.604 74.276 74.46 74.02 76.316 74.02C79.132 74.02 81.756 74.596 84.188 75.748C86.62 76.836 88.7 78.372 90.428 80.356C92.22 82.34 93.628 84.708 94.652 87.46C95.676 90.148 96.188 93.06 96.188 96.196C96.188 100.036 95.452 103.62 93.98 106.948C92.572 110.212 90.588 113.092 88.028 115.588C85.532 118.02 82.556 119.94 79.1 121.348C75.708 122.756 72.028 123.46 68.06 123.46C65.372 123.46 62.876 123.14 60.572 122.5C58.268 121.796 56.284 120.868 54.62 119.716C53.02 118.564 51.74 117.188 50.78 115.588C49.884 113.924 49.436 112.132 49.436 110.212C49.436 108.484 49.82 107.14 50.588 106.18C51.42 105.22 52.572 104.74 54.044 104.74C55.388 104.74 56.38 105.092 57.02 105.796C57.724 106.5 58.268 107.396 58.652 108.484C59.036 109.572 59.388 110.756 59.708 112.036C60.028 113.252 60.476 114.404 61.052 115.492C61.692 116.58 62.556 117.476 63.644 118.18C64.796 118.884 66.364 119.236 68.348 119.236C70.844 119.236 73.084 118.66 75.068 117.508C77.052 116.292 78.716 114.596 80.06 112.42C81.404 110.18 82.428 107.524 83.132 104.452C83.9 101.316 84.284 97.828 84.284 93.988C84.284 88.548 83.516 84.548 81.98 81.988C80.508 79.428 78.012 78.148 74.492 78.148C71.804 78.148 69.596 78.884 67.868 80.356C66.204 81.764 64.828 84.068 63.74 87.268C63.356 88.42 63.004 89.156 62.684 89.476C62.364 89.796 61.948 89.956 61.436 89.956C60.028 89.956 59.324 89.316 59.324 88.036C59.324 87.716 59.356 87.46 59.42 87.268L69.692 47.62C71.1 48.196 72.7 48.644 74.492 48.964C76.284 49.22 78.428 49.348 80.924 49.348C86.876 49.348 91.132 48.74 93.692 47.524L94.268 47.62C93.5 51.268 91.804 54.084 89.18 56.068C86.62 58.052 83.324 59.044 79.292 59.044H70.844L66.332 76.228Z" fill="white"/>
<path d="M149.207 56.0994C148.933 55.2377 148.564 54.4659 148.1 53.7841C147.645 53.0928 147.1 52.5057 146.466 52.0227C145.832 51.5303 145.107 51.1562 144.293 50.9006C143.488 50.6449 142.602 50.517 141.636 50.517C139.998 50.517 138.521 50.9384 137.205 51.7812C135.888 52.6241 134.847 53.8598 134.08 55.4886C133.322 57.108 132.943 59.0919 132.943 61.4403C132.943 63.7983 133.327 65.7917 134.094 67.4205C134.861 69.0492 135.912 70.285 137.247 71.1278C138.582 71.9706 140.102 72.392 141.807 72.392C143.388 72.392 144.766 72.0701 145.94 71.4261C147.124 70.7822 148.038 69.8731 148.682 68.6989C149.335 67.5152 149.662 66.1231 149.662 64.5227L150.798 64.7358H142.475V61.1136H153.909V64.4233C153.909 66.8665 153.388 68.9877 152.347 70.7869C151.315 72.5767 149.885 73.9593 148.057 74.9347C146.239 75.91 144.155 76.3977 141.807 76.3977C139.174 76.3977 136.864 75.7917 134.875 74.5795C132.896 73.3674 131.352 71.6487 130.244 69.4233C129.136 67.1884 128.582 64.5369 128.582 61.4688C128.582 59.1487 128.904 57.0653 129.548 55.2188C130.192 53.3722 131.097 51.8049 132.261 50.517C133.436 49.2197 134.814 48.2301 136.395 47.5483C137.986 46.857 139.724 46.5114 141.608 46.5114C143.18 46.5114 144.643 46.7434 145.997 47.2074C147.361 47.6714 148.573 48.3295 149.634 49.1818C150.704 50.0341 151.589 51.0473 152.29 52.2216C152.991 53.3864 153.464 54.679 153.71 56.0994H149.207ZM168.543 76.4403C166.394 76.4403 164.542 75.9811 162.989 75.0625C161.446 74.1345 160.253 72.8324 159.41 71.1562C158.577 69.4706 158.16 67.4962 158.16 65.233C158.16 62.9981 158.577 61.0284 159.41 59.3239C160.253 57.6193 161.427 56.2888 162.933 55.3324C164.448 54.3759 166.219 53.8977 168.245 53.8977C169.476 53.8977 170.669 54.1013 171.825 54.5085C172.98 54.9157 174.017 55.5549 174.935 56.4261C175.854 57.2973 176.578 58.429 177.109 59.821C177.639 61.2036 177.904 62.8845 177.904 64.8636V66.3693H160.56V63.1875H173.742C173.742 62.0701 173.515 61.0805 173.06 60.2188C172.606 59.3475 171.967 58.661 171.143 58.1591C170.328 57.6572 169.372 57.4062 168.274 57.4062C167.08 57.4062 166.039 57.6998 165.149 58.2869C164.268 58.8646 163.586 59.6222 163.103 60.5597C162.63 61.4877 162.393 62.4962 162.393 63.5852V66.071C162.393 67.5294 162.649 68.7699 163.16 69.7926C163.681 70.8153 164.405 71.5966 165.333 72.1364C166.261 72.6667 167.346 72.9318 168.586 72.9318C169.391 72.9318 170.125 72.8182 170.788 72.5909C171.451 72.3542 172.024 72.0038 172.507 71.5398C172.989 71.0758 173.359 70.5028 173.614 69.821L177.634 70.5455C177.312 71.7292 176.735 72.7661 175.901 73.6562C175.078 74.5369 174.041 75.2235 172.791 75.7159C171.55 76.1989 170.134 76.4403 168.543 76.4403ZM186.864 63.0455V76H182.617V54.1818H186.693V57.733H186.963C187.465 56.5777 188.251 55.6496 189.321 54.9489C190.401 54.2481 191.76 53.8977 193.398 53.8977C194.885 53.8977 196.187 54.2102 197.304 54.8352C198.422 55.4508 199.288 56.3693 199.904 57.5909C200.519 58.8125 200.827 60.3229 200.827 62.1222V76H196.58V62.6335C196.58 61.0521 196.168 59.8163 195.344 58.9261C194.52 58.0265 193.388 57.5767 191.949 57.5767C190.964 57.5767 190.088 57.7898 189.321 58.2159C188.564 58.642 187.962 59.267 187.517 60.0909C187.082 60.9053 186.864 61.8902 186.864 63.0455ZM214.69 76.4261C212.929 76.4261 211.357 75.9763 209.975 75.0767C208.601 74.1676 207.522 72.875 206.736 71.1989C205.959 69.5133 205.571 67.4915 205.571 65.1335C205.571 62.7756 205.964 60.7585 206.75 59.0824C207.546 57.4062 208.635 56.1231 210.017 55.233C211.4 54.3428 212.967 53.8977 214.719 53.8977C216.073 53.8977 217.162 54.125 217.986 54.5795C218.819 55.0246 219.463 55.5455 219.918 56.142C220.382 56.7386 220.742 57.2642 220.997 57.7188H221.253V46.9091H225.5V76H221.352V72.6051H220.997C220.742 73.0691 220.372 73.5994 219.889 74.196C219.416 74.7926 218.762 75.3134 217.929 75.7585C217.096 76.2036 216.016 76.4261 214.69 76.4261ZM215.628 72.804C216.85 72.804 217.882 72.482 218.725 71.8381C219.577 71.1847 220.221 70.2803 220.656 69.125C221.101 67.9697 221.324 66.625 221.324 65.0909C221.324 63.5758 221.106 62.25 220.671 61.1136C220.235 59.9773 219.596 59.0919 218.753 58.4574C217.91 57.8229 216.868 57.5057 215.628 57.5057C214.35 57.5057 213.284 57.8371 212.432 58.5C211.58 59.1629 210.936 60.0672 210.5 61.2131C210.074 62.3589 209.861 63.6515 209.861 65.0909C209.861 66.5492 210.079 67.8608 210.514 69.0256C210.95 70.1903 211.594 71.1136 212.446 71.7955C213.308 72.4678 214.368 72.804 215.628 72.804ZM240.965 76.4403C238.816 76.4403 236.964 75.9811 235.411 75.0625C233.868 74.1345 232.675 72.8324 231.832 71.1562C230.998 69.4706 230.582 67.4962 230.582 65.233C230.582 62.9981 230.998 61.0284 231.832 59.3239C232.675 57.6193 233.849 56.2888 235.355 55.3324C236.87 54.3759 238.64 53.8977 240.667 53.8977C241.898 53.8977 243.091 54.1013 244.247 54.5085C245.402 54.9157 246.439 55.5549 247.357 56.4261C248.276 57.2973 249 58.429 249.531 59.821C250.061 61.2036 250.326 62.8845 250.326 64.8636V66.3693H232.982V63.1875H246.164C246.164 62.0701 245.937 61.0805 245.482 60.2188C245.028 59.3475 244.389 58.661 243.565 58.1591C242.75 57.6572 241.794 57.4062 240.695 57.4062C239.502 57.4062 238.461 57.6998 237.57 58.2869C236.69 58.8646 236.008 59.6222 235.525 60.5597C235.051 61.4877 234.815 62.4962 234.815 63.5852V66.071C234.815 67.5294 235.07 68.7699 235.582 69.7926C236.103 70.8153 236.827 71.5966 237.755 72.1364C238.683 72.6667 239.767 72.9318 241.008 72.9318C241.813 72.9318 242.547 72.8182 243.21 72.5909C243.873 72.3542 244.445 72.0038 244.928 71.5398C245.411 71.0758 245.781 70.5028 246.036 69.821L250.056 70.5455C249.734 71.7292 249.157 72.7661 248.323 73.6562C247.499 74.5369 246.462 75.2235 245.212 75.7159C243.972 76.1989 242.556 76.4403 240.965 76.4403ZM255.038 76V54.1818H259.144V57.6477H259.371C259.769 56.4735 260.469 55.5502 261.473 54.8778C262.486 54.196 263.632 53.8551 264.911 53.8551C265.176 53.8551 265.488 53.8646 265.848 53.8835C266.217 53.9025 266.506 53.9261 266.715 53.9545V58.017C266.544 57.9697 266.241 57.9176 265.806 57.8608C265.37 57.7945 264.934 57.7614 264.499 57.7614C263.495 57.7614 262.6 57.9744 261.814 58.4006C261.038 58.8172 260.422 59.3996 259.967 60.1477C259.513 60.8864 259.286 61.7292 259.286 62.6761V76H255.038ZM129.52 124V94.9091H147.759V98.6875H133.909V107.551H146.807V111.315H133.909V120.222H147.929V124H129.52ZM168.011 132.182V120.605H167.755C167.499 121.069 167.13 121.599 166.647 122.196C166.174 122.793 165.52 123.313 164.687 123.759C163.854 124.204 162.774 124.426 161.448 124.426C159.687 124.426 158.115 123.976 156.732 123.077C155.359 122.168 154.28 120.875 153.494 119.199C152.717 117.513 152.329 115.491 152.329 113.134C152.329 110.776 152.722 108.759 153.508 107.082C154.303 105.406 155.392 104.123 156.775 103.233C158.158 102.343 159.725 101.898 161.477 101.898C162.831 101.898 163.92 102.125 164.744 102.58C165.577 103.025 166.221 103.545 166.676 104.142C167.14 104.739 167.499 105.264 167.755 105.719H168.11V102.182H172.258V132.182H168.011ZM162.386 120.804C163.607 120.804 164.64 120.482 165.482 119.838C166.335 119.185 166.979 118.28 167.414 117.125C167.859 115.97 168.082 114.625 168.082 113.091C168.082 111.576 167.864 110.25 167.428 109.114C166.993 107.977 166.354 107.092 165.511 106.457C164.668 105.823 163.626 105.506 162.386 105.506C161.107 105.506 160.042 105.837 159.19 106.5C158.337 107.163 157.694 108.067 157.258 109.213C156.832 110.359 156.619 111.652 156.619 113.091C156.619 114.549 156.837 115.861 157.272 117.026C157.708 118.19 158.352 119.114 159.204 119.795C160.066 120.468 161.126 120.804 162.386 120.804ZM191.789 114.952V102.182H196.051V124H191.874V120.222H191.647C191.145 121.386 190.34 122.357 189.232 123.134C188.134 123.901 186.765 124.284 185.127 124.284C183.726 124.284 182.485 123.976 181.406 123.361C180.336 122.736 179.493 121.812 178.877 120.591C178.271 119.369 177.968 117.859 177.968 116.06V102.182H182.215V115.548C182.215 117.035 182.627 118.219 183.451 119.099C184.275 119.98 185.345 120.42 186.661 120.42C187.457 120.42 188.248 120.222 189.033 119.824C189.829 119.426 190.487 118.825 191.008 118.02C191.538 117.215 191.799 116.192 191.789 114.952ZM208.107 124.483C206.724 124.483 205.474 124.227 204.357 123.716C203.239 123.195 202.354 122.442 201.7 121.457C201.056 120.473 200.734 119.265 200.734 117.835C200.734 116.604 200.971 115.591 201.445 114.795C201.918 114 202.557 113.37 203.362 112.906C204.167 112.442 205.067 112.092 206.061 111.855C207.056 111.618 208.069 111.438 209.101 111.315C210.408 111.164 211.468 111.041 212.283 110.946C213.097 110.842 213.689 110.676 214.058 110.449C214.428 110.222 214.612 109.852 214.612 109.341V109.241C214.612 108.001 214.262 107.04 213.561 106.358C212.87 105.676 211.838 105.335 210.465 105.335C209.035 105.335 207.908 105.652 207.084 106.287C206.27 106.912 205.706 107.608 205.394 108.375L201.402 107.466C201.876 106.14 202.567 105.07 203.476 104.256C204.395 103.432 205.45 102.835 206.644 102.466C207.837 102.087 209.091 101.898 210.408 101.898C211.279 101.898 212.202 102.002 213.178 102.21C214.163 102.409 215.081 102.778 215.933 103.318C216.795 103.858 217.501 104.63 218.05 105.634C218.599 106.628 218.874 107.92 218.874 109.511V124H214.726V121.017H214.556C214.281 121.566 213.869 122.106 213.32 122.636C212.77 123.167 212.065 123.607 211.203 123.957C210.341 124.308 209.309 124.483 208.107 124.483ZM209.03 121.074C210.204 121.074 211.208 120.842 212.041 120.378C212.884 119.914 213.523 119.308 213.959 118.56C214.404 117.802 214.627 116.992 214.627 116.131V113.318C214.475 113.47 214.181 113.612 213.746 113.744C213.32 113.867 212.832 113.976 212.283 114.071C211.734 114.156 211.199 114.237 210.678 114.312C210.157 114.379 209.721 114.436 209.371 114.483C208.547 114.587 207.794 114.762 207.112 115.009C206.44 115.255 205.9 115.61 205.493 116.074C205.095 116.528 204.896 117.134 204.896 117.892C204.896 118.943 205.285 119.739 206.061 120.278C206.838 120.809 207.827 121.074 209.03 121.074ZM228.778 94.9091V124H224.531V94.9091H228.778ZM234.492 124V102.182H238.739V124H234.492ZM236.636 98.8153C235.898 98.8153 235.263 98.5691 234.733 98.0767C234.212 97.5748 233.952 96.9782 233.952 96.2869C233.952 95.5862 234.212 94.9896 234.733 94.4972C235.263 93.9953 235.898 93.7443 236.636 93.7443C237.375 93.7443 238.005 93.9953 238.526 94.4972C239.056 94.9896 239.321 95.5862 239.321 96.2869C239.321 96.9782 239.056 97.5748 238.526 98.0767C238.005 98.5691 237.375 98.8153 236.636 98.8153ZM254.637 102.182V105.591H242.72V102.182H254.637ZM245.916 96.9545H250.163V117.594C250.163 118.418 250.286 119.038 250.532 119.455C250.778 119.862 251.096 120.141 251.484 120.293C251.882 120.435 252.312 120.506 252.776 120.506C253.117 120.506 253.416 120.482 253.671 120.435C253.927 120.387 254.126 120.349 254.268 120.321L255.035 123.83C254.789 123.924 254.438 124.019 253.984 124.114C253.529 124.218 252.961 124.275 252.279 124.284C251.162 124.303 250.12 124.104 249.154 123.688C248.188 123.271 247.407 122.627 246.81 121.756C246.214 120.884 245.916 119.791 245.916 118.474V96.9545ZM262.02 132.182C261.386 132.182 260.808 132.13 260.287 132.026C259.766 131.931 259.378 131.827 259.122 131.713L260.145 128.233C260.922 128.441 261.613 128.531 262.219 128.503C262.825 128.474 263.36 128.247 263.824 127.821C264.297 127.395 264.714 126.699 265.074 125.733L265.6 124.284L257.617 102.182H262.162L267.688 119.114H267.915L273.44 102.182H278L269.009 126.912C268.592 128.048 268.062 129.009 267.418 129.795C266.774 130.591 266.007 131.188 265.117 131.585C264.226 131.983 263.194 132.182 262.02 132.182Z" fill="white"/>
<path fill-rule="evenodd" clip-rule="evenodd" d="M281.789 154.906C282.147 154.906 282.443 155.194 282.443 155.552V206.035C282.443 206.39 282.147 206.677 281.789 206.677H265.018C264.664 206.677 264.368 206.39 264.368 206.035V199.331C264.368 194.877 258.982 192.646 255.832 195.796L245.342 206.286C243.621 208.007 243.407 210.707 244.682 212.78C250.866 222.834 254.443 234.649 254.443 247.294C254.443 278.629 232.529 304.927 203.223 311.704C200.837 312.256 199.055 314.325 199.055 316.774V327.173C199.055 329.934 201.294 332.173 204.055 332.173H218.964C219.318 332.173 219.605 332.456 219.605 332.81V350.79C219.605 351.148 219.318 351.431 218.964 351.431H204.055C201.294 351.431 199.055 353.67 199.055 356.431V370.456C199.055 370.81 198.759 371.094 198.405 371.094H180.434C180.076 371.094 179.793 370.81 179.793 370.456V356.431C179.793 353.67 177.554 351.431 174.793 351.431H159.88C159.509 351.431 159.23 351.148 159.23 350.79V332.81C159.23 332.456 159.509 332.173 159.88 332.173H174.793C177.554 332.173 179.793 329.934 179.793 327.173V317.238C179.793 314.725 177.92 312.622 175.455 312.134C145.14 306.125 122.205 279.348 122.205 247.294C122.205 210.835 151.872 181.177 188.326 181.177C202.112 181.177 214.91 185.425 225.512 192.671C227.602 194.099 230.436 193.947 232.225 192.157L242.874 181.508C246.024 178.359 243.793 172.973 239.338 172.973H231.309C230.964 172.973 230.668 172.685 230.668 172.327V155.552C230.668 155.194 230.964 154.906 231.309 154.906H281.789ZM188.326 295.96C215.164 295.96 236.993 274.127 236.993 247.294C236.993 220.46 215.164 198.627 188.326 198.627C161.489 198.627 139.664 220.46 139.664 247.294C139.664 274.127 161.489 295.96 188.326 295.96ZM218.055 252.835C218.422 252.835 218.709 253.106 218.709 253.431V267.723C218.709 268.044 218.422 268.298 218.055 268.298H159.026C158.672 268.298 158.384 268.044 158.384 267.723V253.431C158.384 253.106 158.672 252.835 159.026 252.835H218.055ZM218.055 227.319C218.422 227.319 218.709 227.581 218.709 227.894V242.185C218.709 242.519 218.422 242.769 218.055 242.769H159.026C158.672 242.769 158.384 242.519 158.384 242.185V227.894C158.384 227.581 158.672 227.319 159.026 227.319H218.055Z" fill="white"/>
</svg>
