<svg width="405" height="404" viewBox="0 0 405 404" fill="none" xmlns="http://www.w3.org/2000/svg">
<rect x="0.108032" width="404" height="404" rx="40" fill="#F46036"/>
<path d="M65.924 113.092H85.028C86.564 113.092 87.908 112.964 89.06 112.708C90.212 112.388 91.236 111.812 92.132 110.98C93.028 110.148 93.828 109.028 94.532 107.62C95.236 106.148 95.94 104.292 96.644 102.052H100.196L96.548 122.5H51.908V119.332C59.204 112.804 65.188 107.108 69.86 102.244C74.596 97.316 78.308 92.9 80.996 88.996C83.684 85.092 85.54 81.508 86.564 78.244C87.588 74.916 88.1 71.556 88.1 68.164C88.1 63.172 86.916 59.236 84.548 56.356C82.244 53.476 79.076 52.036 75.044 52.036C71.204 52.036 68.068 53.284 65.636 55.78C63.268 58.276 62.084 61.508 62.084 65.476C62.084 68.932 63.012 71.684 64.868 73.732C66.788 75.78 69.38 76.804 72.644 76.804C72.324 78.34 71.492 79.588 70.148 80.548C68.804 81.444 67.14 81.892 65.156 81.892C63.364 81.892 61.7 81.54 60.164 80.836C58.692 80.132 57.38 79.14 56.228 77.86C55.14 76.58 54.276 75.076 53.636 73.348C53.06 71.556 52.772 69.604 52.772 67.492C52.772 64.612 53.38 61.956 54.596 59.524C55.812 57.092 57.476 55.012 59.588 53.284C61.7 51.492 64.196 50.084 67.076 49.06C70.02 48.036 73.188 47.524 76.58 47.524C79.972 47.524 83.076 48.036 85.892 49.06C88.708 50.084 91.14 51.524 93.188 53.38C95.236 55.236 96.804 57.444 97.892 60.004C99.044 62.5 99.62 65.284 99.62 68.356C99.62 72.324 98.724 76.228 96.932 80.068C95.204 83.844 92.804 87.588 89.732 91.3C86.66 94.948 83.076 98.564 78.98 102.148C74.884 105.668 70.5 109.156 65.828 112.612L65.924 113.092Z" fill="white"/>
<path d="M133.551 76V73.0739L148.85 50.6875H133.423V46.9091H154.219V49.8352L138.921 72.2216H154.347V76H133.551ZM168.913 76.4403C166.764 76.4403 164.912 75.9811 163.359 75.0625C161.816 74.1345 160.623 72.8324 159.78 71.1562C158.947 69.4706 158.53 67.4962 158.53 65.233C158.53 62.9981 158.947 61.0284 159.78 59.3239C160.623 57.6193 161.797 56.2888 163.303 55.3324C164.818 54.3759 166.589 53.8977 168.615 53.8977C169.846 53.8977 171.039 54.1013 172.195 54.5085C173.35 54.9157 174.387 55.5549 175.305 56.4261C176.224 57.2973 176.948 58.429 177.479 59.821C178.009 61.2036 178.274 62.8845 178.274 64.8636V66.3693H160.93V63.1875H174.112C174.112 62.0701 173.885 61.0805 173.43 60.2188C172.976 59.3475 172.337 58.661 171.513 58.1591C170.698 57.6572 169.742 57.4062 168.644 57.4062C167.45 57.4062 166.409 57.6998 165.519 58.2869C164.638 58.8646 163.956 59.6222 163.473 60.5597C163 61.4877 162.763 62.4962 162.763 63.5852V66.071C162.763 67.5294 163.019 68.7699 163.53 69.7926C164.051 70.8153 164.775 71.5966 165.703 72.1364C166.631 72.6667 167.716 72.9318 168.956 72.9318C169.761 72.9318 170.495 72.8182 171.158 72.5909C171.821 72.3542 172.394 72.0038 172.876 71.5398C173.359 71.0758 173.729 70.5028 173.984 69.821L178.004 70.5455C177.682 71.7292 177.105 72.7661 176.271 73.6562C175.448 74.5369 174.411 75.2235 173.161 75.7159C171.92 76.1989 170.504 76.4403 168.913 76.4403ZM182.987 76V54.1818H187.092V57.6477H187.319C187.717 56.4735 188.417 55.5502 189.421 54.8778C190.435 54.196 191.58 53.8551 192.859 53.8551C193.124 53.8551 193.436 53.8646 193.796 53.8835C194.166 53.9025 194.454 53.9261 194.663 53.9545V58.017C194.492 57.9697 194.189 57.9176 193.754 57.8608C193.318 57.7945 192.882 57.7614 192.447 57.7614C191.443 57.7614 190.548 57.9744 189.762 58.4006C188.986 58.8172 188.37 59.3996 187.916 60.1477C187.461 60.8864 187.234 61.7292 187.234 62.6761V76H182.987ZM206.747 76.4403C204.702 76.4403 202.917 75.9716 201.392 75.0341C199.868 74.0966 198.684 72.785 197.841 71.0994C196.998 69.4138 196.577 67.4441 196.577 65.1903C196.577 62.9271 196.998 60.9479 197.841 59.2528C198.684 57.5578 199.868 56.2415 201.392 55.304C202.917 54.3665 204.702 53.8977 206.747 53.8977C208.793 53.8977 210.578 54.3665 212.102 55.304C213.627 56.2415 214.811 57.5578 215.653 59.2528C216.496 60.9479 216.918 62.9271 216.918 65.1903C216.918 67.4441 216.496 69.4138 215.653 71.0994C214.811 72.785 213.627 74.0966 212.102 75.0341C210.578 75.9716 208.793 76.4403 206.747 76.4403ZM206.761 72.875C208.087 72.875 209.186 72.5246 210.057 71.8239C210.928 71.1231 211.572 70.1903 211.989 69.0256C212.415 67.8608 212.628 66.5777 212.628 65.1761C212.628 63.7841 212.415 62.5057 211.989 61.3409C211.572 60.1667 210.928 59.2244 210.057 58.5142C209.186 57.804 208.087 57.4489 206.761 57.4489C205.426 57.4489 204.318 57.804 203.438 58.5142C202.566 59.2244 201.918 60.1667 201.492 61.3409C201.075 62.5057 200.867 63.7841 200.867 65.1761C200.867 66.5777 201.075 67.8608 201.492 69.0256C201.918 70.1903 202.566 71.1231 203.438 71.8239C204.318 72.5246 205.426 72.875 206.761 72.875ZM134.304 124V94.9091H138.693V107.551H153.196V94.9091H157.6V124H153.196V111.315H138.693V124H134.304ZM177.472 114.952V102.182H181.733V124H177.557V120.222H177.33C176.828 121.386 176.023 122.357 174.915 123.134C173.816 123.901 172.448 124.284 170.81 124.284C169.408 124.284 168.168 123.976 167.088 123.361C166.018 122.736 165.175 121.812 164.56 120.591C163.954 119.369 163.651 117.859 163.651 116.06V102.182H167.898V115.548C167.898 117.035 168.31 118.219 169.134 119.099C169.957 119.98 171.028 120.42 172.344 120.42C173.139 120.42 173.93 120.222 174.716 119.824C175.511 119.426 176.17 118.825 176.69 118.02C177.221 117.215 177.481 116.192 177.472 114.952ZM191.687 111.045V124H187.44V102.182H191.516V105.733H191.786C192.288 104.578 193.074 103.65 194.144 102.949C195.224 102.248 196.583 101.898 198.221 101.898C199.708 101.898 201.01 102.21 202.127 102.835C203.245 103.451 204.111 104.369 204.727 105.591C205.342 106.812 205.65 108.323 205.65 110.122V124H201.403V110.634C201.403 109.052 200.991 107.816 200.167 106.926C199.343 106.027 198.211 105.577 196.772 105.577C195.787 105.577 194.911 105.79 194.144 106.216C193.387 106.642 192.785 107.267 192.34 108.091C191.905 108.905 191.687 109.89 191.687 111.045ZM220.494 132.636C218.761 132.636 217.269 132.409 216.019 131.955C214.779 131.5 213.765 130.899 212.979 130.151C212.193 129.402 211.606 128.583 211.218 127.693L214.869 126.188C215.124 126.604 215.465 127.045 215.891 127.509C216.327 127.982 216.914 128.384 217.653 128.716C218.401 129.047 219.362 129.213 220.536 129.213C222.146 129.213 223.477 128.82 224.528 128.034C225.579 127.258 226.104 126.017 226.104 124.312V120.023H225.835C225.579 120.487 225.21 121.003 224.727 121.571C224.253 122.139 223.6 122.632 222.766 123.048C221.933 123.465 220.849 123.673 219.514 123.673C217.79 123.673 216.237 123.271 214.854 122.466C213.481 121.652 212.392 120.454 211.587 118.872C210.792 117.281 210.394 115.326 210.394 113.006C210.394 110.686 210.787 108.697 211.573 107.04C212.369 105.383 213.458 104.114 214.84 103.233C216.223 102.343 217.79 101.898 219.542 101.898C220.896 101.898 221.99 102.125 222.823 102.58C223.657 103.025 224.305 103.545 224.769 104.142C225.243 104.739 225.607 105.264 225.863 105.719H226.176V102.182H230.337V124.483C230.337 126.358 229.902 127.897 229.031 129.099C228.159 130.302 226.98 131.192 225.494 131.77C224.016 132.348 222.35 132.636 220.494 132.636ZM220.451 120.151C221.673 120.151 222.705 119.866 223.548 119.298C224.4 118.721 225.044 117.897 225.479 116.827C225.925 115.747 226.147 114.455 226.147 112.949C226.147 111.481 225.929 110.188 225.494 109.071C225.058 107.954 224.419 107.082 223.576 106.457C222.733 105.823 221.692 105.506 220.451 105.506C219.173 105.506 218.107 105.837 217.255 106.5C216.403 107.153 215.759 108.044 215.323 109.17C214.897 110.297 214.684 111.557 214.684 112.949C214.684 114.379 214.902 115.634 215.337 116.713C215.773 117.793 216.417 118.635 217.269 119.241C218.131 119.848 219.192 120.151 220.451 120.151ZM245.437 124.44C243.287 124.44 241.436 123.981 239.883 123.062C238.339 122.134 237.146 120.832 236.303 119.156C235.47 117.471 235.053 115.496 235.053 113.233C235.053 110.998 235.47 109.028 236.303 107.324C237.146 105.619 238.32 104.289 239.826 103.332C241.341 102.376 243.112 101.898 245.139 101.898C246.37 101.898 247.563 102.101 248.718 102.509C249.873 102.916 250.91 103.555 251.829 104.426C252.747 105.297 253.472 106.429 254.002 107.821C254.533 109.204 254.798 110.884 254.798 112.864V114.369H237.454V111.188H250.636C250.636 110.07 250.408 109.08 249.954 108.219C249.499 107.348 248.86 106.661 248.036 106.159C247.222 105.657 246.265 105.406 245.167 105.406C243.974 105.406 242.932 105.7 242.042 106.287C241.161 106.865 240.479 107.622 239.997 108.56C239.523 109.488 239.286 110.496 239.286 111.585V114.071C239.286 115.529 239.542 116.77 240.053 117.793C240.574 118.815 241.299 119.597 242.227 120.136C243.155 120.667 244.239 120.932 245.479 120.932C246.284 120.932 247.018 120.818 247.681 120.591C248.344 120.354 248.917 120.004 249.4 119.54C249.883 119.076 250.252 118.503 250.508 117.821L254.528 118.545C254.206 119.729 253.628 120.766 252.795 121.656C251.971 122.537 250.934 123.223 249.684 123.716C248.443 124.199 247.028 124.44 245.437 124.44ZM259.51 124V102.182H263.615V105.648H263.842C264.24 104.473 264.941 103.55 265.945 102.878C266.958 102.196 268.104 101.855 269.382 101.855C269.647 101.855 269.96 101.865 270.32 101.884C270.689 101.902 270.978 101.926 271.186 101.955V106.017C271.016 105.97 270.713 105.918 270.277 105.861C269.841 105.795 269.406 105.761 268.97 105.761C267.966 105.761 267.072 105.974 266.286 106.401C265.509 106.817 264.894 107.4 264.439 108.148C263.984 108.886 263.757 109.729 263.757 110.676V124H259.51Z" fill="white"/>
<path fill-rule="evenodd" clip-rule="evenodd" d="M166.818 351.443C166.818 349.249 165.384 347.321 163.308 346.609C126.566 334 99.0935 304 92.7643 267.543L92.6268 266.322C92.6268 264.827 93.8352 263.614 95.3435 263.614H308.881C310.385 263.614 311.589 264.827 311.589 266.322C311.589 266.452 311.577 266.568 311.552 266.697C311.543 266.768 311.531 266.843 311.518 266.922C305.491 303.04 278.751 332.872 242.755 345.928C240.724 346.665 239.331 348.571 239.331 350.732V353.572C239.331 353.573 239.331 353.574 239.331 353.574C239.332 353.585 239.337 353.596 239.333 353.605C239.332 353.608 239.331 353.612 239.331 353.615C239.316 355.079 238.15 356.264 236.689 356.293C236.668 356.293 236.648 356.302 236.631 356.302C236.61 356.302 236.589 356.293 236.573 356.293H169.573C169.552 356.293 169.527 356.302 169.506 356.302C169.485 356.302 169.473 356.293 169.452 356.293C168.031 356.264 166.877 355.139 166.818 353.727C166.814 353.685 166.798 353.639 166.798 353.589C166.798 353.547 166.814 353.502 166.818 353.464V351.443ZM239.268 172.477C241.21 169.764 245.352 168.893 248.548 170.527C251.735 172.168 252.768 175.685 250.835 178.414C250.589 178.781 234.193 202.706 250.381 220.402C260.436 231.387 262.565 242.108 260.998 251.128C260.619 253.313 258.625 254.768 256.407 254.768H253.701C250.095 254.768 247.657 250.989 247.92 247.393C248.336 241.713 246.518 234.875 239.731 227.447C217.756 203.431 238.389 173.731 239.268 172.477ZM211.222 254.768C207.616 254.768 205.177 250.989 205.439 247.393C205.852 241.714 204.033 234.876 197.248 227.447C175.256 203.431 195.902 173.727 196.789 172.477C198.723 169.764 202.873 168.897 206.056 170.527C209.252 172.172 210.273 175.685 208.348 178.402C208.089 178.793 191.706 202.702 207.902 220.402C217.953 231.386 220.088 242.107 218.526 251.126C218.148 253.312 216.153 254.768 213.934 254.768H211.222ZM154.298 172.477C156.231 169.76 160.377 168.885 163.564 170.527C166.76 172.168 167.781 175.685 165.864 178.402C165.606 178.781 149.21 202.706 165.406 220.402C175.464 231.389 177.597 242.11 176.035 251.127C175.656 253.312 173.662 254.768 171.443 254.768H168.734C165.128 254.768 162.69 250.989 162.95 247.393C163.362 241.714 161.54 234.876 154.752 227.447C132.773 203.431 153.406 173.731 154.298 172.477Z" fill="white"/>
</svg>
