<svg width="405" height="405" viewBox="0 0 405 405" fill="none" xmlns="http://www.w3.org/2000/svg">
<rect x="0.323975" y="0.108032" width="404" height="404" rx="40" fill="#F46036"/>
<path d="M73.82 107.056C73.82 109.552 73.916 111.568 74.108 113.104C74.364 114.576 74.844 115.76 75.548 116.656C76.252 117.488 77.244 118.064 78.524 118.384C79.868 118.704 81.628 118.896 83.804 118.96V122.608H54.428V118.96C56.54 118.896 58.236 118.704 59.516 118.384C60.86 118 61.884 117.424 62.588 116.656C63.356 115.824 63.836 114.704 64.028 113.296C64.284 111.824 64.412 109.968 64.412 107.728V72.496C64.412 68.784 64.38 65.712 64.316 63.28C64.316 60.848 64.22 59.248 64.028 58.48C63.708 57.072 62.748 56.208 61.148 55.888C59.548 55.568 57.148 55.408 53.948 55.408V51.76C57.084 51.632 60.38 51.216 63.836 50.512C67.356 49.744 70.684 48.816 73.82 47.728V107.056ZM113.88 47.728C117.784 47.728 121.464 48.72 124.92 50.704C128.376 52.688 131.384 55.408 133.944 58.864C136.504 62.32 138.52 66.384 139.992 71.056C141.528 75.728 142.296 80.784 142.296 86.224C142.296 91.408 141.528 96.272 139.992 100.816C138.52 105.36 136.504 109.328 133.944 112.72C131.384 116.048 128.376 118.704 124.92 120.688C121.464 122.608 117.784 123.568 113.88 123.568C109.976 123.568 106.296 122.608 102.84 120.688C99.3837 118.704 96.3757 116.048 93.8157 112.72C91.2557 109.328 89.2077 105.36 87.6717 100.816C86.1997 96.272 85.4637 91.408 85.4637 86.224C85.4637 80.784 86.1997 75.728 87.6717 71.056C89.2077 66.384 91.2557 62.32 93.8157 58.864C96.3757 55.408 99.3837 52.688 102.84 50.704C106.296 48.72 109.976 47.728 113.88 47.728ZM113.88 118.96C116.376 118.96 118.584 118.448 120.504 117.424C122.488 116.4 124.152 114.64 125.496 112.144C126.904 109.648 127.96 106.32 128.664 102.16C129.432 98 129.816 92.784 129.816 86.512C129.816 79.984 129.432 74.544 128.664 70.192C127.96 65.84 126.936 62.352 125.592 59.728C124.248 57.04 122.584 55.152 120.6 54.064C118.616 52.912 116.376 52.336 113.88 52.336C111.384 52.336 109.144 52.912 107.16 54.064C105.176 55.152 103.512 57.04 102.168 59.728C100.824 62.352 99.7677 65.84 98.9997 70.192C98.2957 74.544 97.9437 79.984 97.9437 86.512C97.9437 92.784 98.2957 98 98.9997 102.16C99.7677 106.32 100.824 109.648 102.168 112.144C103.512 114.64 105.176 116.4 107.16 117.424C109.144 118.448 111.384 118.96 113.88 118.96Z" fill="white"/>
<path d="M160.52 76.108V47.0171H170.889C173.143 47.0171 175.013 47.4054 176.5 48.1819C177.996 48.9584 179.114 50.0332 179.852 51.4063C180.591 52.77 180.96 54.3467 180.96 56.1364C180.96 57.9167 180.586 59.484 179.838 60.8381C179.1 62.1828 177.982 63.2292 176.486 63.9773C174.999 64.7255 173.129 65.0995 170.875 65.0995H163.02V61.3211H170.477C171.898 61.3211 173.053 61.1175 173.943 60.7103C174.843 60.3031 175.501 59.7113 175.918 58.9347C176.334 58.1582 176.543 57.2255 176.543 56.1364C176.543 55.038 176.33 54.0863 175.904 53.2813C175.487 52.4764 174.829 51.8609 173.929 51.4347C173.039 50.9991 171.869 50.7813 170.421 50.7813H164.909V76.108H160.52ZM174.881 62.983L182.068 76.108H177.068L170.023 62.983H174.881ZM194.29 76.5484C192.141 76.5484 190.289 76.0891 188.736 75.1705C187.193 74.2425 186 72.9404 185.157 71.2643C184.323 69.5787 183.907 67.6042 183.907 65.341C183.907 63.1061 184.323 61.1364 185.157 59.4319C186 57.7273 187.174 56.3969 188.68 55.4404C190.195 54.484 191.966 54.0058 193.992 54.0058C195.223 54.0058 196.416 54.2094 197.572 54.6166C198.727 55.0238 199.764 55.663 200.682 56.5342C201.601 57.4054 202.325 58.537 202.856 59.9291C203.386 61.3116 203.651 62.9925 203.651 64.9717V66.4774H186.307V63.2955H199.489C199.489 62.1781 199.262 61.1885 198.807 60.3268C198.353 59.4556 197.714 58.769 196.89 58.2671C196.075 57.7652 195.119 57.5143 194.02 57.5143C192.827 57.5143 191.786 57.8078 190.895 58.395C190.015 58.9726 189.333 59.7302 188.85 60.6677C188.376 61.5957 188.14 62.6042 188.14 63.6933V66.1791C188.14 67.6374 188.395 68.8779 188.907 69.9006C189.428 70.9234 190.152 71.7046 191.08 72.2444C192.008 72.7747 193.092 73.0399 194.333 73.0399C195.138 73.0399 195.872 72.9262 196.535 72.6989C197.198 72.4622 197.77 72.1118 198.253 71.6478C198.736 71.1838 199.106 70.6109 199.361 69.9291L203.381 70.6535C203.059 71.8372 202.482 72.8741 201.648 73.7643C200.824 74.645 199.787 75.3315 198.537 75.8239C197.297 76.3069 195.881 76.5484 194.29 76.5484ZM215.731 76.5342C213.97 76.5342 212.398 76.0844 211.015 75.1847C209.642 74.2756 208.563 72.983 207.777 71.3069C207 69.6213 206.612 67.5995 206.612 65.2416C206.612 62.8836 207.005 60.8666 207.791 59.1904C208.586 57.5143 209.675 56.2311 211.058 55.341C212.44 54.4508 214.008 54.0058 215.759 54.0058C217.114 54.0058 218.203 54.233 219.027 54.6876C219.86 55.1327 220.504 55.6535 220.958 56.2501C221.422 56.8467 221.782 57.3722 222.038 57.8268H222.294V47.0171H226.541V76.108H222.393V72.7131H222.038C221.782 73.1772 221.413 73.7075 220.93 74.3041C220.456 74.9006 219.803 75.4215 218.97 75.8666C218.136 76.3116 217.057 76.5342 215.731 76.5342ZM216.669 72.912C217.89 72.912 218.922 72.59 219.765 71.9461C220.617 71.2927 221.261 70.3883 221.697 69.233C222.142 68.0777 222.365 66.733 222.365 65.1989C222.365 63.6838 222.147 62.358 221.711 61.2217C221.276 60.0853 220.636 59.1999 219.794 58.5654C218.951 57.9309 217.909 57.6137 216.669 57.6137C215.39 57.6137 214.325 57.9452 213.473 58.608C212.62 59.2709 211.976 60.1753 211.541 61.3211C211.115 62.4669 210.902 63.7595 210.902 65.1989C210.902 66.6573 211.119 67.9688 211.555 69.1336C211.991 70.2984 212.634 71.2217 213.487 71.9035C214.349 72.5758 215.409 72.912 216.669 72.912ZM245.624 67.0597V54.2898H249.885V76.108H245.709V72.3296H245.482C244.98 73.4944 244.175 74.465 243.067 75.2416C241.968 76.0086 240.6 76.3921 238.962 76.3921C237.56 76.3921 236.32 76.0844 235.24 75.4688C234.17 74.8438 233.327 73.9205 232.712 72.6989C232.106 71.4774 231.803 69.9669 231.803 68.1677V54.2898H236.05V67.6563C236.05 69.1431 236.462 70.3268 237.285 71.2075C238.109 72.0881 239.179 72.5285 240.496 72.5285C241.291 72.5285 242.082 72.3296 242.868 71.9319C243.663 71.5342 244.321 70.9328 244.842 70.1279C245.373 69.323 245.633 68.3003 245.624 67.0597ZM263.982 76.5484C261.87 76.5484 260.052 76.0702 258.527 75.1137C257.012 74.1478 255.847 72.8173 255.033 71.1222C254.219 69.4272 253.811 67.4859 253.811 65.2984C253.811 63.0825 254.228 61.127 255.061 59.4319C255.895 57.7273 257.069 56.3969 258.584 55.4404C260.099 54.484 261.884 54.0058 263.939 54.0058C265.597 54.0058 267.074 54.3135 268.371 54.9291C269.668 55.5351 270.715 56.3874 271.51 57.4859C272.315 58.5844 272.793 59.8675 272.945 61.3353H268.811C268.584 60.3126 268.063 59.4319 267.249 58.6933C266.444 57.9546 265.365 57.5853 264.01 57.5853C262.827 57.5853 261.79 57.8978 260.9 58.5228C260.019 59.1383 259.332 60.019 258.84 61.1648C258.347 62.3012 258.101 63.6459 258.101 65.1989C258.101 66.7899 258.343 68.163 258.826 69.3183C259.309 70.4736 259.99 71.3684 260.871 72.0029C261.761 72.6374 262.808 72.9546 264.01 72.9546C264.815 72.9546 265.544 72.8078 266.198 72.5143C266.861 72.2113 267.415 71.7804 267.86 71.2217C268.314 70.663 268.632 69.9906 268.811 69.2046H272.945C272.793 70.6156 272.334 71.8751 271.567 72.983C270.8 74.091 269.773 74.9622 268.485 75.5967C267.206 76.2311 265.705 76.5484 263.982 76.5484ZM286.09 76.5484C283.941 76.5484 282.089 76.0891 280.536 75.1705C278.993 74.2425 277.8 72.9404 276.957 71.2643C276.123 69.5787 275.707 67.6042 275.707 65.341C275.707 63.1061 276.123 61.1364 276.957 59.4319C277.8 57.7273 278.974 56.3969 280.48 55.4404C281.995 54.484 283.765 54.0058 285.792 54.0058C287.023 54.0058 288.216 54.2094 289.372 54.6166C290.527 55.0238 291.564 55.663 292.482 56.5342C293.401 57.4054 294.125 58.537 294.656 59.9291C295.186 61.3116 295.451 62.9925 295.451 64.9717V66.4774H278.107V63.2955H291.289C291.289 62.1781 291.062 61.1885 290.607 60.3268C290.153 59.4556 289.514 58.769 288.69 58.2671C287.875 57.7652 286.919 57.5143 285.82 57.5143C284.627 57.5143 283.586 57.8078 282.695 58.395C281.815 58.9726 281.133 59.7302 280.65 60.6677C280.176 61.5957 279.94 62.6042 279.94 63.6933V66.1791C279.94 67.6374 280.195 68.8779 280.707 69.9006C281.228 70.9234 281.952 71.7046 282.88 72.2444C283.808 72.7747 284.892 73.0399 286.133 73.0399C286.938 73.0399 287.672 72.9262 288.335 72.6989C288.998 72.4622 289.57 72.1118 290.053 71.6478C290.536 71.1838 290.906 70.6109 291.161 69.9291L295.181 70.6535C294.859 71.8372 294.282 72.8741 293.448 73.7643C292.624 74.645 291.587 75.3315 290.337 75.8239C289.097 76.3069 287.681 76.5484 286.09 76.5484ZM164.909 95.0171V124.108H160.52V95.0171H164.909ZM174.407 111.153V124.108H170.16V102.29H174.237V105.841H174.507C175.009 104.686 175.795 103.758 176.865 103.057C177.944 102.356 179.303 102.006 180.942 102.006C182.428 102.006 183.73 102.318 184.848 102.943C185.965 103.559 186.832 104.477 187.447 105.699C188.063 106.921 188.371 108.431 188.371 110.23V124.108H184.123V110.742C184.123 109.16 183.711 107.924 182.888 107.034C182.064 106.135 180.932 105.685 179.493 105.685C178.508 105.685 177.632 105.898 176.865 106.324C176.107 106.75 175.506 107.375 175.061 108.199C174.625 109.013 174.407 109.998 174.407 111.153ZM202.67 124.548C200.52 124.548 198.669 124.089 197.116 123.171C195.572 122.243 194.379 120.94 193.536 119.264C192.703 117.579 192.286 115.604 192.286 113.341C192.286 111.106 192.703 109.136 193.536 107.432C194.379 105.727 195.554 104.397 197.059 103.44C198.574 102.484 200.345 102.006 202.372 102.006C203.603 102.006 204.796 102.209 205.951 102.617C207.107 103.024 208.143 103.663 209.062 104.534C209.981 105.405 210.705 106.537 211.235 107.929C211.766 109.312 212.031 110.993 212.031 112.972V114.477H194.687V111.296H207.869C207.869 110.178 207.642 109.189 207.187 108.327C206.732 107.456 206.093 106.769 205.269 106.267C204.455 105.765 203.499 105.514 202.4 105.514C201.207 105.514 200.165 105.808 199.275 106.395C198.394 106.973 197.713 107.73 197.23 108.668C196.756 109.596 196.519 110.604 196.519 111.693V114.179C196.519 115.637 196.775 116.878 197.286 117.901C197.807 118.923 198.532 119.705 199.46 120.244C200.388 120.775 201.472 121.04 202.713 121.04C203.518 121.04 204.251 120.926 204.914 120.699C205.577 120.462 206.15 120.112 206.633 119.648C207.116 119.184 207.485 118.611 207.741 117.929L211.761 118.653C211.439 119.837 210.861 120.874 210.028 121.764C209.204 122.645 208.167 123.332 206.917 123.824C205.677 124.307 204.261 124.548 202.67 124.548ZM230.673 132.29V120.713H230.418C230.162 121.177 229.793 121.707 229.31 122.304C228.836 122.901 228.183 123.421 227.349 123.867C226.516 124.312 225.437 124.534 224.111 124.534C222.349 124.534 220.777 124.084 219.395 123.185C218.022 122.276 216.942 120.983 216.156 119.307C215.38 117.621 214.991 115.6 214.991 113.242C214.991 110.884 215.384 108.867 216.17 107.19C216.966 105.514 218.055 104.231 219.437 103.341C220.82 102.451 222.387 102.006 224.139 102.006C225.493 102.006 226.582 102.233 227.406 102.688C228.24 103.133 228.883 103.653 229.338 104.25C229.802 104.847 230.162 105.372 230.418 105.827H230.773V102.29H234.92V132.29H230.673ZM225.048 120.912C226.27 120.912 227.302 120.59 228.145 119.946C228.997 119.293 229.641 118.388 230.077 117.233C230.522 116.078 230.744 114.733 230.744 113.199C230.744 111.684 230.526 110.358 230.091 109.222C229.655 108.085 229.016 107.2 228.173 106.565C227.33 105.931 226.289 105.614 225.048 105.614C223.77 105.614 222.705 105.945 221.852 106.608C221 107.271 220.356 108.175 219.92 109.321C219.494 110.467 219.281 111.76 219.281 113.199C219.281 114.657 219.499 115.969 219.935 117.134C220.37 118.298 221.014 119.222 221.866 119.903C222.728 120.576 223.789 120.912 225.048 120.912ZM253.652 115.06V102.29H257.913V124.108H253.737V120.33H253.51C253.008 121.494 252.203 122.465 251.095 123.242C249.996 124.009 248.628 124.392 246.99 124.392C245.588 124.392 244.348 124.084 243.268 123.469C242.198 122.844 241.355 121.921 240.74 120.699C240.134 119.477 239.831 117.967 239.831 116.168V102.29H244.078V115.656C244.078 117.143 244.49 118.327 245.314 119.207C246.137 120.088 247.208 120.528 248.524 120.528C249.319 120.528 250.11 120.33 250.896 119.932C251.691 119.534 252.35 118.933 252.87 118.128C253.401 117.323 253.661 116.3 253.652 115.06ZM269.169 124.591C267.787 124.591 266.537 124.335 265.419 123.824C264.302 123.303 263.416 122.55 262.763 121.565C262.119 120.581 261.797 119.373 261.797 117.943C261.797 116.712 262.034 115.699 262.507 114.903C262.981 114.108 263.62 113.478 264.425 113.014C265.23 112.55 266.129 112.2 267.124 111.963C268.118 111.726 269.131 111.546 270.163 111.423C271.47 111.272 272.531 111.149 273.345 111.054C274.16 110.95 274.752 110.784 275.121 110.557C275.49 110.33 275.675 109.96 275.675 109.449V109.35C275.675 108.109 275.324 107.148 274.624 106.466C273.932 105.784 272.9 105.443 271.527 105.443C270.097 105.443 268.97 105.76 268.146 106.395C267.332 107.02 266.769 107.716 266.456 108.483L262.465 107.574C262.938 106.248 263.629 105.178 264.538 104.364C265.457 103.54 266.513 102.943 267.706 102.574C268.899 102.195 270.154 102.006 271.47 102.006C272.341 102.006 273.265 102.11 274.24 102.318C275.225 102.517 276.144 102.886 276.996 103.426C277.858 103.966 278.563 104.738 279.112 105.742C279.662 106.736 279.936 108.028 279.936 109.619V124.108H275.788V121.125H275.618C275.343 121.674 274.931 122.214 274.382 122.744C273.833 123.275 273.127 123.715 272.266 124.065C271.404 124.416 270.372 124.591 269.169 124.591ZM270.092 121.182C271.267 121.182 272.27 120.95 273.104 120.486C273.947 120.022 274.586 119.416 275.021 118.668C275.466 117.91 275.689 117.1 275.689 116.239V113.426C275.538 113.578 275.244 113.72 274.808 113.852C274.382 113.975 273.895 114.084 273.345 114.179C272.796 114.264 272.261 114.345 271.74 114.421C271.219 114.487 270.784 114.544 270.433 114.591C269.609 114.695 268.857 114.87 268.175 115.117C267.502 115.363 266.963 115.718 266.556 116.182C266.158 116.636 265.959 117.243 265.959 118C265.959 119.051 266.347 119.847 267.124 120.386C267.9 120.917 268.89 121.182 270.092 121.182ZM289.04 95.0171V124.108H284.793V95.0171H289.04ZM293.954 124.108V102.29H298.201V124.108H293.954ZM296.099 98.9234C295.36 98.9234 294.726 98.6772 294.196 98.1847C293.675 97.6828 293.414 97.0863 293.414 96.395C293.414 95.6942 293.675 95.0976 294.196 94.6052C294.726 94.1033 295.36 93.8523 296.099 93.8523C296.838 93.8523 297.467 94.1033 297.988 94.6052C298.518 95.0976 298.784 95.6942 298.784 96.395C298.784 97.0863 298.518 97.6828 297.988 98.1847C297.467 98.6772 296.838 98.9234 296.099 98.9234ZM313.3 102.29V105.699H301.382V102.29H313.3ZM304.578 97.0626H308.825V117.702C308.825 118.526 308.948 119.146 309.195 119.563C309.441 119.97 309.758 120.249 310.146 120.401C310.544 120.543 310.975 120.614 311.439 120.614C311.78 120.614 312.078 120.59 312.334 120.543C312.589 120.495 312.788 120.457 312.93 120.429L313.697 123.938C313.451 124.032 313.101 124.127 312.646 124.222C312.192 124.326 311.624 124.383 310.942 124.392C309.824 124.411 308.783 124.212 307.817 123.796C306.851 123.379 306.07 122.735 305.473 121.864C304.876 120.993 304.578 119.899 304.578 118.582V97.0626ZM317.198 124.108V102.29H321.445V124.108H317.198ZM319.343 98.9234C318.604 98.9234 317.97 98.6772 317.439 98.1847C316.918 97.6828 316.658 97.0863 316.658 96.395C316.658 95.6942 316.918 95.0976 317.439 94.6052C317.97 94.1033 318.604 93.8523 319.343 93.8523C320.081 93.8523 320.711 94.1033 321.232 94.6052C321.762 95.0976 322.027 95.6942 322.027 96.395C322.027 97.0863 321.762 97.6828 321.232 98.1847C320.711 98.6772 320.081 98.9234 319.343 98.9234ZM335.762 124.548C333.613 124.548 331.761 124.089 330.208 123.171C328.665 122.243 327.471 120.94 326.629 119.264C325.795 117.579 325.379 115.604 325.379 113.341C325.379 111.106 325.795 109.136 326.629 107.432C327.471 105.727 328.646 104.397 330.151 103.44C331.667 102.484 333.437 102.006 335.464 102.006C336.695 102.006 337.888 102.209 339.043 102.617C340.199 103.024 341.236 103.663 342.154 104.534C343.073 105.405 343.797 106.537 344.328 107.929C344.858 109.312 345.123 110.993 345.123 112.972V114.477H327.779V111.296H340.961C340.961 110.178 340.734 109.189 340.279 108.327C339.825 107.456 339.185 106.769 338.362 106.267C337.547 105.765 336.591 105.514 335.492 105.514C334.299 105.514 333.257 105.808 332.367 106.395C331.487 106.973 330.805 107.73 330.322 108.668C329.848 109.596 329.612 110.604 329.612 111.693V114.179C329.612 115.637 329.867 116.878 330.379 117.901C330.899 118.923 331.624 119.705 332.552 120.244C333.48 120.775 334.564 121.04 335.805 121.04C336.61 121.04 337.344 120.926 338.007 120.699C338.669 120.462 339.242 120.112 339.725 119.648C340.208 119.184 340.578 118.611 340.833 117.929L344.853 118.653C344.531 119.837 343.953 120.874 343.12 121.764C342.296 122.645 341.259 123.332 340.009 123.824C338.769 124.307 337.353 124.548 335.762 124.548ZM365.385 107.617L361.535 108.298C361.374 107.806 361.119 107.337 360.768 106.892C360.427 106.447 359.963 106.082 359.376 105.798C358.789 105.514 358.055 105.372 357.175 105.372C355.972 105.372 354.968 105.642 354.163 106.182C353.358 106.712 352.956 107.399 352.956 108.242C352.956 108.971 353.226 109.558 353.765 110.003C354.305 110.448 355.176 110.813 356.379 111.097L359.845 111.892C361.853 112.356 363.349 113.071 364.334 114.037C365.318 115.003 365.811 116.258 365.811 117.801C365.811 119.108 365.432 120.273 364.675 121.296C363.926 122.309 362.88 123.104 361.535 123.682C360.2 124.26 358.652 124.548 356.89 124.548C354.447 124.548 352.454 124.028 350.91 122.986C349.367 121.935 348.42 120.443 348.069 118.511L352.175 117.886C352.43 118.957 352.956 119.766 353.751 120.315C354.547 120.855 355.584 121.125 356.862 121.125C358.254 121.125 359.367 120.836 360.2 120.259C361.033 119.671 361.45 118.957 361.45 118.114C361.45 117.432 361.194 116.859 360.683 116.395C360.181 115.931 359.409 115.581 358.368 115.344L354.675 114.534C352.639 114.07 351.133 113.332 350.157 112.318C349.192 111.305 348.709 110.022 348.709 108.469C348.709 107.181 349.068 106.054 349.788 105.088C350.508 104.122 351.502 103.369 352.771 102.83C354.04 102.28 355.494 102.006 357.132 102.006C359.49 102.006 361.346 102.517 362.7 103.54C364.054 104.553 364.949 105.912 365.385 107.617Z" fill="white"/>
<path fill-rule="evenodd" clip-rule="evenodd" d="M239.551 274.818C240.009 274.818 240.368 275.227 240.368 275.723V298.102C240.368 298.606 240.009 299.01 239.551 299.01H165.089C164.643 299.01 164.28 298.606 164.28 298.102V275.723C164.28 275.227 164.643 274.818 165.089 274.818H239.551ZM239.551 227.202C240.009 227.202 240.368 227.61 240.368 228.106V250.485C240.368 250.989 240.009 251.393 239.551 251.393H165.089C164.643 251.393 164.28 250.989 164.28 250.485V228.106C164.28 227.61 164.643 227.202 165.089 227.202H239.551ZM238.505 193.377C238.893 193.764 238.618 194.431 238.068 194.431H166.584C166.034 194.431 165.759 193.764 166.151 193.377L201.889 157.635C202.13 157.393 202.522 157.393 202.764 157.635L238.505 193.377ZM272.055 299.285C271.668 299.673 271.001 299.398 271.001 298.848V227.364C271.001 226.814 271.668 226.539 272.055 226.931L307.797 262.668C308.039 262.91 308.039 263.302 307.797 263.543L272.055 299.285ZM166.147 332.839C165.759 332.452 166.034 331.785 166.584 331.785H238.068C238.618 331.785 238.893 332.452 238.501 332.839L202.759 368.581C202.522 368.823 202.13 368.823 201.889 368.581L166.147 332.839ZM132.593 226.927C132.98 226.539 133.647 226.814 133.647 227.364V298.848C133.647 299.398 132.98 299.673 132.593 299.281L96.8512 263.539C96.6095 263.302 96.6095 262.91 96.8512 262.668L132.593 226.927Z" fill="white"/>
</svg>
