<svg width="404" height="405" viewBox="0 0 404 405" fill="none" xmlns="http://www.w3.org/2000/svg">
<rect y="0.108032" width="404" height="404" rx="40" fill="#026C7C"/>
<path d="M103.256 97.744C103.256 101.328 102.584 104.688 101.24 107.824C99.96 110.96 98.168 113.712 95.864 116.08C93.56 118.384 90.84 120.208 87.704 121.552C84.632 122.896 81.336 123.568 77.816 123.568C74.168 123.568 70.808 122.768 67.736 121.168C64.664 119.504 62.008 117.2 59.768 114.256C57.592 111.312 55.896 107.824 54.68 103.792C53.464 99.696 52.856 95.184 52.856 90.256C52.856 84.432 53.656 78.96 55.256 73.84C56.856 68.656 59.032 64.144 61.784 60.304C64.536 56.4 67.768 53.328 71.48 51.088C75.192 48.848 79.128 47.728 83.288 47.728C85.592 47.728 87.736 47.984 89.72 48.496C91.768 49.008 93.528 49.712 95 50.608C96.536 51.44 97.72 52.464 98.552 53.68C99.448 54.896 99.896 56.176 99.896 57.52C99.896 59.056 99.416 60.272 98.456 61.168C97.56 62.064 96.312 62.512 94.712 62.512C92.856 62.512 91.512 61.968 90.68 60.88C89.912 59.792 89.176 58.608 88.472 57.328C87.768 55.984 86.872 54.768 85.784 53.68C84.696 52.592 82.936 52.048 80.504 52.048C78.264 52.048 76.216 52.816 74.36 54.352C72.504 55.888 70.872 58 69.464 60.688C68.056 63.376 66.968 66.576 66.2 70.288C65.432 74 65.048 78 65.048 82.288L65.336 82.48C67.384 79.472 69.592 77.296 71.96 75.952C74.392 74.544 77.24 73.84 80.504 73.84C83.768 73.84 86.776 74.448 89.528 75.664C92.28 76.88 94.68 78.576 96.728 80.752C98.776 82.864 100.376 85.392 101.528 88.336C102.68 91.216 103.256 94.352 103.256 97.744ZM64.856 95.44C64.856 111.312 69.304 119.248 78.2 119.248C82.616 119.248 85.88 117.552 87.992 114.16C90.168 110.704 91.256 105.36 91.256 98.128C91.256 91.728 90.232 86.864 88.184 83.536C86.136 80.208 83.128 78.544 79.16 78.544C76.216 78.544 73.624 79.504 71.384 81.424C69.144 83.344 66.968 86.448 64.856 90.736V95.44Z" fill="white"/>
<path d="M160.358 56.4773H155.926C155.756 55.5304 155.438 54.697 154.974 53.9773C154.51 53.2577 153.942 52.6469 153.27 52.145C152.598 51.6431 151.845 51.2643 151.011 51.0086C150.188 50.7529 149.312 50.6251 148.384 50.6251C146.707 50.6251 145.206 51.0465 143.881 51.8893C142.564 52.7321 141.523 53.9679 140.756 55.5967C139.998 57.2255 139.619 59.2141 139.619 61.5626C139.619 63.93 139.998 65.9281 140.756 67.5569C141.523 69.1857 142.569 70.4167 143.895 71.2501C145.221 72.0834 146.712 72.5001 148.369 72.5001C149.288 72.5001 150.159 72.377 150.983 72.1308C151.816 71.8751 152.569 71.501 153.241 71.0086C153.914 70.5162 154.482 69.9149 154.946 69.2046C155.42 68.4849 155.746 67.6611 155.926 66.733L160.358 66.7472C160.121 68.1772 159.662 69.4934 158.98 70.6961C158.308 71.8893 157.441 72.9215 156.381 73.7927C155.33 74.6544 154.127 75.322 152.773 75.7955C151.419 76.269 149.941 76.5058 148.341 76.5058C145.822 76.5058 143.578 75.9092 141.608 74.716C139.638 73.5133 138.085 71.7946 136.949 69.5597C135.822 67.3249 135.259 64.6592 135.259 61.5626C135.259 58.4565 135.827 55.7908 136.963 53.5654C138.099 51.3306 139.652 49.6166 141.622 48.4234C143.592 47.2207 145.831 46.6194 148.341 46.6194C149.884 46.6194 151.324 46.8419 152.659 47.287C154.004 47.7226 155.211 48.3666 156.281 49.2188C157.351 50.0616 158.237 51.0938 158.938 52.3154C159.638 53.5275 160.112 54.9148 160.358 56.4773ZM169.516 47.0171V76.108H165.269V47.0171H169.516ZM184.634 76.5484C182.484 76.5484 180.633 76.0891 179.08 75.1705C177.536 74.2425 176.343 72.9404 175.5 71.2643C174.667 69.5787 174.25 67.6042 174.25 65.341C174.25 63.1061 174.667 61.1364 175.5 59.4319C176.343 57.7273 177.517 56.3969 179.023 55.4404C180.538 54.484 182.309 54.0058 184.335 54.0058C185.566 54.0058 186.759 54.2094 187.915 54.6166C189.07 55.0238 190.107 55.663 191.026 56.5342C191.944 57.4054 192.669 58.537 193.199 59.9291C193.729 61.3116 193.994 62.9925 193.994 64.9717V66.4774H176.651V63.2955H189.832C189.832 62.1781 189.605 61.1885 189.151 60.3268C188.696 59.4556 188.057 58.769 187.233 58.2671C186.419 57.7652 185.462 57.5143 184.364 57.5143C183.17 57.5143 182.129 57.8078 181.239 58.395C180.358 58.9726 179.676 59.7302 179.193 60.6677C178.72 61.5957 178.483 62.6042 178.483 63.6933V66.1791C178.483 67.6374 178.739 68.8779 179.25 69.9006C179.771 70.9234 180.495 71.7046 181.423 72.2444C182.351 72.7747 183.436 73.0399 184.676 73.0399C185.481 73.0399 186.215 72.9262 186.878 72.6989C187.541 72.4622 188.114 72.1118 188.597 71.6478C189.08 71.1838 189.449 70.6109 189.705 69.9291L193.724 70.6535C193.402 71.8372 192.825 72.8741 191.991 73.7643C191.168 74.645 190.131 75.3315 188.881 75.8239C187.64 76.3069 186.224 76.5484 184.634 76.5484ZM205.056 76.591C203.674 76.591 202.424 76.3353 201.306 75.8239C200.189 75.3031 199.303 74.5503 198.65 73.5654C198.006 72.5806 197.684 71.3732 197.684 69.9433C197.684 68.7122 197.921 67.6989 198.394 66.9035C198.868 66.108 199.507 65.4783 200.312 65.0143C201.117 64.5503 202.016 64.1999 203.011 63.9631C204.005 63.7264 205.018 63.5465 206.05 63.4234C207.357 63.2719 208.418 63.1488 209.232 63.0541C210.047 62.9499 210.638 62.7842 211.008 62.5569C211.377 62.3296 211.562 61.9603 211.562 61.4489V61.3495C211.562 60.109 211.211 59.1478 210.511 58.466C209.819 57.7842 208.787 57.4433 207.414 57.4433C205.984 57.4433 204.857 57.7605 204.033 58.395C203.219 59.02 202.656 59.716 202.343 60.483L198.352 59.5739C198.825 58.2482 199.516 57.1781 200.425 56.3637C201.344 55.5398 202.4 54.9433 203.593 54.5739C204.786 54.1952 206.041 54.0058 207.357 54.0058C208.228 54.0058 209.152 54.1099 210.127 54.3183C211.112 54.5171 212.031 54.8864 212.883 55.4262C213.745 55.966 214.45 56.7378 214.999 57.7416C215.549 58.7359 215.823 60.0285 215.823 61.6194V76.108H211.675V73.1251H211.505C211.23 73.6743 210.818 74.2141 210.269 74.7444C209.72 75.2747 209.014 75.715 208.153 76.0654C207.291 76.4158 206.259 76.591 205.056 76.591ZM205.979 73.1819C207.154 73.1819 208.157 72.9499 208.991 72.4859C209.834 72.0219 210.473 71.4158 210.908 70.6677C211.353 69.9101 211.576 69.1005 211.576 68.2387V65.4262C211.424 65.5777 211.131 65.7198 210.695 65.8523C210.269 65.9755 209.781 66.0844 209.232 66.1791C208.683 66.2643 208.148 66.3448 207.627 66.4205C207.106 66.4868 206.671 66.5436 206.32 66.591C205.496 66.6952 204.744 66.8703 204.062 67.1166C203.389 67.3628 202.85 67.7179 202.442 68.1819C202.045 68.6364 201.846 69.2425 201.846 70.0001C201.846 71.0512 202.234 71.8467 203.011 72.3864C203.787 72.9167 204.777 73.1819 205.979 73.1819ZM225.727 63.1535V76.108H221.48V54.2898H225.557V57.841H225.827C226.329 56.6857 227.115 55.7577 228.185 55.0569C229.264 54.3561 230.623 54.0058 232.261 54.0058C233.748 54.0058 235.05 54.3183 236.168 54.9433C237.285 55.5588 238.152 56.4774 238.767 57.6989C239.383 58.9205 239.69 60.4309 239.69 62.2302V76.108H235.443V62.7416C235.443 61.1601 235.031 59.9243 234.207 59.0342C233.384 58.1345 232.252 57.6847 230.812 57.6847C229.828 57.6847 228.952 57.8978 228.185 58.3239C227.427 58.7501 226.826 59.3751 226.381 60.1989C225.945 61.0133 225.727 61.9982 225.727 63.1535ZM141.892 124.108L133.824 95.0171H138.44L144.108 117.546H144.378L150.273 95.0171H154.847L160.741 117.56H161.011L166.665 95.0171H171.295L163.213 124.108H158.795L152.673 102.318H152.446L146.324 124.108H141.892ZM179.158 124.591C177.775 124.591 176.525 124.335 175.408 123.824C174.29 123.303 173.405 122.55 172.751 121.565C172.107 120.581 171.786 119.373 171.786 117.943C171.786 116.712 172.022 115.699 172.496 114.903C172.969 114.108 173.608 113.478 174.413 113.014C175.218 112.55 176.118 112.2 177.112 111.963C178.107 111.726 179.12 111.546 180.152 111.423C181.459 111.272 182.519 111.149 183.334 111.054C184.148 110.95 184.74 110.784 185.109 110.557C185.479 110.33 185.663 109.96 185.663 109.449V109.35C185.663 108.109 185.313 107.148 184.612 106.466C183.921 105.784 182.889 105.443 181.516 105.443C180.086 105.443 178.959 105.76 178.135 106.395C177.321 107.02 176.757 107.716 176.445 108.483L172.453 107.574C172.927 106.248 173.618 105.178 174.527 104.364C175.446 103.54 176.501 102.943 177.695 102.574C178.888 102.195 180.143 102.006 181.459 102.006C182.33 102.006 183.253 102.11 184.229 102.318C185.214 102.517 186.132 102.886 186.984 103.426C187.846 103.966 188.552 104.738 189.101 105.742C189.65 106.736 189.925 108.028 189.925 109.619V124.108H185.777V121.125H185.607C185.332 121.674 184.92 122.214 184.371 122.744C183.821 123.275 183.116 123.715 182.254 124.065C181.393 124.416 180.36 124.591 179.158 124.591ZM180.081 121.182C181.255 121.182 182.259 120.95 183.092 120.486C183.935 120.022 184.574 119.416 185.01 118.668C185.455 117.91 185.678 117.1 185.678 116.239V113.426C185.526 113.578 185.232 113.72 184.797 113.852C184.371 113.975 183.883 114.084 183.334 114.179C182.785 114.264 182.25 114.345 181.729 114.421C181.208 114.487 180.772 114.544 180.422 114.591C179.598 114.695 178.845 114.87 178.163 115.117C177.491 115.363 176.951 115.718 176.544 116.182C176.146 116.636 175.947 117.243 175.947 118C175.947 119.051 176.336 119.847 177.112 120.386C177.889 120.917 178.878 121.182 180.081 121.182ZM205.766 102.29V105.699H193.849V102.29H205.766ZM197.045 97.0626H201.292V117.702C201.292 118.526 201.415 119.146 201.661 119.563C201.907 119.97 202.225 120.249 202.613 120.401C203.011 120.543 203.442 120.614 203.906 120.614C204.246 120.614 204.545 120.59 204.8 120.543C205.056 120.495 205.255 120.457 205.397 120.429L206.164 123.938C205.918 124.032 205.567 124.127 205.113 124.222C204.658 124.326 204.09 124.383 203.408 124.392C202.291 124.411 201.249 124.212 200.283 123.796C199.317 123.379 198.536 122.735 197.94 121.864C197.343 120.993 197.045 119.899 197.045 118.582V97.0626ZM219.634 124.548C217.484 124.548 215.633 124.089 214.08 123.171C212.536 122.243 211.343 120.94 210.5 119.264C209.667 117.579 209.25 115.604 209.25 113.341C209.25 111.106 209.667 109.136 210.5 107.432C211.343 105.727 212.517 104.397 214.023 103.44C215.538 102.484 217.309 102.006 219.335 102.006C220.566 102.006 221.759 102.209 222.915 102.617C224.07 103.024 225.107 103.663 226.026 104.534C226.944 105.405 227.669 106.537 228.199 107.929C228.729 109.312 228.994 110.993 228.994 112.972V114.477H211.651V111.296H224.832C224.832 110.178 224.605 109.189 224.151 108.327C223.696 107.456 223.057 106.769 222.233 106.267C221.419 105.765 220.462 105.514 219.364 105.514C218.17 105.514 217.129 105.808 216.239 106.395C215.358 106.973 214.676 107.73 214.193 108.668C213.72 109.596 213.483 110.604 213.483 111.693V114.179C213.483 115.637 213.739 116.878 214.25 117.901C214.771 118.923 215.495 119.705 216.423 120.244C217.351 120.775 218.436 121.04 219.676 121.04C220.481 121.04 221.215 120.926 221.878 120.699C222.541 120.462 223.114 120.112 223.597 119.648C224.08 119.184 224.449 118.611 224.705 117.929L228.724 118.653C228.402 119.837 227.825 120.874 226.991 121.764C226.168 122.645 225.131 123.332 223.881 123.824C222.64 124.307 221.224 124.548 219.634 124.548ZM233.707 124.108V102.29H237.812V105.756H238.039C238.437 104.582 239.138 103.658 240.141 102.986C241.155 102.304 242.3 101.963 243.579 101.963C243.844 101.963 244.156 101.973 244.516 101.992C244.886 102.01 245.174 102.034 245.383 102.063V106.125C245.212 106.078 244.909 106.026 244.474 105.969C244.038 105.903 243.603 105.869 243.167 105.869C242.163 105.869 241.268 106.082 240.482 106.509C239.706 106.925 239.09 107.508 238.636 108.256C238.181 108.994 237.954 109.837 237.954 110.784V124.108H233.707Z" fill="white"/>
<path d="M276.997 160.039C276.651 159.664 276.189 159.456 275.664 159.456H128.31C127.797 159.456 127.331 159.664 126.985 160.039C126.66 160.452 126.535 160.96 126.614 161.435L151.372 311.164C151.51 311.993 152.235 312.61 153.072 312.61H178.864C181.46 312.61 183.625 314.598 183.846 317.185L185.197 333.031C185.379 335.164 183.698 336.996 181.558 336.999C178.303 337.003 176.676 340.939 178.978 343.241L198.962 363.225C200.915 365.177 204.08 365.178 206.033 363.226L226.091 343.173C228.388 340.877 226.759 336.949 223.511 336.952C221.375 336.954 219.695 335.127 219.876 332.998L221.224 317.185C221.444 314.598 223.609 312.61 226.206 312.61H252.535C253.385 312.61 254.097 311.993 254.226 311.139L277.389 161.435C277.468 160.918 277.314 160.427 276.997 160.039ZM220.071 279.886C220.055 279.902 220.041 279.917 220.025 279.933C219.593 280.363 212.986 286.764 202.464 286.043C191.924 286.764 185.326 280.376 184.883 279.934C184.866 279.917 184.851 279.901 184.834 279.884C173.828 268.859 177.763 255.155 181.601 248.068C183.972 243.634 200.877 218.242 202.385 216C202.392 215.991 202.393 215.983 202.393 215.972V215.891C202.393 215.866 202.424 215.854 202.441 215.873C202.443 215.874 202.444 215.875 202.445 215.877C202.455 215.888 202.472 215.887 202.481 215.875C202.494 215.857 202.522 215.866 202.522 215.889V215.974C202.522 215.984 202.523 215.991 202.529 215.999C203.989 218.231 220.934 243.633 223.301 248.068C227.148 255.155 231.071 268.861 220.071 279.886ZM267.829 185.169C267.302 188.397 263.734 190.348 260.47 190.546C258.003 190.695 255.41 191.358 252.872 192.385C234.589 199.798 222.147 202.464 202.914 196.439C190.805 192.652 179.472 184.71 166.081 189.548C158.425 192.3 151.218 194.945 142.943 195.575C140.572 195.755 138.533 194.037 138.077 191.704L134.217 171.913C133.615 168.826 135.979 165.956 139.125 165.956H265.082C268.165 165.956 270.513 168.719 270.017 171.761L267.829 185.169Z" fill="white"/>
</svg>
