<svg width="405" height="405" viewBox="0 0 405 405" fill="none" xmlns="http://www.w3.org/2000/svg">
<rect x="0.216064" y="0.108032" width="404" height="404" rx="40" fill="#FFC914"/>
<path d="M52.6881 73.552C52.6881 69.968 53.3281 66.608 54.6081 63.472C55.9521 60.336 57.7761 57.616 60.0801 55.312C62.3841 52.944 65.0721 51.088 68.1441 49.744C71.2801 48.4 74.6081 47.728 78.1281 47.728C81.7761 47.728 85.1361 48.56 88.2081 50.224C91.2801 51.824 93.9041 54.096 96.0801 57.04C98.3201 59.984 100.048 63.504 101.264 67.6C102.48 71.696 103.088 76.176 103.088 81.04C103.088 86.864 102.288 92.368 100.688 97.552C99.0881 102.672 96.9121 107.184 94.1601 111.088C91.4081 114.928 88.1761 117.968 84.4641 120.208C80.7521 122.448 76.8161 123.568 72.6561 123.568C70.3521 123.568 68.1761 123.312 66.1281 122.8C64.1441 122.288 62.3841 121.616 60.8481 120.784C59.3761 119.888 58.1921 118.832 57.2961 117.616C56.4641 116.4 56.0481 115.12 56.0481 113.776C56.0481 112.24 56.4961 111.024 57.3921 110.128C58.3521 109.232 59.6321 108.784 61.2321 108.784C63.0881 108.784 64.4001 109.328 65.1681 110.416C66.0001 111.504 66.7681 112.72 67.4721 114.064C68.1761 115.344 69.0721 116.528 70.1601 117.616C71.2481 118.704 73.0081 119.248 75.4401 119.248C77.6161 119.248 79.6321 118.48 81.4881 116.944C83.4081 115.408 85.0721 113.296 86.4801 110.608C87.8881 107.92 88.9761 104.752 89.7441 101.104C90.5121 97.392 90.8961 93.36 90.8961 89.008L90.6081 88.816C88.5601 91.824 86.3201 94.032 83.8881 95.44C81.5201 96.784 78.7041 97.456 75.4401 97.456C72.1761 97.456 69.1681 96.848 66.4161 95.632C63.6641 94.416 61.2641 92.752 59.2161 90.64C57.1681 88.464 55.5681 85.936 54.4161 83.056C53.2641 80.112 52.6881 76.944 52.6881 73.552ZM91.0881 75.856C91.0881 59.984 86.6401 52.048 77.7441 52.048C73.3281 52.048 70.0321 53.776 67.8561 57.232C65.7441 60.624 64.6881 65.936 64.6881 73.168C64.6881 79.568 65.7121 84.432 67.7601 87.76C69.8081 91.088 72.8161 92.752 76.7841 92.752C79.7281 92.752 82.3201 91.792 84.5601 89.872C86.8001 87.952 88.9761 84.848 91.0881 80.56V75.856Z" fill="white"/>
<path d="M140.801 47.0171V76.108H136.412V47.0171H140.801ZM148.3 63.1535V76.108H144.052V54.2898H148.129V57.841H148.399C148.901 56.6857 149.687 55.7577 150.757 55.0569C151.837 54.3561 153.195 54.0058 154.834 54.0058C156.32 54.0058 157.623 54.3183 158.74 54.9433C159.857 55.5588 160.724 56.4774 161.339 57.6989C161.955 58.9205 162.263 60.4309 162.263 62.2302V76.108H158.015V62.7416C158.015 61.1601 157.604 59.9243 156.78 59.0342C155.956 58.1345 154.824 57.6847 153.385 57.6847C152.4 57.6847 151.524 57.8978 150.757 58.3239C149.999 58.7501 149.398 59.3751 148.953 60.1989C148.517 61.0133 148.3 61.9982 148.3 63.1535ZM169.406 63.1535V76.108H165.159V54.2898H169.235V57.841H169.505C170.007 56.6857 170.793 55.7577 171.863 55.0569C172.943 54.3561 174.302 54.0058 175.94 54.0058C177.427 54.0058 178.729 54.3183 179.846 54.9433C180.964 55.5588 181.83 56.4774 182.446 57.6989C183.061 58.9205 183.369 60.4309 183.369 62.2302V76.108H179.122V62.7416C179.122 61.1601 178.71 59.9243 177.886 59.0342C177.062 58.1345 175.93 57.6847 174.491 57.6847C173.506 57.6847 172.63 57.8978 171.863 58.3239C171.106 58.7501 170.504 59.3751 170.059 60.1989C169.624 61.0133 169.406 61.9982 169.406 63.1535ZM195.455 76.5484C193.41 76.5484 191.625 76.0796 190.1 75.1421C188.576 74.2046 187.392 72.8931 186.549 71.2075C185.706 69.5219 185.285 67.5522 185.285 65.2984C185.285 63.0351 185.706 61.0559 186.549 59.3609C187.392 57.6658 188.576 56.3495 190.1 55.412C191.625 54.4745 193.41 54.0058 195.455 54.0058C197.501 54.0058 199.286 54.4745 200.81 55.412C202.335 56.3495 203.519 57.6658 204.362 59.3609C205.204 61.0559 205.626 63.0351 205.626 65.2984C205.626 67.5522 205.204 69.5219 204.362 71.2075C203.519 72.8931 202.335 74.2046 200.81 75.1421C199.286 76.0796 197.501 76.5484 195.455 76.5484ZM195.469 72.983C196.795 72.983 197.894 72.6327 198.765 71.9319C199.636 71.2311 200.28 70.2984 200.697 69.1336C201.123 67.9688 201.336 66.6857 201.336 65.2842C201.336 63.8921 201.123 62.6137 200.697 61.4489C200.28 60.2747 199.636 59.3325 198.765 58.6222C197.894 57.912 196.795 57.5569 195.469 57.5569C194.134 57.5569 193.026 57.912 192.146 58.6222C191.274 59.3325 190.626 60.2747 190.2 61.4489C189.783 62.6137 189.575 63.8921 189.575 65.2842C189.575 66.6857 189.783 67.9688 190.2 69.1336C190.626 70.2984 191.274 71.2311 192.146 71.9319C193.026 72.6327 194.134 72.983 195.469 72.983ZM225.489 54.2898L217.577 76.108H213.032L205.106 54.2898H209.665L215.191 71.0796H215.418L220.929 54.2898H225.489ZM232.405 76.591C231.022 76.591 229.772 76.3353 228.655 75.8239C227.538 75.3031 226.652 74.5503 225.999 73.5654C225.355 72.5806 225.033 71.3732 225.033 69.9433C225.033 68.7122 225.27 67.6989 225.743 66.9035C226.217 66.108 226.856 65.4783 227.661 65.0143C228.466 64.5503 229.365 64.1999 230.36 63.9631C231.354 63.7264 232.367 63.5465 233.399 63.4234C234.706 63.2719 235.767 63.1488 236.581 63.0541C237.396 62.9499 237.987 62.7842 238.357 62.5569C238.726 62.3296 238.911 61.9603 238.911 61.4489V61.3495C238.911 60.109 238.56 59.1478 237.86 58.466C237.168 57.7842 236.136 57.4433 234.763 57.4433C233.333 57.4433 232.206 57.7605 231.382 58.395C230.568 59.02 230.004 59.716 229.692 60.483L225.7 59.5739C226.174 58.2482 226.865 57.1781 227.774 56.3637C228.693 55.5398 229.749 54.9433 230.942 54.5739C232.135 54.1952 233.39 54.0058 234.706 54.0058C235.577 54.0058 236.501 54.1099 237.476 54.3183C238.461 54.5171 239.379 54.8864 240.232 55.4262C241.093 55.966 241.799 56.7378 242.348 57.7416C242.897 58.7359 243.172 60.0285 243.172 61.6194V76.108H239.024V73.1251H238.854C238.579 73.6743 238.167 74.2141 237.618 74.7444C237.069 75.2747 236.363 75.715 235.502 76.0654C234.64 76.4158 233.608 76.591 232.405 76.591ZM233.328 73.1819C234.503 73.1819 235.506 72.9499 236.34 72.4859C237.182 72.0219 237.822 71.4158 238.257 70.6677C238.702 69.9101 238.925 69.1005 238.925 68.2387V65.4262C238.773 65.5777 238.48 65.7198 238.044 65.8523C237.618 65.9755 237.13 66.0844 236.581 66.1791C236.032 66.2643 235.497 66.3448 234.976 66.4205C234.455 66.4868 234.02 66.5436 233.669 66.591C232.845 66.6952 232.092 66.8703 231.411 67.1166C230.738 67.3628 230.199 67.7179 229.791 68.1819C229.394 68.6364 229.195 69.2425 229.195 70.0001C229.195 71.0512 229.583 71.8467 230.36 72.3864C231.136 72.9167 232.126 73.1819 233.328 73.1819ZM256.214 54.2898V57.6989H244.296V54.2898H256.214ZM247.492 49.0626H251.739V69.7018C251.739 70.5256 251.862 71.1459 252.109 71.5626C252.355 71.9698 252.672 72.2491 253.06 72.4006C253.458 72.5427 253.889 72.6137 254.353 72.6137C254.694 72.6137 254.992 72.59 255.248 72.5427C255.503 72.4953 255.702 72.4575 255.844 72.4291L256.611 75.9376C256.365 76.0323 256.015 76.127 255.56 76.2217C255.106 76.3258 254.538 76.3827 253.856 76.3921C252.738 76.4111 251.697 76.2122 250.731 75.7955C249.765 75.3789 248.984 74.7349 248.387 73.8637C247.79 72.9925 247.492 71.8988 247.492 70.5825V49.0626ZM258.112 76.108V54.2898H262.359V76.108H258.112ZM260.257 50.9234C259.518 50.9234 258.884 50.6772 258.353 50.1847C257.832 49.6828 257.572 49.0863 257.572 48.395C257.572 47.6942 257.832 47.0976 258.353 46.6052C258.884 46.1033 259.518 45.8523 260.257 45.8523C260.995 45.8523 261.625 46.1033 262.146 46.6052C262.676 47.0976 262.941 47.6942 262.941 48.395C262.941 49.0863 262.676 49.6828 262.146 50.1847C261.625 50.6772 260.995 50.9234 260.257 50.9234ZM274.463 76.5484C272.418 76.5484 270.633 76.0796 269.108 75.1421C267.583 74.2046 266.4 72.8931 265.557 71.2075C264.714 69.5219 264.293 67.5522 264.293 65.2984C264.293 63.0351 264.714 61.0559 265.557 59.3609C266.4 57.6658 267.583 56.3495 269.108 55.412C270.633 54.4745 272.418 54.0058 274.463 54.0058C276.509 54.0058 278.294 54.4745 279.818 55.412C281.343 56.3495 282.527 57.6658 283.369 59.3609C284.212 61.0559 284.634 63.0351 284.634 65.2984C284.634 67.5522 284.212 69.5219 283.369 71.2075C282.527 72.8931 281.343 74.2046 279.818 75.1421C278.294 76.0796 276.509 76.5484 274.463 76.5484ZM274.477 72.983C275.803 72.983 276.902 72.6327 277.773 71.9319C278.644 71.2311 279.288 70.2984 279.705 69.1336C280.131 67.9688 280.344 66.6857 280.344 65.2842C280.344 63.8921 280.131 62.6137 279.705 61.4489C279.288 60.2747 278.644 59.3325 277.773 58.6222C276.902 57.912 275.803 57.5569 274.477 57.5569C273.142 57.5569 272.034 57.912 271.153 58.6222C270.282 59.3325 269.634 60.2747 269.207 61.4489C268.791 62.6137 268.582 63.8921 268.582 65.2842C268.582 66.6857 268.791 67.9688 269.207 69.1336C269.634 70.2984 270.282 71.2311 271.153 71.9319C272.034 72.6327 273.142 72.983 274.477 72.983ZM290.821 63.1535V76.108H286.574V54.2898H290.651V57.841H290.921C291.423 56.6857 292.209 55.7577 293.279 55.0569C294.358 54.3561 295.717 54.0058 297.356 54.0058C298.842 54.0058 300.144 54.3183 301.262 54.9433C302.379 55.5588 303.246 56.4774 303.861 57.6989C304.477 58.9205 304.785 60.4309 304.785 62.2302V76.108H300.537V62.7416C300.537 61.1601 300.125 59.9243 299.302 59.0342C298.478 58.1345 297.346 57.6847 295.907 57.6847C294.922 57.6847 294.046 57.8978 293.279 58.3239C292.521 58.7501 291.92 59.3751 291.475 60.1989C291.039 61.0133 290.821 61.9982 290.821 63.1535ZM323.932 76.52C321.982 76.52 320.301 76.1649 318.89 75.4546C317.488 74.7444 316.409 73.7785 315.651 72.5569C314.894 71.3258 314.515 69.9338 314.515 68.3808C314.515 67.197 314.761 66.1459 315.253 65.2273C315.746 64.2993 316.432 63.4423 317.313 62.6563C318.194 61.8703 319.212 61.0796 320.367 60.2842L325.055 56.9745C325.85 56.4537 326.47 55.9044 326.915 55.3268C327.36 54.7397 327.583 54.0152 327.583 53.1535C327.583 52.4717 327.289 51.8183 326.702 51.1933C326.115 50.5683 325.329 50.2558 324.344 50.2558C323.663 50.2558 323.061 50.4215 322.54 50.7529C322.029 51.0844 321.627 51.5105 321.333 52.0313C321.049 52.5427 320.907 53.0825 320.907 53.6506C320.907 54.3135 321.087 54.9811 321.447 55.6535C321.816 56.3258 322.289 57.0219 322.867 57.7416C323.445 58.4518 324.051 59.1904 324.685 59.9575L338.194 76.108H333.393L322.214 62.9688C321.276 61.8609 320.405 60.8192 319.6 59.8438C318.795 58.859 318.142 57.8647 317.64 56.8609C317.147 55.8476 316.901 54.7539 316.901 53.5796C316.901 52.2444 317.204 51.0607 317.81 50.0285C318.426 48.9868 319.283 48.1724 320.381 47.5853C321.48 46.9982 322.768 46.7046 324.245 46.7046C325.741 46.7046 327.024 46.9982 328.094 47.5853C329.174 48.163 330.002 48.9347 330.58 49.9006C331.167 50.8571 331.461 51.9035 331.461 53.0398C331.461 54.4224 331.115 55.644 330.424 56.7046C329.742 57.7558 328.8 58.7217 327.597 59.6023L321.759 63.9063C320.623 64.7397 319.832 65.5635 319.387 66.3779C318.951 67.1828 318.734 67.8126 318.734 68.2671C318.734 69.1005 318.947 69.8722 319.373 70.5825C319.808 71.2927 320.414 71.8609 321.191 72.287C321.977 72.7131 322.895 72.9262 323.947 72.9262C325.026 72.9262 326.077 72.6942 327.1 72.2302C328.132 71.7567 329.065 71.0796 329.898 70.1989C330.741 69.3183 331.409 68.2624 331.901 67.0313C332.394 65.8003 332.64 64.4224 332.64 62.8978H336.475C336.475 64.7728 336.262 66.359 335.836 67.6563C335.41 68.9442 334.894 69.9953 334.288 70.8097C333.691 71.6147 333.127 72.2444 332.597 72.6989C332.427 72.8505 332.266 73.002 332.114 73.1535C331.963 73.305 331.802 73.4565 331.631 73.608C330.646 74.6024 329.453 75.3363 328.052 75.8097C326.66 76.2832 325.287 76.52 323.932 76.52ZM140.801 95.0171V124.108H136.412V95.0171H140.801ZM148.3 111.153V124.108H144.052V102.29H148.129V105.841H148.399C148.901 104.686 149.687 103.758 150.757 103.057C151.837 102.356 153.195 102.006 154.834 102.006C156.32 102.006 157.623 102.318 158.74 102.943C159.857 103.559 160.724 104.477 161.339 105.699C161.955 106.921 162.263 108.431 162.263 110.23V124.108H158.015V110.742C158.015 109.16 157.604 107.924 156.78 107.034C155.956 106.135 154.824 105.685 153.385 105.685C152.4 105.685 151.524 105.898 150.757 106.324C149.999 106.75 149.398 107.375 148.953 108.199C148.517 109.013 148.3 109.998 148.3 111.153ZM175.542 102.29V105.699H163.213V102.29H175.542ZM166.593 124.108V99.7614C166.593 98.3978 166.892 97.2662 167.488 96.3666C168.085 95.4575 168.876 94.7804 169.86 94.3353C170.845 93.8808 171.915 93.6535 173.071 93.6535C173.923 93.6535 174.652 93.7245 175.258 93.8666C175.864 93.9991 176.314 94.1222 176.608 94.2359L175.613 97.6734C175.414 97.6166 175.159 97.5503 174.846 97.4745C174.534 97.3893 174.155 97.3467 173.71 97.3467C172.678 97.3467 171.939 97.6023 171.494 98.1137C171.058 98.6251 170.84 99.3637 170.84 100.33V124.108H166.593ZM177.124 124.108V102.29H181.229V105.756H181.457C181.854 104.582 182.555 103.658 183.559 102.986C184.572 102.304 185.718 101.963 186.996 101.963C187.262 101.963 187.574 101.973 187.934 101.992C188.303 102.01 188.592 102.034 188.8 102.063V106.125C188.63 106.078 188.327 106.026 187.891 105.969C187.456 105.903 187.02 105.869 186.585 105.869C185.581 105.869 184.686 106.082 183.9 106.509C183.123 106.925 182.508 107.508 182.053 108.256C181.599 108.994 181.371 109.837 181.371 110.784V124.108H177.124ZM195.83 124.591C194.447 124.591 193.197 124.335 192.08 123.824C190.963 123.303 190.077 122.55 189.424 121.565C188.78 120.581 188.458 119.373 188.458 117.943C188.458 116.712 188.695 115.699 189.168 114.903C189.642 114.108 190.281 113.478 191.086 113.014C191.891 112.55 192.79 112.2 193.785 111.963C194.779 111.726 195.792 111.546 196.824 111.423C198.131 111.272 199.192 111.149 200.006 111.054C200.821 110.95 201.412 110.784 201.782 110.557C202.151 110.33 202.336 109.96 202.336 109.449V109.35C202.336 108.109 201.985 107.148 201.285 106.466C200.593 105.784 199.561 105.443 198.188 105.443C196.758 105.443 195.631 105.76 194.807 106.395C193.993 107.02 193.429 107.716 193.117 108.483L189.125 107.574C189.599 106.248 190.29 105.178 191.199 104.364C192.118 103.54 193.174 102.943 194.367 102.574C195.56 102.195 196.815 102.006 198.131 102.006C199.002 102.006 199.926 102.11 200.901 102.318C201.886 102.517 202.804 102.886 203.657 103.426C204.518 103.966 205.224 104.738 205.773 105.742C206.322 106.736 206.597 108.028 206.597 109.619V124.108H202.449V121.125H202.279C202.004 121.674 201.592 122.214 201.043 122.744C200.494 123.275 199.788 123.715 198.927 124.065C198.065 124.416 197.033 124.591 195.83 124.591ZM196.753 121.182C197.928 121.182 198.931 120.95 199.765 120.486C200.607 120.022 201.247 119.416 201.682 118.668C202.127 117.91 202.35 117.1 202.35 116.239V113.426C202.198 113.578 201.905 113.72 201.469 113.852C201.043 113.975 200.555 114.084 200.006 114.179C199.457 114.264 198.922 114.345 198.401 114.421C197.88 114.487 197.445 114.544 197.094 114.591C196.27 114.695 195.517 114.87 194.836 115.117C194.163 115.363 193.624 115.718 193.216 116.182C192.819 116.636 192.62 117.243 192.62 118C192.62 119.051 193.008 119.847 193.785 120.386C194.561 120.917 195.551 121.182 196.753 121.182ZM225.803 107.617L221.954 108.298C221.793 107.806 221.537 107.337 221.187 106.892C220.846 106.447 220.382 106.082 219.795 105.798C219.208 105.514 218.474 105.372 217.593 105.372C216.391 105.372 215.387 105.642 214.582 106.182C213.777 106.712 213.374 107.399 213.374 108.242C213.374 108.971 213.644 109.558 214.184 110.003C214.724 110.448 215.595 110.813 216.798 111.097L220.264 111.892C222.271 112.356 223.767 113.071 224.752 114.037C225.737 115.003 226.23 116.258 226.23 117.801C226.23 119.108 225.851 120.273 225.093 121.296C224.345 122.309 223.299 123.104 221.954 123.682C220.619 124.26 219.07 124.548 217.309 124.548C214.866 124.548 212.873 124.028 211.329 122.986C209.785 121.935 208.838 120.443 208.488 118.511L212.593 117.886C212.849 118.957 213.374 119.766 214.17 120.315C214.965 120.855 216.002 121.125 217.281 121.125C218.673 121.125 219.785 120.836 220.619 120.259C221.452 119.671 221.869 118.957 221.869 118.114C221.869 117.432 221.613 116.859 221.102 116.395C220.6 115.931 219.828 115.581 218.786 115.344L215.093 114.534C213.057 114.07 211.552 113.332 210.576 112.318C209.61 111.305 209.127 110.022 209.127 108.469C209.127 107.181 209.487 106.054 210.207 105.088C210.927 104.122 211.921 103.369 213.19 102.83C214.459 102.28 215.912 102.006 217.551 102.006C219.909 102.006 221.765 102.517 223.119 103.54C224.473 104.553 225.368 105.912 225.803 107.617ZM238.284 102.29V105.699H226.366V102.29H238.284ZM229.562 97.0626H233.81V117.702C233.81 118.526 233.933 119.146 234.179 119.563C234.425 119.97 234.742 120.249 235.131 120.401C235.528 120.543 235.959 120.614 236.423 120.614C236.764 120.614 237.062 120.59 237.318 120.543C237.574 120.495 237.773 120.457 237.915 120.429L238.682 123.938C238.435 124.032 238.085 124.127 237.631 124.222C237.176 124.326 236.608 124.383 235.926 124.392C234.809 124.411 233.767 124.212 232.801 123.796C231.835 123.379 231.054 122.735 230.457 121.864C229.861 120.993 229.562 119.899 229.562 118.582V97.0626ZM240.182 124.108V102.29H244.287V105.756H244.515C244.912 104.582 245.613 103.658 246.617 102.986C247.63 102.304 248.776 101.963 250.054 101.963C250.319 101.963 250.632 101.973 250.992 101.992C251.361 102.01 251.65 102.034 251.858 102.063V106.125C251.688 106.078 251.385 106.026 250.949 105.969C250.514 105.903 250.078 105.869 249.642 105.869C248.639 105.869 247.744 106.082 246.958 106.509C246.181 106.925 245.566 107.508 245.111 108.256C244.657 108.994 244.429 109.837 244.429 110.784V124.108H240.182ZM266.555 115.06V102.29H270.816V124.108H266.64V120.33H266.413C265.911 121.494 265.106 122.465 263.998 123.242C262.899 124.009 261.531 124.392 259.893 124.392C258.491 124.392 257.251 124.084 256.171 123.469C255.101 122.844 254.258 121.921 253.643 120.699C253.037 119.477 252.734 117.967 252.734 116.168V102.29H256.981V115.656C256.981 117.143 257.393 118.327 258.217 119.207C259.04 120.088 260.111 120.528 261.427 120.528C262.222 120.528 263.013 120.33 263.799 119.932C264.594 119.534 265.253 118.933 265.773 118.128C266.304 117.323 266.564 116.3 266.555 115.06ZM282.913 124.548C280.801 124.548 278.983 124.07 277.459 123.114C275.943 122.148 274.779 120.817 273.964 119.122C273.15 117.427 272.743 115.486 272.743 113.298C272.743 111.082 273.159 109.127 273.993 107.432C274.826 105.727 276 104.397 277.515 103.44C279.031 102.484 280.816 102.006 282.87 102.006C284.528 102.006 286.005 102.314 287.302 102.929C288.6 103.535 289.646 104.387 290.441 105.486C291.246 106.584 291.725 107.868 291.876 109.335H287.743C287.515 108.313 286.995 107.432 286.18 106.693C285.375 105.955 284.296 105.585 282.941 105.585C281.758 105.585 280.721 105.898 279.831 106.523C278.95 107.138 278.263 108.019 277.771 109.165C277.279 110.301 277.032 111.646 277.032 113.199C277.032 114.79 277.274 116.163 277.757 117.318C278.24 118.474 278.922 119.368 279.802 120.003C280.692 120.637 281.739 120.955 282.941 120.955C283.746 120.955 284.476 120.808 285.129 120.514C285.792 120.211 286.346 119.78 286.791 119.222C287.245 118.663 287.563 117.991 287.743 117.205H291.876C291.725 118.616 291.265 119.875 290.498 120.983C289.731 122.091 288.704 122.962 287.416 123.597C286.138 124.231 284.637 124.548 282.913 124.548ZM303.803 102.29V105.699H291.885V102.29H303.803ZM295.081 97.0626H299.328V117.702C299.328 118.526 299.451 119.146 299.698 119.563C299.944 119.97 300.261 120.249 300.649 120.401C301.047 120.543 301.478 120.614 301.942 120.614C302.283 120.614 302.581 120.59 302.837 120.543C303.092 120.495 303.291 120.457 303.433 120.429L304.2 123.938C303.954 124.032 303.604 124.127 303.149 124.222C302.695 124.326 302.127 124.383 301.445 124.392C300.327 124.411 299.286 124.212 298.32 123.796C297.354 123.379 296.573 122.735 295.976 121.864C295.379 120.993 295.081 119.899 295.081 118.582V97.0626ZM319.522 115.06V102.29H323.783V124.108H319.607V120.33H319.38C318.878 121.494 318.073 122.465 316.965 123.242C315.867 124.009 314.498 124.392 312.86 124.392C311.458 124.392 310.218 124.084 309.138 123.469C308.068 122.844 307.225 121.921 306.61 120.699C306.004 119.477 305.701 117.967 305.701 116.168V102.29H309.948V115.656C309.948 117.143 310.36 118.327 311.184 119.207C312.008 120.088 313.078 120.528 314.394 120.528C315.189 120.528 315.98 120.33 316.766 119.932C317.562 119.534 318.22 118.933 318.741 118.128C319.271 117.323 319.531 116.3 319.522 115.06ZM326.69 124.108V102.29H330.795V105.756H331.022C331.42 104.582 332.121 103.658 333.125 102.986C334.138 102.304 335.284 101.963 336.562 101.963C336.827 101.963 337.14 101.973 337.5 101.992C337.869 102.01 338.158 102.034 338.366 102.063V106.125C338.196 106.078 337.893 106.026 337.457 105.969C337.021 105.903 336.586 105.869 336.15 105.869C335.146 105.869 334.251 106.082 333.465 106.509C332.689 106.925 332.073 107.508 331.619 108.256C331.164 108.994 330.937 109.837 330.937 110.784V124.108H326.69ZM347.864 124.548C345.714 124.548 343.863 124.089 342.31 123.171C340.766 122.243 339.573 120.94 338.73 119.264C337.897 117.579 337.48 115.604 337.48 113.341C337.48 111.106 337.897 109.136 338.73 107.432C339.573 105.727 340.747 104.397 342.253 103.44C343.768 102.484 345.539 102.006 347.565 102.006C348.796 102.006 349.99 102.209 351.145 102.617C352.3 103.024 353.337 103.663 354.256 104.534C355.174 105.405 355.899 106.537 356.429 107.929C356.959 109.312 357.224 110.993 357.224 112.972V114.477H339.881V111.296H353.063C353.063 110.178 352.835 109.189 352.381 108.327C351.926 107.456 351.287 106.769 350.463 106.267C349.649 105.765 348.692 105.514 347.594 105.514C346.401 105.514 345.359 105.808 344.469 106.395C343.588 106.973 342.906 107.73 342.423 108.668C341.95 109.596 341.713 110.604 341.713 111.693V114.179C341.713 115.637 341.969 116.878 342.48 117.901C343.001 118.923 343.725 119.705 344.653 120.244C345.581 120.775 346.666 121.04 347.906 121.04C348.711 121.04 349.445 120.926 350.108 120.699C350.771 120.462 351.344 120.112 351.827 119.648C352.31 119.184 352.679 118.611 352.935 117.929L356.955 118.653C356.633 119.837 356.055 120.874 355.222 121.764C354.398 122.645 353.361 123.332 352.111 123.824C350.87 124.307 349.455 124.548 347.864 124.548Z" fill="white"/>
<path d="M303.712 274.662L257.929 248.238C256.382 247.345 255.429 245.694 255.429 243.908V191.049C255.429 189.874 254.799 188.787 253.783 188.195L203.862 159.374C202.841 158.787 201.591 158.787 200.57 159.374L150.645 188.195C149.624 188.787 148.999 189.874 148.999 191.049V243.908C148.999 245.694 148.046 247.345 146.499 248.238L100.72 274.662C99.6995 275.249 99.0745 276.337 99.0745 277.516V335.17C99.0745 336.345 99.6995 337.433 100.72 338.024L150.645 366.841C151.158 367.133 151.72 367.283 152.291 367.283C152.862 367.283 153.429 367.133 153.937 366.841L199.716 340.417C201.263 339.524 203.169 339.524 204.716 340.417L250.487 366.841C250.999 367.133 251.566 367.283 252.133 367.283C252.704 367.283 253.27 367.133 253.783 366.841L303.712 338.024C304.733 337.437 305.358 336.345 305.358 335.17V277.516C305.358 276.337 304.733 275.249 303.712 274.662ZM198.924 320.806C198.924 324.655 194.758 327.06 191.424 325.136L166.378 310.675C163.045 308.75 163.044 303.939 166.377 302.015L191.424 287.551C194.757 285.626 198.924 288.032 198.924 291.881V320.806ZM238.047 244.368C241.38 246.293 241.379 251.104 238.046 253.028L213.007 267.482C209.674 269.407 205.508 267.001 205.508 263.152V234.236C205.508 230.387 209.675 227.981 213.008 229.907L238.047 244.368ZM198.924 263.153C198.924 267.002 194.758 269.407 191.425 267.483L166.38 253.029C163.046 251.104 163.045 246.293 166.379 244.368L191.424 229.905C194.757 227.981 198.924 230.386 198.924 234.235V263.153ZM216.302 281.847C212.969 279.922 212.97 275.111 216.303 273.187L249.633 253.946C251.18 253.053 253.085 253.053 254.632 253.946L287.975 273.186C291.31 275.11 291.31 279.922 287.976 281.847L254.633 301.097C253.086 301.991 251.18 301.99 249.633 301.097L216.302 281.847ZM248.841 234.333C248.841 238.182 244.674 240.588 241.34 238.663L216.301 224.201C212.968 222.276 212.969 217.465 216.302 215.541L241.341 201.084C244.674 199.159 248.841 201.565 248.841 205.414V234.333ZM188.128 215.541C191.462 217.465 191.462 222.276 188.129 224.201L163.083 238.664C159.75 240.589 155.583 238.183 155.583 234.334V205.413C155.583 201.564 159.749 199.158 163.082 201.083L188.128 215.541ZM148.999 349.624C148.999 353.472 144.833 355.878 141.5 353.954L108.163 334.713C106.615 333.82 105.662 332.169 105.662 330.383V291.881C105.662 288.032 109.829 285.626 113.162 287.551L146.5 306.802C148.047 307.695 148.999 309.345 148.999 311.132V349.624ZM163.082 353.954C159.749 355.878 155.583 353.472 155.583 349.624V320.71C155.583 316.861 159.749 314.455 163.083 316.379L188.127 330.839C191.461 332.764 191.461 337.576 188.127 339.5L163.082 353.954ZM298.77 330.383C298.77 332.169 297.817 333.82 296.269 334.713L262.928 353.955C259.594 355.878 255.429 353.473 255.429 349.624V311.132C255.429 309.345 256.381 307.695 257.928 306.802L291.27 287.551C294.603 285.626 298.77 288.032 298.77 291.881V330.383Z" fill="white"/>
</svg>
