<svg width="53" height="23" viewBox="0 0 53 23" fill="none" xmlns="http://www.w3.org/2000/svg">
<path d="M43.3968 22.2154C45.7781 22.2154 46.8989 21.2921 47.8778 18.4935L52.1667 6.2702H49.6835L46.8075 15.7269H46.7571L43.881 6.28301H41.3275L45.465 17.9171L45.2434 18.6248C45.0869 19.6377 44.192 20.3603 43.1846 20.2856C42.9924 20.2856 42.6195 20.2653 42.4682 20.245V22.1663C42.776 22.209 43.0869 22.2292 43.3968 22.2282V22.2154ZM35.1217 16.0941C33.8192 16.0941 32.9925 15.4537 32.9925 14.4845C32.9925 13.4802 33.7897 12.8953 35.3139 12.8024L38.0281 12.6284V13.5314C37.9683 15.0193 36.7319 16.1774 35.2677 16.1165C35.2183 16.1144 35.17 16.1101 35.1217 16.1058V16.0941ZM34.4662 17.9908C35.9441 18.0314 37.3265 17.249 38.0691 15.95H38.1195V17.8712H40.38V9.91414C40.38 7.60652 38.5639 6.1197 35.7677 6.1197C33.1742 6.1197 31.2562 7.6268 31.1858 9.69853H33.3864C33.649 8.64506 34.6343 7.95021 35.6973 8.06762C37.191 8.06762 38.0281 8.77527 38.0281 10.0774V10.9591L34.982 11.1437C32.1458 11.3177 30.6123 12.4971 30.6123 14.5486C30.6102 16.6288 32.1942 18.0025 34.4652 18.0025L34.4662 17.9908ZM21.3665 3.97326H24.1816C26.3014 3.97326 27.5125 5.12173 27.5125 7.14222C27.5125 9.16272 26.3014 10.3208 24.1722 10.3208H21.3665V3.97326ZM18.9243 1.88125V17.868H21.3665V12.4181H24.7478C27.502 12.5686 29.8539 10.4222 30.002 7.6236C30.0104 7.46457 30.0114 7.3066 30.0051 7.14756C30.1354 4.37992 28.0335 2.02961 25.3098 1.89619C25.1491 1.88872 24.9894 1.88979 24.8287 1.89726L18.9243 1.88125ZM10.8183 4.8645C9.41497 4.78231 8.21436 5.67462 7.5484 5.67462C6.88244 5.67462 5.85303 4.90612 4.74275 4.92747C3.27217 4.96589 1.93185 5.79309 1.22072 7.10167C-0.29292 9.74763 0.826819 13.6648 2.29004 15.8177C3.00642 16.885 3.86566 18.0538 4.99485 18.0121C6.06417 17.9716 6.48853 17.3045 7.78053 17.3045C9.07254 17.3045 9.45594 18.0121 10.5862 17.9908C11.7563 17.9705 12.4937 16.9234 13.2122 15.8561C13.7185 15.1004 14.1124 14.2732 14.3824 13.4012C13.0032 12.7885 12.1093 11.4084 12.1019 9.87891C12.1229 8.52978 12.8183 7.28525 13.9485 6.5776C13.228 5.538 12.0715 4.89972 10.8204 4.85489L10.8183 4.8645ZM9.94228 3.45239C9.32779 4.23903 8.38767 4.69052 7.39923 4.67237C7.33621 3.69254 7.66394 2.72872 8.30784 1.99652C8.94859 1.24084 9.85194 0.766932 10.8288 0.674072C10.8982 1.68165 10.5799 2.67642 9.94018 3.44919" fill="white"/>
</svg>
