<svg width="24" height="25" viewBox="0 0 24 25" fill="none" xmlns="http://www.w3.org/2000/svg">
<path d="M12 11.4104C10.913 9.29641 7.954 5.35741 5.202 3.41541C2.566 1.55441 1.561 1.87641 0.902 2.17541C0.139 2.51841 0 3.69041 0 4.37841C0 5.06841 0.378 10.0284 0.624 10.8574C1.439 13.5934 4.337 14.5174 7.007 14.2214C7.143 14.2014 7.282 14.1824 7.422 14.1654C7.284 14.1874 7.146 14.2054 7.007 14.2214C3.095 14.8014 -0.38 16.2264 4.177 21.2994C9.19 26.4894 11.047 20.1864 12 16.9914C12.953 20.1864 14.05 26.2624 19.733 21.2994C24 16.9914 20.905 14.8014 16.993 14.2214C16.8542 14.2061 16.7159 14.1874 16.578 14.1654C16.718 14.1824 16.857 14.2014 16.993 14.2214C19.663 14.5184 22.561 13.5934 23.376 10.8574C23.622 10.0294 24 5.06741 24 4.37941C24 3.68941 23.861 2.51841 23.098 2.17341C22.439 1.87541 21.434 1.55341 18.798 3.41341C16.046 5.35841 13.087 9.29741 12 11.4104Z" fill="#191923"/>
</svg>
