<?xml version="1.0" encoding="UTF-8"?>
<svg id="b" data-name="Layer 2" xmlns="http://www.w3.org/2000/svg" width="538.662" height="549.358" viewBox="0 0 538.662 549.358">
  <g id="c" data-name="Layer 1">
    <g>
      <path d="M400.086,502.352c9.25,2.379,19.81-5.679,28.787-3.067,1.014.373,2.21.878,1.569,1.859-.745.802-3.757,1.016-6.291,1.387-6.692.805-11.993,5.351-18.781,5.658-21.282.567-25.036-35.228-54.727-26.225-4.396,1.193-8.867,2.919-13.407,3.898-2.594.669-10.058,1.963-5.826,4.237,5.072,1.825,11.333,1.015,16.523,2.549,8.485,2.335,14.997,10.069,24.133,11.017,7.18,1.184,13.325,1.555,18.885,6.567,2.951,2.326,8.67,10.532,5.282,10.428-2.614-.08-6.339-5.408-8.71-7.012-4.521-4.062-12.168-3.574-18.128-5.367-2.783-.813-5.237-2.411-7.693-3.933-8.984-6.354-31.223-9.715-41.824-5.694-2.291,3.403,6.138,4.433,8.392,4.527,24.243-.586,19.019,6.684,36.369,16.89,2.97,2.064,12.634,4.803,13.282,8.145.097.499-.282.986-.79,1.009-3.925.177-9.246-5.604-12.645-1.634-1.171,1.833.468,5.759-.359,6.784-1.472,1.209-3.952-1.152-5.869-2.733-5.899-5.405-8.832-14.953-13.849-20.556-2.985-4.261-12.14-4.361-18.447-3.539-4.021.739-10.837-.551-13.338,2.612-2.155,6.046,7.715,11.896,11.381,15.768,4,3.331,13.859,14.03,8.18,17.077-1.318.249-3.349-1.197-5.174-1.872-4.576-1.836-5.276,3.039-8.789,4.623-4.164,1.352-3.647-3.939-3.809-6.309.198-8.104-9.446-21.007-18.096-21.371-5.517,1.046-9.276,11.838-10.495,17.622-.771,14.035-.25,13.66-16.082,13.66-5.571,0-2.022-4.668-.509-7.71,3.218-6.159,6.201-13.116,7.094-20.087,1.36-6.192-2.725-15.571-9.881-10.203-2.145,1.709-3.642,4.337-5.268,6.542-6.396,8.867-17.014,14.205-22.241,23.633-1.66,3.23-3.604,5.059-7.822,4.683-3.843-.342-5.865-.499-8.803-2.431-9.148-6.014-8.686-5.683-19.972-3.816-.963.055-1.423-.445-.3-1.231,1.958-1.348,3.325-1.626,5.698-2.121,7.211-1.095,13.799-4.066,20.696-6.223,8.437-1.671,15.856-1.853,17.9-12.156,2.871-19.595-27.834.961-36.418,1.775-9.291,2.442-19.712-.017-28.644,3.844-4.124,1.617-5.795,4.355-10.097,5.219-4.841.262-2.124-4.78-1.669-7.174,2.016-6.09-3.461-11.402-8.406-14.059-8.089-4.368-17.647-5.306-26.501-3.355-3,.621-4.737,1.692-7.795,1.401-4.277-.392-5.887-4.104-1.308-4.938,4.201-.673,7.097-.036,11.329-.16,7.803-.068,15.788-1.287,23.465.632,18.005,4.659,37.909,20.066,55.935,7.539,3.754-2.571,8.062-7.302,5.951-11.897-2.336-4.947-9.113-5.387-14.005-5.636-16.352-.615-32.685,1.362-49.619.302-13.034.528-27.853-8.877-39.45.317-2.377,1.928-10.035,7.619-6.629,1.517,2.695-3.965,6.066-6.731,10.769-8.416,5.208-1.864,10.039.574,15.065,1.198,4.507.528,13.058.652,4.079-3.459-9.943-5.869-11.383-3.972-21.647-2.774-5.793.575-13.31-1.777-18.286,2.028-1.896,1.323-2.185,2.253-4.171,3.174-.82.272-1.14-.65-.591-2.081,1.265-2.956,3.437-3.603,5.943-5.245,17.446-8.298,44.187,1.521,61.245,8.518,5.414,1.496,10.675-2.229,16.054-2.684,10.369.551,21.264,3.821,31.463.087,6.917-3.305-9.135-8.394-14.347-12.214-14.963-11.413-14.402-36.047-29.579-48.667-18.099-16.464-43.725-15.336-66.397-11.525-3.906.447-9.521,2.561-12.945.924-.347-.371-.055-.883.783-1.392,2.297-1.266,5.247-1.801,7.847-2.427,9.721-2.341,18.773-3.173,27.897-6.835,7.376-2.746,6.999-7.531,3.429-13.414-3.795-6.702-9.106-13.523-13.748-19.29-1.821-2.264-4.036-4.684-4.955-7.413-.7-2.653,2.069-1.393,3.177-.378,5.298,4.79,9.905,11.863,14.296,17.285,10.904,15.722,22.687,25.889,42.285,31.349,3.019.915,8.031,2.568,8.437-2.064.599-4.578-2.418-13.346-4.196-19.304-3.706-10.835.589-21.276,1.555-32.138.752-9.708-1.183-30.525-7.744-37.67-1.801-2.013-4.228-3.392-7.076-4.417-1.4-.568-3.742-1.269-4.172-2.535-.463-1.643,1.23-3.178,2.037-4.528,6.812-12.277-15.075-24.762-21.056-33.131-5.358-5.581-5.172-14.171-9.246-20.436-2.712-3.69-7.442-5.831-10.475-9.384-5.065-5.419-8.633-12.435-14.265-17.286-14.23-11.443-37.118-7.615-54.55-12.847-1.501-.618-2.592-1.441-2.548-2.114,1.309-2.338,7.222-.643,9.635-.457,14.473,2.496,35.521,3.778,47.436,10.943,5.952,2.739,19.918,24.036,23.278,8.714,1.343-25.292-5.085-43.844-15.351-66.783-1.016-2.358-1.906-4.499-1.873-5.817.002-1.794,1.466-1.668,2.801.445,1.965,3.305,2.204,5.627,4.027,9.667,1.636,2.686,2.639,8.078,6.307,3.679,5.424-11.879,10.262-28.011,15.273-40.41.551-1.53,1.392-3.187,2.346-4.326,1.271-1.416,2.286-.867,2.113,1.105-2.794,11.104-8.619,21.52-12.244,32.463-1.952,5.319-3.502,10.297-4.336,15.898-2.462,16.674,3.745,33.442,7.177,50.029,1.281,6.203,2.235,13.216,3.16,19.338,2.616,26.751,18.002,28.883,30.589,48.8,17.541,25.953,6.079,34.639,27.142,5.769,3.192-4.114,8.759-11.894,11.643-14.268,2.438-1.946,1.74.424.753,2.081-10.406,14.158-18.905,29.922-22.397,47.194-2.479,13.158-.531,34.902,15.324,16.655,3.068-2.322,1.804,1.917.987,3.332-3.638,7.573-9.19,13.132-10.784,21.575-1.579,20.546,3.804,37.444,15.56,53.469,6.417,7.889,6.894,19.188,14.93,25.76,4.486,3.626,10.025,5.784,14.916,8.748,12.673,8.38,28.361,19.506,43.674,17.199,6.307-.805,12.196-4.753,16.24-9.681,19.868-21.322,39.581-40.567,24.521-71.032-4.007-8.707-9.643-16.87-14.623-25.023-1.254-1.327-9.007-16.314-2.627-13.196,2.517,1.913,4.394,5.236,6.159,7.93,7.9,12.501,15.095,24.995,21.26,38.419,4.722,10.358,9.308,9.552,12.027-1.287,7.151-24.886,12.895-53.756,8.196-80.038-2.102-10.746-6.571-20.889-9.927-31.282-3.398-14.069-11.387-24.89-21.674-35.264-1.273-1.575-3.215-4.01-.315-5.021,3.401-.933,8.218-1.357,9.227-5.45,1.911-4.678,1.681-17.978,5.263-19.68.601.028,1.174.969,1.557,2.614,1.22,6.219.765,13.1,1.342,19.414,1.171,13.155,7.862,25.036,11.804,37.514,2.382,7.472,6.116,25.35,16.88,15.986,12.756-11.437,16.091-30.132,18.875-46.367,1.646-8.974,4.773-3.215,3.653,2.84-2.774,23.081-16.592,46.958-21.323,69.288-1.92,10.223-5.32,27.708,3.081,35.321,2.163,1.488,6.143-.113,7.814.125,1.792.616-.333,2.861-.983,3.791-6.276,6.893-13.168,13.712-14.573,23.372-2.832,19.754,13.623,8.293,24.942,3.852,6.022-2.299,39.66-18.021,37.403-10.981-.96,2.002-4.737,4.406-7.363,5.409-32.875,13.559-67.513,36.481-77.046,71.567-1.073,3.603-.624,6.549,3.949,6.491,34.849-4.65,57.345,20.256,83.645,11.814,4.29-1.137,10.023-3.048,14.007-.91.522.499-.115,1.162-1.516,1.879-3.226,1.532-7.429,2.762-11.05,3.657-11.484,3.713-21.349.124-32.508-.798-11.48.12-3.159,12.847,4.655,14.171l.187.045Z" fill="#e6f1e4"/>
      <g>
        <path d="M536.654,220.754c-6.399,18.902-29.287,42.52-49.502,44.732-9.275.199-20.897-4.162-27.335,5.164-3.003,3.711-4.681,8.557-8.659,11.389-4.758,3.411-12.786,3.756-18.243,1.527-3.88-1.54-6.568-4.757-9.313-7.756-4.204-4.715-9.192-8.525-11.824-14.217-1.914-3.636-2.249-9.374-5.9-11.622-4.685-2.365-10.994,2.819-14.85,5.899-12.693,12.3-20.928.004-24.286-12.439-2.296-8.959-.094-19.228-5.075-26.901-2.268-3.501-6.598-5.16-10.17-2.335-5.116,4.176-7.811,11.209-12.501,15.866-5.426,5.627-12.33,10.225-20.197,10.274-5.762-.119-8.981-5.467-12.178-9.567-3.17-4.278-7.197-7.588-9.86-12.333-5-8.075-5.099-21.1-12.903-26.957-.631-.2-.699.465-.229,1.837,2.49,5.747,5.809,11.768,6.413,18.267,2.02,12.543,2.574,27.695,14.112,35.502,3.149,2.177,7.073,3.794,9.807,6.463,6.271,5.606,1.953,14.07-1.732,19.89-9.733,15.516-22.393,29.104-22.59,48.496-.48,6.783-.211,13.248-1.353,19.897-3.128,18.045-15.739,34.383-24.577,50.256-13.079,20.635-25.979,42.92-41.28,8.208-4.283-11.521-3.529-23.845-6.156-35.994-1.734-13.844-3.506-26.805-4.424-40.943-.647-8.074-.511-16.282-1.843-24.169-2.95-16.862-7.429-23.667-25.857-23.383-6.103-.05-13.236.524-18.363-3.008-13.659-10.128-16.047-39.882-12.782-55.489,2.422-13.171,12.889-22.782,21.829-31.992,8.984-9.899,21.479-12.496,34.451-15.528,16.535-4.612,16.321,4.886,28.018,9.853,6.602,1.916,12.679-3.722,19.25-3.119,5.537.36,10.086,5.293,15.586,4.734,7.99-.243,28.685-15.226,11.272-17.064-9.006-.432-17.45.851-26.543,2.095-3.745.494-7.824,1.322-11.486.401-6.858-1.643-6.153-10.808-12.224-13.551-6.254-2.78-15.968-3.628-22.865-1.013-4.264,1.503-8.604,4.76-13.12,5.033-8.33-.062-7.191-10.451-6.961-17.18.357-6.777.839-14.134,6.61-18.696,4.614-3.79,10.276-6.604,14.663-10.753,6.595-5.944,10.854-13.659,17.139-20.022,9.605-9.37,19.697-16.695,24.459-29.93,5.467-13.273,7.589-27.377,19.27-36.399,8.341-7.021,21.233-5.422,31.161-4.205,6.327.848,12.741-.138,18.68-2.524,5.399-1.994,7.638-4.246,12.649-6.765,10.545-5.139,26.254,1.949,36.591,5.321,9.981,4.307,22.95,8.776,31.27,15.569,4.622,4.076,5.624,9.183,6.421,15.092.755,4.563,1.715,10.545,5.969,12.719,4.631,2.306,11.575.979,16.88,1.048,11.908-1.041,21.729,6.162,30.687,13.47,13.13,11.033,29.677,30.49,39.635,46.029,9.099,14.179,13.435,28.234,21.478,43.221,9.323,17.323,19.164,37.524,12.936,57.421l-.054.181Z" fill="#009245"/>
        <path d="M171.528,111.753c-5.253,11.046-18.812,12.068-28.638,17.107-20.661,10.331-51.511,34.64-56.653,58.095-2.355,10.068-5.673,13.443-12.045,3.192-3.243-5.513-8.18-10.731-15.034-10.469-12.012.157-26.63,12.376-31.147,23.616-1.627,4.357-.836,11.041,4.54,11.682,5.057.348,10.281-4.753,15.483-4.669,2.594-.109,5.034,1.517,4.997,4.216.084,2.27-1.322,5.118-2.877,8.144-2.002,3.893-3.813,8.347-3.265,12.795.871,7.455,7.866,6.213,13.645,4.434,3.59-.967,7.335-1.631,11.104-1.417,11.501.828,23.604,6.584,30.229,16.277,3.479,5.109,4.576,11.332,5.375,17.408.701,5.759,1.944,11.611,5.434,16.179,7.133,9.238,19.703,17.744,20.467,30.296-.075,9.917-6.755,18.781-10.873,27.501-3.882,7.445-6.972,15.289-10.903,22.666-4.448,8.232-9.097,16.744-12.279,25.475-3.14,8.682-6.653,17.587-5.833,26.874.812,10.654,9.666,18.705,19.551,21.51,3.948,1.546,12.574,2.984,11.205,6.495-2.046,2.545-5.784,3.125-9.112,3.842-28.309,5.367-53.532-13.245-66.699-37.462-6.203-10.866-11.241-23.582-12.724-35.916-1.213-11.043-.539-24.404-10.032-32.019-8.303-6.754-18.197-15.592-21.237-26.782-2.886-11.775-6.307-32.409-2.556-43.389,3.481-10.192,18.517-10.922,25.735-18.639,10.12-9.473,9.674-23.478-2.046-31.105-4.571-3.239-10.982-6.168-14.541-9.077-1.186-.971-2.237-2.097-2.851-3.476-1.615-3.73-.044-8.439.989-12.496,3.825-15.022,9.603-29.576,15.921-43.545,15.218-33.645,36.449-61.318,61.519-86.625,8.223-7.615,17.699-13.525,26.743-20.293,5.397-4.003,10.679-8.469,15.78-11.989,7.693-5.254,16.808-9.497,25.144-13.326,2.606-1.103,6.525-2.355,8.238-1.398,1.645.667,2.386,2.536,2.493,5.076.202,5.138-1.634,10.86-1.703,16.097.168,21.743,19.653,43.854,8.538,64.958l-.081.158Z" fill="#009245"/>
        <path d="M526.788,378.073c-3.707,16.934-14.231,35.531-22.677,50.173-3.53,6.169-9.696,12.68-17.215,8.25-3.323-1.784-6.286-4.796-9.611-6.798-7.013-4.396-15.331-5.171-23.416-4.928-13.034-.421-29.182,6.698-39.299-4.422-5.51-6.231-3.459-15.344-1.193-22.612,2.85-9.8,9.688-17.751,16.954-24.715,9.297-8.82,21.247-17.973,33.563-23.491,7.24-3.045,14.516-4.128,22.227-5.786,26.938-6.299,46.17,5.53,40.704,34.125l-.037.202Z" fill="#009245"/>
        <path d="M515.12,330.081c-4.315.768-8.055-2.939-10.502-6.175-3.753-5.14-7.395-11.522-11.778-15.643-2.12-2.021-4.608-3.572-7.231-4.87-5.68-3.01-13.166-4.725-18.172-8.688-7.994-6.864,1.523-14.587,8.701-16.765,16.471-5.938,25.014,1.509,33.058,14.821,3.764,6.091,17.702,33.857,6.065,37.288l-.142.033Z" fill="#009245"/>
        <path d="M259.391,28.777c-5.331,8.918-14.047,14.68-22.425,20.792-6.599,4.85-12.577,10.156-17.957,16.467-4.638,5.053-9.064,10.9-15.617,10.03-10.235-2.8-16.868-17.316-21.082-26.839-2.316-5.841-4.562-12.248-4.392-18.501.485-8.151,5.122-16.647,13.289-19.134,11.624-3.338,23.204-6.117,35.162-8.43,4.519-.774,8.899-1.4,13.431-1.998,5.938-.696,12.418-1.768,18.457-.736,14.904,2.732,6.717,19.904,1.242,28.181l-.108.168Z" fill="#009245"/>
        <path d="M309.241,349.576c-3.293,6.652-5.177,13.855-9.545,19.914-2.224,3.05-4.411,6.703-8.246,8.153-2.335.976-5.26-.137-5.277-2.836-.16-2.854,1.862-5.561,2.684-8.276.871-2.624.453-5.466.991-8.145.95-5.456,7.452-6.176,11.26-9.175,2.57-1.89,4.306-5.134,7.337-6.308,3.343-.869,1.894,4.606.876,6.486l-.08.187Z" fill="#009245"/>
      </g>
    </g>
  </g>
</svg>