<svg width="52" height="21" viewBox="0 0 52 21" fill="none" xmlns="http://www.w3.org/2000/svg">
<path d="M24.6252 10.214V16.2827H22.748V1.29568H27.7265C28.3207 1.28295 28.9116 1.39105 29.4649 1.61374C30.0182 1.83642 30.523 2.16929 30.9502 2.59313C31.3818 2.99124 31.7252 3.47947 31.9575 4.02503C32.1897 4.57058 32.3055 5.1608 32.2969 5.75603C32.3092 6.35445 32.1953 6.94853 31.9628 7.49755C31.7304 8.04658 31.385 8.53757 30.9502 8.93687C30.0797 9.78828 29.0051 10.2136 27.7265 10.2128H24.6252V10.214ZM24.6252 3.14081V8.37245H27.7731C28.1182 8.38294 28.4617 8.31944 28.7815 8.18601C29.1013 8.05259 29.3904 7.85216 29.6304 7.59757C29.8691 7.35953 30.0589 7.07481 30.1885 6.76025C30.318 6.44569 30.3848 6.10768 30.3848 5.7662C30.3848 5.42472 30.318 5.0867 30.1885 4.77214C30.0589 4.45758 29.8691 4.17286 29.6304 3.93482C29.3935 3.67486 29.1053 3.46953 28.7851 3.33244C28.4649 3.19534 28.12 3.12962 27.7731 3.13961H24.6252V3.14081Z" fill="#E4E5E7"/>
<path d="M36.6227 5.69385C38.0101 5.69385 39.1053 6.07411 39.9082 6.83464C40.7112 7.59518 41.1122 8.63792 41.1115 9.96287V16.2827H39.316V14.8597H39.2343C38.4571 16.0316 37.4233 16.6175 36.133 16.6175C35.0316 16.6175 34.1102 16.2827 33.3687 15.613C33.0128 15.3057 32.7283 14.9208 32.5359 14.4863C32.3434 14.0519 32.248 13.5789 32.2564 13.1019C32.2564 12.0408 32.6473 11.1969 33.4293 10.5703C34.2112 9.94373 35.2551 9.62964 36.5609 9.62804C37.6755 9.62804 38.5935 9.83731 39.3148 10.2558V9.81578C39.3169 9.49054 39.2484 9.1689 39.1143 8.87417C38.9802 8.57943 38.7839 8.319 38.5395 8.11176C38.0431 7.65243 37.3962 7.4018 36.7276 7.40983C35.6791 7.40983 34.8494 7.86343 34.2384 8.77065L32.5852 7.7028C33.4946 6.3635 34.8404 5.69385 36.6227 5.69385ZM34.1941 13.1437C34.1929 13.3887 34.2487 13.6305 34.357 13.8489C34.4653 14.0673 34.6229 14.256 34.8167 14.3993C35.2319 14.7342 35.7472 14.9117 36.2753 14.9015C37.0674 14.9002 37.8267 14.5768 38.3867 14.0023C39.0085 13.402 39.3195 12.6977 39.3195 11.8893C38.7342 11.411 37.918 11.1718 36.871 11.1718C36.1085 11.1718 35.4727 11.3604 34.9636 11.7374C34.4494 12.1201 34.1941 12.5853 34.1941 13.1437Z" fill="#E4E5E7"/>
<path d="M51.4172 6.02881L45.1493 20.803H43.2115L45.5375 15.6335L41.416 6.02881H43.4564L46.4353 13.395H46.4761L49.3734 6.02881H51.4172Z" fill="#E4E5E7"/>
<path d="M17.0396 8.90593C17.0403 8.31921 16.992 7.73351 16.895 7.15527H8.97852V10.4712H13.5127C13.42 11.0008 13.2236 11.5057 12.9354 11.9554C12.6473 12.405 12.2733 12.7902 11.8362 13.0877V15.2401H14.5422C16.1267 13.7418 17.0396 11.5259 17.0396 8.90593Z" fill="#4285F4"/>
<path d="M8.97882 17.3196C11.2442 17.3196 13.1516 16.5567 14.5425 15.2413L11.8365 13.0889C11.0833 13.6126 10.1132 13.9116 8.97882 13.9116C6.78924 13.9116 4.93078 12.3977 4.26621 10.3577H1.47852V12.5759C2.17721 14.0019 3.24857 15.2006 4.57301 16.0383C5.89744 16.8759 7.42281 17.3196 8.97882 17.3196Z" fill="#34A853"/>
<path d="M4.26555 10.3576C3.91421 9.28861 3.91421 8.13096 4.26555 7.06197V4.84375H1.47786C0.890092 6.04333 0.583984 7.36725 0.583984 8.70978C0.583984 10.0523 0.890092 11.3762 1.47786 12.5758L4.26555 10.3576Z" fill="#FBBC04"/>
<path d="M8.97882 3.50797C10.176 3.48791 11.3327 3.95182 12.1991 4.79944L14.595 2.34206C13.0757 0.878489 11.063 0.0749629 8.97882 0.0999301C7.42281 0.100003 5.89744 0.543639 4.57301 1.38131C3.24857 2.21898 2.17721 3.41771 1.47852 4.84368L4.26621 7.0619C4.93078 5.02186 6.78924 3.50797 8.97882 3.50797Z" fill="#EA4335"/>
</svg>
