<svg width="24" height="25" viewBox="0 0 24 25" fill="none" xmlns="http://www.w3.org/2000/svg">
<g clip-path="url(#clip0_1676_8541)">
<path d="M12 0.610352C8.74 0.610352 8.333 0.625352 7.053 0.682352C5.775 0.742352 4.905 0.943352 4.14 1.24035C3.351 1.54635 2.681 1.95735 2.014 2.62435C1.347 3.29135 0.935 3.96035 0.63 4.75035C0.333 5.51535 0.131 6.38535 0.072 7.66335C0.012 8.94335 0 9.35035 0 12.6104C0 15.8704 0.015 16.2774 0.072 17.5574C0.132 18.8344 0.333 19.7054 0.63 20.4704C0.936 21.2584 1.347 21.9294 2.014 22.5964C2.681 23.2624 3.35 23.6754 4.14 23.9804C4.906 24.2764 5.776 24.4794 7.053 24.5384C8.333 24.5984 8.74 24.6104 12 24.6104C15.26 24.6104 15.667 24.5954 16.947 24.5384C18.224 24.4784 19.095 24.2764 19.86 23.9804C20.648 23.6744 21.319 23.2624 21.986 22.5964C22.652 21.9294 23.065 21.2614 23.37 20.4704C23.666 19.7054 23.869 18.8344 23.928 17.5574C23.988 16.2774 24 15.8704 24 12.6104C24 9.35035 23.985 8.94335 23.928 7.66335C23.868 6.38635 23.666 5.51435 23.37 4.75035C23.064 3.96135 22.652 3.29135 21.986 2.62435C21.319 1.95735 20.651 1.54535 19.86 1.24035C19.095 0.943352 18.224 0.741352 16.947 0.682352C15.667 0.622352 15.26 0.610352 12 0.610352ZM12 2.77035C15.203 2.77035 15.585 2.78635 16.85 2.84135C18.02 2.89635 18.655 3.09035 19.077 3.25635C19.639 3.47335 20.037 3.73335 20.459 4.15235C20.878 4.57235 21.138 4.97135 21.355 5.53335C21.519 5.95535 21.715 6.59035 21.768 7.76035C21.825 9.02635 21.838 9.40635 21.838 12.6104C21.838 15.8144 21.823 16.1954 21.764 17.4604C21.703 18.6304 21.508 19.2654 21.343 19.6874C21.119 20.2494 20.864 20.6474 20.444 21.0694C20.025 21.4884 19.62 21.7484 19.064 21.9654C18.644 22.1294 17.999 22.3254 16.829 22.3784C15.555 22.4354 15.18 22.4484 11.97 22.4484C8.759 22.4484 8.384 22.4334 7.111 22.3744C5.94 22.3134 5.295 22.1184 4.875 21.9534C4.306 21.7294 3.915 21.4744 3.496 21.0544C3.075 20.6354 2.806 20.2304 2.596 19.6744C2.431 19.2544 2.237 18.6094 2.176 17.4394C2.131 16.1794 2.115 15.7904 2.115 12.5954C2.115 9.39935 2.131 9.00935 2.176 7.73435C2.237 6.56435 2.431 5.92035 2.596 5.50035C2.806 4.93035 3.075 4.54035 3.496 4.11935C3.915 3.70035 4.306 3.43035 4.875 3.22135C5.295 3.05535 5.926 2.86035 7.096 2.80035C8.371 2.75535 8.746 2.74035 11.955 2.74035L12 2.77035ZM12 6.44835C8.595 6.44835 5.838 9.20835 5.838 12.6104C5.838 16.0154 8.598 18.7724 12 18.7724C15.405 18.7724 18.162 16.0124 18.162 12.6104C18.162 9.20535 15.402 6.44835 12 6.44835ZM12 16.6104C9.79 16.6104 8 14.8204 8 12.6104C8 10.4004 9.79 8.61035 12 8.61035C14.21 8.61035 16 10.4004 16 12.6104C16 14.8204 14.21 16.6104 12 16.6104ZM19.846 6.20535C19.846 7.00035 19.2 7.64535 18.406 7.64535C17.611 7.64535 16.966 6.99935 16.966 6.20535C16.966 5.41135 17.612 4.76635 18.406 4.76635C19.199 4.76535 19.846 5.41135 19.846 6.20535Z" fill="#191923"/>
</g>
<defs>
<clipPath id="clip0_1676_8541">
<rect width="24" height="24" fill="white" transform="translate(0 0.610352)"/>
</clipPath>
</defs>
</svg>
