<svg width="40" height="40" viewBox="0 0 40 40" fill="none" xmlns="http://www.w3.org/2000/svg">
<g clip-path="url(#clip0_915_2712)">
<path d="M29.7091 36.5772C30.396 36.7504 31.1801 36.1637 31.8468 36.3539C31.9221 36.381 32.0109 36.4178 31.9633 36.4892C31.9079 36.5476 31.6843 36.5632 31.4961 36.5902C30.9992 36.6488 30.6055 36.9798 30.1015 37.0022C28.5211 37.0435 28.2423 34.4371 26.0375 35.0927C25.7111 35.1795 25.3791 35.3052 25.042 35.3765C24.8493 35.4252 24.2951 35.5194 24.6093 35.685C24.986 35.8179 25.4509 35.7589 25.8363 35.8706C26.4664 36.0406 26.95 36.6038 27.6284 36.6728C28.1616 36.759 28.6179 36.786 29.0307 37.1509C29.2499 37.3203 29.6746 37.9178 29.423 37.9102C29.2289 37.9044 28.9523 37.5165 28.7762 37.3997C28.4405 37.1039 27.8726 37.1394 27.43 37.0089C27.2234 36.9497 27.0411 36.8333 26.8588 36.7225C26.1916 36.2599 24.5402 36.0151 23.753 36.3079C23.5829 36.5557 24.2088 36.6307 24.3762 36.6375C26.1764 36.5949 25.7885 37.1242 27.0769 37.8673C27.2974 38.0176 28.015 38.2171 28.0632 38.4604C28.0704 38.4967 28.0422 38.5322 28.0045 38.5339C27.713 38.5467 27.3179 38.1258 27.0655 38.4149C26.9785 38.5483 27.1003 38.8342 27.0388 38.9088C26.9295 38.9969 26.7454 38.825 26.603 38.7098C26.165 38.3163 25.9472 37.6211 25.5746 37.2131C25.353 36.9029 24.6731 36.8956 24.2048 36.9554C23.9062 37.0092 23.4 36.9153 23.2143 37.1456C23.0543 37.5858 23.7872 38.0118 24.0595 38.2937C24.3565 38.5363 25.0886 39.3153 24.6669 39.5371C24.569 39.5553 24.4182 39.45 24.2827 39.4008C23.9429 39.2672 23.8909 39.6221 23.63 39.7374C23.3208 39.8359 23.3592 39.4506 23.3472 39.2781C23.3619 38.688 22.6457 37.7485 22.0034 37.722C21.5937 37.7982 21.3146 38.584 21.2241 39.0051C21.1668 40.027 21.2055 39.9997 20.0298 39.9997C19.6162 39.9997 19.8797 39.6598 19.992 39.4383C20.231 38.9899 20.4525 38.4833 20.5188 37.9758C20.6198 37.5249 20.3165 36.842 19.7851 37.2328C19.6258 37.3573 19.5146 37.5486 19.3939 37.7092C18.9189 38.3548 18.1305 38.7435 17.7423 39.43C17.6191 39.6651 17.4747 39.7983 17.1615 39.7709C16.8761 39.746 16.726 39.7346 16.5078 39.5939C15.8285 39.156 15.8628 39.1801 15.0247 39.3161C14.9532 39.3201 14.919 39.2837 15.0024 39.2264C15.1478 39.1283 15.2493 39.1081 15.4255 39.072C15.961 38.9923 16.4502 38.776 16.9624 38.6189C17.5889 38.4972 18.1398 38.484 18.2916 37.7338C18.5048 36.307 16.2247 37.8038 15.5873 37.863C14.8974 38.0408 14.1235 37.8618 13.4602 38.1429C13.154 38.2607 13.0299 38.46 12.7105 38.5229C12.351 38.542 12.5527 38.1749 12.5865 38.0006C12.7362 37.5572 12.3295 37.1704 11.9623 36.9769C11.3616 36.6589 10.6519 36.5906 9.99439 36.7326C9.77161 36.7778 9.64263 36.8558 9.41555 36.8346C9.09794 36.8061 8.97839 36.5358 9.31842 36.4751C9.63037 36.4261 9.84543 36.4725 10.1597 36.4634C10.7391 36.4585 11.3321 36.3697 11.9022 36.5095C13.2392 36.8487 14.7172 37.9705 16.0558 37.0584C16.3345 36.8712 16.6544 36.5267 16.4977 36.1921C16.3242 35.8319 15.821 35.7999 15.4577 35.7818C14.2434 35.737 13.0306 35.8809 11.7731 35.8038C10.8052 35.8422 9.70478 35.1574 8.84361 35.8268C8.6671 35.9672 8.09843 36.3816 8.35135 35.9373C8.55148 35.6486 8.8018 35.4472 9.15104 35.3245C9.53777 35.1888 9.89651 35.3663 10.2697 35.4117C10.6044 35.4502 11.2394 35.4592 10.5726 35.1599C9.83429 34.7325 9.72736 34.8707 8.96517 34.9579C8.53499 34.9998 7.9768 34.8285 7.60729 35.1056C7.46649 35.2019 7.44503 35.2696 7.29756 35.3367C7.23667 35.3565 7.2129 35.2893 7.25367 35.1852C7.34761 34.9699 7.5089 34.9228 7.69499 34.8032C8.99049 34.1991 10.9762 34.914 12.2429 35.4235C12.645 35.5324 13.0356 35.2612 13.4351 35.228C14.205 35.2682 15.0141 35.5063 15.7714 35.2344C16.2851 34.9937 15.0931 34.6232 14.7061 34.345C13.5949 33.514 13.6366 31.7204 12.5096 30.8015C11.1656 29.6027 9.26265 29.6848 7.57907 29.9623C7.28902 29.9949 6.87206 30.1488 6.6178 30.0296C6.59203 30.0026 6.61371 29.9653 6.67594 29.9282C6.84651 29.8361 7.06557 29.7971 7.25865 29.7515C7.98051 29.5811 8.65269 29.5205 9.33022 29.2539C9.87795 29.0539 9.84996 28.7055 9.58485 28.2772C9.30305 27.7892 8.90866 27.2925 8.56395 26.8726C8.42873 26.7078 8.26425 26.5316 8.19601 26.3329C8.14402 26.1397 8.34965 26.2314 8.43192 26.3053C8.82534 26.6541 9.16745 27.1691 9.49352 27.5639C10.3032 28.7086 11.1782 29.4489 12.6335 29.8465C12.8577 29.9131 13.2299 30.0335 13.26 29.6962C13.3045 29.3629 13.0805 28.7244 12.9484 28.2906C12.6732 27.5017 12.9922 26.7415 13.0639 25.9506C13.1198 25.2437 12.9761 23.728 12.4889 23.2078C12.3551 23.0612 12.1749 22.9608 11.9634 22.8861C11.8595 22.8448 11.6855 22.7937 11.6536 22.7016C11.6192 22.5819 11.7449 22.4702 11.8049 22.3719C12.3107 21.4779 10.6854 20.5689 10.2413 19.9595C9.84342 19.5532 9.85723 18.9277 9.55471 18.4715C9.35332 18.2029 9.00208 18.047 8.77685 17.7883C8.40073 17.3937 8.13578 16.8828 7.71756 16.5296C6.66087 15.6964 4.96125 15.9752 3.66678 15.5942C3.55532 15.5492 3.47431 15.4893 3.47757 15.4403C3.57478 15.27 4.01387 15.3935 4.19305 15.407C5.26779 15.5887 6.83077 15.6821 7.71556 16.2038C8.15754 16.4032 9.19463 17.9539 9.44414 16.8383C9.54386 14.9967 9.06653 13.6459 8.3042 11.9757C8.22875 11.804 8.16266 11.6481 8.16511 11.5521C8.16526 11.4215 8.27398 11.4307 8.37311 11.5845C8.51903 11.8252 8.53678 11.9942 8.67215 12.2884C8.79363 12.484 8.86812 12.8766 9.14049 12.5563C9.54327 11.6913 9.90253 10.5167 10.2746 9.61392C10.3156 9.50252 10.378 9.38187 10.4488 9.29893C10.5432 9.19583 10.6186 9.2358 10.6058 9.37939C10.3983 10.1879 9.96572 10.9463 9.69654 11.7431C9.55159 12.1304 9.43649 12.4928 9.37456 12.9007C9.19173 14.1147 9.65265 15.3357 9.90751 16.5434C10.0026 16.995 10.0735 17.5057 10.1422 17.9514C10.3364 19.8992 11.479 20.0545 12.4136 21.5047C13.7162 23.3944 12.8651 24.0268 14.4292 21.9247C14.6662 21.6252 15.0796 21.0587 15.2937 20.8858C15.4748 20.7441 15.423 20.9167 15.3497 21.0374C14.5769 22.0682 13.9458 23.2161 13.6865 24.4737C13.5024 25.4317 13.6471 27.015 14.8244 25.6864C15.0523 25.5173 14.9584 25.8259 14.8977 25.929C14.6276 26.4804 14.2153 26.8851 14.0969 27.4999C13.9797 28.9959 14.3794 30.2263 15.2524 31.3931C15.7289 31.9675 15.7643 32.7902 16.3611 33.2687C16.6942 33.5327 17.1055 33.6899 17.4687 33.9057C18.4098 34.5159 19.5747 35.326 20.7118 35.158C21.1802 35.0994 21.6175 34.8119 21.9178 34.4531C23.3931 32.9006 24.857 31.4993 23.7387 29.2811C23.4411 28.6471 23.0226 28.0528 22.6528 27.4591C22.5597 27.3625 21.9839 26.2713 22.4577 26.4983C22.6446 26.6376 22.784 26.8795 22.9151 27.0757C23.5017 27.9859 24.036 28.8956 24.4938 29.8731C24.8444 30.6272 25.185 30.5686 25.3869 29.7793C25.9179 27.9673 26.3445 25.8653 25.9955 23.9516C25.8394 23.1692 25.5076 22.4306 25.2584 21.6739C25.006 20.6495 24.4128 19.8616 23.6489 19.1062C23.5544 18.9916 23.4101 18.8143 23.6255 18.7406C23.878 18.6727 24.2357 18.6418 24.3107 18.3438C24.4526 18.0032 24.4355 17.0348 24.7015 16.9109C24.7461 16.9129 24.7887 16.9814 24.8171 17.1012C24.9077 17.554 24.8739 18.055 24.9168 18.5148C25.0037 19.4726 25.5006 20.3377 25.7933 21.2463C25.9702 21.7903 26.2475 23.0921 27.0468 22.4102C27.994 21.5775 28.2417 20.2163 28.4484 19.0342C28.5706 18.3807 28.8028 18.8001 28.7197 19.2409C28.5137 20.9215 27.4876 22.6601 27.1363 24.286C26.9937 25.0303 26.7412 26.3034 27.3651 26.8578C27.5257 26.9661 27.8212 26.8495 27.9453 26.8669C28.0784 26.9117 27.9206 27.0752 27.8723 27.1429C27.4063 27.6448 26.8945 28.1413 26.7902 28.8447C26.5799 30.283 27.8018 29.4485 28.6423 29.1251C29.0895 28.9577 31.5874 27.813 31.4198 28.3256C31.3485 28.4713 31.068 28.6464 30.873 28.7194C28.4318 29.7067 25.8596 31.3757 25.1517 33.9304C25.072 34.1927 25.1054 34.4072 25.445 34.403C28.0328 34.0644 29.7033 35.8779 31.6563 35.2632C31.9749 35.1804 32.4006 35.0413 32.6964 35.1969C32.7352 35.2333 32.6879 35.2816 32.5838 35.3338C32.3443 35.4453 32.0322 35.5349 31.7633 35.6C30.9105 35.8704 30.178 35.6091 29.3493 35.5419C28.4968 35.5507 29.1147 36.4773 29.695 36.5738L29.7089 36.577L29.7091 36.5772Z" fill="#1E371A"/>
<path d="M39.8504 16.0736C39.3752 17.4499 37.6756 19.1696 36.1744 19.3306C35.4857 19.3451 34.6227 19.0276 34.1446 19.7066C33.9216 19.9768 33.797 20.3297 33.5016 20.5359C33.1483 20.7843 32.5521 20.8094 32.1469 20.6471C31.8588 20.5349 31.6592 20.3007 31.4553 20.0823C31.1432 19.739 30.7728 19.4616 30.5773 19.0472C30.4352 18.7824 30.4103 18.3646 30.1392 18.201C29.7913 18.0287 29.3228 18.4062 29.0365 18.6305C28.0939 19.5261 27.4824 18.6308 27.233 17.7248C27.0625 17.0724 27.2261 16.3247 26.8562 15.766C26.6878 15.5111 26.3662 15.3903 26.101 15.596C25.7211 15.9001 25.5209 16.4122 25.1727 16.7513C24.7697 17.161 24.2571 17.4958 23.6729 17.4993C23.245 17.4907 23.006 17.1013 22.7686 16.8027C22.5332 16.4912 22.2341 16.2502 22.0364 15.9047C21.6651 15.3168 21.6577 14.3684 21.0782 13.9419C21.0314 13.9274 21.0263 13.9758 21.0612 14.0757C21.2461 14.4942 21.4926 14.9326 21.5374 15.4058C21.6874 16.319 21.7286 17.4223 22.5854 17.9907C22.8192 18.1493 23.1106 18.267 23.3136 18.4613C23.7793 18.8695 23.4586 19.4858 23.185 19.9096C22.4622 21.0393 21.5221 22.0287 21.5075 23.4407C21.4719 23.9346 21.4918 24.4053 21.407 24.8894C21.1748 26.2033 20.2383 27.3929 19.582 28.5487C18.6108 30.0511 17.6528 31.6738 16.5166 29.1463C16.1986 28.3074 16.2546 27.4101 16.0595 26.5255C15.9307 25.5175 15.7991 24.5738 15.731 23.5444C15.6829 22.9565 15.693 22.3588 15.5941 21.7846C15.3751 20.5568 15.0425 20.0613 13.674 20.082C13.2208 20.0783 12.6911 20.1201 12.3104 19.863C11.2961 19.1255 11.1188 16.9591 11.3613 15.8227C11.5411 14.8637 12.3184 14.1639 12.9822 13.4933C13.6494 12.7725 14.5772 12.5834 15.5405 12.3626C16.7684 12.0268 16.7525 12.7184 17.6211 13.0801C18.1113 13.2196 18.5626 12.8091 19.0505 12.853C19.4617 12.8792 19.7995 13.2384 20.2079 13.1977C20.8012 13.18 22.338 12.089 21.045 11.9552C20.3762 11.9237 19.7492 12.0171 19.0739 12.1077C18.7958 12.1437 18.4929 12.204 18.221 12.1369C17.7117 12.0173 17.7641 11.35 17.3133 11.1502C16.8489 10.9478 16.1275 10.8861 15.6154 11.0765C15.2987 11.1859 14.9764 11.4231 14.6411 11.443C14.0225 11.4384 14.1071 10.682 14.1242 10.192C14.1507 9.69859 14.1865 9.16291 14.615 8.83074C14.9577 8.55478 15.3781 8.34989 15.7039 8.04779C16.1936 7.61499 16.5099 7.05325 16.9766 6.58994C17.6898 5.90769 18.4392 5.37434 18.7929 4.41067C19.1988 3.44423 19.3564 2.41729 20.2238 1.76038C20.8432 1.24916 21.8005 1.36559 22.5378 1.4542C23.0076 1.51595 23.4839 1.44415 23.9249 1.27042C24.3258 1.12523 24.4921 0.961262 24.8642 0.777848C25.6473 0.403665 26.8138 0.919759 27.5814 1.16528C28.3225 1.47888 29.2856 1.80428 29.9034 2.2989C30.2466 2.59568 30.3211 2.96753 30.3802 3.39778C30.4363 3.73002 30.5076 4.16558 30.8235 4.32388C31.1674 4.49178 31.683 4.39516 32.077 4.40019C32.9612 4.32439 33.6905 4.84885 34.3557 5.38097C35.3307 6.1843 36.5595 7.60101 37.2989 8.73244C37.9746 9.76485 38.2966 10.7882 38.8939 11.8795C39.5862 13.1408 40.3169 14.6117 39.8545 16.0604L39.8504 16.0736H39.8504Z" fill="#009245"/>
<path d="M12.7373 8.13671C12.3472 8.941 11.3404 9.01541 10.6107 9.38231C9.07646 10.1345 6.7856 11.9045 6.40377 13.6123C6.22889 14.3454 5.9825 14.5912 5.50933 13.8448C5.26851 13.4433 4.9019 13.0634 4.39293 13.0825C3.50095 13.0939 2.41544 13.9836 2.08002 14.802C1.9592 15.1193 2.01794 15.6059 2.41715 15.6526C2.79267 15.678 3.1806 15.3065 3.56689 15.3127C3.75951 15.3047 3.9407 15.4231 3.93795 15.6196C3.94419 15.7849 3.83978 15.9923 3.72431 16.2126C3.57565 16.4961 3.44117 16.8204 3.48186 17.1442C3.54654 17.6871 4.06597 17.5966 4.49511 17.4671C4.7617 17.3967 5.03979 17.3483 5.31967 17.3639C6.17372 17.4242 7.07246 17.8433 7.56442 18.5491C7.82276 18.9211 7.90422 19.3742 7.96356 19.8166C8.01561 20.2359 8.10791 20.662 8.36708 20.9946C8.89676 21.6673 9.83018 22.2866 9.88692 23.2006C9.88135 23.9226 9.3853 24.568 9.07951 25.203C8.79124 25.7451 8.56178 26.3162 8.26987 26.8533C7.93957 27.4527 7.59435 28.0725 7.35806 28.7082C7.12489 29.3404 6.86402 29.9888 6.92491 30.665C6.98521 31.4407 7.64269 32.0269 8.37673 32.2312C8.6699 32.3437 9.31045 32.4484 9.20879 32.7041C9.05686 32.8894 8.77928 32.9316 8.53215 32.9838C6.42998 33.3746 4.55697 32.0194 3.57921 30.2561C3.11859 29.465 2.74448 28.5391 2.63435 27.641C2.54428 26.8369 2.59433 25.8641 1.8894 25.3096C1.27283 24.8179 0.538123 24.1743 0.312378 23.3596C0.0980696 22.5022 -0.155967 20.9998 0.122575 20.2003C0.381067 19.4582 1.49761 19.4051 2.03361 18.8432C2.7851 18.1534 2.75198 17.1337 1.88167 16.5784C1.54224 16.3425 1.06617 16.1292 0.801888 15.9174C0.713817 15.8467 0.635772 15.7647 0.590178 15.6643C0.470251 15.3927 0.58691 15.0499 0.663619 14.7545C0.947656 13.6607 1.37672 12.601 1.84588 11.5839C2.97594 9.1341 4.55251 7.11916 6.41416 5.2765C7.02479 4.72204 7.72846 4.29172 8.40005 3.79892C8.80082 3.50745 9.19305 3.18227 9.57184 2.92598C10.1431 2.54342 10.82 2.23448 11.439 1.95568C11.6325 1.87537 11.9235 1.78421 12.0507 1.85389C12.1729 1.90245 12.2279 2.03854 12.2358 2.22348C12.2508 2.59759 12.1145 3.01422 12.1094 3.39554C12.1219 4.9787 13.5688 6.58865 12.7434 8.12528L12.7374 8.13679L12.7373 8.13671Z" fill="#009245"/>
<path d="M39.1179 27.5283C38.8427 28.7613 38.0612 30.1154 37.434 31.1815C37.1719 31.6307 36.714 32.1048 36.1556 31.7822C35.9089 31.6523 35.6889 31.433 35.442 31.2872C34.9212 30.9672 34.3035 30.9107 33.7031 30.9284C32.7352 30.8978 31.5361 31.4161 30.7849 30.6065C30.3757 30.1528 30.528 29.4892 30.6963 28.96C30.9079 28.2465 31.4157 27.6675 31.9552 27.1605C32.6456 26.5183 33.533 25.8518 34.4476 25.45C34.9852 25.2283 35.5255 25.1495 36.0981 25.0287C38.0985 24.5701 39.5266 25.4314 39.1207 27.5135L39.1179 27.5282V27.5283Z" fill="#009245"/>
<path d="M38.2517 24.0339C37.9313 24.0898 37.6536 23.8199 37.4719 23.5843C37.1932 23.21 36.9227 22.7453 36.5973 22.4453C36.4398 22.2981 36.2551 22.1852 36.0603 22.0907C35.6385 21.8715 35.0826 21.7466 34.7109 21.4581C34.1173 20.9583 34.824 20.396 35.357 20.2374C36.5801 19.805 37.2145 20.3473 37.8118 21.3165C38.0913 21.76 39.1263 23.7817 38.2622 24.0316L38.2516 24.034L38.2517 24.0339Z" fill="#009245"/>
<path d="M19.2616 2.0953C18.8657 2.74464 18.2185 3.16418 17.5963 3.60921C17.1063 3.96235 16.6624 4.34869 16.2629 4.80821C15.9185 5.17613 15.5898 5.60186 15.1032 5.53852C14.3432 5.33464 13.8506 4.2777 13.5377 3.58431C13.3657 3.15901 13.1989 2.6925 13.2116 2.23721C13.2476 1.64372 13.5919 1.0251 14.1984 0.844019C15.0615 0.600971 15.9215 0.398626 16.8094 0.230211C17.145 0.173854 17.4703 0.128274 17.8068 0.0847323C18.2477 0.0340549 18.7289 -0.0439998 19.1774 0.0311424C20.2841 0.230066 19.6762 1.4804 19.2696 2.08306L19.2616 2.0953Z" fill="#009245"/>
<path d="M22.9637 25.4536C22.7191 25.9379 22.5792 26.4624 22.2549 26.9035C22.0897 27.1256 21.9273 27.3916 21.6425 27.4972C21.4691 27.5683 21.2519 27.4872 21.2507 27.2907C21.2388 27.0829 21.3889 26.8858 21.45 26.6881C21.5147 26.497 21.4836 26.2901 21.5236 26.095C21.5941 25.6978 22.0769 25.6454 22.3597 25.427C22.5506 25.2894 22.6795 25.0532 22.9045 24.9677C23.1528 24.9044 23.0452 25.3031 22.9696 25.44L22.9637 25.4536Z" fill="#009245"/>
</g>
<defs>
<clipPath id="clip0_915_2712">
<rect width="40" height="40" fill="white"/>
</clipPath>
</defs>
</svg>
