<?xml version="1.0" encoding="UTF-8"?>
<svg id="b" data-name="Layer 2" xmlns="http://www.w3.org/2000/svg" width="359.28" height="130.344" viewBox="0 0 359.28 130.344">
  <g id="c" data-name="Layer 2">
    <g>
      <path d="M36.459,130.344h-1.199c-11.112-.968-10.269-16.766,1.33-16.06,10.315.628,10.329,15.28-.131,16.06ZM42.237,122.252c0-3.52-2.857-6.373-6.381-6.373s-6.381,2.853-6.381,6.373,2.857,6.373,6.381,6.373,6.381-2.853,6.381-6.373Z"/>
      <path d="M218.977,130.344h-1.199c-10.881-.852-10.315-16.524,1.091-16.06,10.569.43,10.67,15.272.108,16.06ZM224.765,122.253c0-3.521-2.857-6.375-6.382-6.375s-6.382,2.854-6.382,6.375,2.857,6.375,6.382,6.375,6.382-2.854,6.382-6.375Z"/>
      <path d="M64.281,130.344c-2.522-.385-5.749-1.133-6.369-4.059-.733-3.458.52-8.221-.346-11.75l2.158-.002v10.9c0,.178.668,1.326.854,1.543,1.873,2.191,7.457,2.005,8.949-.616.095-.166.511-1.319.511-1.406v-10.421h1.919v10.66c0,.979-1.028,2.818-1.805,3.467-1.036.865-3.356,1.586-4.671,1.683h-1.199Z"/>
      <g>
        <path d="M47.56,50.859c-1.54-5.04-7.37-10.83-12.9-10.83H0c1.85,2.64,2.7,6.01,2.89,9.21.65,10.93-.26,22.77-.31,33.73-.56,2.25-1.14,4.56-2.58,6.41h16.79c-.6-.96-1.21-1.98-1.62-3.05-.35-.91-1.26-3.91-1.26-4.73v-10.67h20.51c10.04,0,15.88-11.06,13.14-20.07ZM34.97,63.579c-.84,1.28-3.82,4.24-5.35,4.24h-15.71l-.24-24.67h13.8c1.13,0,4.32,1.85,5.27,2.64,5.27,4.38,5.95,12.19,2.23,17.79Z"/>
        <g>
          <path d="M186.839,40.03l18.588,45.032,18.588-45.032h12.232c-1.822,2.448-2.699,5.697-2.89,8.732-.661,10.528.515,21.747.015,32.348.46,2.887,1.054,5.901,2.874,8.269h-16.789c.527-.759,1.014-1.471,1.382-2.333.476-1.114,1.496-4.594,1.496-5.692v-28.627l-15.136,36.625-11.804.036-17.428-41.453v32.457c.411,3.159.989,6.34,2.876,8.987h-8.634c.324-.928.943-1.723,1.315-2.639,1.125-2.772,1.443-5.985,1.574-8.968.362-8.201.395-18.414-.014-26.6-.141-2.831-.492-5.871-1.561-8.503-.372-.916-.991-1.711-1.315-2.639h14.63Z"/>
          <g>
            <path d="M354.85,86.259c-4.64-3.98-7.51-11.4-12.14-15.18-.44-.37-2.44-1.13-1.29-1.34,18.65-3.32,15.27-28.07-.96-29.71h-34.66c1.81,2.51,2.69,5.88,2.89,8.97.65,10.37-.51,21.43-.02,31.87-.45,2.96-.99,6.08-2.87,8.51h16.79c-2.66-3.94-3.45-10.01-2.82-14.67.8-5.93,7.94-6.08,11.45-1.97,3.74,4.39,8.93,16.64,15.23,16.64h12.83l-4.43-3.12ZM339.25,63.979c-1.08.94-4.39,2.88-5.75,2.88h-13.79l-.24-23.71h13.55c.37,0,2.83.98,3.32,1.24,7.13,3.73,9.26,14.07,2.91,19.59Z"/>
            <path d="M291.409,40.03v9.582c-2.641-2.206-5.481-4.797-8.807-5.936-.6-.205-2.564-.772-3.065-.772h-16.909v19.644h16.429c.586,0,2.522-.632,3.229-.847,1.905-.58,3.671-1.57,5.525-2.267v9.582c-1.968-.788-3.816-1.806-5.872-2.4-1.091-.315-3.28-.954-4.321-.954h-14.99v20.602h20.266c.107,0,1.721-.509,2.029-.609,3.459-1.121,6.123-3.642,8.884-5.859v9.582h-44.85c1.883-3.136,2.691-6.518,2.89-10.17.468-8.616.498-20.397-.014-28.996-.21-3.527-.954-7.197-2.876-10.184h42.452Z"/>
          </g>
        </g>
        <g>
          <path d="M99.26,73.729l-16.39-33.7h-11.87c1.51,3.95,1.77,8.26.11,12.22-6.65,12.5-11.06,26.5-20.74,37.13h8.87c-.15-4.35,1.05-8.53,3.1-12.31l26.01-.11c.55.19,1.72,3.96,1.95,4.76.73,2.51,1.14,5.09,1.56,7.66h17.75c-3.91-4.89-7.39-10.12-10.35-15.65ZM64.04,73.809l11.4-23.72,11.63,23.72h-23.03Z"/>
          <path d="M136.233,40.03c-.722,1.204-1.419,2.43-1.851,3.781-.304.951-1.027,3.857-1.027,4.723v37.731l15.668.148c5.004-.341,8.74-3.576,12.393-6.616v9.582h-41.732c2.01-3.149,2.699-6.945,2.889-10.649.439-8.528.492-20.016-.014-28.517-.213-3.585-1.002-7.104-2.876-10.184h16.549Z"/>
        </g>
      </g>
      <path d="M98.578,126.511v-11.978h1.919v15.332c-.801-.038-1.725.253-2.292-.465l-10.179-12.71v13.176h-1.919v-15.332l3.015.222,9.456,11.756Z"/>
      <path d="M240.563,114.534l2.828.053c2.703,3.542,5.373,7.164,8.215,10.597.377.455.847,1.303,1.429,1.328v-11.978h1.919v15.332l-2.295-.223c-3.377-4.06-6.442-8.664-9.866-12.649-.148-.173.012-.449-.55-.304v13.176h-1.679v-15.332Z"/>
      <path d="M71.476,1.94h-11.272v5.031h9.833v1.677h-9.833v5.27h11.272v1.677h-13.431V.264h13.071c.051,0,.271-.358.357-.239l.002,1.916Z"/>
      <path d="M115.127,129.865v-15.332h8.035c.376,0,2.471.696,2.921.915,4.75,2.317,4.99,10.237.637,13.179-.414.28-2.461,1.237-2.839,1.237h-8.754ZM117.045,128.188h6.356c.149,0,1.369-.614,1.633-.765,3.682-2.095,3.768-7.899.246-10.215-.37-.243-2.029-.998-2.358-.998h-5.876v11.978Z"/>
      <path d="M31.183.024v6.947h10.553V.024l1.919.24v15.332h-1.919v-6.947h-10.553v6.947h-1.919V.024c.66.346,1.262.344,1.919,0Z"/>
      <path d="M150.585,114.573l7.233,15.29c-.604-.08-1.658.191-2.161-.114-.921-.56-1.032-3.799-2.501-3.97-2.337-.272-5.248.196-7.651.052l-2.115,3.995-2.12.037,7.233-15.29h2.082ZM153.021,124.116l-3.478-7.182-3.478,7.182h6.955Z"/>
      <path d="M15.113,114.534v1.677H3.601v5.27h10.073c-.325.603-.325,1.074,0,1.677H3.601v6.708h-1.919v-15.332h13.431Z"/>
      <polygon points="181.083 114.534 181.083 116.21 175.207 116.21 174.847 116.57 174.847 129.865 172.928 129.865 172.928 116.21 166.692 116.21 166.692 114.534 181.083 114.534"/>
      <polygon points="16.073 .264 16.073 1.94 9.837 1.94 9.837 15.595 7.918 15.595 7.918 1.94 1.682 1.94 1.682 .264 16.073 .264"/>
      <rect x="194.274" y="114.534" width="2.159" height="15.333"/>
    </g>
  </g>
</svg>