<?xml version="1.0" encoding="UTF-8"?>
<svg id="b" data-name="Layer 2" xmlns="http://www.w3.org/2000/svg" width="147.171" height="146.872" viewBox="0 0 147.171 146.872">
  <g id="c" data-name="Layer 2">
    <g>
      <path d="M78.743,146.872l-3.322-2.808c-.887-1.609-.821-2.587-.21-4.271,2.162-5.968,13.893-8.587,19.371-6.267l1.675-5.84c-1.098.88-1.842,2.526-3.484,2.479l-.481-.387c-1.523-2.705-1.09-5.991-1.052-8.976.008-.623.328-1.21-.604-1.039-2.299,3.589-4.425,10.698-9.979,9.999-1.346-.169-2.111-1.499-2.533-1.556-.471-.064-2.079,2.35-4.689,1.254-2.805-1.178-.753-5.87-.556-8.224.138-1.652-.051-3.334.03-4.988-3.744-.766-3.023,3.932-3.386,6.18-.157.97-.825,5.307-.997,5.676-.804,1.728-4.476,1.19-6.049,1.246-.244-1.248.909-.673,1.688-1.432,1.449-1.412,1-3.296,1.326-4.935.43-2.161,1.018-4.301,1.153-6.559l-2.079.832c.074-2.209,2.893-3.641,5.001-3.34l.213,1.676c1.643-.486,4.477-3.116,6.045-1.462,1.779,1.876-.118,10.01-.223,12.722-.084,2.166,1.957.598,2.227-.291.403-1.326-.071-3.599.18-5.242.232-1.516,1.616-4.543,2.644-5.698,1.714-1.925,6.327-3.777,7.066-.457.468,2.104-1.1,4.724-2.507,6.267-1.435,1.574-4.269,2.312-3.968,4.339.606,4.078,4.15.68,5.414-1.224,2.243-3.377,2.766-9.793,7.097-10.625l1.043,11.675c2.553-2.816,4.952-7.461,4.985-11.277l4.4-.397-6.205,20.388c6.065,2.171,11.312.346,15.232-4.511l2.805,2.021.256.859c-1.481.61-2.509,2.196-3.931,2.95-4.299,2.28-9.194.944-13.7.311-.48-.067-.913-.489-1.343-.706l-6.204,8.125-7.346,3.511h-5.005ZM84.58,115.174c-.985-.116-1.07-.072-1.575.716-.46.717-2.018,6.45-1.756,6.791,3.217-1.279,3.635-4.371,3.331-7.506ZM93.758,134.359h-7.716c-.778,0-5.023,2.608-5.828,3.348-4.588,4.221-3.173,9.072,3.547,7.302,3.599-.948,8.661-7.288,9.997-10.65Z"/>
      <path d="M113.78,63.453c-.107.245.003.828-.183,1.261-.933,2.177-5.292,2.64-6.893,3.968-.687.57-.846,2.322-2.138,3.285-1.764,1.315-6.32,2.71-8.392,3.283-.555.154-.958.727-1.581.721-.22.322,1.999,1.212,2.345,1.803.333.57.103,1.484.737,1.994,1.059.851,2.35-.551,1.938,2.021,1.756-.639,2.376,1.604,2.777,1.696.753.173,1.797-.127,2.752.077,3.907.834,1.42,7.31-1.556,6.569l-.606-1.456-2.551-.191-.009-1.66c-.629-.057-1.397.128-1.874-.418-1.327-1.516.407-3.661-4.735-2.989-.037-1.527-1.041-2.232-2.343-1.207.005.81-.373,1.907-.217,2.646.067.316.759.253.832.57.729,3.134-.018,7.418-.234,10.595,1.694,1.802,3.815,4.489,6.497,4.14-.394,1.688-.431,4.989-2.692,5.032-2.083.04-1.518-.837-2.023-1.553-.422-.599-1.457-.201-.7-1.812-2.206.389-1.953-1.108-2.914-2.308-.357-.446-1.193-.602-1.459-1.043-.463-.765-.226-2.371-.626-3.033-.272-.449-1.966-.501-2.41-2.274-.366-1.461.284-7.484-.548-8.009-2.081-1.315-2.729,5.647-3.138,6.619-.518,1.227-1.546,1.525-2.159,2.429-.929,1.369-.963,3.605-1.131,3.894-.176.301-.946.075-1.487.544-1.439,1.247-2.119,3.413-3.938,4.44-1.705.101-2.763,2.042-4.164,2.103-2.294.099-1.725-1.407-1.953-1.611-.245-.22-1.086-.002-1.59-.298-2.549-1.498-4.042-3.963-5.976-5.923-.39-.395-1.257-.328-1.466-.619-.17-.236-2.356-4.935-2.417-5.219-.379-1.759.811-7.066-2.024-6.812-2.448.687-1.224,4.013-1.507,6.04-.055.39-.747,2.5-.92,2.833-.742,1.425-2.097,1.317-2.314,1.649-.224.342-.146,1.909-.425,2.691-.195.546-.746.561-.865.898-.77,2.17-1.1,4.765-2.077,6.928-3.49,1.915-4.73-2.096-4.196-5.152l2.418-.514c.081-1.576,2.579-4.601,1.702-6.267-.205-.39-.858-.237-.84-.929.02-.765.409-6.647.512-7.026.177-.653,1.326-1.25,1.708-2.076.428-.925.554-3.184,1.265-3.948.483-.52,2.567-.85,2.386-2.615-2.139-.509-2.296,1.691-4.175,1.25.767,1.625-.676,1.792-1.395,2.911-.223.346.032,1.233-.447,1.682-.672.63-1.641.239-2.36.612-.332.172-.069.899-.363,1.26-.496.61-1.148,1.021-1.637,1.723-.636.913.039,2.203-1.719,1.823l.42,1.664-1.199.033-.57,2.79c-2.342,1.843-5.727-1.062-4.641-3.548.327-.749,1.894-.86,1.423-2.593l1.6-.061c.221-2.159,2.19-4.5,4.174-5.002.235-.249-.1-1.897-.332-2.218-.42-.581-1.655.257-1.292-1.076,1.82.45,2.062-1.174,3.337-1.877-.624-1.257-10.246-2.311-11.08-3.519-.373-.54-.069-1.825-.282-2.637-.574-2.185-3.398-2.625-4.35-3.783-.371-.451-.417-1.397-.992-2.044-2.387-2.686-9.685-8.464-9.166-12.188.424-3.045,7.766-4.44,10.23-4.44,4.507,0,8.553.926,12.713,2.342,3.793,1.291,8.115,3.48,11.663,4.607,1.068.339,2.248-.037,3.091.243.665.22.702,1.308,1.378,1.542.934.323,2.443-.074,3.479.062.087-1.767-2.422-1.602-3.09-2.045-.374-.248-.086-.96-.509-1.317-1.001-.845-4.205-1.894-5.577-1.639.37-2.045-.388-1.389-1.665-2.298l.832-.412c-.913-.433-.629-1.746-.929-2.198-.27-.407-1.91-.565-2.299-1.043-.95-1.167.101-2.964-3.392-2.443l-.056-3.287-1.472.022-.251-2.473c-1.878.085-2.41-2.206-.779-2.76-1.585-.848-2.133-1.828-1.581-3.673.619-2.071,4.297-.942,5.752-.285.297,1.179-.788.48-.866,1.445-.091,1.113,2.147,2.128.865,4.386l1.646.025c-.491,2.521,1.182,2.689,1.722,3.597.388.651.197,1.713.481,2.126.243.353,1.898.583,2.415,1.146.42.457.333,1.265.468,1.388.308.281,1.698-.181,2.492.255.296.163.049.847.235,1.059.684.776,2.327,2.258,3.318,2.374,3.109.365,1.809-1.791,3.311-3.183.92-.852,6.224-3.386,2.495-3.8-2.933-.326-4.31.455-6.716.83-5.162.805-2.753-3.483-.728-4.063,1.591-.456,7.418-.387,9.084-.076,1.019.191,1.473,1.317,2.597,1.573.796.181,2.458.22,3.267.112.867-.116,1.251-1.534,1.756-1.668,1.463-.388,2.581-.837,3.763-1.163,3.2-.882,6.269-.096,9.073,1.532l-.257,2.49-12.055.455c-1.046.844,2.952,1.752,3.287,1.923,1.26.64,3.146,1.672,3.611,3.062.239.712.285,3.051.613,3.354.665.614.768-.323.949-.53.747-.852,1.346-2.409,1.981-2.998,1.14-1.057,5.201-5.353,5.671-5.686s1.632-.275,2.458-.785c1.722-1.061,1.274-3.813,3.936-3.363l.013-1.656,2.09.002-.033-1.457c1.461-1.055,3.002-.548,4.573-.165l.004,2.834c-3.111-.581-2.84,2.921-3.356,3.325-.271.213-1.084-.11-1.512.138-.23.133-.299.88-.694,1.177-1.391,1.046-6.843,4.296-7.523,5.841-.426.967-.118,2.288-.692,3.271-1.897-.368-1.719.488-2.333.889-1.514.991-.99.994-1.534,1.49-1.419,1.295-3.446,2.248-4.002,4.345,1.142-.039,2.304.152,3.44-.108,1.08-.247,1.49-1.392,1.883-1.528,7.954-2.757,15.453-6.625,24.113-7.923.611-.092,5.06-.514,5.323-.464.294.056.229.754.561.838,2.776.699,7.712-.706,8.086,3.533.403,4.573-3.76,8.023-6.724,10.855-.914.873-.284.924-1.646,1.472,1.789-4.086,7.097-6.037,6.244-10.608l.86-.471c-.205-3.403-2.379-2.644-4.786-3.125-.898-.18-1.494-.716-2.514-.823-2.704-.284-5.57-.039-8.096.895l-.048,2.454c2.603-.6,5.964.476,8.526.312,1.973-.126,3.697-1.115,5.651-1.143.341,1.13-1.738,1.334-2.476,1.484-2.248.458-4.822.805-7.114,1.019l.411,3.332,5.427,1.257-.421,1.666c-1.126.353-.626-.658-1.126-.824-.614-.204-3.449-.56-4.011-.368-.488.167-3.458,4.731-3.199,4.942l2.921.197.209,1.477c1.247-.897,2.285-1.167,3.541-1.672ZM72.055,45.542c-.352-.508-7.758-1.285-7.492,1.226,2.147.392,3.078.144,4.986-.239,2.563-.514.237,4.133-1.453,2.073-1.002,1.134-1.524-.377-2.484-.165-1.086.24-.591,2.164.405,2.395l5.255-.92.783-4.37ZM22.016,59.282c.816-.736,2.629-1.545,3.667-1.962,1.502-.604,2.954-.003,3.634-1.79l.447,1.614,2.814.012,1.534-2.04c-1.425-.273-3.093.256-4.395.221-1.698-.046-3.553-.146-5.418-.204-1.951-.061-4.037-.955-6.04-.856l.006-1.251c3.055.703,5.782-2.027,8.754-2.29-1.971-1.239-6.697-.383-8.87.303-1.277.403-1.27,1.814-1.131,2.947,1.547,1.294,2.409,3.201,3.727,4.712.399.458,1.206.514,1.271.587.055.062-.027.441.167.656,1.398.827,3.522,4.98,4.937,4.697.148-.03,2.679-1.112,2.765-1.237,1.33-1.93-2.425-4.69-4.329-4.573-1.069.066-2.043,1.124-3.54.457ZM33.694,53.441c.518-2.239-3.682-2.197-5.14-2.048-1.939.197-3.738,1.171-5.703,1.22,1.187,1.841,3.985.368,5.631.378,1.598.01,3.448.838,5.212.45ZM48.548,55.696c-2.859-1.362-5.923-2.404-9.011-3.085.33,1.72,2.934,5.194,4.494,5.717,2.049.687,3.658-.147,5.281.125,1.557.26,4.12,2.531,6.49,1.66-.595-1.787-2.226-1.364-3.31-1.9-1.165-.576-2.999-2.067-3.944-2.517ZM96.155,52.73c-1.519-.556-6.935,2.428-8.741,3.254-.302.138-.274.63-.634.775-.728.295-2.405.066-3.575.854l-.29,1.251c1.707-.115,3.393-.229,5.09-.542,3.984-.736,4.75-1.373,8.893-1.155,2.301.121,4.6.01,6.869.445.209-1.569-1.437-2.276-2.294-3.333l-.413.831-.869-1.579-2.24-.083c.013,1.13-.684,2.031-1.685,2.497l.849-2.24c-.369-.1-.895-.952-.96-.975ZM71.207,53.883c-1.762.278-3.064.282-4.738-.456-.399,1.475-1.112.1-1.904,1.065l.828,1.239c-.422.581-1.385,1.065-1.583,1.757-.062.219-.511,3.847-.502,4.051.005.117.631.859,1.036,1.908.428,1.108,1.451,1.763,1.064,3.33.648.223,4.465.217,4.574.013.147-.275-.726-1.206.212-1.667.059,1.812,1.785.064,1.86-.301.151-.728-.079-1.586.055-2.37.168-.977.696-2.039.712-2.954.034-1.889-1.364-3.752-1.614-5.615ZM109.606,56.361l-.388-2.736-2.946-.178,3.335,2.913ZM105.331,54.403l-1.979-.122c.268,1.885,2.802,2.868,4.586,3.33l-2.607-3.208ZM35.658,55.201c-4.428,1.347,6.085,5.692,4.659,1.434-.452-1.35-3.396-1.818-4.659-1.434ZM36.146,58.918c-1.816-.334-4.178-2.051-5.956-.85-1.788,1.208,1.153,2.735.586,4.553l5.424-.835-.054-2.868ZM100.374,58.508c-2.003-.964-4.183-.288-6.216.131l-.359,2.275,5.531,1.725c1.413-1.142,1.26-2.354,1.043-4.131ZM107.937,59.284c-2.283.799-4.41-.729-6.669-.833l.832.836-.832,1.656c2.884,1.436,6.333,2.953,6.668-1.659ZM92.509,60.949c.715-3.556-5.13-1.827-7.09-1.039l7.09,1.039ZM41.202,59.285c-3.262-.468-4.63.904-4.171,4.169l2.249.027c.501-1.299.761-1.991,2.337-2.118l-.857-.641.442-1.436ZM95.218,61.785c-1.65-.297-4.798,0-6.674,0-.087,0-.758.703-.625.83l9.801,1.675.2-.828c-.908-.196-1.788-1.512-2.702-1.676ZM107.943,64.289c-2.634.396-4.593-1.617-7.088-2.09-1.576,4.939,1.117,3.792,4.27,4.621.294.077.621,1.398,1.979.8l-1.241-1.038,2.052-.655.028-1.637ZM45.372,62.621c-1.982-.196-4.692.839-5.837,2.496,1.943.667,2.436-1.033,3.341-1.451,1.097-.507,2.809.407,2.497-1.045ZM29.58,67.57c2.904.488,4.954-.658,5.786-3.48-2.031-1.951-3.592.195-5.787.252v3.229ZM46.938,64.426c-1.776-.81-3.144,1.035-4.907,1.317l-3.328,4.382c1.41-.207,3.648.362,4.898-.123.137-.053,1.497-1.89,1.936-2.203.642-.458,3.456-1.484,3.591-2.056-.149-1.717-1.509-.465-1.992-.704-.097-.048-.078-.558-.197-.612ZM83.607,66.934c-.266-.285-1.415-1.03-1.726-.981-.911.452-.345,1.425.18,1.905.144.132,2.781,1.973,2.951,2.031.713.245,1.321.331,2.07.235.225-1.427-2.176-1.258-2.914-1.893-.411-.353-.323-1.042-.561-1.297ZM101.263,67.212c-1.781-.094-4.038-2.394-4.583.41,1.038-.023,2.09.043,3.131.002.504-.02,1.551.314,1.452-.412ZM56.22,66.793c-3.752-.971-4.424.482-6.839,2.333-1.559,1.195-2.934.266-2.337,3.506,2.477.544,3.392-3.472,5.836-2.501l.004-1.673,1.658.826,1.677-2.491ZM38.698,66.792c-.852-.03-1.713-.057-2.548.176-.764.213-.715.856-.901.959-.921.506-2.414-.469-1.51,2.157l2.375-.048,2.584-3.244ZM92.773,70.295c-1.004-.778-3.109-2.33-4.237-2.664-1.697-.504.825,3.36,1.248,3.76.206.195,3.15,2.003,3.357,2.067,1.19.368.352-1.709.622-2.08,2.247.493,2.281,2.801,5.003,2.083l-.036-1.631c-2.328.116-1.271-.874-1.879-1.328-.587-.438-3.401-.899-3.124.417l-.59.045c-.364.061-.137-.492-.364-.668ZM100.309,69.01c-1.358-.94-3.306-.445-4.88-.549-.221,1.149.286.677.885.971,1.708.836,3.431,1.676,5.208,2.368.532.178.949-.146,1.375-.25.401-.098,2.069-.605,1.704-1.418-1.154-.667-2.494.266-3.485-.052-.531-.17-.582-.915-.807-1.071ZM37.033,72.634c.419.746,4.132,1.725,4.771,1.657,1.794-.192,5.349-2.499,2.116-3.336-3.56-.922-3.971.649-6.887,1.679ZM84.578,74.298c.857-1.092-2.372-3.05-3.33-2.918-1.017,1.105,2.816,2.621,3.33,2.918ZM57.885,71.797l-4.166.42,1.663.824c-1.988.067-4.427.914-4.164,3.341l4.546-2.33,2.121-2.256ZM62.058,75.132h12.93l-.645-2.094c-2.505,1.273-9.887-.482-11.683.82-.425.308-.707.718-.602,1.275ZM76.955,80.275c-1.484-.574-1.996.328-2.976-1.847-.298-.66.447-1.206-.749-1.733-1.163-.513-6.723-.994-6.592.94l-1.666-.654-.849,1.89-3.729-.401.861,1.078-.449,1.426-1.246-.423c-.024.525.097,1.264-.187,1.701-.409.628-1.842-.123-1.481,1.22,5.184-.551,13.208,2.569,17.991-.055.71-.39,1.03-1.58,2.018-1.621.327-.417-.861-1.49-.944-1.522ZM73.735,85.14c-1.273-.351-2.162,1.158-3.149,1.259-1.469.15-2.868-2.265-4.77-.834-.499.375,2.331.395,1.246,1.661-.711.829-.872-.854-1.042-.846-.699.034-.979.782-1.677.851-.679.067-1.42-.447-2.098-.441-1.26.01-2.294.52-3.521.022-.221,1.799.098,3.519,1.093,5.028,3.469-.483,7.151.705,10.407.012l.4.83c2.205-1.249,5.695.007,7.694-1.911,2.377-2.28-1.147-4.247-3.142-4.779l-.605-.019-.208,1.253-.63-2.086ZM48.709,92.231c-.369-2.331,1.27-4.739-.624-6.663-.711.008-1.684,3.354-.228,2.924l.022.609c-1.334.319-1.057,1.938-.444,2.947l1.273.183ZM90.358,86.875l-1.758-.452c-1.367.382.088,6.52,1.202,7.057.825.398.62-.69.633-1.055.062-1.726-.201-3.762-.077-5.55ZM75.409,96.823c.021-1.447.45-4.687-1.676-3.448l.002.945c-1.491-.97-2.251.329-3.102.378-3.042.178-3.867-.083-7.153.455-1.038.17-1.844-.842-2.671.627,4.213,1.543,6.017,7.568,11.218,4.321l-.375-1.609h2.088s-.007-1.676-.007-1.676l1.676.007Z"/>
      <path d="M58.723,103.494l-1.053,3.757c-2.42-1.88-4.702-1.552-5.521,1.556-.789,2.996-1.474,8.037-1.763,11.17-.228,2.469.078,5.047-.428,7.495l1.875-.209.213.834-6.253,2.924,1.247-12.509-3.473.485-.641.611c-.156,4.788-1.502,12.035-6.651,13.814-2.124.734-7.562,1.26-8.42-1.353l2.711-2.706c.685-.003.503,3.391,3.348,3.36,3.018-.033,3.528-6.325,3.981-8.552.296-1.454,1.384-2.848.801-4.825-.13-.151-3.05,1.159-2.496-.204.842-1.094,1.94-1.544,3.318-1.48l.848-6.657c-4.415.251-.712,8.406-6.579,4.914-.214-.379-.218-2.8-.006-3.166.503-.87,10.261-5.442,10.755-5.086.664,2.311-.564,4.772-.786,6.924-.286,2.774.084,3.713,3.008,2.59.862-.331,1.507-5.446,2.166-7.008,1.747-4.143,5.023-7.188,9.798-6.679Z"/>
      <path d="M7.981,23.254c-1.13-.854-2.131-2.313-3.766-2.7l-.969.574.299.929,8.638,8.049c2.342,3.23,4.545,6.349,3.968,10.589-.315,2.312-1.963,3.527-4.135,4.206-6.126,1.915-11.632-1.245-9.814-8.145l4.797-2.915c.333.365-2.812,5.158-.005,8.439,2.314,2.705,6.416.443,5.66-3.015-.89-4.068-7.881-8.274-10.413-11.719-4.87-6.627-1.213-8.053,5.357-9.497.328.08,1.901,4.41,1.909,4.746.014.553-.266.697-.627,1.023-.278-.233-.61-.346-.899-.565Z"/>
      <path d="M23.268,30.712c-.042.472-.533,3.391-.625,3.546-.116.195-2.253,1.725-2.496,1.668l-5.78-12.371-1.521-.975c.018.729-.642,1.348-.769,1.984-.13.653.535,2.602-.277,2.593-.373-.004-1.453-.838-1.466-1.431-.048-2.177,4.243-6.201,6.383-5.596l4.877,9.12c.174-2.212.086-5.908-.423-8.051-.073-.305-1.242-.218-.842-1.694,4.849-3.698,6.445,3.767,8.254,6.713.271.441-.014.726.939.53.475-.592-.466-7.546-1.245-8.134-.39-.295-2.601-.442-2.502-.827.829-1.786,3.308-1.888,4.795-3.123,3.086,4.598.703,10.36.413,15.422-1.182.855-2.389,1.892-3.959,1.672-.121-2.121-1.607-4.784-2.824-6.548-.256-.37.073-.767-.931-.545-.125,1.967.172,4.104,0,6.048Z"/>
      <path d="M74.047,6.836c2.169,2.277-1.744,11.703-.52,13.679.176.284.662.259.767.359,1.215,1.163-2.315,2.065-3.296,1.979-.767-.113-1.051-1.878-1.051-2.566,0-2.562,1.732-9.676.974-11.371-.196-.439.053-.648-.729-.53-3.053.529-2.058,8.672-2.301,11.058-.193,1.897-.166,3.171-2.289,3.172-3.222.002-1.197-2.658-1.049-4.841.146-2.155.31-4.96.34-7.083.005-.359-.113-2.545-.963-2.301-.898.11-1.612,1.166-1.785,1.971-.4,1.855-.716,5.757-.916,7.843-.138,1.438.107,2.92-.023,4.357l-3.314.851c-.638-4.805,1.013-9.417.833-14.183l-1.67-.204c1.32-2.408,3.748-3.66,5.209-.63,1.885-1.739,4.533-2.792,5.845.013,1.612-1.011,4.109-3.492,5.938-1.572Z"/>
      <path d="M88.232,1.413c1.214,1.228-1.797,4.648-2.814,3.65.389-1.318-.475-4.295-1.904-2.952-.934.879-1.892,4.661-2.249,6.101-.346,1.398,1.418-.059,1.901-.118,6.307-.766,4.835,11.305.986,13.845-2.736,1.806-5.782.62-8.749.641-.564-2.036.55-3.637.815-5.238.362-2.189.439-5.246.954-7.388.883-3.673,3.925-11.097,8.764-9.805.145.039,2.204,1.171,2.296,1.264ZM81.298,10.12c-.37.366-2.143,9.488-2.1,10.195.036.605.432,1.084.993,1.287,1.214-.132,2.015-.878,2.479-1.979.398-.944,1.683-5.923,1.79-6.902.071-.651-.399-2.267-.896-2.711l-2.266.109Z"/>
      <path d="M132.134,30.083c1.606-.8,3.495-.746,5.132.082,2.606,1.317-.708,5.37-1.808,6.792-.828,1.071-6.045,5.804-4.992,6.891l3.122-.42.21.831c-5.19,2.401-8.567-.369-4.984-5.507,1.038-1.489,5.127-5.131,5.615-6.164.753-1.597-.735-1.866-1.995-1.59-2.312.507-6.43,7.464-8.226,9.339l-.546.111c-.704-.391-2.402-.807-2.397-1.807.003-.611,6.448-8.6,7.529-9.603l-2.497-.622c-.232-1.892,5.051-2.044,5.86-1.483,1.036.613-.212,2.97-.021,3.151Z"/>
      <path d="M43.287,10.068c-.935,4.645-.349,9.534.421,14.176,1.672.258,1.783-2.78,2.921-1.871.092,1.068-1.725,3.194-2.815,3.432-1.082.237-2.196-.08-3.152.195-.702.202-1.213,1.289-2.267,1.512-5.867,1.24-6.383-12.477-1.928-15.3,1.931-1.224,3.427-.939,5.289-1.32.324-.066.345-1.318,1.53-.824ZM37.941,24.993c.154.202.77.141.969.496.418-.281.543-.538.627-1.028.554-3.213-1.199-7.995-.424-11.475-2.145.787-2.202,4.808-2.073,6.877.041.654.743,4.924.901,5.131Z"/>
      <path d="M94.595,10.064c.717,4.328-3.255,8.551-3.669,12.424-.369,3.458,2.214,1.169,3.253-.532,1.228-2.011,3.156-9.08,3.956-9.806,1.341-1.218,2.426.753,3.966.422-.699,1.69-5.692,12.173-5.003,12.924l1.663.206c-.884,1.069-2.987,1.444-4.181.844-.636-.319-.678-1.437-1.091-1.498-.999-.147-3.875.996-5.51-.025-1.284-4.824,2.25-9.028,2.44-13.705l-1.663.209c1.467-1.963,3.687-1.435,5.839-1.464Z"/>
      <path d="M61.094,127.558c-.292.347-2.193,1.598-2.666,1.709-11.346,2.656-6.232-17.543,1.961-15.586,5.455,1.303,3.354,10.734.705,13.877ZM60.39,115.173c-1.803-.824-2.272.252-3.079,1.718-1.892,3.438-2.449,7.799-1.925,11.632,1.549.234,2.29-.558,2.999-1.798.268-.468,2.005-4.813,2.005-5.086v-6.465Z"/>
      <path d="M108.776,20.074c-.017-1.888.579-3.569-1.666-4.169-.828,3.261,1.617,6.445,1.682,9.406.085,3.854-3.463,5.739-6.675,3.713-1.763-1.112-1.755-2.784-2.389-4.577.08-.828,3.489-2.183,3.463-.597-.031,1.861-.989,3.149,1.204,4.56.24-.279.688-.523.834-.837,1.119-2.402-3.982-11.75-.36-12.794,1.503-.434,6.434.568,6.407,2.575-.008.623-1.605,3.628-2.5,2.719Z"/>
      <path d="M53.718,12.983l-.004-3.75c-.669-.147-.859.207-1.25.623-2.638,2.808-.546,9.964-1.015,13.586l-3.57.807-.865-11.787-.769-.885c.554-1.023,3.255-4.506,4.582-3.424l.594,1.494c.846-.842,1.355-2.662,2.824-2.446.998.383,2.102.983,1.983,2.207-.043.445-1.829,4.352-2.509,3.576Z"/>
      <path d="M119.617,16.741l-1.666,3.748c1.211.008,2.904.655,2.918,2.087l-3.109-.847c-.646.061-.889.412-1.255.865-1.687,2.086-3.087,6.271-4.803,8.544-.488,1.648,2.803-.628,3.33-.213-.89,3.245-7.951,3.326-6.906-.431.494-1.774,6.659-10.216,5.658-11.25-.45-.091-2.037.392-1.668-.621.351-.961,1.856-.021,2.626-.189.466-.102.46-1.326,1.409-1.618.999-.308,2.397.038,3.466-.074Z"/>
      <path d="M126.293,23.83c.866.84-4.362,5.718-4.99,6.573-.341.464-2.423,3.778-2.512,4.071-.406,1.332,2.34.276,2.724.334l.605,1.116c-1.962.118-7.796,2.604-7.302-1.276.359-2.824,5.187-7.046,6.884-9.363.148-1.294-.716.139-1.667-.409-.703-.405.04-1.045.21-1.045h6.048Z"/>
      <path d="M147.15,30.084c.279,4.07-2.195,6.848-6.258,7.088,1.901-2.412,3.541-3.968,1.251-7.083l5.007-.006Z"/>
      <path d="M73.739,31.752c.637-1.721-.968-1.71-1.188-2.341-.71-2.04.579-3.155,2.555-2.595,2.317.656.752,4.847-1.367,4.937Z"/>
      <path d="M81.138,30.014c-.113.131-.511.084-.723.077l.857.632-.934,2.222c-1.666.335-3.888-1.176-2.668-2.892.466-.656,2.3-.052,2.738-1.013.194-.424.217-1.214-.614-1.031-.975.215-.784,1.104-1.464,1.241l-.006-1.664,2.531.18c.465.325.617,1.863.284,2.249Z"/>
      <path d="M131.298,19.246l-1.945,2.431-5.144.066c.57-2.262,5.138-2.025,7.089-2.496Z"/>
      <path d="M85.418,31.756l-1.253-.831,1.667-1.252-2.5-.425c.386-1.077,1.079-.89,1.969-.516,2.804,1.181.047,7.758-2.795,4.065l2.255.198.657-1.239Z"/>
      <path d="M55.8,28.003c.592,1.383-2.832.076-2.079,1.451.332.607,6.613,2.184.604,3.847l-.608-1.128,2.077-.628-2.296-1.043c-1.214-1.809.421-2.871,2.303-2.5Z"/>
      <polygon points="51.211 28.836 49.126 29.667 49.132 31.754 51.211 30.922 49.547 33.002 52.265 33.013 52.466 33.836 49.747 34.648 48.292 29.254 51.211 28.836"/>
      <path d="M61.641,27.17l-1.702,1.075c-.281,1.093,1.564,4.5-.381,4.341l-.438-4.567c-.357-.33-2.07.616-1.647-.851l4.169.002Z"/>
      <path d="M70.395,31.751c-.619.068-.762-1.11-.8-1.518-.046-.501-.076-3.919.597-3.893,1.239,1.366.593,3.808.203,5.411Z"/>
      <path d="M68.73,56.362c.277.253.096,5.739.004,6.473-.077.613-.331,1.292-.834.616.312-2.256-.568-4.221-.871-6.395l1.701-.694Z"/>
    </g>
  </g>
</svg>