<?xml version="1.0" encoding="UTF-8"?>
<svg id="b" data-name="Layer 2" xmlns="http://www.w3.org/2000/svg" width="420.199" height="74.25" viewBox="0 0 420.199 74.25">
  <g id="c" data-name="Layer 2">
    <g>
      <path d="M82.747,59.09l-30.565,13.492-6.109-5.531-2.647,7.187-32.966.012L0,41.766l13.46-10.306,3.334-24.578L49.353,0l12.897,21.278,16.62,4.255,3.877,33.557ZM48.116,4.9l-27.248,5.287c-2.573,1.89-1.407,14.015-2.916,17.495l9.008-5.516,11.539,8.301,7.576-11.768,10.074,1.831-8.032-15.629ZM48.663,22.837l-6.102,10.124,8.916,6.764c1.785-2.092,9.943-9.605,9.76-11.641-.358-3.979-9.448-4.338-12.574-5.246ZM75.523,28.498l-9.989-2.243c-.195,1.217.886,2.36.38,3.559-1.545,3.66-10.051,9.463-12.23,13.668-2.535,4.892-3.222,13.154-6.042,18.343-.013,1.013,4.39,7.262,6.352,5.646l24.158-11.146-2.629-27.826ZM26.419,27.075c-3.405,3.047-11.009,5.329-9.072,10.875.55,1.576,10.895,5.314,13.143,6.1l6.099-10.188-10.171-6.787ZM40.657,36.286l-6.109,9.656,7.563,3.722c9.044-7.171,6.473-7.451-1.454-13.378ZM13.055,40.427c-.578-1.007.362-2.737-.508-3.433l-8.284,6.749,8.597,26.569h28.201s2.014-7.053,2.014-7.053c-.264-1.034-12.953-14.711-14.519-15.686-2.267-1.411-14.956-6.197-15.501-7.146ZM38.862,52.019l5.399,7.142,3.237-8.574-4.061,3.464-4.576-2.033Z"/>
      <path d="M334.24,12.126c40.21-5.413,43.766,49.824,8.453,52.764-37.161,3.094-40.784-48.412-8.453-52.764ZM334.225,19.268c-20.17,3.356-19.923,35.526,2.052,38.416,30.877,4.061,31.826-44.054-2.052-38.416Z"/>
      <path d="M412.99,48.441V13.372h7.209v51.53c-1.001.047-1.38.22-2.194-.485-6.602-5.714-13.857-14.912-20.158-21.339-4.904-5.002-9.906-10.012-15.134-14.676v35.069c-2.374-.266-5.493.889-7.209-1.074V11.941l37.486,36.5Z"/>
      <path d="M142.661,63.47V13.372h18.382c5.037,0,13.288,4.73,16.587,8.581,13.883,16.205,1.712,41.517-19.471,41.517h-15.499ZM149.87,56.313c15.484,2.77,32.046-8.734,25.159-25.336-4.185-10.089-15.398-11.507-25.159-11.164v36.5Z"/>
      <path d="M260.799,49.208c2.305,5.572,7.466,9.757,13.834,8.227,2.828-.68,6.346-4.214,6.336-7.207-.04-11.8-22.055-10.36-24.232-23.069-2.919-17.035,21.714-19.919,30.088-8.419l-5.394,4.63c-3.445-5.799-18.5-6.405-17.658,1.746.551,5.335,11.193,8.001,15.353,10.585,19.554,12.144,3.833,36.795-15.846,27.183-4.953-2.419-7.136-6.591-9.585-11.226l7.106-2.449Z"/>
      <path d="M131.848,13.372v6.441h-16.941l-3.241,9.3c17.842-2.276,27.274,21.048,12.922,31.802-7.293,5.465-17.674,5.297-24.802-.325-6.208-4.897-3.902-5.209,2.042-8.497,8.305,11.232,26.244,4.471,21.536-9.901-2.677-8.173-15.393-8.382-21.065-3.056l6.481-25.765h23.068Z"/>
      <path d="M193.007,13.489c1.72,1.07,12.227,30.576,15.614,34.221l15.614-34.221,7.091-.114-22.715,50.804-22.62-49.823c-.307-1.362,0-.872.988-.986,1.028-.119,5.513-.202,6.028.119Z"/>
      <path d="M303.417,13.372v49.025c-1.549,1.688-5.658,1.689-7.209,0V13.372h7.209Z"/>
      <rect x="238.538" y="13.372" width="6.488" height="50.098"/>
    </g>
  </g>
</svg>