<?xml version="1.0" encoding="UTF-8"?>
<svg id="b" data-name="Layer 2" xmlns="http://www.w3.org/2000/svg" width="104.633" height="155.603" viewBox="0 0 104.633 155.603">
  <g id="c" data-name="Layer 2">
    <g>
      <polygon points="7.96 66.529 4.848 66.529 4.848 64.143 7.96 61.939 7.96 66.529"/>
      <polygon points="7.96 73.011 4.848 73.011 4.848 70.6 7.96 68.396 7.96 73.011"/>
      <polygon points="7.96 60.046 4.848 60.046 4.848 57.66 7.96 55.456 7.96 60.046"/>
      <path d="M59.46,55.067h-8.661v25.361c2.775-.13,5.757-.259,8.661-.259v-25.102h0ZM57.671,75.06v-16.622h1.867v16.622h-1.867Z"/>
      <path d="M9.775,77.005c1.815-.311,3.812.57,4.797,2.075.052.13.182.311.259.441,0,0,.052,0,.052-.052,2.593-1.608,6.224-1.089,8.091,1.556v-29.251H7.493v26.009c.648-.441,1.348-.778,2.204-.778h.078ZM10.424,55.067s0-.052,0,0l1.997-.052s.052,0,.052.052v4.408s0,.052-.052.052h-1.945s-.052,0-.052-.052v-4.408ZM10.424,61.991q0-.052,0,0l1.997-.052s.052,0,.052.052v4.408s0,.052-.052.052h-1.945s-.052,0-.052-.052v-4.408ZM10.424,68.862s0-.078,0,0l1.997-.052s.052,0,.052.052v4.408s0,.052-.052.052h-1.945s-.052,0-.052-.052v-4.408Z"/>
      <path d="M77.586,48.48h-18.126v31.636h.7c.519,0,1.037,0,1.556.052,2.256.052,4.46.259,6.742.519v-8.091h-5.057l14.236-10.813v-13.303h-.052ZM68.018,61.213v5.368h-3.241v-5.368M68.018,57.53h-3.241v-5.368h3.241v5.368Z"/>
      <path d="M93.249,72.622v14.807c4.201,1.867,7.883,3.942,10.813,6.224v-51.059h-4.538v-3.63h-14.236v3.63h-4.408v16.83l17.478,13.277h-5.109v-.078ZM86.792,59.086l-1.556-1.167v-10.865h1.556v12.032ZM93.197,63.935l-1.556-1.167v-15.715h1.556v16.881ZM98.046,67.566v-20.59h1.556v21.757l-1.556-1.167Z"/>
      <polygon points="98.046 72.363 98.046 72.493 98.098 72.493 98.046 72.363"/>
      <g>
        <path d="M77.586,72.493h-.648v9.647c.182.052.441.13.648.13,1.089.259,2.204.519,3.293.83,1.167.311,2.334.648,3.501,1.037v-11.643h-6.794Z"/>
        <path d="M80.906,59.346h0l-3.293,2.463-14.236,10.813h5.083v8.091c1.867.182,3.682.519,5.497.83v-9.439h-2.775l6.353-5.057,3.034-2.463.182.182,9.18,7.313h-2.775v12.966c2.075.7,4.019,1.478,5.886,2.334v-14.807h5.109l-17.244-13.225ZM98.046,72.363l.13.052h-.13v-.052Z"/>
      </g>
      <path d="M80.698,64.661l-9.439,7.442h2.775v9.439c.959.182,1.945.389,2.904.57v-9.647h7.442v11.643c.959.311,1.945.648,2.904.959v-12.94h2.775l-9.361-7.468Z"/>
      <path d="M18.644,80.635c-2.075-.259-4.071.908-5.316,2.852.182-2.852-.57-4.849-2.256-5.886-.83-.441-1.297-.57-1.297-.57h.052-.052c-.83.052-1.556.311-2.204.778-1.089.778-1.737,2.075-1.686,3.553,0,.441.13.908.311,1.297h-.311c-1.608.052-2.852,1.478-2.723,3.112.052.648.259,1.219.648,1.686-1.556,1.089-2.515,2.982-2.386,4.979.052,1.478.778,2.852,1.737,3.76,4.331-3.812,10.736-8.013,19.604-10.943-.259-2.489-1.66-4.279-4.123-4.616Z"/>
      <path d="M12.809,48.791c-.389,0-.778-.13-1.089-.389-.83-.57-1.037-1.815-.389-2.593,2.593-3.501,6.742-5.575,11.125-5.575,3.034,0,5.886.959,8.272,2.723,2.075-7.572,9.309-13.069,17.996-13.069,5.835,0,11.254,2.515,14.755,6.794,1.997-2.334,4.927-3.682,8.013-3.682.7,0,1.426.052,2.126.182-.052-.441-.052-.908-.052-1.348,0-7.702,6.535-13.977,14.496-13.977,6.872,0,12.888,4.72,14.236,11.202.182,1.037-.441,1.997-1.426,2.204-1.037.182-1.997-.441-2.204-1.426-.959-4.797-5.446-8.22-10.554-8.22-5.964,0-10.736,4.59-10.736,10.217,0,1.297.259,2.515.778,3.76.311.778.052,1.608-.519,2.126-.648.519-1.556.57-2.204.13-1.089-.778-2.463-1.167-3.76-1.167-2.723,0-5.186,1.608-6.275,4.071-.259.648-.908,1.089-1.608,1.089-.7.052-1.348-.311-1.737-.959-2.593-4.538-7.624-7.365-13.147-7.365-8.013,0-14.574,5.835-14.807,13.277,0,.778-.57,1.478-1.297,1.686-.778.259-1.556,0-2.075-.648-1.867-2.463-4.849-3.942-8.091-3.942s-6.275,1.478-8.091,4.019c-.57.622-1.141.882-1.737.882Z"/>
      <path d="M39.026,82.113c3.241-.57,6.483-.908,9.647-.959v-13.977h4.849l-16.622-12.681-16.622,12.629h4.849v17.348c2.982-.83,6.224-1.556,9.647-1.997v-10.165h4.149l.104,9.802"/>
      <path d="M20.589,34.555h-.389c-1.037-.182-1.686-1.167-1.478-2.204,1.997-10.813,11.851-18.515,22.846-17.867,6.613.389,12.629,3.682,16.492,9.05.57.83.389,1.997-.441,2.593-.83.57-1.997.389-2.593-.441-3.241-4.46-8.22-7.183-13.718-7.494-9.128-.519-17.27,5.835-18.904,14.807-.156.985-.908,1.556-1.815,1.556Z"/>
      <path d="M25.36,13.732c-.57,0-1.167-.259-1.556-.778l-3.475-4.979c-.57-.83-.389-1.997.441-2.593.83-.57,1.997-.389,2.593.441l3.501,4.979c.57.83.389,1.997-.441,2.593-.337.207-.674.337-1.063.337Z"/>
      <path d="M15.014,25.168c-.259,0-.519,0-.778-.13l-5.705-2.126c-.959-.389-1.478-1.426-1.089-2.386s1.426-1.478,2.386-1.089l5.705,2.126c.959.389,1.478,1.426,1.089,2.386-.182.778-.908,1.219-1.608,1.219Z"/>
      <path d="M40.323,9.713h-.182c-1.037-.052-1.815-.959-1.686-1.997l.519-6.016c.052-1.037.959-1.815,1.997-1.686,1.037.052,1.815.959,1.686,1.997l-.519,6.016c0,.908-.856,1.686-1.815,1.686Z"/>
      <path d="M55.519,14.121c-.441,0-.959-.182-1.297-.519-.7-.7-.778-1.867,0-2.645l4.279-4.331c.7-.7,1.867-.778,2.645,0,.7.7.778,1.867,0,2.645l-4.279,4.331c-.363.389-.83.519-1.348.519Z"/>
      <path d="M35.863,83.747c-13.329.648-28.421,10.943-35.137,21.808,10.165-8.143,26.087-13.847,44.395-15.014.83-5.238-4.227-7.053-9.258-6.794Z"/>
      <path d="M48.673,81.102c-3.164.13-6.405.389-9.647.959,6.664.259,13.407,1.297,16.492,8.22,20.382.648,38.301,6.872,49.114,15.974-3.812-11.047-28.862-26.061-55.96-25.154Z"/>
      <path d="M46.495,102.365c-.259-.311-.7-.389-1.348-.389l-.83.052v3.786l.908-.052c.648-.052,1.089-.259,1.348-.571.182-.311.311-.83.311-1.478s-.13-1.089-.389-1.348ZM46.806,108.614c-.052-.259-.13-.441-.259-.648-.13-.182-.311-.259-.519-.389-.182-.052-.519-.13-.908-.052l-.908.052.104,4.512.83-.052c.389,0,.7-.13.959-.259s.389-.311.519-.519c.13-.182.182-.441.182-.778,0-.259.052-.571.052-.959,0-.311,0-.648-.052-.908ZM55.779,103.298c0-.441-.13-.83-.389-1.089-.259-.259-.57-.389-.959-.389s-.7.052-.959.311c-.259.182-.389.571-.389,1.037l.052,7.365c0,.441.13.83.389,1.089s.57.389.959.389.7-.052.959-.311c.259-.182.389-.57.389-1.037l-.052-7.365ZM55.779,103.298c0-.441-.13-.83-.389-1.089-.259-.259-.57-.389-.959-.389s-.7.052-.959.311c-.259.182-.389.571-.389,1.037l.052,7.365c0,.441.13.83.389,1.089s.57.389.959.389.7-.052.959-.311c.259-.182.389-.57.389-1.037l-.052-7.365ZM46.806,108.614c-.052-.259-.13-.441-.259-.648-.13-.182-.311-.259-.519-.389-.182-.052-.519-.13-.908-.052l-.908.052.104,4.512.83-.052c.389,0,.7-.13.959-.259s.389-.311.519-.519c.13-.182.182-.441.182-.778,0-.259.052-.571.052-.959,0-.311,0-.648-.052-.908ZM46.495,102.365c-.259-.311-.7-.389-1.348-.389l-.83.052v3.786l.908-.052c.648-.052,1.089-.259,1.348-.571.182-.311.311-.83.311-1.478s-.13-1.089-.389-1.348ZM46.495,102.365c-.259-.311-.7-.389-1.348-.389l-.83.052v3.786l.908-.052c.648-.052,1.089-.259,1.348-.571.182-.311.311-.83.311-1.478s-.13-1.089-.389-1.348ZM46.806,108.614c-.052-.259-.13-.441-.259-.648-.13-.182-.311-.259-.519-.389-.182-.052-.519-.13-.908-.052l-.908.052.104,4.512.83-.052c.389,0,.7-.13.959-.259s.389-.311.519-.519c.13-.182.182-.441.182-.778,0-.259.052-.571.052-.959,0-.311,0-.648-.052-.908ZM55.779,103.298c0-.441-.13-.83-.389-1.089-.259-.259-.57-.389-.959-.389s-.7.052-.959.311c-.259.182-.389.571-.389,1.037l.052,7.365c0,.441.13.83.389,1.089s.57.389.959.389.7-.052.959-.311c.259-.182.389-.57.389-1.037l-.052-7.365ZM64.803,104.024c-.052-.259-.13-.519-.259-.7s-.311-.389-.519-.519c-.182-.13-.519-.182-.908-.259l-1.037-.13.182,4.434,1.089.13c.311.052.648.052.83-.052.182-.052.389-.182.441-.389.13-.182.182-.389.182-.648.052-.259.052-.571.052-.908s0-.648-.052-.959ZM64.803,104.024c-.052-.259-.13-.519-.259-.7s-.311-.389-.519-.519c-.182-.13-.519-.182-.908-.259l-1.037-.13.182,4.434,1.089.13c.311.052.648.052.83-.052.182-.052.389-.182.441-.389.13-.182.182-.389.182-.648.052-.259.052-.571.052-.908s0-.648-.052-.959ZM55.779,103.298c0-.441-.13-.83-.389-1.089-.259-.259-.57-.389-.959-.389s-.7.052-.959.311c-.259.182-.389.571-.389,1.037l.052,7.365c0,.441.13.83.389,1.089s.57.389.959.389.7-.052.959-.311c.259-.182.389-.57.389-1.037l-.052-7.365ZM46.806,108.614c-.052-.259-.13-.441-.259-.648-.13-.182-.311-.259-.519-.389-.182-.052-.519-.13-.908-.052l-.908.052.104,4.512.83-.052c.389,0,.7-.13.959-.259s.389-.311.519-.519c.13-.182.182-.441.182-.778,0-.259.052-.571.052-.959,0-.311,0-.648-.052-.908ZM46.495,102.365c-.259-.311-.7-.389-1.348-.389l-.83.052v3.786l.908-.052c.648-.052,1.089-.259,1.348-.571.182-.311.311-.83.311-1.478s-.13-1.089-.389-1.348ZM46.495,102.365c-.259-.311-.7-.389-1.348-.389l-.83.052v3.786l.908-.052c.648-.052,1.089-.259,1.348-.571.182-.311.311-.83.311-1.478s-.13-1.089-.389-1.348ZM46.806,108.614c-.052-.259-.13-.441-.259-.648-.13-.182-.311-.259-.519-.389-.182-.052-.519-.13-.908-.052l-.908.052.104,4.512.83-.052c.389,0,.7-.13.959-.259s.389-.311.519-.519c.13-.182.182-.441.182-.778,0-.259.052-.571.052-.959,0-.311,0-.648-.052-.908ZM55.779,103.298c0-.441-.13-.83-.389-1.089-.259-.259-.57-.389-.959-.389s-.7.052-.959.311c-.259.182-.389.571-.389,1.037l.052,7.365c0,.441.13.83.389,1.089s.57.389.959.389.7-.052.959-.311c.259-.182.389-.57.389-1.037l-.052-7.365ZM64.803,104.024c-.052-.259-.13-.519-.259-.7s-.311-.389-.519-.519c-.182-.13-.519-.182-.908-.259l-1.037-.13.182,4.434,1.089.13c.311.052.648.052.83-.052.182-.052.389-.182.441-.389.13-.182.182-.389.182-.648.052-.259.052-.571.052-.908s0-.648-.052-.959ZM82.41,108.433c0-.441-.13-.908-.389-1.167-.259-.311-.57-.519-.908-.648-.311-.13-.648-.13-.908.052-.259.13-.389.441-.389.959l.052,7.365c0,.441.13.908.389,1.167.259.311.57.519.908.648s.648.052.908-.052c.259-.104.389-.441.389-.959l-.052-7.365ZM90.735,111.752c0-.441-.13-.908-.389-1.219s-.519-.57-.83-.7c-.311-.13-.648-.13-.83-.052-.259.13-.389.441-.389.908l.052,7.365c0,.441.13.908.389,1.219s.519.57.83.7c.311.13.648.13.83.052s.389-.441.389-.908l-.052-7.365ZM90.735,111.752c0-.441-.13-.908-.389-1.219s-.519-.57-.83-.7c-.311-.13-.648-.13-.83-.052-.259.13-.389.441-.389.908l.052,7.365c0,.441.13.908.389,1.219s.519.57.83.7c.311.13.648.13.83.052s.389-.441.389-.908l-.052-7.365ZM82.41,108.433c0-.441-.13-.908-.389-1.167-.259-.311-.57-.519-.908-.648-.311-.13-.648-.13-.908.052-.259.13-.389.441-.389.959l.052,7.365c0,.441.13.908.389,1.167.259.311.57.519.908.648s.648.052.908-.052c.259-.104.389-.441.389-.959l-.052-7.365ZM64.803,104.024c-.052-.259-.13-.519-.259-.7s-.311-.389-.519-.519c-.182-.13-.519-.182-.908-.259l-1.037-.13.182,4.434,1.089.13c.311.052.648.052.83-.052.182-.052.389-.182.441-.389.13-.182.182-.389.182-.648.052-.259.052-.571.052-.908s0-.648-.052-.959ZM55.779,103.298c0-.441-.13-.83-.389-1.089-.259-.259-.57-.389-.959-.389s-.7.052-.959.311c-.259.182-.389.571-.389,1.037l.052,7.365c0,.441.13.83.389,1.089s.57.389.959.389.7-.052.959-.311c.259-.182.389-.57.389-1.037l-.052-7.365ZM46.806,108.614c-.052-.259-.13-.441-.259-.648-.13-.182-.311-.259-.519-.389-.182-.052-.519-.13-.908-.052l-.908.052.104,4.512.83-.052c.389,0,.7-.13.959-.259s.389-.311.519-.519c.13-.182.182-.441.182-.778,0-.259.052-.571.052-.959,0-.311,0-.648-.052-.908ZM46.495,102.365c-.259-.311-.7-.389-1.348-.389l-.83.052v3.786l.908-.052c.648-.052,1.089-.259,1.348-.571.182-.311.311-.83.311-1.478s-.13-1.089-.389-1.348ZM46.495,102.365c-.259-.311-.7-.389-1.348-.389l-.83.052v3.786l.908-.052c.648-.052,1.089-.259,1.348-.571.182-.311.311-.83.311-1.478s-.13-1.089-.389-1.348ZM46.806,108.614c-.052-.259-.13-.441-.259-.648-.13-.182-.311-.259-.519-.389-.182-.052-.519-.13-.908-.052l-.908.052.104,4.512.83-.052c.389,0,.7-.13.959-.259s.389-.311.519-.519c.13-.182.182-.441.182-.778,0-.259.052-.571.052-.959,0-.311,0-.648-.052-.908ZM55.779,103.298c0-.441-.13-.83-.389-1.089-.259-.259-.57-.389-.959-.389s-.7.052-.959.311c-.259.182-.389.571-.389,1.037l.052,7.365c0,.441.13.83.389,1.089s.57.389.959.389.7-.052.959-.311c.259-.182.389-.57.389-1.037l-.052-7.365ZM64.803,104.024c-.052-.259-.13-.519-.259-.7s-.311-.389-.519-.519c-.182-.13-.519-.182-.908-.259l-1.037-.13.182,4.434,1.089.13c.311.052.648.052.83-.052.182-.052.389-.182.441-.389.13-.182.182-.389.182-.648.052-.259.052-.571.052-.908s0-.648-.052-.959ZM82.41,108.433c0-.441-.13-.908-.389-1.167-.259-.311-.57-.519-.908-.648-.311-.13-.648-.13-.908.052-.259.13-.389.441-.389.959l.052,7.365c0,.441.13.908.389,1.167.259.311.57.519.908.648s.648.052.908-.052c.259-.104.389-.441.389-.959l-.052-7.365ZM90.735,111.752c0-.441-.13-.908-.389-1.219s-.519-.57-.83-.7c-.311-.13-.648-.13-.83-.052-.259.13-.389.441-.389.908l.052,7.365c0,.441.13.908.389,1.219s.519.57.83.7c.311.13.648.13.83.052s.389-.441.389-.908l-.052-7.365ZM98.618,115.927c0-.519-.13-1.037-.311-1.426s-.519-.778-1.037-1.037l-.778-.441.052,10.191.778.441c.519.259.83.311,1.037.182.182-.182.311-.519.311-1.167l-.052-6.742ZM64.803,104.024c-.052-.259-.13-.519-.259-.7s-.311-.389-.519-.519c-.182-.13-.519-.182-.908-.259l-1.037-.13.182,4.434,1.089.13c.311.052.648.052.83-.052.182-.052.389-.182.441-.389.13-.182.182-.389.182-.648.052-.259.052-.571.052-.908s0-.648-.052-.959ZM55.779,103.298c0-.441-.13-.83-.389-1.089-.259-.259-.57-.389-.959-.389s-.7.052-.959.311c-.259.182-.389.571-.389,1.037l.052,7.365c0,.441.13.83.389,1.089s.57.389.959.389.7-.052.959-.311c.259-.182.389-.57.389-1.037l-.052-7.365ZM46.547,107.966c-.13-.182-.311-.259-.519-.389-.182-.052-.519-.13-.908-.052l-.908.052.104,4.512.83-.052c.389,0,.7-.13.959-.259s.389-.311.519-.519c.13-.182.182-.441.182-.778,0-.259.052-.571.052-.959,0-.311,0-.648-.052-.908-.052-.259-.13-.441-.259-.648ZM46.573,105.191c.182-.311.311-.83.311-1.478s-.13-1.089-.389-1.348c-.259-.311-.7-.389-1.348-.389l-.83.052v3.786l.908-.052c.648-.052,1.089-.259,1.348-.571ZM82.41,108.433c0-.441-.13-.908-.389-1.167-.259-.311-.57-.519-.908-.648-.311-.13-.648-.13-.908.052-.259.13-.389.441-.389.959l.052,7.365c0,.441.13.908.389,1.167.259.311.57.519.908.648s.648.052.908-.052c.259-.104.389-.441.389-.959l-.052-7.365ZM90.735,111.752c0-.441-.13-.908-.389-1.219s-.519-.57-.83-.7c-.311-.13-.648-.13-.83-.052-.259.13-.389.441-.389.908l.052,7.365c0,.441.13.908.389,1.219s.519.57.83.7c.311.13.648.13.83.052s.389-.441.389-.908l-.052-7.365ZM98.618,115.927c0-.519-.13-1.037-.311-1.426s-.519-.778-1.037-1.037l-.778-.441.052,10.191.778.441c.519.259.83.311,1.037.182.182-.182.311-.519.311-1.167l-.052-6.742ZM103.934,107.473c-14.625-9.206-32.363-14.185-51.267-14.444h-.752c-18.904.259-36.693,5.316-51.396,14.496-.337.182-.519.571-.519.959v30.599c0,.467.259.856.648,1.037.207.078.337.13.519.13.259,0,.519-.13.648-.13,15.922-11.721,30.547-16.518,50.463-16.544,19.889.13,34.437,4.849,50.359,16.441.337.182.778.233,1.167.052.389-.207.648-.596.648-1.037v-30.599c0-.389-.207-.778-.519-.959ZM97.347,111.57c.959.57,1.737,1.297,2.256,2.256.519.908.778,1.945.778,3.112l.052,6.535c0,1.297-.259,2.126-.778,2.386-.519.311-1.348.182-2.386-.441l-2.386-1.348-.13-13.977,2.593,1.478ZM86.715,108.536c.182-.311.389-.571.7-.778.311-.13.648-.182.959-.182.389,0,.7.13,1.089.259.389.182.7.389,1.089.7.389.311.7.648.96,1.089.311.389.519.83.7,1.348s.259,1.037.259,1.608l.052,7.365c0,.57-.052,1.037-.259,1.348-.182.311-.389.57-.7.778-.311.13-.648.182-.959.182-.389,0-.7-.13-1.089-.259-.389-.182-.7-.389-1.089-.7s-.7-.648-.959-1.089c-.311-.389-.519-.83-.7-1.348s-.259-1.037-.259-1.608l-.052-7.365c0-.57.052-1.037.259-1.348ZM78.106,105.554c.207-.389.441-.648.7-.83.311-.182.648-.259,1.037-.311.389,0,.778,0,1.167.13s.778.311,1.167.571.7.571,1.037.959c.311.389.57.83.778,1.297.182.519.259,1.037.259,1.556l.052,7.365c0,.57-.052,1.037-.259,1.426-.182.389-.441.648-.7.83-.259.182-.648.259-1.037.311-.389,0-.778,0-1.167-.13s-.778-.311-1.167-.571-.7-.57-1.037-.959c-.311-.389-.571-.83-.778-1.297-.182-.519-.259-1.037-.259-1.608l-.052-7.313c0-.571.052-1.037.259-1.426ZM71.13,102.054l.052,6.016,2.386.519-.052-6.016,1.945.441.052,13.977-1.945-.441-.052-6.224-2.386-.519.052,6.224-1.945-.441-.052-13.977,1.945.441ZM35.267,101.483l.052,6.016,2.463-.389-.052-6.016,1.997-.311.052,13.977-1.997.311-.052-6.224-2.463.389.052,6.224-1.997.311-.052-13.977,1.997-.311ZM24.661,105.814c.182-.441.441-.908.7-1.297.311-.389.648-.648,1.037-.908s.778-.441,1.167-.519c.389-.13.778-.13,1.167-.052.389.052.7.13,1.037.389.311.182.57.519.778.83.182.389.311.83.311,1.426v.7l-1.945.519v-.7c0-.441-.13-.778-.389-.959-.259-.13-.57-.182-.908-.13-.311.052-.648.259-.908.571-.259.311-.389.7-.389,1.167l.052,7.365c0,.441.13.778.389.959.259.13.571.182.908.13.311-.052.648-.311.908-.57.259-.311.389-.7.389-1.167v-2.645l-1.556.389v-1.737l3.501-.908v4.408c0,.57-.052,1.089-.259,1.556-.182.441-.441.908-.7,1.219-.311.389-.648.648-1.037.908s-.778.441-1.167.519c-.389.13-.778.13-1.167.052s-.7-.13-1.037-.389c-.311-.182-.57-.441-.778-.83-.182-.389-.259-.83-.311-1.426l-.052-7.313c0-.571.052-1.089.259-1.556ZM21.99,104.906l.052,13.977-1.867.648-.052-13.977,1.867-.648ZM12.758,108.536l5.498-2.334v1.867l-3.63,1.556v4.071l3.164-1.348v1.867l-3.164,1.348v4.071l3.63-1.556v1.997l-5.498,2.334v-13.873ZM4.331,112.919l1.686-.908,2.723,7.002h.052l-.052-8.402,1.737-.959.052,13.977-1.686.908-2.723-6.924h-.052l.052,8.402-1.737.959-.052-14.055ZM4.408,133.975l.052-2.334c8.609-5.057,17.996-9.206,34.437-10.865,3.034-.311,7.131-.389,9.387-.13-21.627.778-34.826,7.624-43.876,13.329ZM48.725,109.937c0,1.219-.259,2.204-.83,2.904-.571.7-1.556,1.089-2.852,1.219l-2.723.182-.052-14.003,2.904-.182c.648-.052,1.167,0,1.608.182.441.182.83.389,1.089.7.259.311.519.648.648,1.089.13.389.182.83.182,1.297v.519c0,.389,0,.7-.052.959s-.13.519-.259.7-.259.389-.441.571c-.182.182-.389.311-.571.441.441.182.83.519,1.037.908.182.441.311.959.311,1.737v.778ZM57.672,112.245c-.182.389-.441.778-.778,1.037-.311.259-.648.441-1.089.571-.389.13-.778.182-1.219.13-.389,0-.778-.13-1.219-.259-.389-.182-.778-.389-1.089-.7s-.57-.648-.778-1.089c-.182-.441-.311-.959-.311-1.478l-.052-7.365c0-.571.052-1.037.259-1.478.182-.441.441-.778.778-1.037s.648-.441,1.089-.57c.389-.13.778-.182,1.219-.13.389,0,.778.13,1.219.259.389.182.778.389,1.089.7.311.311.571.648.778,1.089.182.441.311.959.311,1.478l.052,7.365c0,.571-.052,1.089-.259,1.478ZM60.239,100.316l3.164.441c2.334.311,3.501,1.815,3.553,4.59,0,.83-.13,1.478-.389,2.075-.259.519-.7.959-1.297,1.219l2.204,6.664-2.126-.259-1.867-6.224-1.167-.13.052,5.964-1.997-.259-.13-14.081ZM100.614,134.494c-10.917-7.39-23.235-11.41-38.82-13.796,0-.078,17.167-.13,38.82,11.073v2.723ZM97.321,123.654c.519.259.83.311,1.037.182.182-.182.311-.519.311-1.167l-.052-6.742c0-.519-.13-1.037-.311-1.426s-.519-.778-1.037-1.037l-.778-.441.052,10.191.778.441ZM88.738,119.272c.259.311.519.57.83.7.311.13.648.13.83.052s.389-.441.389-.908l-.052-7.365c0-.441-.13-.908-.389-1.219s-.519-.57-.83-.7c-.311-.13-.648-.13-.83-.052-.259.13-.389.441-.389.908l.052,7.365c0,.441.13.908.389,1.219ZM80.258,116.16c.259.311.57.519.908.648s.648.052.908-.052c.259-.104.389-.441.389-.959l-.052-7.365c0-.441-.13-.908-.389-1.167-.259-.311-.57-.519-.908-.648-.311-.13-.648-.13-.908.052-.259.13-.389.441-.389.959l.052,7.365c0,.441.13.908.389,1.167ZM64.181,106.929c.182-.052.389-.182.441-.389.13-.182.182-.389.182-.648.052-.259.052-.571.052-.908s0-.648-.052-.959c-.052-.259-.13-.519-.259-.7s-.311-.389-.519-.519c-.182-.13-.519-.182-.908-.259l-1.037-.13.182,4.434,1.089.13c.311.052.648.052.83-.052ZM55.39,102.209c-.259-.259-.57-.389-.959-.389s-.7.052-.959.311c-.259.182-.389.571-.389,1.037l.052,7.365c0,.441.13.83.389,1.089s.57.389.959.389.7-.052.959-.311c.259-.182.389-.57.389-1.037l-.052-7.365c0-.441-.13-.83-.389-1.089ZM46.547,107.966c-.13-.182-.311-.259-.519-.389-.182-.052-.519-.13-.908-.052l-.908.052.104,4.512.83-.052c.389,0,.7-.13.959-.259s.389-.311.519-.519c.13-.182.182-.441.182-.778,0-.259.052-.571.052-.959,0-.311,0-.648-.052-.908-.052-.259-.13-.441-.259-.648ZM45.147,101.976l-.83.052v3.786l.908-.052c.648-.052,1.089-.259,1.348-.571.182-.311.311-.83.311-1.478s-.13-1.089-.389-1.348c-.259-.311-.7-.389-1.348-.389ZM46.495,102.365c-.259-.311-.7-.389-1.348-.389l-.83.052v3.786l.908-.052c.648-.052,1.089-.259,1.348-.571.182-.311.311-.83.311-1.478s-.13-1.089-.389-1.348ZM46.806,108.614c-.052-.259-.13-.441-.259-.648-.13-.182-.311-.259-.519-.389-.182-.052-.519-.13-.908-.052l-.908.052.104,4.512.83-.052c.389,0,.7-.13.959-.259s.389-.311.519-.519c.13-.182.182-.441.182-.778,0-.259.052-.571.052-.959,0-.311,0-.648-.052-.908ZM55.779,103.298c0-.441-.13-.83-.389-1.089-.259-.259-.57-.389-.959-.389s-.7.052-.959.311c-.259.182-.389.571-.389,1.037l.052,7.365c0,.441.13.83.389,1.089s.57.389.959.389.7-.052.959-.311c.259-.182.389-.57.389-1.037l-.052-7.365ZM64.803,104.024c-.052-.259-.13-.519-.259-.7s-.311-.389-.519-.519c-.182-.13-.519-.182-.908-.259l-1.037-.13.182,4.434,1.089.13c.311.052.648.052.83-.052.182-.052.389-.182.441-.389.13-.182.182-.389.182-.648.052-.259.052-.571.052-.908s0-.648-.052-.959ZM82.41,108.433c0-.441-.13-.908-.389-1.167-.259-.311-.57-.519-.908-.648-.311-.13-.648-.13-.908.052-.259.13-.389.441-.389.959l.052,7.365c0,.441.13.908.389,1.167.259.311.57.519.908.648s.648.052.908-.052c.259-.104.389-.441.389-.959l-.052-7.365ZM90.735,111.752c0-.441-.13-.908-.389-1.219s-.519-.57-.83-.7c-.311-.13-.648-.13-.83-.052-.259.13-.389.441-.389.908l.052,7.365c0,.441.13.908.389,1.219s.519.57.83.7c.311.13.648.13.83.052s.389-.441.389-.908l-.052-7.365ZM98.618,115.927c0-.519-.13-1.037-.311-1.426s-.519-.778-1.037-1.037l-.778-.441.052,10.191.778.441c.519.259.83.311,1.037.182.182-.182.311-.519.311-1.167l-.052-6.742ZM98.618,115.927c0-.519-.13-1.037-.311-1.426s-.519-.778-1.037-1.037l-.778-.441.052,10.191.778.441c.519.259.83.311,1.037.182.182-.182.311-.519.311-1.167l-.052-6.742ZM90.735,111.752c0-.441-.13-.908-.389-1.219s-.519-.57-.83-.7c-.311-.13-.648-.13-.83-.052-.259.13-.389.441-.389.908l.052,7.365c0,.441.13.908.389,1.219s.519.57.83.7c.311.13.648.13.83.052s.389-.441.389-.908l-.052-7.365ZM82.41,108.433c0-.441-.13-.908-.389-1.167-.259-.311-.57-.519-.908-.648-.311-.13-.648-.13-.908.052-.259.13-.389.441-.389.959l.052,7.365c0,.441.13.908.389,1.167.259.311.57.519.908.648s.648.052.908-.052c.259-.104.389-.441.389-.959l-.052-7.365ZM64.803,104.024c-.052-.259-.13-.519-.259-.7s-.311-.389-.519-.519c-.182-.13-.519-.182-.908-.259l-1.037-.13.182,4.434,1.089.13c.311.052.648.052.83-.052.182-.052.389-.182.441-.389.13-.182.182-.389.182-.648.052-.259.052-.571.052-.908s0-.648-.052-.959ZM55.779,103.298c0-.441-.13-.83-.389-1.089-.259-.259-.57-.389-.959-.389s-.7.052-.959.311c-.259.182-.389.571-.389,1.037l.052,7.365c0,.441.13.83.389,1.089s.57.389.959.389.7-.052.959-.311c.259-.182.389-.57.389-1.037l-.052-7.365ZM46.806,108.614c-.052-.259-.13-.441-.259-.648-.13-.182-.311-.259-.519-.389-.182-.052-.519-.13-.908-.052l-.908.052.104,4.512.83-.052c.389,0,.7-.13.959-.259s.389-.311.519-.519c.13-.182.182-.441.182-.778,0-.259.052-.571.052-.959,0-.311,0-.648-.052-.908ZM46.495,102.365c-.259-.311-.7-.389-1.348-.389l-.83.052v3.786l.908-.052c.648-.052,1.089-.259,1.348-.571.182-.311.311-.83.311-1.478s-.13-1.089-.389-1.348ZM46.495,102.365c-.259-.311-.7-.389-1.348-.389l-.83.052v3.786l.908-.052c.648-.052,1.089-.259,1.348-.571.182-.311.311-.83.311-1.478s-.13-1.089-.389-1.348ZM46.806,108.614c-.052-.259-.13-.441-.259-.648-.13-.182-.311-.259-.519-.389-.182-.052-.519-.13-.908-.052l-.908.052.104,4.512.83-.052c.389,0,.7-.13.959-.259s.389-.311.519-.519c.13-.182.182-.441.182-.778,0-.259.052-.571.052-.959,0-.311,0-.648-.052-.908ZM55.779,103.298c0-.441-.13-.83-.389-1.089-.259-.259-.57-.389-.959-.389s-.7.052-.959.311c-.259.182-.389.571-.389,1.037l.052,7.365c0,.441.13.83.389,1.089s.57.389.959.389.7-.052.959-.311c.259-.182.389-.57.389-1.037l-.052-7.365ZM64.803,104.024c-.052-.259-.13-.519-.259-.7s-.311-.389-.519-.519c-.182-.13-.519-.182-.908-.259l-1.037-.13.182,4.434,1.089.13c.311.052.648.052.83-.052.182-.052.389-.182.441-.389.13-.182.182-.389.182-.648.052-.259.052-.571.052-.908s0-.648-.052-.959ZM82.41,108.433c0-.441-.13-.908-.389-1.167-.259-.311-.57-.519-.908-.648-.311-.13-.648-.13-.908.052-.259.13-.389.441-.389.959l.052,7.365c0,.441.13.908.389,1.167.259.311.57.519.908.648s.648.052.908-.052c.259-.104.389-.441.389-.959l-.052-7.365ZM82.41,108.433c0-.441-.13-.908-.389-1.167-.259-.311-.57-.519-.908-.648-.311-.13-.648-.13-.908.052-.259.13-.389.441-.389.959l.052,7.365c0,.441.13.908.389,1.167.259.311.57.519.908.648s.648.052.908-.052c.259-.104.389-.441.389-.959l-.052-7.365ZM64.803,104.024c-.052-.259-.13-.519-.259-.7s-.311-.389-.519-.519c-.182-.13-.519-.182-.908-.259l-1.037-.13.182,4.434,1.089.13c.311.052.648.052.83-.052.182-.052.389-.182.441-.389.13-.182.182-.389.182-.648.052-.259.052-.571.052-.908s0-.648-.052-.959ZM55.779,103.298c0-.441-.13-.83-.389-1.089-.259-.259-.57-.389-.959-.389s-.7.052-.959.311c-.259.182-.389.571-.389,1.037l.052,7.365c0,.441.13.83.389,1.089s.57.389.959.389.7-.052.959-.311c.259-.182.389-.57.389-1.037l-.052-7.365ZM46.806,108.614c-.052-.259-.13-.441-.259-.648-.13-.182-.311-.259-.519-.389-.182-.052-.519-.13-.908-.052l-.908.052.104,4.512.83-.052c.389,0,.7-.13.959-.259s.389-.311.519-.519c.13-.182.182-.441.182-.778,0-.259.052-.571.052-.959,0-.311,0-.648-.052-.908ZM46.495,102.365c-.259-.311-.7-.389-1.348-.389l-.83.052v3.786l.908-.052c.648-.052,1.089-.259,1.348-.571.182-.311.311-.83.311-1.478s-.13-1.089-.389-1.348ZM46.495,102.365c-.259-.311-.7-.389-1.348-.389l-.83.052v3.786l.908-.052c.648-.052,1.089-.259,1.348-.571.182-.311.311-.83.311-1.478s-.13-1.089-.389-1.348ZM46.806,108.614c-.052-.259-.13-.441-.259-.648-.13-.182-.311-.259-.519-.389-.182-.052-.519-.13-.908-.052l-.908.052.104,4.512.83-.052c.389,0,.7-.13.959-.259s.389-.311.519-.519c.13-.182.182-.441.182-.778,0-.259.052-.571.052-.959,0-.311,0-.648-.052-.908ZM55.779,103.298c0-.441-.13-.83-.389-1.089-.259-.259-.57-.389-.959-.389s-.7.052-.959.311c-.259.182-.389.571-.389,1.037l.052,7.365c0,.441.13.83.389,1.089s.57.389.959.389.7-.052.959-.311c.259-.182.389-.57.389-1.037l-.052-7.365ZM64.803,104.024c-.052-.259-.13-.519-.259-.7s-.311-.389-.519-.519c-.182-.13-.519-.182-.908-.259l-1.037-.13.182,4.434,1.089.13c.311.052.648.052.83-.052.182-.052.389-.182.441-.389.13-.182.182-.389.182-.648.052-.259.052-.571.052-.908s0-.648-.052-.959ZM64.803,104.024c-.052-.259-.13-.519-.259-.7s-.311-.389-.519-.519c-.182-.13-.519-.182-.908-.259l-1.037-.13.182,4.434,1.089.13c.311.052.648.052.83-.052.182-.052.389-.182.441-.389.13-.182.182-.389.182-.648.052-.259.052-.571.052-.908s0-.648-.052-.959ZM55.779,103.298c0-.441-.13-.83-.389-1.089-.259-.259-.57-.389-.959-.389s-.7.052-.959.311c-.259.182-.389.571-.389,1.037l.052,7.365c0,.441.13.83.389,1.089s.57.389.959.389.7-.052.959-.311c.259-.182.389-.57.389-1.037l-.052-7.365ZM46.806,108.614c-.052-.259-.13-.441-.259-.648-.13-.182-.311-.259-.519-.389-.182-.052-.519-.13-.908-.052l-.908.052.104,4.512.83-.052c.389,0,.7-.13.959-.259s.389-.311.519-.519c.13-.182.182-.441.182-.778,0-.259.052-.571.052-.959,0-.311,0-.648-.052-.908ZM46.495,102.365c-.259-.311-.7-.389-1.348-.389l-.83.052v3.786l.908-.052c.648-.052,1.089-.259,1.348-.571.182-.311.311-.83.311-1.478s-.13-1.089-.389-1.348ZM46.495,102.365c-.259-.311-.7-.389-1.348-.389l-.83.052v3.786l.908-.052c.648-.052,1.089-.259,1.348-.571.182-.311.311-.83.311-1.478s-.13-1.089-.389-1.348ZM46.806,108.614c-.052-.259-.13-.441-.259-.648-.13-.182-.311-.259-.519-.389-.182-.052-.519-.13-.908-.052l-.908.052.104,4.512.83-.052c.389,0,.7-.13.959-.259s.389-.311.519-.519c.13-.182.182-.441.182-.778,0-.259.052-.571.052-.959,0-.311,0-.648-.052-.908ZM46.806,108.614c-.052-.259-.13-.441-.259-.648-.13-.182-.311-.259-.519-.389-.182-.052-.519-.13-.908-.052l-.908.052.104,4.512.83-.052c.389,0,.7-.13.959-.259s.389-.311.519-.519c.13-.182.182-.441.182-.778,0-.259.052-.571.052-.959,0-.311,0-.648-.052-.908ZM46.495,102.365c-.259-.311-.7-.389-1.348-.389l-.83.052v3.786l.908-.052c.648-.052,1.089-.259,1.348-.571.182-.311.311-.83.311-1.478s-.13-1.089-.389-1.348Z"/>
      <path d="M17.996,152.077l2.852-4.331c2.515,1.815,5.186,2.775,7.313,2.775,1.867,0,2.775-.7,2.775-1.737v-.052c0-1.426-2.256-1.867-4.797-2.723-3.241-.959-6.924-2.463-6.924-7.002v-.052c0-4.72,3.812-7.365,8.48-7.365,2.982,0,6.146.959,8.661,2.723l-2.515,4.538c-2.334-1.348-4.59-2.204-6.275-2.204-1.608,0-2.463.7-2.463,1.608v.052c0,1.297,2.204,1.867,4.72,2.775,3.241,1.089,7.053,2.645,7.053,6.924v.052c0,5.186-3.89,7.494-8.869,7.494-3.345.026-6.976-1.063-10.01-3.475Z"/>
      <path d="M39.726,146.968v-15.066h6.613v12.94c0,3.112,1.478,4.72,4.019,4.72s4.149-1.608,4.149-4.72v-12.94h6.613v23.235h-6.613v-3.293c-1.478,1.945-3.501,3.76-6.794,3.76-5.057-.026-7.987-3.319-7.987-8.635Z"/>
      <path d="M64.984,131.902h6.587v3.293c1.478-1.945,3.501-3.76,6.794-3.76,4.979,0,7.883,3.293,7.883,8.609v15.066h-6.613v-12.94c0-3.112-1.478-4.72-4.019-4.72-2.515,0-4.149,1.608-4.149,4.72v12.94h-6.613v-23.235h.13v.026Z"/>
      <rect x="4.848" y="57.66" width="8.661" height="2.723"/>
      <rect x="4.848" y="64.143" width="8.661" height="2.723"/>
      <rect x="4.848" y="70.6" width="8.661" height="2.723"/>
      <rect x="16.181" y="54.885" width="3.942" height="3.241"/>
      <rect x="16.181" y="61.731" width="3.942" height="3.241"/>
      <rect x="16.181" y="68.655" width="3.942" height="3.241"/>
      <rect x="75.46" y="63.884" width=".311" height="2.723"/>
      <rect x="69.833" y="54.807" width=".311" height="2.723"/>
      <rect x="75.979" y="54.807" width=".311" height="2.723"/>
      <rect x="64.776" y="57.401" width="12.888" height=".311"/>
      <rect x="68.018" y="54.626" width="9.647" height=".311"/>
      <rect x="69.833" y="63.884" width=".311" height="2.723"/>
      <rect x="64.724" y="66.477" width="11.643" height=".311"/>
      <rect x="68.018" y="63.676" width="9.569" height=".311"/>
    </g>
  </g>
</svg>