<?xml version="1.0" encoding="UTF-8"?>
<svg id="b" data-name="Layer 2" xmlns="http://www.w3.org/2000/svg" width="446.412" height="97.251" viewBox="0 0 446.412 97.251">
  <g id="c" data-name="Layer 2">
    <g>
      <path d="M93.963,49.289l1.196,3.995-.451,1.125c-7.02,6.016-13.773,12.78-23.583,13.658-6.011.538-14.702.535-19.177-4.023,8.142-15.601,25.863-19.453,42.015-14.756Z"/>
      <path d="M133.035,12.19c1.229,17.976-11.467,29.215-27.376,34.332l-4.003-2.757c2.329-11.013,5.761-20.152,15.395-26.686,4.295-2.912,10.811-6.283,15.983-4.889Z"/>
      <path d="M95.651,54.788c3.382,1.032,4.372.981,4.937,4.633.753,4.868.798,14.453-.615,19.135-2.077,6.88-9.525,16.401-16.541,18.695-9.234-15.354-.802-32.503,12.219-42.464Z"/>
      <path d="M21.163,39.103c2.833-.059,7.166.586,9.976,1.285,2.414.6,10.67,3.863,12.452,5.239,1.3,1.004,1.459,4.14.679,5.422-.62,1.019-10.764,5.235-12.552,5.746-10.992,3.143-23.766.444-31.718-7.884,5.312-5.77,13.213-9.641,21.163-9.808Z"/>
      <path d="M149.417,53.292c-1.354,1.529-8.52,5.385-10.66,6.102-11.888,3.98-22.979-.439-33.049-6.62l.053-4.411c13.847-8.863,32.354-9.237,44.169,3.274.249.574-.136,1.229-.513,1.655Z"/>
      <path d="M100.706,43.08l-4.825,1.264c-4.585-6.86-10.88-13.508-11.638-22.184-.628-7.187.187-16.59,5.208-22.16,15.149,9.983,17.228,26.926,11.254,43.08Z"/>
      <path d="M63.898,24.481c1.676,1.605,9.632,11.773,9.284,13.388-.152.708-2.069,1.876-1.828,3.343-16.09,1.478-34.956-7.725-37.171-24.855,11.419-2.045,21.324.089,29.715,8.124Z"/>
      <path d="M128.788,91.146c-17.125-2.324-26.756-17.452-27.402-33.811-.063-1.589,2.941-3.995,4.264-3.632.567.155,4.114,2.373,5.063,2.93,13.079,7.684,20.712,18.838,18.075,34.513Z"/>
      <path d="M332.822,64.427l-4.189-.085c-1.213-.749-.896-24.288-.155-27.551l4.347-.357.308,3.052c4.297-3.851,13.116-5.161,15.578,1.207h.899c6.714-7.651,16.355-5.93,17.401,5.186.318,3.386.568,14.019.011,17.028-.128.692-.21,1.231-1,1.435l-3.886.085v-20.992c0-.153-1.556-2.161-1.974-2.336-2.215-.925-10.24-.062-10.24,2.336v20.079c-1.182,1.421-3.792,1.364-4.886,0v-20.079c0-3.294-6.988-3.124-9.327-1.991-.579.28-2.887,2.37-2.887,2.6v20.384Z"/>
      <path d="M260.759,64.427l-4.189-.085c-.316-.644-.542-1.376-.633-2.092-.63-4.921-.688-18.799-.094-23.713.442-3.651,5.437-2.823,5.227.948,3.38-2.855,6.343-3.722,10.843-2.904,3.416.621,3.248,2.797,5.634,4.114,2.303-4.739,11.047-5.863,14.677-2.448.423.398,2.123,3.128,2.123,3.361v22.818h-4.275v-20.384c0-.217-1.43-2.203-1.783-2.483-2.158-1.712-8.241-1.017-9.867,1.219-1.758,2.418.224,16.765-.649,20.65l-.914.913-3.886.085v-20.992c0-4.263-12.214-3.242-12.214.608v20.384Z"/>
      <path d="M378.014,25.485v13.386c1.975-.272,2.372-2.044,4.615-2.399,9.836-1.554,13.296,3.375,13.735,12.41.325,6.687-.292,14.481-8.342,15.476-4.318.534-7.004.233-10.002-2.973l-.003,3.045-4.192-.088-.703-37.334,1.005-1.439,3.887-.085ZM381.503,40.826c-1.834.408-3.169,2.047-3.453,3.861-.373,2.381-.311,10.723.527,12.789,1.524,3.756,9.867,3.729,11.942.851,1.295-1.796,1.366-12.365.657-14.621-1.098-3.495-6.68-3.546-9.673-2.881Z"/>
      <path d="M249.766,52.257h-16.489c-1.194,7.108,3.601,9.209,9.948,7.782,2.466-.554,2.954-3.68,5.032-2.341,3.232,2.082-1.429,5.459-3.646,6.156-5.964,1.875-14.127.716-15.801-6.233-1.371-5.692-1.694-17.952,4.902-20.447,11.054-4.18,19.472,3.972,16.055,15.083ZM233.277,48.607h11.298c1.37,0,2.089-7.363-3.624-7.945-6.36-.647-8.191,1.71-7.674,7.945Z"/>
      <path d="M321.829,52.257h-16.489c-1.196,7.105,3.604,9.212,9.948,7.782,2.83-.638,2.827-4.231,5.647-1.694,1.998,1.797-2.743,5.317-4.584,5.796-5.891,1.53-13.948.148-15.479-6.521-.699-3.047-.739-9.222-.441-12.383.688-7.293,5.879-9.253,12.571-8.823,8.592.553,10.801,8.441,8.827,15.843ZM317.554,48.607c2.302-11.171-14.477-10.904-12.214,0h12.214Z"/>
      <path d="M406.106,52.257c-1.428,7.136,3.678,9.195,9.948,7.782,2.96-.667,3.237-4.997,6.468-.788-3.645,7.47-18.479,7.299-20.89-1.014-.98-3.379-.863-14.755.903-17.753,2.537-4.308,9.558-4.905,13.972-3.761,7.337,1.902,8.245,15.534,5.173,15.534h-15.573ZM406.106,48.607h11.298c2.355-4.166-.022-7.73-4.865-7.942-6.307-.276-6.741,2.057-6.433,7.942Z"/>
      <path d="M178.924,37.35l1.011-.819,3.606.479.571,2.466c2.756-3.612,10.848-4.361,14.003-1.168.472.478,2.184,3.482,2.184,3.909v22.209l-4.278.003c-.19-4.342.258-8.77.028-13.11-.106-1.996-.339-6.152-.649-7.872-.789-4.366-9.029-3.242-11.288-.322l-.387,20.303-.914.913-3.886.085v-27.077Z"/>
      <path d="M207.017,37.35l1.011-.817,3.878-.099.309,3.051c3.723-3.329,7.715-3.852,12.513-2.433l-1.321,3.541c-2.444-.12-11.503-.173-11.503,3.449v19.471c-1.182,1.421-3.792,1.364-4.886,0v-26.164Z"/>
      <path d="M428.702,37.35l1.011-.819,3.607.48.579,2.475c3.763-2.968,7.828-3.961,12.513-2.433l-1.798,3.965c-2.244-.19-4.668-.72-6.93-.194-.229.053-4.096,2.072-4.096,2.307v20.688c-1.008.476-4.886,1.125-4.886-.304v-26.164Z"/>
      <path d="M171.596,64.427l-3.875-.096-1.01-.817v-26.164c1.182-1.421,3.792-1.364,4.886,0v27.077Z"/>
      <path d="M171.598,25.482l-.01,4.255-4.287.359c-.941-.685-.75-3.002-.323-4.043l4.62-.571Z"/>
    </g>
  </g>
</svg>