<svg width="72" height="45" viewBox="0 0 72 45" fill="none" xmlns="http://www.w3.org/2000/svg">
<path d="M32.6228 29.4244C32.6228 20.8237 26.3772 14.1691 18.2295 14.1691C14.3299 14.1691 10.7792 15.613 8.17948 18.5008H7.16497C8.87695 12.7566 14.425 7.73424 21.6534 5.7567C22.6679 5.4428 23.4288 5.1603 23.8727 4.72084C24.4116 4.28139 24.697 3.71638 24.697 2.93164C24.697 1.51911 23.5556 0.514648 21.9388 0.514648C20.7023 0.514648 19.8146 0.734375 18.2295 1.23661C13.9495 2.64914 10.05 5.09752 6.97475 8.29925C2.56798 12.8193 0 18.8461 0 25.8146C0 37.9309 7.70393 44.9308 16.9613 44.9308C25.9017 44.9308 32.6228 38.2762 32.6228 29.4244ZM71.8082 29.4244C71.8082 20.8237 65.5309 14.1691 57.4149 14.1691C53.5153 14.1691 49.9329 15.613 47.3649 18.5008H46.3187C48.0624 12.7566 53.5788 7.73424 60.8071 5.7567C61.8216 5.4428 62.6142 5.1603 63.0581 4.72084C63.597 4.28139 63.8507 3.71638 63.8507 2.93164C63.8507 1.51911 62.741 0.514648 61.1242 0.514648C59.856 0.514648 59 0.734375 57.3832 1.23661C53.1349 2.64914 49.2037 5.09752 46.1285 8.29925C41.7534 12.8193 39.1854 18.8461 39.1854 25.8146C39.1854 37.9309 46.8893 44.9308 56.115 44.9308C65.0871 44.9308 71.8082 38.2762 71.8082 29.4244Z" fill="#009245"/>
</svg>
